<svg xmlns="http://www.w3.org/2000/svg" xmlns:xlink="http://www.w3.org/1999/xlink" width="58.561" height="81.373" viewBox="0 0 58.561 81.373">
  <defs>
    <clipPath id="clip-path">
      <rect id="Rectangle_1172" data-name="Rectangle 1172" width="58.561" height="81.373" transform="translate(-9 -14)" fill="#412e19" stroke="#412e19" stroke-width="1"/>
    </clipPath>
  </defs>
  <g id="Group_2303" data-name="Group 2303" transform="translate(9 14)">
    <g id="Group_2302" data-name="Group 2302" clip-path="url(#clip-path)">
      <path id="Path_3647" data-name="Path 3647" d="M23.219,128.8a22.372,22.372,0,0,1,10.415,3.387,8.331,8.331,0,0,1,3.926,6.95v13.4a.618.618,0,0,1-.617.617H.618A.618.618,0,0,1,0,152.534v-13.4a8.339,8.339,0,0,1,3.926-6.95A22.457,22.457,0,0,1,14.4,128.794a.613.613,0,0,1,.591.306l3.792,4.147,3.789-4.142a.614.614,0,0,1,.539-.317.455.455,0,0,1,.111.012m9.708,4.4a20.934,20.934,0,0,0-9.559-3.146l-4.127,4.514h0l0,.006-.041.041a.613.613,0,0,1-.865-.041l-4.136-4.52a20.924,20.924,0,0,0-9.556,3.146,7.149,7.149,0,0,0-3.4,5.942v12.78H36.329v-12.78a7.156,7.156,0,0,0-3.4-5.942" transform="translate(0 -102.31)" fill="#412e19" stroke="#412e19" stroke-width="1"/>
      <path id="Path_3648" data-name="Path 3648" d="M68.537,118.938,72.248,123l3.711-4.057v-1.229a7.981,7.981,0,0,1-1.3.658,6.642,6.642,0,0,1-4.829,0,8.091,8.091,0,0,1-1.3-.658Zm3.259,5.38-4.287-4.686a.616.616,0,0,1-.2-.457V116.5a.618.618,0,0,1,1.011-.475,7.309,7.309,0,0,0,1.969,1.2,5.108,5.108,0,0,0,1.954.373h.017a5.1,5.1,0,0,0,1.954-.373,7.4,7.4,0,0,0,1.948-1.177.614.614,0,0,1,1.031.454v2.674h0a.607.607,0,0,1-.16.414l-4.319,4.724h0l0,.006-.041.041a.612.612,0,0,1-.865-.041" transform="translate(-53.467 -92.058)" fill="#412e19" stroke="#412e19" stroke-width="1"/>
      <path id="Path_3649" data-name="Path 3649" d="M54.294,85.044a8.115,8.115,0,0,1-6.1-3.215,15.748,15.748,0,0,1-3.483-7.756.616.616,0,0,1,.518-.7.6.6,0,0,1,.28.023,33.319,33.319,0,0,0,4.13.7,44.948,44.948,0,0,0,9.312,0,33.358,33.358,0,0,0,4.174-.711.613.613,0,0,1,.74.454.586.586,0,0,1,.012.236A15.77,15.77,0,0,1,60.4,81.828a8.125,8.125,0,0,1-6.1,3.215M49.127,81.03a6.95,6.95,0,0,0,5.158,2.787H54.3a6.951,6.951,0,0,0,5.158-2.787A14.475,14.475,0,0,0,62.5,74.783c-1.063.221-2.208.4-3.416.533a45.81,45.81,0,0,1-9.571,0C48.3,75.185,47.156,75,46.1,74.783a14.436,14.436,0,0,0,3.032,6.247" transform="translate(-35.514 -58.28)" fill="#412e19" stroke="#412e19" stroke-width="1"/>
      <path id="Path_3650" data-name="Path 3650" d="M38.924,6.853A16.992,16.992,0,0,1,43.8,8.659c1.381.836,2.164,1.841,2.164,2.953,0,1.692-1.867,3.157-4.884,4.159a36.157,36.157,0,0,1-10.963,1.514A36.157,36.157,0,0,1,19.15,15.772c-3.017-1-4.884-2.467-4.884-4.159,0-1.113.786-2.117,2.164-2.953a16.98,16.98,0,0,1,4.876-1.806V5.784A5.8,5.8,0,0,1,27.09,0h6.047a5.8,5.8,0,0,1,5.787,5.784Zm4.238,2.857a16.481,16.481,0,0,0-4.948-1.753.618.618,0,0,1-.524-.609V5.784a4.564,4.564,0,0,0-4.552-4.553H27.09a4.564,4.564,0,0,0-4.552,4.553V7.348a.615.615,0,0,1-.489.6,16.661,16.661,0,0,0-4.983,1.762c-1,.6-1.564,1.255-1.564,1.9,0,1.1,1.541,2.164,4.037,2.994a34.976,34.976,0,0,0,10.576,1.448,35.01,35.01,0,0,0,10.579-1.448c2.493-.83,4.037-1.893,4.037-2.994,0-.647-.568-1.3-1.567-1.9" transform="translate(-11.333)" fill="#412e19" stroke="#412e19" stroke-width="1"/>
      <path id="Path_3651" data-name="Path 3651" d="M48.506,33.356a.616.616,0,1,1,1.232,0v3.108a.616.616,0,1,1-1.232,0Z" transform="translate(-38.533 -26.008)" fill="#412e19" stroke="#412e19" stroke-width="1"/>
      <path id="Path_3652" data-name="Path 3652" d="M128.193,33.356a.618.618,0,0,1,1.235,0v3.108a.618.618,0,0,1-1.235,0Z" transform="translate(-101.837 -26.008)" fill="#412e19" stroke="#412e19" stroke-width="1"/>
      <path id="Path_3653" data-name="Path 3653" d="M77.846,152.859a6.564,6.564,0,0,1-.011,11.362.574.574,0,0,1-.588-.006,6.564,6.564,0,0,1,.011-11.362.574.574,0,0,1,.588.006m1.4,2.977a5.427,5.427,0,0,0-1.7-1.8,5.405,5.405,0,0,0,0,9.008,5.422,5.422,0,0,0,1.7-7.205" transform="translate(-58.765 -121.365)" fill="#412e19" stroke="#412e19" stroke-width="1"/>
      <path id="Path_3654" data-name="Path 3654" d="M98.47,201.925A5.4,5.4,0,0,0,93.5,200.76a5.41,5.41,0,0,0-3.724,3.5,5.411,5.411,0,0,0,7.394-.227,5.474,5.474,0,0,0,1.305-2.1m-1.883-2.285a6.6,6.6,0,0,1,2.923,1.675.579.579,0,0,1,.175.586,6.559,6.559,0,0,1-10.954,2.966.576.576,0,0,1-.178-.583,6.615,6.615,0,0,1,1.7-2.947,6.578,6.578,0,0,1,6.332-1.7" transform="translate(-70.332 -158.418)" fill="#412e19" stroke="#412e19" stroke-width="1"/>
      <path id="Path_3655" data-name="Path 3655" d="M89.693,192.946a.579.579,0,1,1-1.158,0V173.714a.579.579,0,1,1,1.158,0Z" transform="translate(-70.333 -137.538)" fill="#412e19" stroke="#412e19" stroke-width="1"/>
      <path id="Path_3656" data-name="Path 3656" d="M40.019,201.315a6.605,6.605,0,0,1,2.923-1.675,6.568,6.568,0,0,1,8.034,4.644.581.581,0,0,1-.178.583,6.61,6.61,0,0,1-2.923,1.677,6.57,6.57,0,0,1-6.329-1.7,6.609,6.609,0,0,1-1.7-2.947.586.586,0,0,1,.178-.586m3.221-.558a5.447,5.447,0,0,0-2.181,1.168,5.443,5.443,0,0,0,1.305,2.1,5.406,5.406,0,0,0,7.394.227,5.41,5.41,0,0,0-6.518-3.5" transform="translate(-31.634 -158.418)" fill="#412e19" stroke="#412e19" stroke-width="1"/>
      <path id="Path_3657" data-name="Path 3657" d="M49.652,266.677a15.874,15.874,0,0,1,7.274,1.625c2.011,1.059,3.328,2.567,3.514,4.28a.574.574,0,0,1-.512.635.493.493,0,0,1-.063,0v0H39.44a.578.578,0,0,1-.578-.58.726.726,0,0,1,.008-.11c.208-1.691,1.516-3.18,3.508-4.231a15.89,15.89,0,0,1,7.273-1.625m6.735,2.649a14.676,14.676,0,0,0-6.735-1.489,14.684,14.684,0,0,0-6.734,1.489,5.464,5.464,0,0,0-2.756,2.736h18.98a5.443,5.443,0,0,0-2.756-2.736" transform="translate(-30.872 -211.849)" fill="#412e19" stroke="#412e19" stroke-width="1"/>
    </g>
  </g>
</svg>
