<?xml version="1.0" encoding="utf-8"?>
<!-- Generator: Adobe Illustrator 25.4.1, SVG Export Plug-In . SVG Version: 6.00 Build 0)  -->
<svg version="1.1" id="Layer_1" xmlns="http://www.w3.org/2000/svg" xmlns:xlink="http://www.w3.org/1999/xlink" x="0px" y="0px"
	 viewBox="0 0 282.4 157.8" style="enable-background:new 0 0 282.4 157.8;" xml:space="preserve">
<style type="text/css">
	.st0{fill:#A87900;}
	.st1{fill:#8F4700;}
	.st2{fill:#A0A300;}
	.st3{fill:#947E00;}
</style>
<path class="st0" d="M127.9,101.3c-0.2,0-0.4,0-0.5-0.1c0.1-0.1,0.2-0.1,0.4-0.1c0.1,0.1,0.2,0.1,0.3,0h0.1v0.1
	c0.1-0.1,0.3-0.2,0.6-0.2c0.3,0.1,0.5,0.1,0.5,0c-0.1,0.1-0.2,0.2-0.4,0.1c-0.1,0-0.2,0.1-0.4,0.2c-0.1,0-0.2,0-0.3-0.1
	C128.2,101.2,128,101.2,127.9,101.3L127.9,101.3z M127.8,107.5l0.2-0.1C128,107.5,128,107.5,127.8,107.5z M128.1,105.3l0.2,0.1
	L128.1,105.3C128,105.3,128,105.3,128.1,105.3z M128,105.9L128,105.9L128,105.9L128,105.9z M128.1,105.6L128.1,105.6
	C128.2,105.6,128.2,105.7,128.1,105.6C128,105.7,128,105.6,128.1,105.6z M174.8,101.8c-0.2,0.2-0.3,0.7-0.3,1.4
	c0,0.1-0.1,0.2-0.2,0.3c-0.1,0.1-0.1,0.4-0.1,0.8c-0.2,0.1-0.4,0.3-0.7,0.8l-0.6,1h-0.1l-0.6,0.6c-0.1,0.2-0.2,0.3-0.3,0.3
	c-0.1,0.1-0.1,0.1-0.2,0.1c-0.1,0-0.2,0-0.2,0.1h-0.1l-0.2,0.1c-0.2,0.2-0.4,0.3-0.6,0.4l-0.6-0.1l-0.3,0.1l-0.2-0.2
	c-0.1-0.1-0.2-0.2-0.3-0.2h-0.2c-0.1,0.1-0.2,0.1-0.3,0c0-0.7-0.2-0.9-0.5-0.4c-0.1,0.2-0.2,0.2-0.4-0.1c-0.1-0.2-0.2-0.3-0.5-0.3
	h-0.5c-0.1,0-0.2,0-0.3-0.1c-0.1-0.1-0.2-0.1-0.5-0.1h-0.3c-0.1,0.1-0.2,0-0.4-0.1c-0.1,0.1-0.2,0.1-0.3,0h-0.3h-0.3h-0.6
	c-0.2,0.1-0.5,0-0.8-0.1c-0.2,0.1-0.6,0.1-1-0.1l-0.3,0.1c-0.2,0-0.3,0-0.4-0.1c-0.1-0.1-0.2-0.1-0.4-0.1l-0.6,0.2l-0.2-0.1
	l-0.5,0.1c-0.1,0-0.2,0-0.3-0.1c-0.1-0.1-0.2-0.1-0.4,0c-0.1-0.1-0.3-0.1-0.8,0c-0.5,0.1-0.9,0.1-1.1,0h-0.3h-0.5
	c-0.2,0.1-0.4,0-0.5-0.1l-0.8,0.1l-0.8-0.1c-0.1,0.1-0.2,0.1-0.5,0.1L153,106c-0.2,0-0.4,0-0.5,0.1c-0.1,0.1-0.3,0.1-0.5,0.1
	l-0.4-0.1l-0.5,0.1h-0.9l-0.9,0.1l-0.4-0.1l-0.2,0.1h-0.1l-0.6,0.6c-0.1,0.1-0.2,0.1-0.3,0.1l-0.2,0.3l-0.3,0.3
	c-0.1,0.1-0.3,0.2-0.5,0.2l-0.7,0.5c-0.2,0.2-0.4,0.3-0.6,0.4c-0.1,0-0.5,0.1-1.2,0.3l-2.3,0.2h-0.2c-0.1-0.1-0.3-0.1-0.6-0.1
	c-0.4,0-0.6,0-0.7-0.1c-0.1,0-0.1,0-0.1-0.1l-0.2-0.1c-0.1-0.1-0.2-0.1-0.4-0.1c-0.2,0-0.4,0-0.5-0.1c-0.2-0.3-0.5-0.6-0.9-0.8
	c-0.6-0.4-0.9-0.6-1-0.6v-0.1l-0.5-0.6h-1.1h-0.1v-0.1h-0.2c-0.2-0.1-0.5-0.1-0.6,0c-0.2,0.1-0.5,0.1-0.6,0
	c-0.1-0.1-0.2-0.1-0.3-0.1c-0.1,0-0.1,0-0.1,0.1h-0.2v-0.1l-0.2-0.1c-0.1,0.1-0.2,0.1-0.3,0.1c-0.2,0-0.3,0-0.4-0.1
	c-0.1-0.1-0.2-0.1-0.3,0c0.2-0.2,0.4-0.5,0.4-0.7c-0.1-0.1-0.2-0.1-0.4-0.1c-0.2,0.1-0.3,0-0.5-0.1c-0.8,0.1-1.3,0.2-1.6,0.1h-0.1
	v0.1h-0.4l-1.5,0.1l1.8-0.3c1.2-0.2,1.8-0.2,1.6-0.2c0.1,0.1,0.5,0.1,1.3,0.1c0.3-0.1,0.4-0.4,0.2-0.7l-0.4-0.2
	c-0.1,0.1-0.3,0.1-0.5,0.1c0-0.1,0-0.1,0-0.2c0-0.1,0-0.2,0-0.2c0.2-0.1,0.5-0.1,0.9-0.1c0.3,0,0.6-0.1,0.8-0.2
	c0.1,0.1,0.1,0.1,0.2,0h0.1l0.1-0.3l-0.1-0.2c-0.2,0-0.4-0.1-0.7-0.3c-0.4-0.2-0.6-0.2-0.8-0.2l-0.3-0.5c-0.4,0-0.6,0-0.7,0.1v-0.1
	c-0.7,0.1-1.2,0.1-1.5,0c0.1-0.1,0.3-0.1,0.6-0.1c0.2,0.1,0.4,0.1,0.6,0c0-0.1,0-0.2,0.1-0.2c0.2,0.1,0.4,0.1,0.6,0
	c0.2-0.1,0.5-0.1,0.6,0c0.1-0.1,0.1-0.2,0-0.3c0-0.1-0.1-0.1-0.1-0.1h0.2v-0.1h0.5V101l-0.5-0.1l-0.3,0.1c0,0.1,0,0.1-0.1,0
	l-0.2,0.1l-0.2-0.1c-0.1-0.1-0.2-0.1-0.3,0l-0.4,0.2l-0.2-0.2c-0.1-0.1-0.2-0.1-0.4,0l0.2-0.2l0.2,0.1l0.6-0.3
	c0.1-0.1,0.3-0.1,0.6-0.1c0.1-0.1,0.1-0.2,0.1-0.3l-0.1-0.1c-0.2,0-0.3,0-0.4,0.1c0.1,0.1,0.1,0.1,0,0.1l-0.8,0.1
	c-0.1-0.1-0.2-0.2-0.1-0.3c-0.1,0-0.1,0-0.1-0.1l0.2-0.1c0-0.1,0.1-0.2,0.3-0.2c0.1,0.1,0.3,0,0.5-0.2c0.1-0.1,0.1-0.1,0.1,0
	c0-0.1,0.1-0.2,0.2-0.2l-0.1-0.2c-0.1,0-0.1,0,0-0.1c0.1-0.1,0.1-0.1,0.1,0c-0.1,0.1-0.1,0.1,0,0.1c0.1,0,0.1,0,0.1-0.1v-0.1
	c0.1,0.1,0.2,0,0.5-0.1c0.1,0,0.1,0,0-0.1c0.2,0,0.3-0.1,0.5-0.2c0.1,0.1,0.2,0.1,0.3,0l0.1-0.1c0-0.1,0-0.1,0.1,0l0.1,0.1
	c0.1,0,0.1,0,0.1-0.1l-0.1-0.1c0.1-0.1,0.2-0.1,0.3-0.1l0.2,0.1c0.1-0.3,0.2-0.4,0.4-0.2c0-0.1-0.1-0.2-0.2-0.2
	c0.1-0.1,0.1-0.1,0.2,0c0.1,0,0.1,0.1,0.1,0.1l0.7-0.4l0.7-0.3c0.1-0.1,0.1-0.2,0.2-0.1v-0.1v-0.8c-0.1-0.3-0.1-0.6,0-0.8
	c-0.1-0.1-0.1-0.2-0.1-0.4c0-0.2,0.1-0.5,0.2-0.8c-0.1-0.1-0.1-0.2-0.1-0.4c0-0.2,0-0.3,0.1-0.5c0.1-0.2,0-0.4-0.1-0.7
	c-0.1-0.1-0.1-0.2,0-0.4v-0.2l-0.1-0.7c0-0.1,0.1-0.2,0.2-0.3c0.1-0.1,0.1-0.2-0.1-0.4v-0.2l-0.1-0.9c-0.1-0.5-0.1-0.9,0-1.1v-0.1
	V88c-0.1-0.2-0.1-0.5,0-0.6l-0.1-0.9l0.1-0.9c-0.1-0.2-0.1-0.5-0.1-0.9V84v-0.2l-0.2-1l0.1-0.5l-0.1-0.5c0-0.6,0-1-0.1-1.2l-0.1-1
	c-0.1-0.1-0.1-0.1,0-0.2l0.1-0.2c0-0.1-0.1-0.2-0.2-0.3c-0.1-0.2-0.1-0.4,0-0.7v-0.6l-0.3-2.1v-0.4l-0.1-1.4l-0.2-2.4
	c-0.3-1.2-0.4-2.1-0.3-2.7l0.2-0.1l-0.1-0.2c0-0.1,0-0.1,0.1-0.1l0.1-2.2c0-0.1,0-0.1,0.1-0.1c0.1,0.1,0.1,0.1,0.1,0V64v-0.1h-0.1
	l0.2-0.1v-0.1c-0.1,0-0.1,0,0-0.1l-0.1-1.5c0.1-0.1,0.1-0.2,0.1-0.3l-0.1-0.2v-0.1c0-0.1,0-0.1,0.1-0.1c0.1-0.1,0.1-0.2,0.1-0.3
	c-0.1-0.1-0.1-0.2-0.1-0.3l0.1-0.7c0.1,0.2,0.3,0.4,0.7,0.5c0.1-0.1,0.1-0.2,0.1-0.5c-0.1-0.2-0.1-0.4,0-0.5c-0.1-1-0.2-1.6-0.2-1.9
	c0-0.1,0-0.1-0.1-0.1c0.1-0.1,0.1-0.2,0.1-0.5c0-0.4,0-0.6-0.1-0.8c-0.1-0.2-0.1-0.5-0.1-0.8c0.2,0.5,0.3,1.2,0.3,1.9l0.3,2
	l-0.1,0.7l0.1,0.7c0,0.1,0.1,0.2,0.2,0.3c0.2,0.1,0.3,0.1,0.5,0c0.1-0.1,0.1-0.2,0.1-0.3c0-0.2,0-0.3-0.1-0.4
	c-0.1-0.1-0.1-0.2,0-0.4l0.2-0.1c0.1,0,0.2,0,0.3,0.1c0-0.1,0.1,0.3,0.2,1c0,0.4,0.1,0.8,0.2,1c-0.1,0.1-0.1,0.1,0,0.1v0.2
	c0.1,0.1,0.1,0.1,0.3,0.1h0.3v-0.2c0-0.2,0.1-0.5,0.3-0.8c0.1-0.4,0.2-0.7,0.1-0.9l0.5-0.3c0-0.3-0.1-0.6-0.2-0.8
	c0-0.1,0-0.1,0.1-0.1c0,0.1,0,0.1,0.1,0c-0.2-0.7-0.2-1.2-0.1-1.7c0.1,0.2,0.1,0.4,0.1,0.7c-0.1,0.2-0.1,0.5,0,0.7l0.3,0.1
	c-0.1,0.2-0.1,0.5,0,0.8v0.7c0.2,0,0.4-0.1,0.4-0.2l0.1,0.2h0.1v0.5h0.3c-0.1-0.1-0.1-0.2,0-0.4c0.1-0.1,0.1-0.2,0.1-0.3l-0.1-0.2
	c-0.1,0-0.1,0-0.1-0.1l0.1-0.2l-0.1-0.2v-0.1c0.1-0.1,0.1-0.3,0-0.5l-0.1-0.4c0-0.1,0-0.2,0.1-0.3c0.1-0.1,0.1-0.2,0-0.4l0.2,0.2
	v0.3c0,0.1,0.1,0.4,0.2,0.7c0.1,0.2,0.1,0.4,0.1,0.7c0.1,0.1,0.2,0,0.5-0.1l-0.1-0.4c-0.1-0.1-0.1-0.1-0.1,0c0,0.1,0,0.1-0.1,0
	l-0.1-1l0.2-0.1h0.1l0.1-0.1l0.1,0.2c0.1,0.1,0.2,0.2,0.2,0.4c-0.1,0.1-0.1,0.2,0,0.3c0.2,0.2,0.2,0.3,0.2,0.4
	c-0.1-0.1-0.2-0.1-0.3-0.1l-0.2,0.4c0.1,0.1,0.1,0.1,0.2,0h0.1c-0.1,0.1-0.1,0.2,0,0.3l0.1,0.4h0.3c0.1-0.1,0.1-0.2,0-0.3
	c-0.1-0.1-0.1-0.1,0-0.2c-0.1-0.1-0.2-0.3-0.2-0.5c0.1,0.1,0.1,0.1,0.2,0l0.1,0.1c0.1,0.1,0.1,0.1,0.2,0c0-0.1,0-0.1,0.1,0
	c-0.1,0-0.1,0-0.1,0.1c0,0.1,0.1,0.1,0.2,0.1c-0.1,0.2-0.1,0.3,0,0.4V61c0.1,0.1,0.1,0.1,0.1,0c0-0.1,0-0.1,0.1,0
	c-0.1,0.1-0.1,0.1,0,0.2c0,0.1,0.1,0.2,0.2,0.2c-0.1,0.1-0.1,0.2,0,0.3c0.1,0.1,0.1,0.2,0,0.4c0,0.1,0,0.1,0.1,0
	c0.1,0,0.1,0,0.1,0.1l0.1,0.2c-0.1,0.1-0.1,0.2,0,0.3c0.1,0.1,0.1,0.3,0.1,0.5c0.1,0,0.2-0.1,0.2-0.2c0.1,0,0.1,0.1,0,0.3
	c0,0.2,0.1,0.4,0.3,0.7l0.4,0.9c0,0.1,0,0.1,0.1,0.1c0.1,0,0.1,0,0,0.1h0.1c0,0.8,0.1,1.2,0.4,1.3l-0.2,0.1l0.1,0.2
	c0,0.1,0.1,0.2,0.2,0.2v0.3c0,0.4,0.1,0.6,0.2,0.7l-0.2,0.2c0.2,0.2,0.3,0.5,0.1,0.6c0.2,0.9,0.4,2,0.5,3.4c0.2,1.6,0.3,2.8,0.5,3.4
	l-0.1,0.4c0,0.2,0.1,0.6,0.3,1.4v0.2c0,0.1,0,0.2,0.1,0.3c0,1.2,0.1,1.9,0.3,2.2v0.3l0.1,1.3c0.1,0.1,0.1,0.2,0.1,0.3
	c-0.1,0.1-0.1,0.2-0.1,0.3l0.2,0.3c0,0.2,0,0.3-0.1,0.5c-0.1,0.2-0.1,0.4,0,0.5l0.2,0.5v0.8c0,0.4,0.1,0.8,0.2,1.2v0.2
	c-0.1,0.1-0.1,0.2,0,0.4l0.1,0.2c0.1,0.1,0.1,0.3,0.1,0.5c-0.1,0.2-0.1,0.4,0,0.5l0.1,0.2c-0.1,0.1-0.1,0.2-0.1,0.3
	c0,0.2,0,0.4,0.1,0.5c0.1,0.2,0.1,0.3,0,0.5c0.2,0.3,0.2,0.8,0.1,1.5c0,0.1,0,0.1,0.1,0.1v0.2c0,0.2,0,0.3,0.1,0.4
	c0.1,0.2,0.1,0.3,0,0.5c0,0.1,0,0.1,0.1,0.1l0.1,0.5c-0.1,0.2-0.1,0.5,0,0.9c0.1,0.4,0.1,0.6,0,0.8c0.1,0.1,0.2,0.3,0.2,0.5v0.5
	c0,0.1,0,0.1,0.1,0.1l0.1,0.2l-0.1,0.3l0.1,0.2l-0.1,0.3l0.1,0.3v0.1c0.5,0,0.9-0.1,1.3-0.2l0.4,0.1c0.2,0,0.3,0,0.5-0.1
	c0.1-0.1,0.3-0.1,0.5-0.1h0.3c0.1,0.1,0.2,0.1,0.3,0l0.2-0.1c0.2,0,0.3,0,0.5,0.1c0.2,0.1,0.3,0.1,0.5,0l0.5-0.2h0.8
	c0.5,0,0.8,0,0.9-0.1h0.2c0.1,0.1,0.1,0.1,0.2,0l0.3-0.1c0.1-0.1,0.2-0.1,0.5-0.1c0.2,0.1,0.3,0.1,0.5,0l0.4,0.1
	c0.2,0,0.3,0,0.5-0.1c0.2-0.1,0.3-0.1,0.5,0c0.1-0.1,0.2-0.1,0.5-0.1V95l0.2-0.8c0.1-0.1,0.1-0.2,0.1-0.4c0-0.1,0-0.2,0.1-0.3
	c-0.1-0.1-0.1-0.2,0-0.4c0.1-0.4,0.2-0.6,0.2-0.7v-0.5c0-0.3,0-0.5,0.1-0.6c-0.1-0.1-0.1-0.2-0.1-0.4l0.3-0.7l-0.1-0.2
	c0-0.1,0.1-0.3,0.2-0.5c0.1-0.1,0.1-0.2,0-0.3v-0.4c-0.1-0.1-0.1-0.2,0-0.3l0.1-0.2l-0.1-0.6c0-0.1,0.1-0.2,0.2-0.3
	c0.1-0.1,0-0.2-0.1-0.3c0.1-0.1,0.1-0.2,0.1-0.5v-0.7c0-0.4,0-0.7,0.1-0.7V85h0.1v-0.2v-0.5c-0.1-0.2,0-0.4,0.1-0.5
	c0-0.9,0-1.4,0.1-1.6v-0.3l0.2-1.2l-0.1-1l0.1-0.4l-0.1-0.6c0.1-0.1,0.1-0.5,0.1-1c0.1-0.1,0.1-0.3,0-0.5c-0.1-0.1-0.1-0.3,0-0.5
	l0.1-0.3l-0.1-0.3l0.1-1.3c0-0.3,0-0.5,0.1-0.7c0-0.4,0-0.8-0.1-1.1c0.1-0.2,0.1-0.5,0.1-0.9c-0.1-0.2-0.1-0.4-0.1-0.6
	c0-0.4,0-0.7,0.1-0.9c0-0.5,0-1-0.1-1.3v-1.2c0-0.5,0-0.9,0.1-1.1L160,67l-0.1-0.2c0-0.1,0-0.1,0.1-0.1c0-0.1,0.1-0.8,0.4-1.9
	c0-0.1,0-0.1,0.1-0.1c0.1-0.6,0.2-1,0.2-1.3c0-0.3,0-0.5,0.1-0.5v-0.1h-0.1c0-0.1,0-0.1,0.1-0.1c0,0.1,0,0.1,0,0c0,0,0-0.1,0-0.1
	c0.1-0.2,0.1-0.4,0.1-0.7c-0.1-0.2-0.1-0.4,0-0.6L161,61v-0.2l-0.1-0.2h0.2c0.1,0,0.1-0.1,0-0.2c-0.1-0.1,0-0.2,0.1-0.5
	c0.1-0.1,0.1-0.2,0.1-0.4c0.1,0.3,0.3,0.5,0.6,0.5c0.1-0.1,0.2-0.3,0.2-0.5c0-0.2,0-0.3,0.1-0.4c-0.1-0.1-0.1-0.3-0.1-0.7
	c0-0.5,0-0.9,0.1-1l-0.1-0.1c0.1-0.1,0.1-0.4,0.1-0.8c-0.1-0.4-0.1-0.7,0-1c0.1,0.3,0.1,0.7,0.1,1.3c-0.1,0.2-0.1,0.6-0.1,1
	c0,0.7,0,1.1,0.1,1.3l-0.1,1.3c0,0.3,0.2,0.4,0.7,0.3c0.1-0.1,0.1-0.2,0.1-0.5c-0.1-0.1-0.1-0.2,0-0.4c0.2-0.1,0.3-0.1,0.5,0v0.5
	c0,0.5,0.1,1,0.2,1.4c-0.1,0-0.1,0.1-0.1,0.3l0.3,0.1h0.3c0-0.2,0.1-0.5,0.4-0.8c0.2-0.3,0.2-0.6,0.2-0.8c0.1-0.1,0.2-0.1,0.3-0.1
	c0.1,0,0.2-0.2,0.3-0.5c0-0.2,0-0.3-0.1-0.4c-0.1-0.1,0-0.1,0.1-0.1l-0.1-0.8c0-0.1,0.1-0.4,0.2-0.7c0.1,0.2,0.1,0.4,0,0.5
	c-0.1,0.2-0.1,0.5,0,0.7l0.2,0.2c-0.1,0.2-0.1,0.4,0,0.5c0,0.3,0,0.5-0.1,0.7c0.1,0.1,0.1,0.1,0.2,0c0.1,0,0.1-0.1,0.1-0.1
	c0.1,0.1,0.1,0.1,0,0.2h0.2c0,0.2,0,0.4-0.1,0.5c0.1,0.1,0.2,0.1,0.3,0.1l0.1-0.5c0.1-0.1,0.1-0.1,0-0.2c-0.1,0-0.1,0-0.1-0.1
	l0.1-0.2l-0.1-0.2h0.1v-0.1c0.1-0.1,0.1-0.2,0-0.4c-0.1-0.1-0.1-0.2-0.1-0.4c0-0.1,0.1-0.2,0.2-0.3c0.1-0.1,0.1-0.2,0.1-0.3l0.1,0.2
	l-0.1,0.2c0,0.1,0.1,0.4,0.2,0.7c0.1,0.2,0.1,0.4,0.1,0.6c0.1,0.1,0.1,0.1,0.2,0h0.2c-0.1-0.1-0.1-0.1,0-0.2l-0.1-0.2
	c-0.1,0.1-0.1,0.1-0.1,0l-0.1-0.9l0.2-0.1l0.2,0.1V59H167l0.1-0.2c-0.1,0-0.1,0,0-0.1c-0.1-0.1-0.1-0.3,0-0.5v-0.4l0.1,0.8
	c0,0.1,0,0.1,0.1,0c0.1,0.1,0.1,0.2,0,0.2l-0.1,0.2c0,0.1,0.1,0.2,0.2,0.3v0.2c-0.1,0.1-0.1,0.2,0,0.3c0.2,0.2,0.2,0.3,0.2,0.4
	c0.1,0,0.2,0,0.2,0.1c0.1,0.1,0.1,0.1,0.2,0c0-0.1,0-0.1,0.1,0c-0.1,0-0.1,0-0.1,0.1c0,0.1,0.1,0.1,0.2,0.1c-0.1,0.2-0.1,0.4,0,0.6
	l0.1-0.1l0.1,0.1c-0.1,0.1-0.1,0.2,0.1,0.4c-0.1,0.1-0.1,0.2,0,0.3c0,0.2,0,0.3-0.1,0.4c0,0.1,0,0.1,0.1,0h0.1
	c0.1,0.1,0.1,0.2,0.1,0.3l-0.1,0.2c0.1,0.1,0.2,0.3,0.2,0.5c0.1,0,0.2-0.1,0.2-0.2c0.1,0.1,0.1,0.1,0,0.1l-0.1,0.2l0.3,0.6
	c0.1,0.4,0.2,0.6,0.2,0.8c0,0.1,0,0.1,0.1,0.1c0.1,0,0.1,0,0,0.1h0.1v0.2v0.5c0,0.2,0.1,0.4,0.3,0.5l-0.2,0.1c0.1,0,0.1,0,0.1,0.1
	c0,0.1,0,0.2,0.1,0.3v0.1v0.4c-0.1,0.2,0,0.3,0.1,0.5l-0.2,0.2l0.1,0.2c0,0.1,0,0.2-0.1,0.3c0.1,0.9,0.2,1.9,0.2,3
	c0,1.6,0,2.7,0.1,3.1c-0.1,0.1-0.1,0.2-0.1,0.5l0.1,1v0.2c0,0.1,0,0.2,0.1,0.3v0.9c-0.1,0.4-0.1,0.8,0,1c-0.1,0.1-0.1,0.2-0.1,0.5
	l0.1,0.9l-0.1,0.5l0.1,0.2v0.2c0,0.2,0,0.3-0.1,0.4c-0.1,0.1-0.1,0.2,0,0.4l0.1,0.5v0.8c-0.1,0.4-0.1,0.7,0,1l-0.1,0.5l0.2,0.2
	l-0.1,0.9c0.1,0.1,0.1,0.1,0,0.2c-0.1,0.1-0.1,0.2-0.1,0.3c0,0.2,0,0.3,0.1,0.5c0,0.2,0,0.4-0.1,0.5c0.1,0.1,0.1,0.2,0.1,0.5
	c0,0.2-0.1,0.5-0.2,0.8l0.1,0.1v0.1c0,0.2,0,0.3,0.1,0.4c0.1,0.2,0.1,0.3,0,0.5c-0.1,0.1,0,0.1,0.1,0.1c-0.1,0.1-0.1,0.3,0,0.5
	c-0.1,0.2-0.2,0.5-0.1,0.7c0,0.4,0,0.7-0.1,0.7c0.1,0.1,0.2,0.3,0.2,0.5l-0.1,0.5c0,0.1,0,0.1,0.1,0.1l0.1,0.2l-0.1,0.2V92l-0.1,0.3
	l0.1,0.2c0,0.1,0,0.1-0.1,0.1l-0.1,0.2l0.2,0.4c0.1,0.1,0.1,0.2-0.2,0.4c0,0.1,0,0.1,0.1,0.1c0.1,0,0.1,0,0.1-0.1
	c0-0.1,0-0.1,0.1-0.1c0.2,0,0.4,0.2,0.4,0.5h0.2c0.2,0.2,0.5,0.4,1,0.4c0.1,0,0.2,0,0.2,0.1c0.3,0.1,0.7,0.4,1.2,1.1l0.1,0.3
	l0.5,0.5l0.1,0.2c0.1,0.1,0.1,0.2,0.1,0.4l0.3,0.6l0.4,0.7l0.2,1.2l0.1,2.3L174.8,101.8z M128.7,101.5L128.7,101.5
	C128.8,101.4,128.8,101.5,128.7,101.5z M129,101.8h-0.2H129L129,101.8z M129.8,103.9C129.8,104,129.8,104,129.8,103.9
	c-0.2,0.1-0.2,0.1-0.2,0.2l-0.3,0.1V104c0,0.1,0,0.1-0.1,0c-0.1-0.1-0.2-0.1-0.4,0c0.1-0.1,0.2-0.1,0.5-0.1
	C129.6,104.1,129.7,104.1,129.8,103.9z M129,102.3c0-0.1,0.1-0.1,0.2-0.1L129,102.3z M129.3,100.5h-0.2
	C129.2,100.5,129.2,100.5,129.3,100.5z M129.6,104.9C129.6,105,129.5,105,129.6,104.9h-0.4C129.3,104.8,129.4,104.8,129.6,104.9z
	 M129.5,101.1C129.5,101.1,129.4,101.1,129.5,101.1L129.5,101.1C129.5,101.1,129.5,101.1,129.5,101.1z M129.5,100.5
	c0.1-0.1,0.2-0.1,0.3-0.1C129.8,100.5,129.7,100.5,129.5,100.5z M129.6,102.1L129.6,102.1L129.6,102.1L129.6,102.1z M129.7,105.8
	L129.7,105.8L129.7,105.8C129.6,105.8,129.6,105.8,129.7,105.8z M129.8,100.9C129.8,101,129.8,101,129.8,100.9
	c-0.2,0.1-0.2,0.1-0.2,0.2C129.5,101,129.6,100.9,129.8,100.9z M129.7,102.2c0.1-0.1,0.2-0.1,0.3-0.1c0.1,0.1,0.1,0.1,0.2,0
	C130.1,102.2,129.9,102.3,129.7,102.2z M129.7,104.2L129.7,104.2L129.7,104.2L129.7,104.2C129.7,104.3,129.7,104.3,129.7,104.2z
	 M130,100.4h-0.2C129.8,100.3,129.9,100.3,130,100.4C130,100.3,130,100.3,130,100.4z M130.5,100.2l-0.5,0.2
	C130.1,100.2,130.3,100.2,130.5,100.2z M131.3,100.1C131.3,100.1,131.3,100.1,131.3,100.1l0.1,0.2L131.3,100.1
	c-0.1,0.2-0.1,0.2-0.2,0.1c-0.1,0.1-0.2,0.1-0.4,0.1c-0.1,0-0.2,0-0.3-0.1l0.5-0.1c0.1,0,0.1,0,0.1-0.1L131.3,100.1
	C131.3,100.1,131.3,100.1,131.3,100.1z M130.9,100.9C130.9,101,130.9,101,130.9,100.9L130.9,100.9L130.9,100.9z M132.1,107.2
	l-0.1,0.2l-0.1-0.1c-0.1,0.1-0.1,0.1-0.2,0l0.2-0.1C132,107.3,132.1,107.3,132.1,107.2z M132.6,101.4c-0.2,0-0.3,0-0.4,0.1
	c0-0.1,0.1-0.1,0.2-0.1C132.5,101.4,132.6,101.3,132.6,101.4L132.6,101.4h0.3C132.8,101.4,132.7,101.4,132.6,101.4z M133.2,99.4
	c-0.1-0.1-0.1-0.1-0.2,0c-0.1,0.1-0.2,0.1-0.3,0c0,0.2-0.1,0.2-0.2,0.1c0,0.1,0,0.1-0.1,0.1c-0.1,0.1-0.2,0.2-0.2,0.3l0.4,0.2v-0.3
	c0.1,0.1,0.2,0.1,0.3,0c0.2,0,0.3-0.1,0.3-0.2C133.2,99.6,133.2,99.5,133.2,99.4z M133.2,104.7H133
	C133.1,104.6,133.2,104.6,133.2,104.7z M133.6,97.2c0.1-0.1,0.2-0.1,0.3-0.1C133.9,97.1,133.8,97.2,133.6,97.2z M134.4,55.3
	l-0.1-0.2C134.4,55.1,134.4,55.1,134.4,55.3z M134.6,59.6L134.6,59.6C134.6,59.7,134.6,59.6,134.6,59.6z M134.6,59.8l0.1-0.2
	L134.6,59.8C134.6,59.8,134.6,59.9,134.6,59.8L134.6,59.8z M134.7,97.2L134.7,97.2C134.6,97.1,134.6,97.1,134.7,97.2L134.7,97.2z
	 M134.8,97.3l0.2,0.1C134.8,97.3,134.8,97.3,134.8,97.3z M135.1,65.6l-0.1-0.2C135.1,65.4,135.1,65.5,135.1,65.6z M135.9,55.2
	c0.1,0,0.1,0.1,0,0.1l-0.2-0.2C135.8,55.2,135.8,55.2,135.9,55.2z M136,57L136,57L136,57L136,57z M136.1,55.4
	C136.1,55.3,136.2,55.3,136.1,55.4L136.1,55.4C136.2,55.4,136.1,55.4,136.1,55.4z M136.4,55.3c0,0.1,0,0.1,0,0.1
	C136.3,55.4,136.3,55.3,136.4,55.3l0-0.1C136.4,55.2,136.4,55.2,136.4,55.3z M136.9,57c-0.1-0.1-0.1-0.2-0.1-0.5
	C136.9,56.6,136.9,56.8,136.9,57z M136.9,57.2L136.9,57.2L136.9,57.2z M136.9,57.3C136.9,57.3,136.9,57.2,136.9,57.3L136.9,57.3
	C136.9,57.3,136.9,57.3,136.9,57.3z M136.9,106.9L136.9,106.9L136.9,106.9C136.9,107,136.9,106.9,136.9,106.9z M137.1,60.8
	L137.1,60.8l0.1,0.2L137.1,60.8z M137.6,57.2V57h0.1v-0.3c0,0.1,0,0.1,0.1,0.1c-0.1-0.1-0.1-0.2,0-0.3v-0.4c0.1,0.1,0.2,0.3,0.2,0.5
	l-0.1,0.5c-0.1,0-0.1,0,0-0.1l-0.1-0.2C137.7,57,137.7,57,137.6,57.2C137.7,57.2,137.6,57.2,137.6,57.2z M139.6,56.4L139.6,56.4
	C139.6,56.3,139.6,56.3,139.6,56.4z M139.6,56.4L139.6,56.4C139.6,56.5,139.6,56.4,139.6,56.4z M139.8,57.1c-0.1,0.1-0.1,0.3,0,0.5
	c-0.1-0.2-0.2-0.4-0.1-0.6v-0.1h-0.1c0-0.2,0-0.2,0.1-0.1C139.7,56.8,139.8,56.9,139.8,57.1z M140.5,55.7c0-0.4-0.1-0.6-0.2-0.7h0.2
	v-0.3c0-0.1,0-0.2,0.1-0.3v0.4c-0.1,0.1,0,0.2,0.1,0.4c0,0.1,0,0.1-0.1,0.1c0.1,0.2,0.2,0.5,0.2,0.7c-0.1,0.3-0.1,0.5,0,0.6
	c-0.1-0.1-0.2-0.3-0.1-0.5C140.7,56.1,140.6,55.9,140.5,55.7L140.5,55.7z M140.4,56.1L140.4,56.1C140.4,56,140.4,56,140.4,56.1z
	 M140.5,60.3c0-0.2,0-0.3-0.1-0.4c0.1,0,0.1,0.1,0.1,0.2C140.5,60.2,140.5,60.3,140.5,60.3c0.1,0.2,0.1,0.2,0,0.2
	c0,0.1,0,0.1,0.1,0.1c0.1,0,0.1,0,0,0.1C140.5,60.5,140.4,60.4,140.5,60.3z M140.7,56.7C140.7,56.7,140.7,56.7,140.7,56.7l0.2-0.1
	v0.1H140.7C140.7,56.7,140.7,56.7,140.7,56.7z M140.9,57L140.9,57C140.8,56.9,140.9,56.9,140.9,57z M140.9,57.1L140.9,57.1
	C140.8,57.2,140.8,57.2,140.9,57.1z M141,58.4L141,58.4L141,58.4L141,58.4L141,58.4z M141.2,56.5v-0.2
	C141.3,56.4,141.3,56.5,141.2,56.5z M141.2,56.8C141.3,56.8,141.3,56.9,141.2,56.8l0.2,0.3C141.3,57,141.2,56.9,141.2,56.8z
	 M141.4,57.2C141.5,57.2,141.5,57.2,141.4,57.2l0.1,0.2L141.4,57.2z M141.4,57.4l0.2,0.3C141.5,57.5,141.4,57.4,141.4,57.4z
	 M141.9,58.7l-0.1,0.2h-0.2l0.1-0.2c-0.1-0.1-0.1-0.1,0-0.1c-0.1-0.1-0.1-0.3-0.1-0.6v-0.4c0,0.1,0.1,0.4,0.2,0.9c0,0.1,0,0.1,0.1,0
	V58.7C141.9,58.7,141.9,58.7,141.9,58.7z M144.7,62.9c-0.1-0.1-0.1-0.2,0-0.2V62.9z M144.8,61.4c0.1,0.1,0.1,0.2,0.1,0.3
	C144.8,61.7,144.8,61.6,144.8,61.4z M144.9,62.6L144.9,62.6C144.8,62.5,144.9,62.5,144.9,62.6z M144.9,62.6L144.9,62.6
	C144.8,62.7,144.8,62.6,144.9,62.6z M159.9,64.2l-0.1-0.2C159.9,64.1,160,64.2,159.9,64.2z M159.9,59.1l0.1-0.2c-0.1,0-0.1,0,0-0.1
	l0.1,0.1L159.9,59.1L159.9,59.1z M160.2,54.9L160.2,54.9C160.2,55,160.2,55,160.2,54.9z M161.6,56.6l0.2,0.2
	C161.6,56.8,161.6,56.8,161.6,56.6z M161.7,55.1c0.1,0,0.1,0.1,0,0.1V55.1C161.6,55.1,161.7,55.1,161.7,55.1z M161.9,55.3
	C161.9,55.2,161.9,55.2,161.9,55.3L161.9,55.3C161.9,55.3,161.9,55.3,161.9,55.3z M162.2,55.3c-0.1,0-0.1-0.1,0-0.1v-0.1V55.3
	C162.3,55.3,162.3,55.3,162.2,55.3z M162.4,60.2L162.4,60.2l0.1,0.2L162.4,60.2z M162.6,56.8c-0.1-0.1-0.1-0.2-0.1-0.3l0.1-0.2V56.8
	z M162.5,56.9C162.5,56.9,162.6,56.9,162.5,56.9C162.6,56.9,162.5,56.9,162.5,56.9z M162.6,57L162.6,57
	C162.5,57.1,162.5,57.1,162.6,57z M163.3,56.9L163.3,56.9L163.3,56.9L163.3,56.9z M163.4,56.9L163.4,56.9v-0.2
	c-0.1-0.1-0.1-0.2,0-0.3c0.1-0.1,0.1-0.2,0.1-0.3c0.1,0.1,0.1,0.2,0.1,0.5l-0.1,0.5C163.4,57.1,163.4,57.1,163.4,56.9
	C163.5,56.9,163.4,56.9,163.4,56.9z M163.3,56.6L163.3,56.6C163.3,56.7,163.3,56.7,163.3,56.6z M165.3,56.6l-0.1-0.2
	C165.3,56.5,165.3,56.5,165.3,56.6z M165.3,57L165.3,57L165.3,57v-0.3v0.1c0.1,0.1,0.1,0.3,0.1,0.5c-0.1,0.1-0.1,0.2-0.1,0.3
	c-0.1-0.1-0.1-0.2-0.1-0.3C165.2,57.2,165.2,57.1,165.3,57z M165.7,59.7C165.8,59.7,165.8,59.8,165.7,59.7L165.7,59.7z M165.7,60.2
	C165.7,60.2,165.8,60.2,165.7,60.2L165.7,60.2c0.1,0.2,0.1,0.2,0.1,0.2C165.8,60.3,165.7,60.2,165.7,60.2z M165.8,59.8v0.3
	C165.8,60,165.8,59.9,165.8,59.8z M166.1,56.2L166.1,56.2C166,56.3,166,56.2,166.1,56.2z M166.1,56.2
	C166.1,56.1,166.1,56.1,166.1,56.2L166.1,56.2z M166.4,56.3l-0.1-0.2l0.1-0.4l-0.2-0.4h0.1c0-0.2,0-0.4,0.1-0.5v0.3
	c-0.1,0.1,0,0.2,0.1,0.4h-0.1v0.1c0.1,0.1,0.1,0.2,0.1,0.4C166.5,56.1,166.4,56.2,166.4,56.3z M166.3,56L166.3,56L166.3,56L166.3,56
	z M166.4,56.4L166.4,56.4L166.4,56.4l-0.1,0.3C166.3,56.5,166.3,56.4,166.4,56.4z M166.3,58.4h0.2v0.1
	C166.4,58.5,166.3,58.4,166.3,58.4z M166.5,56.9L166.5,56.9C166.4,56.9,166.5,56.9,166.5,56.9z M166.5,57.4
	c-0.1-0.1-0.1-0.2-0.1-0.3C166.4,57.1,166.5,57.2,166.5,57.4z M166.9,56.6c0.1,0.1,0.1,0.1,0,0.2c-0.1,0.1-0.1,0.1,0,0.2
	C166.7,56.9,166.7,56.8,166.9,56.6z M166.9,57.2V57V57.2L166.9,57.2C166.9,57.3,166.9,57.2,166.9,57.2z M167,57.6v-0.2
	C167.1,57.5,167.1,57.6,167,57.6z M167.7,60.7c-0.1-0.1-0.1-0.1,0-0.2l-0.1-0.2c-0.1,0-0.1-0.1-0.1-0.2c0-0.1-0.1-0.1-0.2-0.1
	l-0.2,0.3c0,0.1,0,0.1,0.1,0h0.1c-0.1,0.1-0.1,0.2,0,0.3v0.3h0.4C167.7,60.8,167.7,60.7,167.7,60.7z M168.4,61.8l0.1,0.2
	C168.4,61.9,168.4,61.9,168.4,61.8z M169.7,62.9c-0.1-0.1-0.1-0.2,0-0.2V62.9z M169.8,62.7v-0.2C170,62.5,170,62.6,169.8,62.7z
	 M169.9,61.5c0.1,0.1,0.1,0.2,0.1,0.3C170,61.8,169.9,61.7,169.9,61.5z"/>
<g>
	<g>
		<path class="st1" d="M114.3,21.8c0.8,0,1.9-2.2,3-2.2c1.2,0,2.2-1.1,3.1-1.1c0.6,0,1.2,1.2,1.9,1.2c0.7,0.1,1.3,0.1,1.8,0.2
			c0.5,0.1,0.9,1.3,1,1.4c0.2,0.1,0.3-0.9,0.4-0.8c0.4,0.3,0.6,1.7,0.8,1.9c0.2,0.4,0.1,1.9-0.2,2.5c0.4,0.5,0.6,0.9,0.7,1.1
			c0.1,0.3,0.1,0.5,0.1,0.7c-0.1,0.2-0.2,0.5-0.4,0.8c-0.2,0.2-0.2,0.4-0.4,0.6c-0.2,0.5-0.5,0.8-0.6,1.2c-0.1,0.3-0.3,0.6-0.3,0.7
			c0.1,0.1,0.4,0.2,1,0.2c0.7,0,1.4,0.1,2.4,0c0.9-0.1,1.8,0,2.4-0.1c0.8,0,1.2,0.1,1.3,0.1c0.2,0.1,7.5-0.4,8.8-0.4
			c1.3,0,2.9,0,4.6-0.1c1.9-0.1,4.6-0.2,5.9-0.1c1.4,0,5.6-0.1,5.8,0c0.7,0.3,0.5,0.4-0.8,0.4c-2-0.1-9,0.2-12.2,0.3
			c-3.1,0.1-12.6,0.7-15.2,0.9c-2.6,0.3-4,0.4-4.3,0.7c-0.4,0.4,0,0.7,1,0.8c1,0.2,2.5,0.2,4.6,0.1c2.5-0.2,11.6-0.7,13.7-0.8
			c2.2,0,3.6,0,4.3,0.1c0.3,0.1,5.3-0.2,6.3-0.1c0.9,0,1.9-0.1,3.1-0.1c1.8,0,3.4,0,4.6,0.1c1.4,0.1,2.8,0.3,4.4,0.7
			c0.9,0.2,1,0.2,0.2-0.2c-0.4-0.2-0.4-0.3,0-0.4c0.3,0,1.1-0.1,2.4,0c0.9,0,2,0,3.3-0.1c1.3,0,10-0.6,11.1-0.7
			c1.7-0.1,2.8,0,3.2,0.2c0.5,0.2,0.2,0.5-0.9,0.9c-0.5,0.2-0.7,0.3-0.7,0.4c-0.1,0.1,0,0.3,0.4,0.5c0.2,0.1-0.7,0.4-0.3,0.5
			c0.3,0.1,0.6,0.3,0.9,0.3c0.2,0.1,0,0.1-0.6,0.3c-0.5,0.2-1.3,0.5-2.2,0.7c-1,0.2-0.9,0.4-1.9,0.6c-1,0.2-9.5,0.9-10.3,0.9
			c-0.4,0-0.9,0.1-1.4,0.3c-0.5,0.1-0.9,0.3-1.3,0.5c-0.3,0.2-0.7,0.3-1.3,0.5c-0.6,0.1-1.1,0.2-1.7,0.3c-0.5,0.1-1.1,0.1-1.6,0.3
			c-0.6,0.1-1,0.3-1.3,0.5c-0.8,0.4-14.4,1.6-18.8,2.1c-4.4,0.5-9.7,1-16.2,1.5c-1.1,0.1-2.3,0.2-3.8,0.3c-1.5,0.2-2.9,0.3-4.2,0.4
			c-1.3,0.2-2.8,0.3-4.6,0.4c-1.8,0.1-3.5,0.2-5,0.3c-0.8,0-1.9,0.1-3.4,0.2c-1.5,0.2-3.3,0.3-5,0.5c-2.3,0.2-4.3,0.4-6.1,0.6
			c-1.8,0.2-3,0.3-3.6,0.2c-1-0.1-2.1-0.1-3.2-0.1c-1.1,0-1.9,0.1-2.6,0.1c-0.9,0.1-1.6,0-2.3-0.2c-0.6-0.2-1.3-0.6-2.1-1.3
			c-0.8-0.6-1.4-1.4-1.5-2.2C80.1,41,80,40.2,80,39.1c0-0.3,0-0.6-0.1-0.9c-0.1-0.7-0.1-1.6-0.4-2.6c-0.2-1-0.4-1.8-0.6-2.6
			l-0.8-2.6l1.5,0.1c0.5,0,1,0.2,1.7,0.3c0.6,0.1,1.2,0.2,1.7,0.3c0.5,0.2,1.1,0.3,1.7,0.3c0.6,0.1,1.1,0.2,1.5,0.2
			c0.5,0,1.4,0,2.8,0.1c1.4,0.1,2.9,0.1,4.6,0.2c0.8,0,2,0,3.6,0c1.5,0,3.2-0.1,4.9,0c1.7,0,3.1-0.1,4.3-0.1c1.3,0,1.9-0.1,1.9-0.1
			c0.1-0.1,0.4-0.2,0.9-0.3c0.6-0.1,1.2-0.2,1.8-0.1c0.8-0.1,1.5,0,2.2-0.1c0.5,0,0.8,0,1.1,0c0.2,0,0.3,0.1,0.5,0.3
			c0.2,0.2,0.3,0.4,0.3,0.7c0,0.4,0.1,0.7,0.5,0.8c0.3,0.1,1,0.2,2,0l2.4-0.2l-2-1.5c-0.5-0.6-1-1-1.6-1.2c-0.4-0.3-0.7-0.5-1-0.7
			c-0.2-0.1-0.3-0.3-0.4-0.3c-0.1-0.1-0.2-0.2-0.3-0.3c0-0.1-0.1-0.1-0.2-0.3c-0.1-0.1-0.1-0.2-0.2-0.4c-0.2-0.2-0.3-0.4-0.5-0.4
			c-0.2-0.1-0.3-0.1-0.4-0.2c-0.1-0.1-0.3-0.1-0.4-0.2c-0.1-0.1-0.3-0.3-0.5-0.4c-0.2-0.2-0.3-0.4-0.4-0.4c-0.1-0.1-0.2-0.1-0.2-0.2
			c-0.1-0.1-0.1-0.1-0.2-0.2c-0.1-0.1-0.2-0.3-0.4-0.6c-0.1-0.1-0.2-0.4-0.3-0.4c-0.1-0.1-0.2-0.1-0.3-0.2c-0.1-0.1-0.1-0.1-0.3-0.1
			c-0.1-0.1-0.3-0.2-0.5-0.3c-0.4-0.3-0.6-0.6-0.8-0.7c-0.1-0.2-0.2-0.4-0.2-0.7c0.1-0.2,0.2-0.4,0.6-0.6c0.3-0.2,0.7-0.3,1.2-0.4
			c0.5-0.1,0.9-0.2,1.3-0.2C113,21.8,113.6,21.8,114.3,21.8z"/>
		<path class="st1" d="M128,44.5c0.1,0,0.3,0.2,0.5,0.4c0.3,0.3,0.3,0.8,0.3,1.6c-0.1,0.7-0.3,1.9-0.7,3.5c-0.3,1.3-0.5,2.3-0.7,3.3
			c-0.2,0.9-0.3,1.4-0.3,1.7c0,0.2-0.1,0.9-0.3,2.2c-0.1,1.3-0.3,2.8-0.5,4.6c-0.4,2.4-0.6,4-0.8,4.9c-0.2,0.8-0.4,1.2-0.7,1.2
			c-0.1,0-0.4-0.1-0.5,0.1c-0.2,0.1-0.4,0.3-0.5,0.5c-0.2,0.4-0.3,1.1-0.4,1.9c-0.1,0.9,0,1.7,0,2.5c0,0.7,0.2,1.1,0.4,1.2
			c0.3,0.1,0.2,0.3-0.4,0.6c-0.5,0.2-0.7,0.5-1,1c-0.2,0.4-0.3,0.8-0.2,1.2c0,0.3,0.2,0.5,0.6,0.4c0.3,0,0.5,0.1,0.5,0.3
			c0.1,0.3,0,0.8-0.1,1.6c-0.3,1.8-0.5,2-0.5,0.6c-0.1-1.1-0.2-1-0.3,0.2c-0.1,1.4-0.5,4-1.3,7.7c-0.3,1.8-0.9,3.8-1.5,6
			c-0.6,2.2-1.2,4.1-1.7,5.7c-0.5,1.6-1,2.9-1.3,4c-0.3,1.2-0.5,1.8-0.4,2c0,0.2,0,0.3,0,0.4c-0.1,0.1-0.2,0.1-0.3,0
			c-0.2,0.1-0.3,0.3-0.7,0.8c-0.4,0.5-0.7,1.1-1,1.9c-1.2,2.6-3,4.9-5.3,6.8c-0.2,0.1-0.5,0.4-0.8,0.7c-0.4,0.4-0.9,0.7-1.4,1.1
			c-0.4,0.4-0.9,0.6-1.4,0.7c-0.5,0.1-0.9,0.2-1.3,0.4c-0.4,0.1-0.7,0.2-0.9,0.2c-0.2,0.1-0.4,0-0.5-0.1c-0.1-0.1-0.1-0.3,0-0.4
			c0.1-0.2,0.2-0.4,0.4-0.6c0.1-0.2,0.2-0.3,0.3-0.5c0-0.2,0-0.3-0.1-0.3c-0.1,0-0.2,0.1-0.4,0.2c-0.2,0.1-0.3,0.2-0.6,0.3
			c-0.5,0.4-1,0.6-1.5,0.9c-0.3,0.1-0.7,0.2-1.1,0.4c-0.4,0-0.8,0-1.2,0.1c-0.3,0-0.5-0.1-0.6-0.1c0.8-0.6,1.5-1.2,2.1-1.8
			c0.6-0.6,1.3-1.4,2-2.2c0.9-1.2,1.6-2.5,1.9-3.8c0.2-0.6,0.4-1.1,0.6-1.7c0.6-1.2,1.1-2.7,1.5-4.4c0.2-0.9,0.5-1.7,0.8-2.6
			c0.6-1.8,1-3.5,1.4-5c0.2-0.6,0.3-1.2,0.5-1.7c0.1-0.8,0.2-1.8,0.2-3.1c0-1.7,0.1-3.3,0.4-4.6c0.1-0.2,0.2-0.7,0.4-1.1
			c0.3-0.8,0.5-1.6,0.8-2.6c0.3-1,0.5-1.9,0.6-2.8c0.1-0.6,0.1-1.1,0.1-1.5c-0.1-0.4-0.1-0.9-0.2-1.3c-0.1-0.4-0.2-1-0.2-1.6
			c0-0.7,0-1.5,0.1-2.6c0.2-2.4,0.5-4.8,0.7-7.5c0.4-3.1,0.7-5.9,0.9-8.4c0.2-2.5,0.3-4,0.2-4.6c-0.2-1.2-0.2-2.4,0.2-3.6
			c0.2-1.2,0.7-2.1,1.3-2.7c0.6-0.5,1.7-1,3.3-1.3c1.6-0.4,3.2-0.6,4.9-0.8c1.7-0.1,2.9-0.2,3.6-0.1c0.4,0.1,0.8,0,1.1,0
			c0.4,0,0.6-0.2,0.8-0.3c0,0,0-0.1,0.1-0.1c0.1-0.1,0.1-0.1,0.2-0.1C127.9,44.5,127.9,44.5,128,44.5L128,44.5z"/>
		<g>
			<path class="st1" d="M23.1,115c1.6,0.3,3.5,0.7,5.7,1c3.1,0.4,6.3,0.7,9.2,0.8c1.4,0,2.7,0.1,4.1,0.2c2.9,0.2,6.5,0.4,10.6,0.4
				c2.2,0,4.1,0.1,6.1,0.2c4.3,0.1,8.2,0.2,11.7,0.3c1.4,0,2.7,0.1,3.9,0.1c1.8,0,4.1-0.1,7-0.2c3.9-0.2,7.4-0.3,10.6-0.3
				c0.6,0,1.6,0.1,2.5,0.1c2,0.1,3.9,0.2,6.3,0.2c2.3,0.1,4.5,0.1,6.6,0c1.4,0,2.5-0.1,3.5-0.1c1-0.1,2-0.2,2.9-0.3
				c1-0.1,2.2-0.2,3.5-0.3c1.6-0.1,3.5-0.2,5.9-0.2c5.5-0.1,11.2-0.3,17.2-0.4c7.2-0.1,13.7-0.3,19.4-0.4c5.7-0.2,9.2-0.3,10.6-0.4
				c2.7-0.3,5.5-0.4,8.2-0.3c2.7,0,4.9,0.2,6.5,0.5c1.4,0.3,2.7,1,4.1,1.9c1.4,1,2.5,2,3.5,3c0.8,1,1.4,1.8,1.4,2.2
				c0,0.2,0.2,0.5,0.4,0.7c0.2,0.2,0.6,0.4,1,0.5c0,0,0.2,0,0.2,0c0.2,0,0.2,0,0.2,0.1c0.2,0,0.2,0,0.2,0.1v0c0,0.1-0.4,0.2-0.8,0.4
				c-0.6,0.2-1.8,0.3-3.5,0.4c-1.6,0-4.3,0-8.2-0.1c-2.9,0-5.5,0-7.6-0.1c-2.2,0-3.3,0-3.9,0c-0.4,0-2.2,0-5.1,0.1
				c-2.9,0.1-6.5,0.1-10.6,0.2c-5.5,0.1-9.2,0.1-11.3,0.1c-2,0-2.9-0.1-2.9-0.3c0-0.1,0-0.2-0.4-0.3c-0.4-0.1-0.8-0.2-1.4-0.3
				c-1-0.1-2.5-0.1-4.5-0.1c-2.2,0.1-3.9,0.2-5.7,0.3c-1.6,0.1-2.5,0.3-2.5,0.4c-0.2,0.2-0.6,0.1-1.6-0.2c-0.6-0.3-1.4-0.4-2.5-0.5
				c-1-0.1-2-0.1-2.7,0c-0.8,0.1-1,0.2-0.6,0.4c0.2,0.2,0,0.3-0.6,0.4c-0.6,0.1-1.8,0.1-3.7,0.1c-4.1,0-4.7-0.1-1.6-0.3
				c2.3-0.2,2.1-0.3-0.6-0.2c-3.1,0.1-9.2,0.1-18,0.1c-4.3,0-9-0.1-14.1-0.2c-5.3-0.1-9.8-0.3-13.5-0.4c-3.7-0.2-6.8-0.3-9.6-0.3
				c-2.7-0.1-4.3-0.1-4.7,0c-0.4,0.1-0.6,0.1-1,0.1c-0.2,0-0.2-0.1-0.2-0.2c-0.2-0.1-0.8-0.2-2-0.4c-1.2-0.2-2.7-0.3-4.7-0.4
				c-6.3-0.5-12.1-1.3-17.2-2.5c-0.4-0.1-1-0.3-1.8-0.4c-1-0.2-2-0.5-2.9-0.8c-1-0.2-1.8-0.5-2.1-0.8c-0.4-0.3-0.8-0.6-1.4-0.8
				c-0.4-0.2-0.6-0.4-0.8-0.6c-0.2-0.1-0.2-0.3,0-0.3c0.2,0,0.6-0.1,1-0.1c0.6,0,1,0.1,1.6,0.2c0.4,0,0.8,0.1,1.2,0.1
				c0.4,0,0.6,0,0.6-0.1c0,0-0.2-0.1-0.6-0.2c-0.2-0.1-0.6-0.2-1-0.3c-1-0.3-1.8-0.5-2.5-0.9c-0.4-0.2-0.8-0.4-1.2-0.6
				c-0.2-0.3-0.4-0.5-0.6-0.7c0-0.2,0-0.3,0-0.4C19.8,114.4,21.4,114.7,23.1,115z M85.7,122.2c0.8,0.1,1.6,0.1,2.7,0.1
				c1.2,0,2.1,0,2.7,0c0.8-0.1,1.2-0.1,1.2-0.1c0-0.1-0.4-0.1-1-0.2c-0.8-0.1-1.8-0.1-2.9-0.2c-1.2-0.1-2,0-2.7,0
				c-0.8,0.1-1.2,0.1-1.2,0.2C84.5,122.1,84.9,122.2,85.7,122.2z M65.2,121.2c-1.2,0.4,1.6,0.7,7.8,0.9c3.5,0.1,5.5,0.1,5.3-0.2
				c0-0.2-2-0.4-5.9-0.7c-1.8-0.1-3.5-0.2-4.9-0.1C66.1,121,65.3,121.1,65.2,121.2z"/>
			<path class="st1" d="M174.4,127.7c2.8,0,5.6,0,9.9-0.1c4.2-0.1,7.7-0.2,10.6-0.4c2.1-0.1,3.5-0.2,3.5-0.3c0-0.1-1.4-0.1-4.2-0.2
				c-2.1,0-5.6,0-9.9,0c-4.2,0-7.1,0-9.9,0.3c-2.8,0.1-4.2,0.2-4.2,0.5C170.2,127.5,171.6,127.6,174.4,127.7z"/>
			<path class="st1" d="M30.3,122.5c0.8-0.1,1.2-0.2,1.2-0.3c0-0.1-0.5-0.2-1.2-0.4c-0.6-0.1-1-0.2-1.4-0.2c-0.4,0-0.7,0.1-1,0.1
				c-0.3,0.2-0.4,0.3-0.2,0.4c0.2,0.1,0.5,0.3,0.9,0.3C29.2,122.6,29.8,122.5,30.3,122.5z"/>
			<path class="st1" d="M135.8,125.1c-1.4,0.3-1.6,0.4-0.8,0.3c0.6,0,1,0,1.2,0.1c0.1,0.1,0.1,0.2-0.1,0.3c-0.4,0.3-0.2,0.4,0.4,0.4
				c0.6-0.1,1.4-0.3,2.4-0.6c1.3-0.5,1-0.8-0.9-0.7C137.5,124.8,136.7,124.9,135.8,125.1z"/>
			<path class="st1" d="M167.5,127.5c0.1-0.1,0.2-0.1,0-0.2c-0.7-0.5-3.9-0.6-9.8-0.2c-1.5,0.1-3.1,0.2-4.5,0.2
				c-1.4,0.1-2.5,0.1-3.1,0.1c-0.6,0-1.2,0-1.8,0c-0.6,0-1.1,0-1.4,0.1c-0.3,0.1-0.6,0.1-1,0.1c-0.3,0-0.6,0-0.9,0.1
				c-0.2,0-0.5,0.1-0.8,0.2c-0.2,0.1-0.5,0.2-0.6,0.3c-0.2,0.2-0.2,0.3-0.1,0.3c0.1,0.1,0.5,0.1,1.1,0c0.5,0,1.4-0.1,3-0.2
				c1.4-0.1,3.1-0.1,4.9-0.3c1.7-0.1,3.3-0.2,4.6-0.2c1.2-0.1,2,0,2.2,0c0.3,0,0.6,0.1,1,0.1c0.4,0,0.7-0.1,0.9-0.1
				c0.2-0.1,0.2-0.1-0.1-0.2c-0.5-0.2-0.4-0.2,0.5-0.1c0.3,0,0.9,0.1,1.6,0.1c0.6,0,1.4,0,2.1,0c0.5,0,1,0,1.3-0.1
				C167,127.6,167.4,127.5,167.5,127.5z"/>
			<path class="st1" d="M122.8,125.5c1.2,0.1,1.9,0.2,2.1,0.2c0.2,0.1-0.1,0.2-1.1,0.3c-0.4,0-0.8,0-1.2-0.1
				c-0.4-0.1-0.7-0.1-1.1-0.2c-0.3-0.1-0.3-0.1-0.1-0.2C121.6,125.4,122.2,125.4,122.8,125.5z"/>
			<path class="st1" d="M132.1,125.4c-0.2,0.1-0.3,0.2-0.6,0.3c-0.1,0.1-0.1,0.2-0.1,0.3c0.2,0,0.4,0.1,0.8,0.1
				c0.6,0,0.7-0.1,1.1-0.1c0.1-0.1,0.3-0.2,0.3-0.3c-0.1-0.1-0.3-0.2-0.3-0.3c-0.2,0-0.4-0.1-0.4-0.1
				C132.6,125.3,132.4,125.4,132.1,125.4z"/>
		</g>
	</g>
</g>
<g>
	<g>
		<path class="st2" d="M231,75l0.7,0.5c0.2,0.2,0.4,0.4,0.6,0.6c0.2,0.2,0.3,0.4,0.3,0.6c0,0.2-0.1,0.5-0.3,0.7
			c-0.2,0.2-0.4,0.5-0.5,0.8c-0.2,0.3-0.5,0.6-0.7,0.8c-0.2,0.2-0.4,0.5-0.6,0.6c-0.5,0.7-0.9,1.7-1.2,3c-0.3,1.3-0.6,2.8-0.8,4.3
			c-0.2,1.5-0.4,3-0.5,4.4c-0.1,1.4-0.2,2.4-0.3,3.2c0,0.2-0.1,0.3-0.2,0.5c0,0.1,0,0.1-0.1,0.1c-0.1,0-0.1,0-0.1-0.1
			c-0.2,0-0.4-0.1-0.4-0.3v-0.2c0-0.2,0-0.3-0.1-0.4v-2.4c0-0.7,0-1.3,0.1-2c0-0.6,0.1-1.3,0.2-1.9c-0.2,0.9-0.4,1.8-0.4,2.7
			c0,0.9-0.1,1.8-0.1,2.7c0,1.7,0.1,3.4,0.2,5c0.2,1.6,0.5,3.3,0.9,4.9l2-0.4c0.8-0.1,1.4-0.2,1.9-0.2h0.5l0.1,0.1
			c0.1,0.1,0.1,0.2,0.1,0.4v0.3h0.7c0.5,0,0.3,0.1,1,0.2c0.7,0.1,1.1,0.5,1.1,1.1c0,0.2-0.1,0.4-0.2,0.6c-0.2,0.2-0.4,0.4-0.6,0.5
			c-0.2,0.2-0.4,0.1-0.4-0.2v-0.5c0-0.1-0.2-0.2-0.6-0.4l0-0.1c-0.2,0-0.6,0.1-1.2,0.2c-0.5,0.2-1.1,0.3-1.6,0.5
			c-0.5,0.2-1,0.4-1.5,0.6c-0.4,0.2-0.7,0.4-0.8,0.5c0,0.3,0,0.6,0.1,0.9c0,0.3,0.1,0.5,0.1,0.8c0,0.2-0.1,0.5-0.2,0.7
			c-0.1,0.2-0.3,0.4-0.6,0.4c-0.3,0-0.7-0.1-1.2-0.4l-0.4-0.2c-0.5-0.4-0.9-0.5-1.3-0.5c-0.4,0-0.8,0.2-1.3,0.5
			c-0.5,0.3,0.9-0.3,0.6,0l-0.7,0.9l-0.5,1.1c-0.2,0.3-0.4,0.6-0.7,0.9c-0.3,0.3-0.7,0.4-1.3,0.4c-1,0-1.9-0.3-2.5-0.9
			c-0.7-0.6-1.2-1.2-1.5-1.9l-0.1-0.5c-0.2-0.1-0.2-0.2,0-0.4c0-0.2,0-0.4,0.1-0.5l0.9-1.5c0.2-0.5,0.6-0.8,1.3-0.8
			c0.2,0,0.3,0,0.5,0.1c0.2,0.1,0.3,0.1,0.5,0.1c0.2,0-1,0.7-0.2,0.2c0.9-0.5,1.3-0.8,1.3-1c0-0.8,0-1.8,0.1-3.1
			c0-1.3,0.1-2.6,0.3-4c0.2-1.4,0.4-2.7,0.6-4c0.2-1.3,0.5-2.3,0.8-3c0.2-0.1,0.2-0.1,0.2,0.1v0.3v0.4c0,0.9,0,1.8-0.1,2.8
			c0,0.9-0.1,1.9-0.1,2.8l0.1,1.6c0.2-0.4,0.2-0.9,0.2-1.4c0-0.5,0-1,0.1-1.5c0.1-0.6,0.1-1.2,0.1-1.8c0-0.6-0.1-1.1-0.1-1.6
			c0-1,0-2.1,0.1-3.2c0.1-1.1,0.2-2.1,0.4-3.2c0.2-1.1,0.3-2.3,0.5-3.4c0.2-1.1,0.2-2.3,0.2-3.4c0-0.1,0-0.3-0.1-0.7
			c0-0.3-0.1-0.7-0.1-1c0-0.3-0.1-0.6-0.3-0.9c-0.2-0.3-0.4-0.4-0.6-0.4c-0.1,0-0.4,0-0.9,0.1c-0.5,0.1-0.8,0.2-1,0.2
			c-0.4,0.1,1.8-0.6,1.1-0.5c-0.7,0.2-1.4,0.4-2.2,0.6c-1.3,0.4-2.5,0.6-3.4,0.7h-0.1c-0.5,0-0.9-0.1-1.1-0.3c-0.1,0-0.1,0-0.2-0.1
			c0-0.1,0-0.1,0.1-0.1c0.2-0.2,0.5-0.4,1.2-0.6l1.4-0.5h-0.4l-0.5-0.2c0-0.4,0.2-0.6,0.5-0.7c0.2-0.2,1-0.5,2.4-0.9
			c1.4-0.4,0.1,0,1.8-0.4c1.6-0.5,3.2-0.9,4.7-1.3c1.5-0.4,2.5-0.7,3-0.8l0.5-0.2c-0.3,0.1-0.6,0.1-0.8,0.1c-0.2,0-0.4,0-0.6,0.1
			c-0.2,0-0.3,0-0.4,0c-0.1,0-0.2,0-0.3,0c-0.2-0.2-0.3-0.3-0.2-0.4c0.2-0.2,0.6-0.5,1.4-0.7c0.8-0.2,1.6-0.4,2.6-0.5
			c0.9-0.2,0.9-0.3,1.8-0.4c0.9-0.1,1.5-0.2,1.8-0.2c0.5,0,0.9,0,1.2,0.1l0.2,0.1c0.1,0,0.2,0.1,0.4,0.2l0.6,0.8
			c0.1,0.1,0.1,0.2,0.1,0.4l-0.2,0.6l0.2,0.5c0.2,0.2,0.2,0.4,0,0.7l-0.9,1.6c-0.1,0.2-0.2,0.3-0.4,0.4c-0.2,0.1-0.4,0.1-0.5,0.1
			c-0.3,0-0.6,0-0.9,0c-0.3,0-0.6,0-0.9,0c-0.6,0-0.3,0-0.9,0c-0.6,0-1.2,0.1-1.8,0.1l-0.9,0.1V75z"/>
	</g>
</g>
<path class="st3" d="M208.9,79.5l0.3,1.3c0.1,0.2,0.3,0.5,0.5,0.9c0.2,0.4,0.3,0.7,0.3,0.9c0,0.9-0.1,1.8-0.4,3
	c-0.3,1.1-0.8,2.1-1.4,3l2.9-3.4c0.2-0.3,0.6-0.5,0.9-0.9c0.4-0.3,0.7-0.5,1.1-0.5c0.6,0,0.8,0.3,0.6,1.1c-0.2,0.7-0.6,1.5-1.1,2.3
	c-0.5,0.8-1.1,1.6-1.7,2.4l-2.6,2.7l-1.1,1.9l0.5,7.2c0,0.9,0.1,1.7,0.1,2.6c0,0.9,0.1,1.7,0.3,2.6l0.2,0.9l0.3-2.8
	c0-0.5,0-0.8,0.2-0.9l0.1-1.3c0-0.4,0.2,0,0.2,0s0.1,4.5,0.2,7.8c0,3.3-5.2,0.6-5.5,0.4c0,0-2-1.2-1.9-1.9c0.1-0.7-0.9-1.3-0.6-1.9
	c0.5-2.2,0.1,0.8,0.5-1.5c0.3-2.3,0.5-3.7,0.4-6.1l-2.1,1l-3.5,2.7c-1.4,0.9-2.7,1.8-4.1,2.7c-1.4,0.9-2.6,1.3-3.6,1.4
	c-1,0-1.9-0.4-2.6-1.3l-2-2.3l-1-0.7c-0.8-0.6-1.4-1.5-1.7-2.7c-0.3-1.2-0.5-2.2-0.5-3.1c-0.1-2.1,0.3-4.3,1.1-6.7
	c0.9-2.4,2-4.7,3.5-6.8c1.5-2.1,3.3-3.8,5.4-5.3c2.1-1.4,4.2-2.2,6.4-2.3c1.3-0.1,2.4,0.1,3.3,0.4l1.8,0.5l0.3-0.9l0.1-1.3
	c0.2-5,0.1-10-0.1-14.8c0-0.9-0.1-1.7-0.2-2.5c-0.1-0.8-0.2-1.6-0.2-2.5c-0.1-1.7-0.1-3.3,0-4.9c0.1-1.5,0-3.1,0-4.9l-0.1-1.6
	l-0.5-1.4c-0.4-1.1-0.7-2.2-0.7-3.3c-0.1-1.2,0.2-2.3,0.7-3.3c0.5-1,1.6-1.5,3.1-1.6c0.3,0,1,0.2,2.3,0.7c1.2,0.5,2,0.9,2.3,1.1
	c0.3,0.2,0.6,0.5,1,0.8c0.4,0.3,0.9,0.5,1.4,0.8c1.3,0.8,2.3,1.5,2.9,2.1c0.6,0.6,0.9,1.6,1,3.1c-0.1,0.7-0.2,1.5-0.4,2.3
	c-0.2,0.8-0.3,1.6-0.6,2.5c-1.6,5.3-2.8,10.5-3.8,15.6c-1,5.1-1.7,10.3-2.1,15.9L208.9,79.5z M188.5,91.3c-0.5,0.5-1,1.6-1.4,3.4
	c-0.4,1.7-0.6,3-0.6,3.9l1,0.3c1.4-0.1,2.7-0.3,3.9-0.8c1.2-0.5,2.4-1,3.5-1.5l3.2-1.6c0.1,0,0.2,0,0.3-0.1c0.1-0.1,0.2-0.1,0.3-0.1
	c0.3,0,0.4,0.1,0.4,0.3c0.4,0.6,0.3,0.9-0.3,0.9l-0.4,0.4l-0.6,0.6c1.1-0.7,2.2-1.4,3.2-2.2c1-0.8,1.5-1.3,1.5-1.5l0.1-2.9
	c-0.1-1.5-0.3-2.9-0.8-4.5c-0.5-1.5-1.7-2.2-3.8-2.1c-0.9,0-1.8,0.3-2.7,0.9c-0.9,0.5-1.7,1.2-2.6,2L188.5,91.3z M207.4,79.1
	c0,0.4,0.2,0.8,0.4,1c-0.1-3.2-0.2-6.2-0.2-9.2c0-3,0-6.1,0.2-9.3c0.1-0.9,0.2-1.7,0.3-2.5c0.1-0.8,0.1-1.6,0.1-2.3
	c-0.5,3.4-0.8,6.9-0.9,10.5c-0.1,3.5-0.1,7.1,0.1,10.6C207.4,78.3,207.4,78.7,207.4,79.1z M212.4,79.9c0.1,0.1,0.3,0.2,0.5,0.3
	c0.2,0.1,0.4,0.1,0.5,0.3c0.3,0.2,0.2,0.4-0.2,0.4l-0.4,0l-0.6-0.2c-0.1-0.1-0.3-0.2-0.4-0.2l0-0.2C212,80.1,212.2,79.9,212.4,79.9z
	"/>
</svg>
