<?xml version="1.0" encoding="utf-8"?>
<!-- Generator: Adobe Illustrator 19.0.0, SVG Export Plug-In . SVG Version: 6.00 Build 0)  -->
<svg version="1.1" id="Layer_1" xmlns="http://www.w3.org/2000/svg" xmlns:xlink="http://www.w3.org/1999/xlink" x="0px" y="0px"
	 viewBox="-858 448.2 282.4 157.8" style="enable-background:new -858 448.2 282.4 157.8;" xml:space="preserve">
<style type="text/css">
	.st0{fill:#412E19;}
</style>
<path class="st0" d="M-730.1,549.5c-0.2,0-0.4,0-0.5-0.1c0.1-0.1,0.2-0.1,0.4-0.1c0.1,0.1,0.2,0.1,0.3,0h0.1v0.1
	c0.1-0.1,0.3-0.2,0.6-0.2c0.3,0.1,0.5,0.1,0.5,0c-0.1,0.1-0.2,0.2-0.4,0.1c-0.1,0-0.2,0.1-0.4,0.2c-0.1,0-0.2,0-0.3-0.1
	C-729.8,549.4-730,549.4-730.1,549.5L-730.1,549.5z M-730.2,555.7l0.2-0.1C-730,555.7-730,555.7-730.2,555.7z M-729.9,553.5l0.2,0.1
	L-729.9,553.5C-730,553.5-730,553.5-729.9,553.5z M-730,554.1L-730,554.1L-730,554.1L-730,554.1z M-729.9,553.8L-729.9,553.8
	C-729.8,553.8-729.8,553.9-729.9,553.8C-730,553.9-730,553.8-729.9,553.8z M-683.2,550c-0.2,0.2-0.3,0.7-0.3,1.4
	c0,0.1-0.1,0.2-0.2,0.3c-0.1,0.1-0.1,0.4-0.1,0.8c-0.2,0.1-0.4,0.3-0.7,0.8l-0.6,1h-0.1l-0.6,0.6c-0.1,0.2-0.2,0.3-0.3,0.3
	c-0.1,0.1-0.1,0.1-0.2,0.1c-0.1,0-0.2,0-0.2,0.1h-0.1l-0.2,0.1c-0.2,0.2-0.4,0.3-0.6,0.4l-0.6-0.1l-0.3,0.1l-0.2-0.2
	c-0.1-0.1-0.2-0.2-0.3-0.2h-0.2c-0.1,0.1-0.2,0.1-0.3,0c0-0.7-0.2-0.9-0.5-0.4c-0.1,0.2-0.2,0.2-0.4-0.1c-0.1-0.2-0.2-0.3-0.5-0.3
	h-0.5c-0.1,0-0.2,0-0.3-0.1c-0.1-0.1-0.2-0.1-0.5-0.1h-0.3c-0.1,0.1-0.2,0-0.4-0.1c-0.1,0.1-0.2,0.1-0.3,0h-0.3h-0.3h-0.6
	c-0.2,0.1-0.5,0-0.8-0.1c-0.2,0.1-0.6,0.1-1-0.1l-0.3,0.1c-0.2,0-0.3,0-0.4-0.1c-0.1-0.1-0.2-0.1-0.4-0.1l-0.6,0.2l-0.2-0.1
	l-0.5,0.1c-0.1,0-0.2,0-0.3-0.1c-0.1-0.1-0.2-0.1-0.4,0c-0.1-0.1-0.3-0.1-0.8,0c-0.5,0.1-0.9,0.1-1.1,0h-0.3h-0.5
	c-0.2,0.1-0.4,0-0.5-0.1l-0.8,0.1l-0.8-0.1c-0.1,0.1-0.2,0.1-0.5,0.1h-0.6c-0.2,0-0.4,0-0.5,0.1c-0.1,0.1-0.3,0.1-0.5,0.1l-0.4-0.1
	l-0.5,0.1h-0.9l-0.9,0.1l-0.4-0.1l-0.2,0.1h-0.1l-0.6,0.6c-0.1,0.1-0.2,0.1-0.3,0.1l-0.2,0.3l-0.3,0.3c-0.1,0.1-0.3,0.2-0.5,0.2
	l-0.7,0.5c-0.2,0.2-0.4,0.3-0.6,0.4c-0.1,0-0.5,0.1-1.2,0.3l-2.3,0.2h-0.2c-0.1-0.1-0.3-0.1-0.6-0.1c-0.4,0-0.6,0-0.7-0.1
	c-0.1,0-0.1,0-0.1-0.1l-0.2-0.1c-0.1-0.1-0.2-0.1-0.4-0.1s-0.4,0-0.5-0.1c-0.2-0.3-0.5-0.6-0.9-0.8c-0.6-0.4-0.9-0.6-1-0.6v-0.1
	l-0.5-0.6h-1.1h-0.1v-0.1h-0.2c-0.2-0.1-0.5-0.1-0.6,0c-0.2,0.1-0.5,0.1-0.6,0c-0.1-0.1-0.2-0.1-0.3-0.1c-0.1,0-0.1,0-0.1,0.1h-0.2
	v-0.1l-0.2-0.1c-0.1,0.1-0.2,0.1-0.3,0.1c-0.2,0-0.3,0-0.4-0.1c-0.1-0.1-0.2-0.1-0.3,0c0.2-0.2,0.4-0.5,0.4-0.7
	c-0.1-0.1-0.2-0.1-0.4-0.1c-0.2,0.1-0.3,0-0.5-0.1c-0.8,0.1-1.3,0.2-1.6,0.1h-0.1v0.1h-0.4l-1.5,0.1l1.8-0.3
	c1.2-0.2,1.8-0.2,1.6-0.2c0.1,0.1,0.5,0.1,1.3,0.1c0.3-0.1,0.4-0.4,0.2-0.7l-0.4-0.2c-0.1,0.1-0.3,0.1-0.5,0.1c0-0.1,0-0.1,0-0.2
	s0-0.2,0-0.2c0.2-0.1,0.5-0.1,0.9-0.1c0.3,0,0.6-0.1,0.8-0.2c0.1,0.1,0.1,0.1,0.2,0h0.1l0.1-0.3l-0.1-0.2c-0.2,0-0.4-0.1-0.7-0.3
	c-0.4-0.2-0.6-0.2-0.8-0.2l-0.3-0.5c-0.4,0-0.6,0-0.7,0.1v-0.1c-0.7,0.1-1.2,0.1-1.5,0c0.1-0.1,0.3-0.1,0.6-0.1
	c0.2,0.1,0.4,0.1,0.6,0c0-0.1,0-0.2,0.1-0.2c0.2,0.1,0.4,0.1,0.6,0c0.2-0.1,0.5-0.1,0.6,0c0.1-0.1,0.1-0.2,0-0.3
	c0-0.1-0.1-0.1-0.1-0.1h0.2v-0.1h0.5v-0.4l-0.5-0.1l-0.3,0.1c0,0.1,0,0.1-0.1,0l-0.2,0.1l-0.2-0.1c-0.1-0.1-0.2-0.1-0.3,0l-0.4,0.2
	l-0.2-0.2c-0.1-0.1-0.2-0.1-0.4,0l0.2-0.2l0.2,0.1l0.6-0.3c0.1-0.1,0.3-0.1,0.6-0.1c0.1-0.1,0.1-0.2,0.1-0.3l-0.1-0.1
	c-0.2,0-0.3,0-0.4,0.1c0.1,0.1,0.1,0.1,0,0.1l-0.8,0.1c-0.1-0.1-0.2-0.2-0.1-0.3c-0.1,0-0.1,0-0.1-0.1l0.2-0.1
	c0-0.1,0.1-0.2,0.3-0.2c0.1,0.1,0.3,0,0.5-0.2c0.1-0.1,0.1-0.1,0.1,0c0-0.1,0.1-0.2,0.2-0.2l-0.1-0.2c-0.1,0-0.1,0,0-0.1
	c0.1-0.1,0.1-0.1,0.1,0c-0.1,0.1-0.1,0.1,0,0.1c0.1,0,0.1,0,0.1-0.1v-0.1c0.1,0.1,0.2,0,0.5-0.1c0.1,0,0.1,0,0-0.1
	c0.2,0,0.3-0.1,0.5-0.2c0.1,0.1,0.2,0.1,0.3,0l0.1-0.1c0-0.1,0-0.1,0.1,0l0.1,0.1c0.1,0,0.1,0,0.1-0.1l-0.1-0.1
	c0.1-0.1,0.2-0.1,0.3-0.1l0.2,0.1c0.1-0.3,0.2-0.4,0.4-0.2c0-0.1-0.1-0.2-0.2-0.2c0.1-0.1,0.1-0.1,0.2,0c0.1,0,0.1,0.1,0.1,0.1
	l0.7-0.4l0.7-0.3c0.1-0.1,0.1-0.2,0.2-0.1v-0.1v-0.8c-0.1-0.3-0.1-0.6,0-0.8c-0.1-0.1-0.1-0.2-0.1-0.4c0-0.2,0.1-0.5,0.2-0.8
	c-0.1-0.1-0.1-0.2-0.1-0.4s0-0.3,0.1-0.5c0.1-0.2,0-0.4-0.1-0.7c-0.1-0.1-0.1-0.2,0-0.4v-0.2l-0.1-0.7c0-0.1,0.1-0.2,0.2-0.3
	c0.1-0.1,0.1-0.2-0.1-0.4v-0.2l-0.1-0.9c-0.1-0.5-0.1-0.9,0-1.1v-0.1v-0.4c-0.1-0.2-0.1-0.5,0-0.6l-0.1-0.9l0.1-0.9
	c-0.1-0.2-0.1-0.5-0.1-0.9v-0.7V532l-0.2-1l0.1-0.5l-0.1-0.5c0-0.6,0-1-0.1-1.2l-0.1-1c-0.1-0.1-0.1-0.1,0-0.2l0.1-0.2
	c0-0.1-0.1-0.2-0.2-0.3c-0.1-0.2-0.1-0.4,0-0.7v-0.6l-0.3-2.1v-0.4l-0.1-1.4l-0.2-2.4c-0.3-1.2-0.4-2.1-0.3-2.7l0.2-0.1l-0.1-0.2
	c0-0.1,0-0.1,0.1-0.1l0.1-2.2c0-0.1,0-0.1,0.1-0.1c0.1,0.1,0.1,0.1,0.1,0v-1.9v-0.1h-0.1l0.2-0.1v-0.1c-0.1,0-0.1,0,0-0.1l-0.1-1.5
	c0.1-0.1,0.1-0.2,0.1-0.3l-0.1-0.2v-0.1c0-0.1,0-0.1,0.1-0.1c0.1-0.1,0.1-0.2,0.1-0.3c-0.1-0.1-0.1-0.2-0.1-0.3l0.1-0.7
	c0.1,0.2,0.3,0.4,0.7,0.5c0.1-0.1,0.1-0.2,0.1-0.5c-0.1-0.2-0.1-0.4,0-0.5c-0.1-1-0.2-1.6-0.2-1.9c0-0.1,0-0.1-0.1-0.1
	c0.1-0.1,0.1-0.2,0.1-0.5c0-0.4,0-0.6-0.1-0.8c-0.1-0.2-0.1-0.5-0.1-0.8c0.2,0.5,0.3,1.2,0.3,1.9l0.3,2l-0.1,0.7l0.1,0.7
	c0,0.1,0.1,0.2,0.2,0.3c0.2,0.1,0.3,0.1,0.5,0c0.1-0.1,0.1-0.2,0.1-0.3c0-0.2,0-0.3-0.1-0.4c-0.1-0.1-0.1-0.2,0-0.4l0.2-0.1
	c0.1,0,0.2,0,0.3,0.1c0-0.1,0.1,0.3,0.2,1c0,0.4,0.1,0.8,0.2,1c-0.1,0.1-0.1,0.1,0,0.1v0.2c0.1,0.1,0.1,0.1,0.3,0.1h0.3v-0.2
	c0-0.2,0.1-0.5,0.3-0.8c0.1-0.4,0.2-0.7,0.1-0.9l0.5-0.3c0-0.3-0.1-0.6-0.2-0.8c0-0.1,0-0.1,0.1-0.1c0,0.1,0,0.1,0.1,0
	c-0.2-0.7-0.2-1.2-0.1-1.7c0.1,0.2,0.1,0.4,0.1,0.7c-0.1,0.2-0.1,0.5,0,0.7l0.3,0.1c-0.1,0.2-0.1,0.5,0,0.8v0.7
	c0.2,0,0.4-0.1,0.4-0.2l0.1,0.2h0.1v0.5h0.3c-0.1-0.1-0.1-0.2,0-0.4c0.1-0.1,0.1-0.2,0.1-0.3l-0.1-0.2c-0.1,0-0.1,0-0.1-0.1l0.1-0.2
	l-0.1-0.2v-0.1c0.1-0.1,0.1-0.3,0-0.5l-0.1-0.4c0-0.1,0-0.2,0.1-0.3c0.1-0.1,0.1-0.2,0-0.4l0.2,0.2v0.3c0,0.1,0.1,0.4,0.2,0.7
	c0.1,0.2,0.1,0.4,0.1,0.7c0.1,0.1,0.2,0,0.5-0.1l-0.1-0.4c-0.1-0.1-0.1-0.1-0.1,0c0,0.1,0,0.1-0.1,0l-0.1-1l0.2-0.1h0.1l0.1-0.1
	l0.1,0.2c0.1,0.1,0.2,0.2,0.2,0.4c-0.1,0.1-0.1,0.2,0,0.3c0.2,0.2,0.2,0.3,0.2,0.4c-0.1-0.1-0.2-0.1-0.3-0.1l-0.2,0.4
	c0.1,0.1,0.1,0.1,0.2,0h0.1c-0.1,0.1-0.1,0.2,0,0.3l0.1,0.4h0.3c0.1-0.1,0.1-0.2,0-0.3c-0.1-0.1-0.1-0.1,0-0.2
	c-0.1-0.1-0.2-0.3-0.2-0.5c0.1,0.1,0.1,0.1,0.2,0l0.1,0.1c0.1,0.1,0.1,0.1,0.2,0c0-0.1,0-0.1,0.1,0c-0.1,0-0.1,0-0.1,0.1
	s0.1,0.1,0.2,0.1c-0.1,0.2-0.1,0.3,0,0.4v0.8c0.1,0.1,0.1,0.1,0.1,0s0-0.1,0.1,0c-0.1,0.1-0.1,0.1,0,0.2c0,0.1,0.1,0.2,0.2,0.2
	c-0.1,0.1-0.1,0.2,0,0.3c0.1,0.1,0.1,0.2,0,0.4c0,0.1,0,0.1,0.1,0c0.1,0,0.1,0,0.1,0.1l0.1,0.2c-0.1,0.1-0.1,0.2,0,0.3
	c0.1,0.1,0.1,0.3,0.1,0.5c0.1,0,0.2-0.1,0.2-0.2c0.1,0,0.1,0.1,0,0.3c0,0.2,0.1,0.4,0.3,0.7l0.4,0.9c0,0.1,0,0.1,0.1,0.1
	c0.1,0,0.1,0,0,0.1h0.1c0,0.8,0.1,1.2,0.4,1.3l-0.2,0.1l0.1,0.2c0,0.1,0.1,0.2,0.2,0.2v0.3c0,0.4,0.1,0.6,0.2,0.7l-0.2,0.2
	c0.2,0.2,0.3,0.5,0.1,0.6c0.2,0.9,0.4,2,0.5,3.4c0.2,1.6,0.3,2.8,0.5,3.4l-0.1,0.4c0,0.2,0.1,0.6,0.3,1.4v0.2c0,0.1,0,0.2,0.1,0.3
	c0,1.2,0.1,1.9,0.3,2.2v0.3l0.1,1.3c0.1,0.1,0.1,0.2,0.1,0.3c-0.1,0.1-0.1,0.2-0.1,0.3l0.2,0.3c0,0.2,0,0.3-0.1,0.5s-0.1,0.4,0,0.5
	l0.2,0.5v0.8c0,0.4,0.1,0.8,0.2,1.2v0.2c-0.1,0.1-0.1,0.2,0,0.4l0.1,0.2c0.1,0.1,0.1,0.3,0.1,0.5c-0.1,0.2-0.1,0.4,0,0.5l0.1,0.2
	c-0.1,0.1-0.1,0.2-0.1,0.3c0,0.2,0,0.4,0.1,0.5c0.1,0.2,0.1,0.3,0,0.5c0.2,0.3,0.2,0.8,0.1,1.5c0,0.1,0,0.1,0.1,0.1v0.2
	c0,0.2,0,0.3,0.1,0.4c0.1,0.2,0.1,0.3,0,0.5c0,0.1,0,0.1,0.1,0.1l0.1,0.5c-0.1,0.2-0.1,0.5,0,0.9c0.1,0.4,0.1,0.6,0,0.8
	c0.1,0.1,0.2,0.3,0.2,0.5v0.5c0,0.1,0,0.1,0.1,0.1l0.1,0.2l-0.1,0.3l0.1,0.2l-0.1,0.3l0.1,0.3v0.1c0.5,0,0.9-0.1,1.3-0.2l0.4,0.1
	c0.2,0,0.3,0,0.5-0.1c0.1-0.1,0.3-0.1,0.5-0.1h0.3c0.1,0.1,0.2,0.1,0.3,0l0.2-0.1c0.2,0,0.3,0,0.5,0.1c0.2,0.1,0.3,0.1,0.5,0
	l0.5-0.2h0.8c0.5,0,0.8,0,0.9-0.1h0.2c0.1,0.1,0.1,0.1,0.2,0l0.3-0.1c0.1-0.1,0.2-0.1,0.5-0.1c0.2,0.1,0.3,0.1,0.5,0l0.4,0.1
	c0.2,0,0.3,0,0.5-0.1c0.2-0.1,0.3-0.1,0.5,0c0.1-0.1,0.2-0.1,0.5-0.1v-0.9l0.2-0.8c0.1-0.1,0.1-0.2,0.1-0.4c0-0.1,0-0.2,0.1-0.3
	c-0.1-0.1-0.1-0.2,0-0.4c0.1-0.4,0.2-0.6,0.2-0.7v-0.5c0-0.3,0-0.5,0.1-0.6c-0.1-0.1-0.1-0.2-0.1-0.4l0.3-0.7l-0.1-0.2
	c0-0.1,0.1-0.3,0.2-0.5c0.1-0.1,0.1-0.2,0-0.3V537c-0.1-0.1-0.1-0.2,0-0.3l0.1-0.2l-0.1-0.6c0-0.1,0.1-0.2,0.2-0.3
	c0.1-0.1,0-0.2-0.1-0.3c0.1-0.1,0.1-0.2,0.1-0.5v-0.7c0-0.4,0-0.7,0.1-0.7v-0.2h0.1V533v-0.5c-0.1-0.2,0-0.4,0.1-0.5
	c0-0.9,0-1.4,0.1-1.6v-0.3l0.2-1.2l-0.1-1l0.1-0.4l-0.1-0.6c0.1-0.1,0.1-0.5,0.1-1c0.1-0.1,0.1-0.3,0-0.5c-0.1-0.1-0.1-0.3,0-0.5
	l0.1-0.3l-0.1-0.3l0.1-1.3c0-0.3,0-0.5,0.1-0.7c0-0.4,0-0.8-0.1-1.1c0.1-0.2,0.1-0.5,0.1-0.9c-0.1-0.2-0.1-0.4-0.1-0.6
	c0-0.4,0-0.7,0.1-0.9c0-0.5,0-1-0.1-1.3v-1.2c0-0.5,0-0.9,0.1-1.1h-1.3l-0.1-0.2c0-0.1,0-0.1,0.1-0.1c0-0.1,0.1-0.8,0.4-1.9
	c0-0.1,0-0.1,0.1-0.1c0.1-0.6,0.2-1,0.2-1.3c0-0.3,0-0.5,0.1-0.5V511h-0.1c0-0.1,0-0.1,0.1-0.1c0,0.1,0,0.1,0,0v-0.1
	c0.1-0.2,0.1-0.4,0.1-0.7c-0.1-0.2-0.1-0.4,0-0.6l0.1-0.3V509l-0.1-0.2h0.2c0.1,0,0.1-0.1,0-0.2c-0.1-0.1,0-0.2,0.1-0.5
	c0.1-0.1,0.1-0.2,0.1-0.4c0.1,0.3,0.3,0.5,0.6,0.5c0.1-0.1,0.2-0.3,0.2-0.5s0-0.3,0.1-0.4c-0.1-0.1-0.1-0.3-0.1-0.7
	c0-0.5,0-0.9,0.1-1l-0.1-0.1c0.1-0.1,0.1-0.4,0.1-0.8c-0.1-0.4-0.1-0.7,0-1c0.1,0.3,0.1,0.7,0.1,1.3c-0.1,0.2-0.1,0.6-0.1,1
	c0,0.7,0,1.1,0.1,1.3l-0.1,1.3c0,0.3,0.2,0.4,0.7,0.3c0.1-0.1,0.1-0.2,0.1-0.5c-0.1-0.1-0.1-0.2,0-0.4c0.2-0.1,0.3-0.1,0.5,0v0.5
	c0,0.5,0.1,1,0.2,1.4c-0.1,0-0.1,0.1-0.1,0.3l0.3,0.1h0.3c0-0.2,0.1-0.5,0.4-0.8c0.2-0.3,0.2-0.6,0.2-0.8c0.1-0.1,0.2-0.1,0.3-0.1
	c0.1,0,0.2-0.2,0.3-0.5c0-0.2,0-0.3-0.1-0.4c-0.1-0.1,0-0.1,0.1-0.1l-0.1-0.8c0-0.1,0.1-0.4,0.2-0.7c0.1,0.2,0.1,0.4,0,0.5
	c-0.1,0.2-0.1,0.5,0,0.7l0.2,0.2c-0.1,0.2-0.1,0.4,0,0.5c0,0.3,0,0.5-0.1,0.7c0.1,0.1,0.1,0.1,0.2,0c0.1,0,0.1-0.1,0.1-0.1
	c0.1,0.1,0.1,0.1,0,0.2h0.2c0,0.2,0,0.4-0.1,0.5c0.1,0.1,0.2,0.1,0.3,0.1l0.1-0.5c0.1-0.1,0.1-0.1,0-0.2c-0.1,0-0.1,0-0.1-0.1
	l0.1-0.2l-0.1-0.2h0.1v-0.1c0.1-0.1,0.1-0.2,0-0.4c-0.1-0.1-0.1-0.2-0.1-0.4c0-0.1,0.1-0.2,0.2-0.3c0.1-0.1,0.1-0.2,0.1-0.3l0.1,0.2
	l-0.1,0.2c0,0.1,0.1,0.4,0.2,0.7c0.1,0.2,0.1,0.4,0.1,0.6c0.1,0.1,0.1,0.1,0.2,0h0.2c-0.1-0.1-0.1-0.1,0-0.2l-0.1-0.2
	c-0.1,0.1-0.1,0.1-0.1,0l-0.1-0.9l0.2-0.1l0.2,0.1v0.1h-0.4l0.1-0.2c-0.1,0-0.1,0,0-0.1c-0.1-0.1-0.1-0.3,0-0.5V506l0.1,0.8
	c0,0.1,0,0.1,0.1,0c0.1,0.1,0.1,0.2,0,0.2l-0.1,0.2c0,0.1,0.1,0.2,0.2,0.3v0.2c-0.1,0.1-0.1,0.2,0,0.3c0.2,0.2,0.2,0.3,0.2,0.4
	c0.1,0,0.2,0,0.2,0.1c0.1,0.1,0.1,0.1,0.2,0c0-0.1,0-0.1,0.1,0c-0.1,0-0.1,0-0.1,0.1s0.1,0.1,0.2,0.1c-0.1,0.2-0.1,0.4,0,0.6
	l0.1-0.1l0.1,0.1c-0.1,0.1-0.1,0.2,0.1,0.4c-0.1,0.1-0.1,0.2,0,0.3c0,0.2,0,0.3-0.1,0.4c0,0.1,0,0.1,0.1,0h0.1
	c0.1,0.1,0.1,0.2,0.1,0.3l-0.1,0.2c0.1,0.1,0.2,0.3,0.2,0.5c0.1,0,0.2-0.1,0.2-0.2c0.1,0.1,0.1,0.1,0,0.1l-0.1,0.2l0.3,0.6
	c0.1,0.4,0.2,0.6,0.2,0.8c0,0.1,0,0.1,0.1,0.1c0.1,0,0.1,0,0,0.1h0.1v0.2v0.5c0,0.2,0.1,0.4,0.3,0.5l-0.2,0.1c0.1,0,0.1,0,0.1,0.1
	s0,0.2,0.1,0.3v0.1v0.4c-0.1,0.2,0,0.3,0.1,0.5l-0.2,0.2l0.1,0.2c0,0.1,0,0.2-0.1,0.3c0.1,0.9,0.2,1.9,0.2,3c0,1.6,0,2.7,0.1,3.1
	c-0.1,0.1-0.1,0.2-0.1,0.5l0.1,1v0.2c0,0.1,0,0.2,0.1,0.3v0.9c-0.1,0.4-0.1,0.8,0,1c-0.1,0.1-0.1,0.2-0.1,0.5l0.1,0.9l-0.1,0.5
	l0.1,0.2v0.2c0,0.2,0,0.3-0.1,0.4c-0.1,0.1-0.1,0.2,0,0.4l0.1,0.5v0.8c-0.1,0.4-0.1,0.7,0,1l-0.1,0.5l0.2,0.2l-0.1,0.9
	c0.1,0.1,0.1,0.1,0,0.2c-0.1,0.1-0.1,0.2-0.1,0.3c0,0.2,0,0.3,0.1,0.5c0,0.2,0,0.4-0.1,0.5c0.1,0.1,0.1,0.2,0.1,0.5
	c0,0.2-0.1,0.5-0.2,0.8l0.1,0.1v0.1c0,0.2,0,0.3,0.1,0.4c0.1,0.2,0.1,0.3,0,0.5c-0.1,0.1,0,0.1,0.1,0.1c-0.1,0.1-0.1,0.3,0,0.5
	c-0.1,0.2-0.2,0.5-0.1,0.7c0,0.4,0,0.7-0.1,0.7c0.1,0.1,0.2,0.3,0.2,0.5l-0.1,0.5c0,0.1,0,0.1,0.1,0.1l0.1,0.2l-0.1,0.2v-0.7
	l-0.1,0.3l0.1,0.2c0,0.1,0,0.1-0.1,0.1l-0.1,0.2l0.2,0.4c0.1,0.1,0.1,0.2-0.2,0.4c0,0.1,0,0.1,0.1,0.1c0.1,0,0.1,0,0.1-0.1
	c0-0.1,0-0.1,0.1-0.1c0.2,0,0.4,0.2,0.4,0.5h0.2c0.2,0.2,0.5,0.4,1,0.4c0.1,0,0.2,0,0.2,0.1c0.3,0.1,0.7,0.4,1.2,1.1l0.1,0.3
	l0.5,0.5l0.1,0.2c0.1,0.1,0.1,0.2,0.1,0.4l0.3,0.6l0.4,0.7l0.2,1.2l0.1,2.3H-683.2z M-729.3,549.7L-729.3,549.7
	C-729.2,549.6-729.2,549.7-729.3,549.7z M-729,550h-0.2H-729L-729,550z M-728.2,552.1C-728.2,552.2-728.2,552.2-728.2,552.1
	c-0.2,0.1-0.2,0.1-0.2,0.2l-0.3,0.1v-0.2c0,0.1,0,0.1-0.1,0c-0.1-0.1-0.2-0.1-0.4,0c0.1-0.1,0.2-0.1,0.5-0.1
	C-728.4,552.3-728.3,552.3-728.2,552.1z M-729,550.5c0-0.1,0.1-0.1,0.2-0.1L-729,550.5z M-728.7,548.7h-0.2
	C-728.8,548.7-728.8,548.7-728.7,548.7z M-728.4,553.1C-728.4,553.2-728.5,553.2-728.4,553.1h-0.4C-728.7,553-728.6,553-728.4,553.1
	z M-728.5,549.3C-728.5,549.3-728.6,549.3-728.5,549.3L-728.5,549.3L-728.5,549.3z M-728.5,548.7c0.1-0.1,0.2-0.1,0.3-0.1
	C-728.2,548.7-728.3,548.7-728.5,548.7z M-728.4,550.3L-728.4,550.3L-728.4,550.3L-728.4,550.3z M-728.3,554L-728.3,554L-728.3,554
	C-728.4,554-728.4,554-728.3,554z M-728.2,549.1C-728.2,549.2-728.2,549.2-728.2,549.1c-0.2,0.1-0.2,0.1-0.2,0.2
	C-728.5,549.2-728.4,549.1-728.2,549.1z M-728.3,550.4c0.1-0.1,0.2-0.1,0.3-0.1c0.1,0.1,0.1,0.1,0.2,0
	C-727.9,550.4-728.1,550.5-728.3,550.4z M-728.3,552.4L-728.3,552.4L-728.3,552.4L-728.3,552.4
	C-728.3,552.5-728.3,552.5-728.3,552.4z M-728,548.6h-0.2C-728.2,548.5-728.1,548.5-728,548.6C-728,548.5-728,548.5-728,548.6z
	 M-727.5,548.4l-0.5,0.2C-727.9,548.4-727.7,548.4-727.5,548.4z M-726.7,548.3L-726.7,548.3l0.1,0.2L-726.7,548.3
	c-0.1,0.2-0.1,0.2-0.2,0.1c-0.1,0.1-0.2,0.1-0.4,0.1c-0.1,0-0.2,0-0.3-0.1l0.5-0.1c0.1,0,0.1,0,0.1-0.1L-726.7,548.3L-726.7,548.3z
	 M-727.1,549.1C-727.1,549.2-727.1,549.2-727.1,549.1L-727.1,549.1L-727.1,549.1z M-725.9,555.4l-0.1,0.2l-0.1-0.1
	c-0.1,0.1-0.1,0.1-0.2,0l0.2-0.1C-726,555.5-725.9,555.5-725.9,555.4z M-725.4,549.6c-0.2,0-0.3,0-0.4,0.1c0-0.1,0.1-0.1,0.2-0.1
	S-725.4,549.5-725.4,549.6L-725.4,549.6h0.3C-725.2,549.6-725.3,549.6-725.4,549.6z M-724.8,547.6c-0.1-0.1-0.1-0.1-0.2,0
	c-0.1,0.1-0.2,0.1-0.3,0c0,0.2-0.1,0.2-0.2,0.1c0,0.1,0,0.1-0.1,0.1c-0.1,0.1-0.2,0.2-0.2,0.3l0.4,0.2V548c0.1,0.1,0.2,0.1,0.3,0
	c0.2,0,0.3-0.1,0.3-0.2C-724.8,547.8-724.8,547.7-724.8,547.6z M-724.8,552.9h-0.2C-724.9,552.8-724.8,552.8-724.8,552.9z
	 M-724.4,545.4c0.1-0.1,0.2-0.1,0.3-0.1C-724.1,545.3-724.2,545.4-724.4,545.4z M-723.6,503.5l-0.1-0.2
	C-723.6,503.3-723.6,503.3-723.6,503.5z M-723.4,507.8L-723.4,507.8C-723.4,507.9-723.4,507.8-723.4,507.8z M-723.4,508l0.1-0.2
	L-723.4,508C-723.4,508-723.4,508.1-723.4,508L-723.4,508z M-723.3,545.4L-723.3,545.4C-723.4,545.3-723.4,545.3-723.3,545.4
	L-723.3,545.4z M-723.2,545.5l0.2,0.1C-723.2,545.5-723.2,545.5-723.2,545.5z M-722.9,513.8l-0.1-0.2
	C-722.9,513.6-722.9,513.7-722.9,513.8z M-722.1,503.4C-722,503.4-722,503.5-722.1,503.4l-0.2-0.1
	C-722.2,503.4-722.2,503.4-722.1,503.4z M-722,505.2L-722,505.2L-722,505.2L-722,505.2z M-721.9,503.6
	C-721.9,503.5-721.8,503.5-721.9,503.6L-721.9,503.6C-721.8,503.6-721.9,503.6-721.9,503.6z M-721.6,503.5c0,0.1,0,0.1,0,0.1
	C-721.7,503.6-721.7,503.5-721.6,503.5L-721.6,503.5C-721.6,503.4-721.6,503.4-721.6,503.5z M-721.1,505.2c-0.1-0.1-0.1-0.2-0.1-0.5
	C-721.1,504.8-721.1,505-721.1,505.2z M-721.1,505.4L-721.1,505.4L-721.1,505.4z M-721.1,505.5
	C-721.1,505.5-721.1,505.4-721.1,505.5L-721.1,505.5L-721.1,505.5z M-721.1,555.1L-721.1,555.1L-721.1,555.1
	C-721.1,555.2-721.1,555.1-721.1,555.1z M-720.9,509L-720.9,509l0.1,0.2L-720.9,509z M-720.4,505.4v-0.2h0.1v-0.3
	c0,0.1,0,0.1,0.1,0.1c-0.1-0.1-0.1-0.2,0-0.3v-0.4c0.1,0.1,0.2,0.3,0.2,0.5l-0.1,0.5c-0.1,0-0.1,0,0-0.1l-0.1-0.2
	C-720.3,505.2-720.3,505.2-720.4,505.4C-720.3,505.4-720.4,505.4-720.4,505.4z M-718.4,504.6L-718.4,504.6
	C-718.4,504.5-718.4,504.5-718.4,504.6z M-718.4,504.6L-718.4,504.6C-718.4,504.7-718.4,504.6-718.4,504.6z M-718.2,505.3
	c-0.1,0.1-0.1,0.3,0,0.5c-0.1-0.2-0.2-0.4-0.1-0.6v-0.1h-0.1c0-0.2,0-0.2,0.1-0.1C-718.3,505-718.2,505.1-718.2,505.3z
	 M-717.5,503.9c0-0.4-0.1-0.6-0.2-0.7h0.2v-0.3c0-0.1,0-0.2,0.1-0.3v0.4c-0.1,0.1,0,0.2,0.1,0.4c0,0.1,0,0.1-0.1,0.1
	c0.1,0.2,0.2,0.5,0.2,0.7c-0.1,0.3-0.1,0.5,0,0.6c-0.1-0.1-0.2-0.3-0.1-0.5C-717.3,504.3-717.4,504.1-717.5,503.9L-717.5,503.9z
	 M-717.6,504.3L-717.6,504.3C-717.6,504.2-717.6,504.2-717.6,504.3z M-717.5,508.5c0-0.2,0-0.3-0.1-0.4c0.1,0,0.1,0.1,0.1,0.2
	S-717.5,508.5-717.5,508.5c0.1,0.2,0.1,0.2,0,0.2c0,0.1,0,0.1,0.1,0.1c0.1,0,0.1,0,0,0.1C-717.5,508.7-717.6,508.6-717.5,508.5z
	 M-717.3,504.9L-717.3,504.9l0.2-0.1v0.1H-717.3L-717.3,504.9z M-717.1,505.2L-717.1,505.2C-717.2,505.1-717.1,505.1-717.1,505.2z
	 M-717.1,505.3L-717.1,505.3C-717.2,505.4-717.2,505.4-717.1,505.3z M-717,506.6L-717,506.6L-717,506.6L-717,506.6L-717,506.6z
	 M-716.8,504.7v-0.2C-716.7,504.6-716.7,504.7-716.8,504.7z M-716.8,505C-716.7,505-716.7,505.1-716.8,505l0.2,0.3
	C-716.7,505.2-716.8,505.1-716.8,505z M-716.6,505.4C-716.5,505.4-716.5,505.4-716.6,505.4l0.1,0.2L-716.6,505.4z M-716.6,505.6
	l0.2,0.3C-716.5,505.7-716.6,505.6-716.6,505.6z M-716.1,506.9l-0.1,0.2h-0.2l0.1-0.2c-0.1-0.1-0.1-0.1,0-0.1
	c-0.1-0.1-0.1-0.3-0.1-0.6v-0.4c0,0.1,0.1,0.4,0.2,0.9c0,0.1,0,0.1,0.1,0V506.9L-716.1,506.9z M-713.3,511.1c-0.1-0.1-0.1-0.2,0-0.2
	V511.1z M-713.2,509.6c0.1,0.1,0.1,0.2,0.1,0.3C-713.2,509.9-713.2,509.8-713.2,509.6z M-713.1,510.8L-713.1,510.8
	C-713.2,510.7-713.1,510.7-713.1,510.8z M-713.1,510.8L-713.1,510.8C-713.2,510.9-713.2,510.8-713.1,510.8z M-698.1,512.4l-0.1-0.2
	C-698.1,512.3-698,512.4-698.1,512.4z M-698.1,507.3l0.1-0.2c-0.1,0-0.1,0,0-0.1l0.1,0.1L-698.1,507.3L-698.1,507.3z M-697.8,503.1
	L-697.8,503.1C-697.8,503.2-697.8,503.2-697.8,503.1z M-696.4,504.8l0.2,0.2C-696.4,505-696.4,505-696.4,504.8z M-696.3,503.3
	c0.1,0,0.1,0.1,0,0.1V503.3C-696.4,503.3-696.3,503.3-696.3,503.3z M-696.1,503.5C-696.1,503.4-696.1,503.4-696.1,503.5
	L-696.1,503.5L-696.1,503.5z M-695.8,503.5C-695.9,503.5-695.9,503.4-695.8,503.5v-0.2V503.5C-695.7,503.5-695.7,503.5-695.8,503.5z
	 M-695.6,508.4L-695.6,508.4l0.1,0.2L-695.6,508.4z M-695.4,505c-0.1-0.1-0.1-0.2-0.1-0.3l0.1-0.2V505z M-695.5,505.1
	C-695.5,505.1-695.4,505.1-695.5,505.1C-695.4,505.1-695.5,505.1-695.5,505.1z M-695.4,505.2L-695.4,505.2
	C-695.5,505.3-695.5,505.3-695.4,505.2z M-694.7,505.1L-694.7,505.1L-694.7,505.1L-694.7,505.1z M-694.6,505.1L-694.6,505.1v-0.2
	c-0.1-0.1-0.1-0.2,0-0.3c0.1-0.1,0.1-0.2,0.1-0.3c0.1,0.1,0.1,0.2,0.1,0.5l-0.1,0.5C-694.6,505.3-694.6,505.3-694.6,505.1
	C-694.5,505.1-694.6,505.1-694.6,505.1z M-694.7,504.8L-694.7,504.8C-694.7,504.9-694.7,504.9-694.7,504.8z M-692.7,504.8l-0.1-0.2
	C-692.7,504.7-692.7,504.7-692.7,504.8z M-692.7,505.2L-692.7,505.2L-692.7,505.2v-0.3v0.1c0.1,0.1,0.1,0.3,0.1,0.5
	c-0.1,0.1-0.1,0.2-0.1,0.3c-0.1-0.1-0.1-0.2-0.1-0.3C-692.8,505.4-692.8,505.3-692.7,505.2z M-692.3,507.9
	C-692.2,507.9-692.2,508-692.3,507.9L-692.3,507.9z M-692.3,508.4C-692.3,508.4-692.2,508.4-692.3,508.4L-692.3,508.4
	c0.1,0.2,0.1,0.2,0.1,0.2C-692.2,508.5-692.3,508.4-692.3,508.4z M-692.2,508v0.3C-692.2,508.2-692.2,508.1-692.2,508z
	 M-691.9,504.4L-691.9,504.4C-692,504.5-692,504.4-691.9,504.4z M-691.9,504.4C-691.9,504.3-691.9,504.3-691.9,504.4L-691.9,504.4z
	 M-691.6,504.5l-0.1-0.2l0.1-0.4l-0.2-0.4h0.1c0-0.2,0-0.4,0.1-0.5v0.3c-0.1,0.1,0,0.2,0.1,0.4h-0.1v0.1c0.1,0.1,0.1,0.2,0.1,0.4
	C-691.5,504.3-691.6,504.4-691.6,504.5z M-691.7,504.2L-691.7,504.2L-691.7,504.2L-691.7,504.2z M-691.6,504.6L-691.6,504.6
	L-691.6,504.6l-0.1,0.3C-691.7,504.7-691.7,504.6-691.6,504.6z M-691.7,506.6h0.2v0.1C-691.6,506.7-691.7,506.6-691.7,506.6z
	 M-691.5,505.1L-691.5,505.1C-691.6,505.1-691.5,505.1-691.5,505.1z M-691.5,505.6c-0.1-0.1-0.1-0.2-0.1-0.3
	C-691.6,505.3-691.5,505.4-691.5,505.6z M-691.1,504.8c0.1,0.1,0.1,0.1,0,0.2c-0.1,0.1-0.1,0.1,0,0.2
	C-691.3,505.1-691.3,505-691.1,504.8z M-691.1,505.4v-0.2V505.4L-691.1,505.4C-691.1,505.5-691.1,505.4-691.1,505.4z M-691,505.8
	v-0.2C-690.9,505.7-690.9,505.8-691,505.8z M-690.3,508.9c-0.1-0.1-0.1-0.1,0-0.2l-0.1-0.2c-0.1,0-0.1-0.1-0.1-0.2s-0.1-0.1-0.2-0.1
	l-0.2,0.3c0,0.1,0,0.1,0.1,0h0.1c-0.1,0.1-0.1,0.2,0,0.3v0.3h0.4C-690.3,509-690.3,508.9-690.3,508.9z M-689.6,510l0.1,0.2
	C-689.6,510.1-689.6,510.1-689.6,510z M-688.3,511.1c-0.1-0.1-0.1-0.2,0-0.2V511.1z M-688.2,510.9v-0.2
	C-688,510.7-688,510.8-688.2,510.9z M-688.1,509.7c0.1,0.1,0.1,0.2,0.1,0.3C-688,510-688.1,509.9-688.1,509.7z"/>
<g>
	<g>
		<path class="st0" d="M-743.7,470c0.8,0,1.9-2.2,3-2.2c1.2,0,2.2-1.1,3.1-1.1c0.6,0,1.2,1.2,1.9,1.2c0.7,0.1,1.3,0.1,1.8,0.2
			s0.9,1.3,1,1.4c0.2,0.1,0.3-0.9,0.4-0.8c0.4,0.3,0.6,1.7,0.8,1.9c0.2,0.4,0.1,1.9-0.2,2.5c0.4,0.5,0.6,0.9,0.7,1.1
			c0.1,0.3,0.1,0.5,0.1,0.7c-0.1,0.2-0.2,0.5-0.4,0.8c-0.2,0.2-0.2,0.4-0.4,0.6c-0.2,0.5-0.5,0.8-0.6,1.2c-0.1,0.3-0.3,0.6-0.3,0.7
			c0.1,0.1,0.4,0.2,1,0.2c0.7,0,1.4,0.1,2.4,0c0.9-0.1,1.8,0,2.4-0.1c0.8,0,1.2,0.1,1.3,0.1c0.2,0.1,7.5-0.4,8.8-0.4
			c1.3,0,2.9,0,4.6-0.1c1.9-0.1,4.6-0.2,5.9-0.1c1.4,0,5.6-0.1,5.8,0c0.7,0.3,0.5,0.4-0.8,0.4c-2-0.1-9,0.2-12.2,0.3
			c-3.1,0.1-12.6,0.7-15.2,0.9c-2.6,0.3-4,0.4-4.3,0.7c-0.4,0.4,0,0.7,1,0.8c1,0.2,2.5,0.2,4.6,0.1c2.5-0.2,11.6-0.7,13.7-0.8
			c2.2,0,3.6,0,4.3,0.1c0.3,0.1,5.3-0.2,6.3-0.1c0.9,0,1.9-0.1,3.1-0.1c1.8,0,3.4,0,4.6,0.1c1.4,0.1,2.8,0.3,4.4,0.7
			c0.9,0.2,1,0.2,0.2-0.2c-0.4-0.2-0.4-0.3,0-0.4c0.3,0,1.1-0.1,2.4,0c0.9,0,2,0,3.3-0.1c1.3,0,10-0.6,11.1-0.7
			c1.7-0.1,2.8,0,3.2,0.2c0.5,0.2,0.2,0.5-0.9,0.9c-0.5,0.2-0.7,0.3-0.7,0.4c-0.1,0.1,0,0.3,0.4,0.5c0.2,0.1-0.7,0.4-0.3,0.5
			c0.3,0.1,0.6,0.3,0.9,0.3c0.2,0.1,0,0.1-0.6,0.3c-0.5,0.2-1.3,0.5-2.2,0.7c-1,0.2-0.9,0.4-1.9,0.6c-1,0.2-9.5,0.9-10.3,0.9
			c-0.4,0-0.9,0.1-1.4,0.3c-0.5,0.1-0.9,0.3-1.3,0.5c-0.3,0.2-0.7,0.3-1.3,0.5c-0.6,0.1-1.1,0.2-1.7,0.3c-0.5,0.1-1.1,0.1-1.6,0.3
			c-0.6,0.1-1,0.3-1.3,0.5c-0.8,0.4-14.4,1.6-18.8,2.1c-4.4,0.5-9.7,1-16.2,1.5c-1.1,0.1-2.3,0.2-3.8,0.3c-1.5,0.2-2.9,0.3-4.2,0.4
			c-1.3,0.2-2.8,0.3-4.6,0.4s-3.5,0.2-5,0.3c-0.8,0-1.9,0.1-3.4,0.2c-1.5,0.2-3.3,0.3-5,0.5c-2.3,0.2-4.3,0.4-6.1,0.6
			c-1.8,0.2-3,0.3-3.6,0.2c-1-0.1-2.1-0.1-3.2-0.1c-1.1,0-1.9,0.1-2.6,0.1c-0.9,0.1-1.6,0-2.3-0.2c-0.6-0.2-1.3-0.6-2.1-1.3
			c-0.8-0.6-1.4-1.4-1.5-2.2c-0.4-0.8-0.5-1.6-0.5-2.7c0-0.3,0-0.6-0.1-0.9c-0.1-0.7-0.1-1.6-0.4-2.6c-0.2-1-0.4-1.8-0.6-2.6
			l-0.8-2.6l1.5,0.1c0.5,0,1,0.2,1.7,0.3c0.6,0.1,1.2,0.2,1.7,0.3c0.5,0.2,1.1,0.3,1.7,0.3c0.6,0.1,1.1,0.2,1.5,0.2
			c0.5,0,1.4,0,2.8,0.1c1.4,0.1,2.9,0.1,4.6,0.2c0.8,0,2,0,3.6,0c1.5,0,3.2-0.1,4.9,0c1.7,0,3.1-0.1,4.3-0.1c1.3,0,1.9-0.1,1.9-0.1
			c0.1-0.1,0.4-0.2,0.9-0.3c0.6-0.1,1.2-0.2,1.8-0.1c0.8-0.1,1.5,0,2.2-0.1c0.5,0,0.8,0,1.1,0c0.2,0,0.3,0.1,0.5,0.3
			s0.3,0.4,0.3,0.7c0,0.4,0.1,0.7,0.5,0.8c0.3,0.1,1,0.2,2,0l2.4-0.2l-2-1.5c-0.5-0.6-1-1-1.6-1.2c-0.4-0.3-0.7-0.5-1-0.7
			c-0.2-0.1-0.3-0.3-0.4-0.3c-0.1-0.1-0.2-0.2-0.3-0.3c0-0.1-0.1-0.1-0.2-0.3c-0.1-0.1-0.1-0.2-0.2-0.4c-0.2-0.2-0.3-0.4-0.5-0.4
			c-0.2-0.1-0.3-0.1-0.4-0.2c-0.1-0.1-0.3-0.1-0.4-0.2s-0.3-0.3-0.5-0.4c-0.2-0.2-0.3-0.4-0.4-0.4c-0.1-0.1-0.2-0.1-0.2-0.2
			c-0.1-0.1-0.1-0.1-0.2-0.2c-0.1-0.1-0.2-0.3-0.4-0.6c-0.1-0.1-0.2-0.4-0.3-0.4c-0.1-0.1-0.2-0.1-0.3-0.2c-0.1-0.1-0.1-0.1-0.3-0.1
			c-0.1-0.1-0.3-0.2-0.5-0.3c-0.4-0.3-0.6-0.6-0.8-0.7c-0.1-0.2-0.2-0.4-0.2-0.7c0.1-0.2,0.2-0.4,0.6-0.6c0.3-0.2,0.7-0.3,1.2-0.4
			c0.5-0.1,0.9-0.2,1.3-0.2C-745,470-744.4,470-743.7,470z"/>
		<path class="st0" d="M-730,492.7c0.1,0,0.3,0.2,0.5,0.4c0.3,0.3,0.3,0.8,0.3,1.6c-0.1,0.7-0.3,1.9-0.7,3.5
			c-0.3,1.3-0.5,2.3-0.7,3.3c-0.2,0.9-0.3,1.4-0.3,1.7c0,0.2-0.1,0.9-0.3,2.2c-0.1,1.3-0.3,2.8-0.5,4.6c-0.4,2.4-0.6,4-0.8,4.9
			c-0.2,0.8-0.4,1.2-0.7,1.2c-0.1,0-0.4-0.1-0.5,0.1c-0.2,0.1-0.4,0.3-0.5,0.5c-0.2,0.4-0.3,1.1-0.4,1.9c-0.1,0.9,0,1.7,0,2.5
			c0,0.7,0.2,1.1,0.4,1.2c0.3,0.1,0.2,0.3-0.4,0.6c-0.5,0.2-0.7,0.5-1,1c-0.2,0.4-0.3,0.8-0.2,1.2c0,0.3,0.2,0.5,0.6,0.4
			c0.3,0,0.5,0.1,0.5,0.3c0.1,0.3,0,0.8-0.1,1.6c-0.3,1.8-0.5,2-0.5,0.6c-0.1-1.1-0.2-1-0.3,0.2c-0.1,1.4-0.5,4-1.3,7.7
			c-0.3,1.8-0.9,3.8-1.5,6c-0.6,2.2-1.2,4.1-1.7,5.7c-0.5,1.6-1,2.9-1.3,4c-0.3,1.2-0.5,1.8-0.4,2c0,0.2,0,0.3,0,0.4
			c-0.1,0.1-0.2,0.1-0.3,0c-0.2,0.1-0.3,0.3-0.7,0.8c-0.4,0.5-0.7,1.1-1,1.9c-1.2,2.6-3,4.9-5.3,6.8c-0.2,0.1-0.5,0.4-0.8,0.7
			c-0.4,0.4-0.9,0.7-1.4,1.1c-0.4,0.4-0.9,0.6-1.4,0.7s-0.9,0.2-1.3,0.4c-0.4,0.1-0.7,0.2-0.9,0.2c-0.2,0.1-0.4,0-0.5-0.1
			s-0.1-0.3,0-0.4c0.1-0.2,0.2-0.4,0.4-0.6c0.1-0.2,0.2-0.3,0.3-0.5c0-0.2,0-0.3-0.1-0.3c-0.1,0-0.2,0.1-0.4,0.2
			c-0.2,0.1-0.3,0.2-0.6,0.3c-0.5,0.4-1,0.6-1.5,0.9c-0.3,0.1-0.7,0.2-1.1,0.4c-0.4,0-0.8,0-1.2,0.1c-0.3,0-0.5-0.1-0.6-0.1
			c0.8-0.6,1.5-1.2,2.1-1.8c0.6-0.6,1.3-1.4,2-2.2c0.9-1.2,1.6-2.5,1.9-3.8c0.2-0.6,0.4-1.1,0.6-1.7c0.6-1.2,1.1-2.7,1.5-4.4
			c0.2-0.9,0.5-1.7,0.8-2.6c0.6-1.8,1-3.5,1.4-5c0.2-0.6,0.3-1.2,0.5-1.7c0.1-0.8,0.2-1.8,0.2-3.1c0-1.7,0.1-3.3,0.4-4.6
			c0.1-0.2,0.2-0.7,0.4-1.1c0.3-0.8,0.5-1.6,0.8-2.6c0.3-1,0.5-1.9,0.6-2.8c0.1-0.6,0.1-1.1,0.1-1.5c-0.1-0.4-0.1-0.9-0.2-1.3
			c-0.1-0.4-0.2-1-0.2-1.6c0-0.7,0-1.5,0.1-2.6c0.2-2.4,0.5-4.8,0.7-7.5c0.4-3.1,0.7-5.9,0.9-8.4c0.2-2.5,0.3-4,0.2-4.6
			c-0.2-1.2-0.2-2.4,0.2-3.6c0.2-1.2,0.7-2.1,1.3-2.7c0.6-0.5,1.7-1,3.3-1.3c1.6-0.4,3.2-0.6,4.9-0.8c1.7-0.1,2.9-0.2,3.6-0.1
			c0.4,0.1,0.8,0,1.1,0c0.4,0,0.6-0.2,0.8-0.3C-730.2,492.8-730.2,492.7-730,492.7c0-0.1,0-0.1,0.1-0.1
			C-730.1,492.7-730.1,492.7-730,492.7L-730,492.7z"/>
		<g>
			<path class="st0" d="M-834.9,563.2c1.6,0.3,3.5,0.7,5.7,1c3.1,0.4,6.3,0.7,9.2,0.8c1.4,0,2.7,0.1,4.1,0.2
				c2.9,0.2,6.5,0.4,10.6,0.4c2.2,0,4.1,0.1,6.1,0.2c4.3,0.1,8.2,0.2,11.7,0.3c1.4,0,2.7,0.1,3.9,0.1c1.8,0,4.1-0.1,7-0.2
				c3.9-0.2,7.4-0.3,10.6-0.3c0.6,0,1.6,0.1,2.5,0.1c2,0.1,3.9,0.2,6.3,0.2c2.3,0.1,4.5,0.1,6.6,0c1.4,0,2.5-0.1,3.5-0.1
				c1-0.1,2-0.2,2.9-0.3c1-0.1,2.2-0.2,3.5-0.3c1.6-0.1,3.5-0.2,5.9-0.2c5.5-0.1,11.2-0.3,17.2-0.4c7.2-0.1,13.7-0.3,19.4-0.4
				c5.7-0.2,9.2-0.3,10.6-0.4c2.7-0.3,5.5-0.4,8.2-0.3c2.7,0,4.9,0.2,6.5,0.5c1.4,0.3,2.7,1,4.1,1.9c1.4,1,2.5,2,3.5,3
				c0.8,1,1.4,1.8,1.4,2.2c0,0.2,0.2,0.5,0.4,0.7c0.2,0.2,0.6,0.4,1,0.5h0.2c0.2,0,0.2,0,0.2,0.1c0.2,0,0.2,0,0.2,0.1l0,0
				c0,0.1-0.4,0.2-0.8,0.4c-0.6,0.2-1.8,0.3-3.5,0.4c-1.6,0-4.3,0-8.2-0.1c-2.9,0-5.5,0-7.6-0.1c-2.2,0-3.3,0-3.9,0
				c-0.4,0-2.2,0-5.1,0.1c-2.9,0.1-6.5,0.1-10.6,0.2c-5.5,0.1-9.2,0.1-11.3,0.1c-2,0-2.9-0.1-2.9-0.3c0-0.1,0-0.2-0.4-0.3
				c-0.4-0.1-0.8-0.2-1.4-0.3c-1-0.1-2.5-0.1-4.5-0.1c-2.2,0.1-3.9,0.2-5.7,0.3c-1.6,0.1-2.5,0.3-2.5,0.4c-0.2,0.2-0.6,0.1-1.6-0.2
				c-0.6-0.3-1.4-0.4-2.5-0.5c-1-0.1-2-0.1-2.7,0c-0.8,0.1-1,0.2-0.6,0.4c0.2,0.2,0,0.3-0.6,0.4c-0.6,0.1-1.8,0.1-3.7,0.1
				c-4.1,0-4.7-0.1-1.6-0.3c2.3-0.2,2.1-0.3-0.6-0.2c-3.1,0.1-9.2,0.1-18,0.1c-4.3,0-9-0.1-14.1-0.2c-5.3-0.1-9.8-0.3-13.5-0.4
				c-3.7-0.2-6.8-0.3-9.6-0.3c-2.7-0.1-4.3-0.1-4.7,0c-0.4,0.1-0.6,0.1-1,0.1c-0.2,0-0.2-0.1-0.2-0.2c-0.2-0.1-0.8-0.2-2-0.4
				s-2.7-0.3-4.7-0.4c-6.3-0.5-12.1-1.3-17.2-2.5c-0.4-0.1-1-0.3-1.8-0.4c-1-0.2-2-0.5-2.9-0.8c-1-0.2-1.8-0.5-2.1-0.8
				c-0.4-0.3-0.8-0.6-1.4-0.8c-0.4-0.2-0.6-0.4-0.8-0.6c-0.2-0.1-0.2-0.3,0-0.3s0.6-0.1,1-0.1c0.6,0,1,0.1,1.6,0.2
				c0.4,0,0.8,0.1,1.2,0.1c0.4,0,0.6,0,0.6-0.1c0,0-0.2-0.1-0.6-0.2c-0.2-0.1-0.6-0.2-1-0.3c-1-0.3-1.8-0.5-2.5-0.9
				c-0.4-0.2-0.8-0.4-1.2-0.6c-0.2-0.3-0.4-0.5-0.6-0.7c0-0.2,0-0.3,0-0.4C-838.2,562.6-836.6,562.9-834.9,563.2z M-772.3,570.4
				c0.8,0.1,1.6,0.1,2.7,0.1c1.2,0,2.1,0,2.7,0c0.8-0.1,1.2-0.1,1.2-0.1c0-0.1-0.4-0.1-1-0.2c-0.8-0.1-1.8-0.1-2.9-0.2
				c-1.2-0.1-2,0-2.7,0c-0.8,0.1-1.2,0.1-1.2,0.2S-773.1,570.4-772.3,570.4z M-792.8,569.4c-1.2,0.4,1.6,0.7,7.8,0.9
				c3.5,0.1,5.5,0.1,5.3-0.2c0-0.2-2-0.4-5.9-0.7c-1.8-0.1-3.5-0.2-4.9-0.1C-791.9,569.2-792.7,569.3-792.8,569.4z"/>
			<path class="st0" d="M-683.6,575.9c2.8,0,5.6,0,9.9-0.1c4.2-0.1,7.7-0.2,10.6-0.4c2.1-0.1,3.5-0.2,3.5-0.3c0-0.1-1.4-0.1-4.2-0.2
				c-2.1,0-5.6,0-9.9,0c-4.2,0-7.1,0-9.9,0.3c-2.8,0.1-4.2,0.2-4.2,0.5C-687.8,575.7-686.4,575.8-683.6,575.9z"/>
			<path class="st0" d="M-827.7,570.7c0.8-0.1,1.2-0.2,1.2-0.3c0-0.1-0.5-0.2-1.2-0.4c-0.6-0.1-1-0.2-1.4-0.2c-0.4,0-0.7,0.1-1,0.1
				c-0.3,0.2-0.4,0.3-0.2,0.4c0.2,0.1,0.5,0.3,0.9,0.3C-828.8,570.8-828.2,570.7-827.7,570.7z"/>
			<path class="st0" d="M-722.2,573.3c-1.4,0.3-1.6,0.4-0.8,0.3c0.6,0,1,0,1.2,0.1c0.1,0.1,0.1,0.2-0.1,0.3
				c-0.4,0.3-0.2,0.4,0.4,0.4c0.6-0.1,1.4-0.3,2.4-0.6c1.3-0.5,1-0.8-0.9-0.7C-720.5,573-721.3,573.1-722.2,573.3z"/>
			<path class="st0" d="M-690.5,575.7c0.1-0.1,0.2-0.1,0-0.2c-0.7-0.5-3.9-0.6-9.8-0.2c-1.5,0.1-3.1,0.2-4.5,0.2
				c-1.4,0.1-2.5,0.1-3.1,0.1c-0.6,0-1.2,0-1.8,0s-1.1,0-1.4,0.1c-0.3,0.1-0.6,0.1-1,0.1c-0.3,0-0.6,0-0.9,0.1
				c-0.2,0-0.5,0.1-0.8,0.2c-0.2,0.1-0.5,0.2-0.6,0.3c-0.2,0.2-0.2,0.3-0.1,0.3c0.1,0.1,0.5,0.1,1.1,0c0.5,0,1.4-0.1,3-0.2
				c1.4-0.1,3.1-0.1,4.9-0.3c1.7-0.1,3.3-0.2,4.6-0.2c1.2-0.1,2,0,2.2,0c0.3,0,0.6,0.1,1,0.1s0.7-0.1,0.9-0.1
				c0.2-0.1,0.2-0.1-0.1-0.2c-0.5-0.2-0.4-0.2,0.5-0.1c0.3,0,0.9,0.1,1.6,0.1c0.6,0,1.4,0,2.1,0c0.5,0,1,0,1.3-0.1
				C-691,575.8-690.6,575.7-690.5,575.7z"/>
			<path class="st0" d="M-735.2,573.7c1.2,0.1,1.9,0.2,2.1,0.2c0.2,0.1-0.1,0.2-1.1,0.3c-0.4,0-0.8,0-1.2-0.1
				c-0.4-0.1-0.7-0.1-1.1-0.2c-0.3-0.1-0.3-0.1-0.1-0.2C-736.4,573.6-735.8,573.6-735.2,573.7z"/>
			<path class="st0" d="M-725.9,573.6c-0.2,0.1-0.3,0.2-0.6,0.3c-0.1,0.1-0.1,0.2-0.1,0.3c0.2,0,0.4,0.1,0.8,0.1
				c0.6,0,0.7-0.1,1.1-0.1c0.1-0.1,0.3-0.2,0.3-0.3c-0.1-0.1-0.3-0.2-0.3-0.3c-0.2,0-0.4-0.1-0.4-0.1
				C-725.4,573.5-725.6,573.6-725.9,573.6z"/>
		</g>
	</g>
</g>
<g>
	<g>
		<path class="st0" d="M-627,523.2l0.7,0.5c0.2,0.2,0.4,0.4,0.6,0.6c0.2,0.2,0.3,0.4,0.3,0.6c0,0.2-0.1,0.5-0.3,0.7
			c-0.2,0.2-0.4,0.5-0.5,0.8c-0.2,0.3-0.5,0.6-0.7,0.8c-0.2,0.2-0.4,0.5-0.6,0.6c-0.5,0.7-0.9,1.7-1.2,3c-0.3,1.3-0.6,2.8-0.8,4.3
			s-0.4,3-0.5,4.4c-0.1,1.4-0.2,2.4-0.3,3.2c0,0.2-0.1,0.3-0.2,0.5c0,0.1,0,0.1-0.1,0.1c-0.1,0-0.1,0-0.1-0.1
			c-0.2,0-0.4-0.1-0.4-0.3v-0.2c0-0.2,0-0.3-0.1-0.4v-2.4c0-0.7,0-1.3,0.1-2c0-0.6,0.1-1.3,0.2-1.9c-0.2,0.9-0.4,1.8-0.4,2.7
			c0,0.9-0.1,1.8-0.1,2.7c0,1.7,0.1,3.4,0.2,5c0.2,1.6,0.5,3.3,0.9,4.9l2-0.4c0.8-0.1,1.4-0.2,1.9-0.2h0.5l0.1,0.1
			c0.1,0.1,0.1,0.2,0.1,0.4v0.3h0.7c0.5,0,0.3,0.1,1,0.2c0.7,0.1,1.1,0.5,1.1,1.1c0,0.2-0.1,0.4-0.2,0.6c-0.2,0.2-0.4,0.4-0.6,0.5
			c-0.2,0.2-0.4,0.1-0.4-0.2v-0.5c0-0.1-0.2-0.2-0.6-0.4v-0.1c-0.2,0-0.6,0.1-1.2,0.2c-0.5,0.2-1.1,0.3-1.6,0.5
			c-0.5,0.2-1,0.4-1.5,0.6c-0.4,0.2-0.7,0.4-0.8,0.5c0,0.3,0,0.6,0.1,0.9c0,0.3,0.1,0.5,0.1,0.8c0,0.2-0.1,0.5-0.2,0.7
			c-0.1,0.2-0.3,0.4-0.6,0.4c-0.3,0-0.7-0.1-1.2-0.4l-0.4-0.2c-0.5-0.4-0.9-0.5-1.3-0.5c-0.4,0-0.8,0.2-1.3,0.5s0.9-0.3,0.6,0
			l-0.7,0.9l-0.5,1.1c-0.2,0.3-0.4,0.6-0.7,0.9c-0.3,0.3-0.7,0.4-1.3,0.4c-1,0-1.9-0.3-2.5-0.9c-0.7-0.6-1.2-1.2-1.5-1.9l-0.1-0.5
			c-0.2-0.1-0.2-0.2,0-0.4c0-0.2,0-0.4,0.1-0.5l0.9-1.5c0.2-0.5,0.6-0.8,1.3-0.8c0.2,0,0.3,0,0.5,0.1c0.2,0.1,0.3,0.1,0.5,0.1
			s-1,0.7-0.2,0.2c0.9-0.5,1.3-0.8,1.3-1c0-0.8,0-1.8,0.1-3.1c0-1.3,0.1-2.6,0.3-4c0.2-1.4,0.4-2.7,0.6-4s0.5-2.3,0.8-3
			c0.2-0.1,0.2-0.1,0.2,0.1v0.3v0.4c0,0.9,0,1.8-0.1,2.8c0,0.9-0.1,1.9-0.1,2.8l0.1,1.6c0.2-0.4,0.2-0.9,0.2-1.4s0-1,0.1-1.5
			c0.1-0.6,0.1-1.2,0.1-1.8c0-0.6-0.1-1.1-0.1-1.6c0-1,0-2.1,0.1-3.2c0.1-1.1,0.2-2.1,0.4-3.2c0.2-1.1,0.3-2.3,0.5-3.4
			c0.2-1.1,0.2-2.3,0.2-3.4c0-0.1,0-0.3-0.1-0.7c0-0.3-0.1-0.7-0.1-1c0-0.3-0.1-0.6-0.3-0.9s-0.4-0.4-0.6-0.4c-0.1,0-0.4,0-0.9,0.1
			c-0.5,0.1-0.8,0.2-1,0.2c-0.4,0.1,1.8-0.6,1.1-0.5c-0.7,0.2-1.4,0.4-2.2,0.6c-1.3,0.4-2.5,0.6-3.4,0.7h-0.1
			c-0.5,0-0.9-0.1-1.1-0.3c-0.1,0-0.1,0-0.2-0.1c0-0.1,0-0.1,0.1-0.1c0.2-0.2,0.5-0.4,1.2-0.6l1.4-0.5h-0.4l-0.5-0.2
			c0-0.4,0.2-0.6,0.5-0.7c0.2-0.2,1-0.5,2.4-0.9c1.4-0.4,0.1,0,1.8-0.4c1.6-0.5,3.2-0.9,4.7-1.3c1.5-0.4,2.5-0.7,3-0.8l0.5-0.2
			c-0.3,0.1-0.6,0.1-0.8,0.1s-0.4,0-0.6,0.1c-0.2,0-0.3,0-0.4,0s-0.2,0-0.3,0c-0.2-0.2-0.3-0.3-0.2-0.4c0.2-0.2,0.6-0.5,1.4-0.7
			c0.8-0.2,1.6-0.4,2.6-0.5c0.9-0.2,0.9-0.3,1.8-0.4c0.9-0.1,1.5-0.2,1.8-0.2c0.5,0,0.9,0,1.2,0.1l0.2,0.1c0.1,0,0.2,0.1,0.4,0.2
			l0.6,0.8c0.1,0.1,0.1,0.2,0.1,0.4l-0.2,0.6l0.2,0.5c0.2,0.2,0.2,0.4,0,0.7l-0.9,1.6c-0.1,0.2-0.2,0.3-0.4,0.4
			c-0.2,0.1-0.4,0.1-0.5,0.1c-0.3,0-0.6,0-0.9,0s-0.6,0-0.9,0c-0.6,0-0.3,0-0.9,0c-0.6,0-1.2,0.1-1.8,0.1l-0.9,0.1L-627,523.2
			L-627,523.2z"/>
	</g>
</g>
<path class="st0" d="M-649.1,527.7l0.3,1.3c0.1,0.2,0.3,0.5,0.5,0.9s0.3,0.7,0.3,0.9c0,0.9-0.1,1.8-0.4,3c-0.3,1.1-0.8,2.1-1.4,3
	l2.9-3.4c0.2-0.3,0.6-0.5,0.9-0.9c0.4-0.3,0.7-0.5,1.1-0.5c0.6,0,0.8,0.3,0.6,1.1c-0.2,0.7-0.6,1.5-1.1,2.3s-1.1,1.6-1.7,2.4
	l-2.6,2.7l-1.1,1.9l0.5,7.2c0,0.9,0.1,1.7,0.1,2.6s0.1,1.7,0.3,2.6l0.2,0.9l0.3-2.8c0-0.5,0-0.8,0.2-0.9l0.1-1.3c0-0.4,0.2,0,0.2,0
	s0.1,4.5,0.2,7.8c0,3.3-5.2,0.6-5.5,0.4c0,0-2-1.2-1.9-1.9c0.1-0.7-0.9-1.3-0.6-1.9c0.5-2.2,0.1,0.8,0.5-1.5
	c0.3-2.3,0.5-3.7,0.4-6.1l-2.1,1l-3.5,2.7c-1.4,0.9-2.7,1.8-4.1,2.7c-1.4,0.9-2.6,1.3-3.6,1.4c-1,0-1.9-0.4-2.6-1.3l-2-2.3l-1-0.7
	c-0.8-0.6-1.4-1.5-1.7-2.7s-0.5-2.2-0.5-3.1c-0.1-2.1,0.3-4.3,1.1-6.7c0.9-2.4,2-4.7,3.5-6.8c1.5-2.1,3.3-3.8,5.4-5.3
	c2.1-1.4,4.2-2.2,6.4-2.3c1.3-0.1,2.4,0.1,3.3,0.4l1.8,0.5l0.3-0.9l0.1-1.3c0.2-5,0.1-10-0.1-14.8c0-0.9-0.1-1.7-0.2-2.5
	c-0.1-0.8-0.2-1.6-0.2-2.5c-0.1-1.7-0.1-3.3,0-4.9c0.1-1.5,0-3.1,0-4.9l-0.1-1.6l-0.5-1.4c-0.4-1.1-0.7-2.2-0.7-3.3
	c-0.1-1.2,0.2-2.3,0.7-3.3s1.6-1.5,3.1-1.6c0.3,0,1,0.2,2.3,0.7c1.2,0.5,2,0.9,2.3,1.1c0.3,0.2,0.6,0.5,1,0.8
	c0.4,0.3,0.9,0.5,1.4,0.8c1.3,0.8,2.3,1.5,2.9,2.1c0.6,0.6,0.9,1.6,1,3.1c-0.1,0.7-0.2,1.5-0.4,2.3c-0.2,0.8-0.3,1.6-0.6,2.5
	c-1.6,5.3-2.8,10.5-3.8,15.6c-1,5.1-1.7,10.3-2.1,15.9L-649.1,527.7z M-669.5,539.5c-0.5,0.5-1,1.6-1.4,3.4c-0.4,1.7-0.6,3-0.6,3.9
	l1,0.3c1.4-0.1,2.7-0.3,3.9-0.8c1.2-0.5,2.4-1,3.5-1.5l3.2-1.6c0.1,0,0.2,0,0.3-0.1c0.1-0.1,0.2-0.1,0.3-0.1c0.3,0,0.4,0.1,0.4,0.3
	c0.4,0.6,0.3,0.9-0.3,0.9l-0.4,0.4l-0.6,0.6c1.1-0.7,2.2-1.4,3.2-2.2c1-0.8,1.5-1.3,1.5-1.5l0.1-2.9c-0.1-1.5-0.3-2.9-0.8-4.5
	c-0.5-1.5-1.7-2.2-3.8-2.1c-0.9,0-1.8,0.3-2.7,0.9c-0.9,0.5-1.7,1.2-2.6,2L-669.5,539.5z M-650.6,527.3c0,0.4,0.2,0.8,0.4,1
	c-0.1-3.2-0.2-6.2-0.2-9.2s0-6.1,0.2-9.3c0.1-0.9,0.2-1.7,0.3-2.5c0.1-0.8,0.1-1.6,0.1-2.3c-0.5,3.4-0.8,6.9-0.9,10.5
	c-0.1,3.5-0.1,7.1,0.1,10.6C-650.6,526.5-650.6,526.9-650.6,527.3z M-645.6,528.1c0.1,0.1,0.3,0.2,0.5,0.3c0.2,0.1,0.4,0.1,0.5,0.3
	c0.3,0.2,0.2,0.4-0.2,0.4h-0.4l-0.6-0.2c-0.1-0.1-0.3-0.2-0.4-0.2v-0.2C-646,528.3-645.8,528.1-645.6,528.1z"/>
</svg>
