<?xml version="1.0" encoding="utf-8"?>
<!-- Generator: Adobe Illustrator 25.4.1, SVG Export Plug-In . SVG Version: 6.00 Build 0)  -->
<svg version="1.1" id="Layer_1" xmlns="http://www.w3.org/2000/svg" xmlns:xlink="http://www.w3.org/1999/xlink" x="0px" y="0px"
	 viewBox="0 0 70.7 35.7" style="enable-background:new 0 0 70.7 35.7;" xml:space="preserve">
<style type="text/css">
	.Drop_x0020_Shadow{fill:none;}
	.Round_x0020_Corners_x0020_2_x0020_pt{fill:#FFFFFF;stroke:#000000;stroke-miterlimit:10;}
	.Live_x0020_Reflect_x0020_X{fill:none;}
	.Bevel_x0020_Soft{fill:url(#SVGID_1_);}
	.Dusk{fill:#FFFFFF;}
	.Foliage_GS{fill:#FFDD00;}
	.Pompadour_GS{fill-rule:evenodd;clip-rule:evenodd;fill:#44ADE2;}
	.st0{fill:#FFFFFF;}
</style>
<linearGradient id="SVGID_1_" gradientUnits="userSpaceOnUse" x1="-364.3646" y1="-282.8206" x2="-363.6575" y2="-282.1135">
	<stop  offset="0" style="stop-color:#DEDFE3"/>
	<stop  offset="0.1738" style="stop-color:#D8D9DD"/>
	<stop  offset="0.352" style="stop-color:#C9CACD"/>
	<stop  offset="0.5323" style="stop-color:#B4B5B8"/>
	<stop  offset="0.7139" style="stop-color:#989A9C"/>
	<stop  offset="0.8949" style="stop-color:#797C7E"/>
	<stop  offset="1" style="stop-color:#656B6C"/>
</linearGradient>
<g id="Group_5047" transform="translate(4.57 2.2)">
	<path id="Path_11788" class="st0" d="M31,24.1c-0.1,0-0.1,0-0.1,0C30.9,24.1,31,24.1,31,24.1C31,24.1,31.1,24.1,31,24.1L31,24.1
		L31,24.1c0.1-0.1,0.2-0.1,0.3-0.1c0.1,0,0.2,0,0.2,0c0,0-0.1,0-0.1,0c0,0-0.1,0-0.1,0.1c0,0-0.1,0-0.1,0
		C31.1,24.1,31.1,24.1,31,24.1L31,24.1z M31,26.1L31,26.1C31,26.1,31,26.1,31,26.1L31,26.1z M31.1,25.4L31.1,25.4L31.1,25.4
		C31,25.4,31.1,25.4,31.1,25.4L31.1,25.4z M31,25.6L31,25.6L31,25.6L31,25.6z M31.1,25.5L31.1,25.5C31.1,25.5,31.1,25.5,31.1,25.5
		C31.1,25.5,31.1,25.5,31.1,25.5C31.1,25.5,31.1,25.5,31.1,25.5L31.1,25.5z M45.9,24.3c-0.1,0.1-0.1,0.3-0.1,0.4c0,0,0,0-0.1,0.1
		c0,0.1,0,0.2,0,0.3c-0.1,0-0.1,0.1-0.2,0.3l-0.2,0.3h0l-0.2,0.2c0,0.1,0,0.1-0.1,0.1c0,0,0,0-0.1,0c0,0-0.1,0-0.1,0h0l-0.1,0
		c-0.1,0.1-0.1,0.1-0.2,0.1l-0.2,0l-0.1,0l-0.1-0.1c0,0-0.1-0.1-0.1-0.1h-0.1c0,0,0,0-0.1,0c0-0.2,0-0.3-0.1-0.1
		c0,0.1-0.1,0.1-0.1,0c0-0.1-0.1-0.1-0.2-0.1h-0.2c0,0-0.1,0-0.1,0c0,0-0.1,0-0.1,0h-0.1c0,0-0.1,0-0.1,0c0,0,0,0-0.1,0h-0.4
		c-0.1,0-0.2,0-0.3,0c-0.1,0-0.2,0-0.3,0l-0.1,0c0,0-0.1,0-0.1,0c0,0-0.1,0-0.1,0l-0.2,0.1l-0.1,0l-0.2,0c0,0-0.1,0-0.1,0
		c0,0-0.1,0-0.1,0c0,0,0,0,0,0c0,0-0.1,0-0.3,0c-0.1,0-0.2,0-0.3,0h-0.2c-0.1,0-0.1,0-0.2,0l-0.3,0l-0.3,0c0,0-0.1,0-0.1,0l-0.3,0
		c-0.1,0-0.1,0-0.2,0c-0.1,0-0.1,0-0.2,0l-0.1,0l-0.2,0h-0.3l-0.3,0l-0.1,0l-0.1,0h0l-0.2,0.2c0,0-0.1,0-0.1,0L37.2,26l-0.1,0.1
		c0,0-0.1,0.1-0.2,0.1l-0.3,0.2c-0.1,0.1-0.1,0.1-0.2,0.1c0,0-0.1,0-0.4,0.1l-0.7,0.1h-0.1c-0.1,0-0.1,0-0.2,0c-0.1,0-0.2,0-0.2,0
		c0,0,0,0,0,0l-0.1,0c0,0-0.1,0-0.1,0c0,0-0.1,0-0.1,0c-0.1-0.1-0.2-0.2-0.3-0.3C34.2,26.1,34.1,26,34,26v0l-0.2-0.2h-0.4v0h-0.1
		c-0.1,0-0.1,0-0.2,0s-0.1,0-0.2,0c0,0-0.1,0-0.1,0c0,0,0,0,0,0c0,0,0,0,0,0h-0.1v0l-0.1,0c0,0-0.1,0-0.1,0c0,0-0.1,0-0.1,0
		c0,0,0,0-0.1,0c0.1-0.1,0.1-0.1,0.1-0.2c0,0-0.1,0-0.1,0c0,0-0.1,0-0.1,0c-0.2,0-0.3,0-0.5,0h0v0h-0.1l-0.5,0l0.6-0.1
		c0.2,0,0.3-0.1,0.5-0.1c0.1,0,0.3,0,0.4,0c0.1,0,0.1-0.1,0.1-0.2L32.6,25c0,0-0.1,0-0.1,0c0,0,0,0,0-0.1c0,0,0-0.1,0-0.1
		c0.1,0,0.2,0,0.3,0c0.1,0,0.2,0,0.3-0.1c0,0,0,0,0.1,0c0,0,0,0,0,0h0l0-0.1l0-0.1c-0.1,0-0.2,0-0.2-0.1c-0.1-0.1-0.2-0.1-0.3-0.1
		l-0.1-0.1c-0.1,0-0.2,0-0.2,0v0c-0.2,0-0.3,0-0.5,0c0.1,0,0.1,0,0.2,0c0.1,0,0.1,0,0.2,0c0,0,0-0.1,0-0.1c0.1,0,0.1,0,0.2,0
		c0.1,0,0.1,0,0.2,0c0,0,0-0.1,0-0.1c0,0,0,0,0,0h0.1v0h0.1V24l-0.2,0l-0.1,0c0,0,0,0,0,0l-0.1,0l-0.1,0c0,0,0,0-0.1,0l-0.1,0.1
		L32.1,24c0,0-0.1,0-0.1,0c0,0,0,0,0,0l0.1-0.1l0.1,0l0.2-0.1c0.1,0,0.1,0,0.2,0c0,0,0-0.1,0-0.1l0,0c0,0-0.1,0-0.1,0c0,0,0,0,0,0
		l-0.3,0c0,0,0-0.1,0-0.1c0,0,0,0,0,0c0,0,0,0,0,0l0.1,0c0,0,0-0.1,0.1-0.1c0,0,0.1,0,0.1-0.1c0,0,0,0,0,0c0,0,0-0.1,0-0.1
		c0,0,0,0,0,0l0-0.1c0,0,0,0,0,0s0,0,0,0c0,0,0,0,0,0c0,0,0,0,0,0c0,0,0,0,0,0v0c0,0,0.1,0,0.2,0c0,0,0,0,0,0c0.1,0,0.1,0,0.1-0.1
		c0,0,0.1,0,0.1,0l0,0c0,0,0,0,0,0l0,0c0,0,0,0,0,0c0,0,0,0,0,0l0,0c0,0,0.1,0,0.1,0l0.1,0c0-0.1,0.1-0.1,0.1-0.1c0,0,0-0.1,0-0.1
		c0,0,0,0,0,0c0,0,0,0,0.1,0c0,0,0,0,0,0l0.2-0.1l0.2-0.1c0,0,0,0,0.1,0v-0.3c0-0.1,0-0.2,0-0.3c0,0,0-0.1,0-0.1
		c0-0.1,0-0.2,0.1-0.3c0,0,0-0.1,0-0.1c0-0.1,0-0.1,0-0.1c0-0.1,0-0.2,0-0.2c0,0,0-0.1,0-0.1c0,0,0,0,0,0v-0.1l0-0.2
		c0,0,0,0,0.1-0.1s0-0.1,0-0.1v-0.1l0-0.3c0-0.1,0-0.2,0-0.3v-0.3c0-0.1,0-0.1,0-0.2l0-0.3l0-0.3c0-0.1,0-0.2,0-0.3v-0.3l-0.1-0.3
		l0-0.1l0-0.2c0-0.1,0-0.3,0-0.4l0-0.3c0,0,0,0,0-0.1c0,0,0,0,0,0l0-0.1c0,0,0,0-0.1-0.1c0-0.1,0-0.2,0-0.2v-0.2l-0.1-0.7v-0.1
		l0-0.4l-0.1-0.8c-0.1-0.3-0.1-0.6-0.1-0.8l0.1,0l0-0.1c0,0,0,0,0,0c0,0,0,0,0,0l0-0.7c0,0,0,0,0,0c0,0,0,0,0,0v-0.7h0l0.1,0v0
		c0,0,0,0,0,0l0-0.5c0,0,0-0.1,0-0.1l0-0.1v0c0,0,0,0,0,0c0,0,0-0.1,0-0.1c0,0,0-0.1,0-0.1l0-0.2c0,0.1,0.1,0.1,0.2,0.2
		c0-0.1,0-0.1,0-0.2c0-0.1,0-0.1,0-0.1c0-0.2,0-0.4-0.1-0.6c0,0,0,0,0,0c0,0,0,0,0,0c0,0,0-0.1,0-0.1c0-0.1,0-0.2,0-0.3
		c0-0.1,0-0.2,0-0.3c0.1,0.2,0.1,0.4,0.1,0.6l0.1,0.6l0,0.2l0,0.2c0,0,0,0.1,0.1,0.1c0.1,0,0.1,0,0.2,0c0,0,0-0.1,0-0.1
		c0,0,0-0.1,0-0.1c0,0,0-0.1,0-0.1c0,0,0,0,0,0l0.1,0c0,0,0.1,0,0.1,0c0,0,0,0.1,0.1,0.3c0,0.1,0,0.2,0.1,0.3c0,0,0,0,0,0v0.1
		c0,0,0.1,0,0.1,0h0.1v-0.1c0-0.1,0-0.2,0.1-0.3c0-0.1,0-0.2,0-0.3l0.1-0.1c0-0.1,0-0.2-0.1-0.3c0,0,0,0,0,0c0,0,0,0,0,0
		c0,0,0,0,0,0c-0.1-0.2-0.1-0.4,0-0.6c0,0.1,0,0.2,0,0.2c0,0.1,0,0.2,0,0.2l0.1,0c0,0.1,0,0.2,0,0.3v0.2c0.1,0,0.1,0,0.1-0.1l0,0.1
		h0v0.2h0.1c0,0,0-0.1,0-0.1c0,0,0-0.1,0-0.1l0-0.1c0,0,0,0,0,0c0,0,0,0,0,0l0-0.1l0-0.1v0c0,0,0-0.1,0-0.1l0-0.1c0,0,0-0.1,0-0.1
		c0,0,0-0.1,0-0.1c0,0,0,0,0,0l0.1,0.1v0.1c0,0.1,0,0.2,0.1,0.2c0,0.1,0,0.2,0,0.2c0,0,0.1,0,0.1,0l0-0.1c0,0,0,0,0,0s0,0,0,0l0-0.3
		l0.1,0h0l0,0l0,0.1c0,0,0.1,0.1,0.1,0.1c0,0,0,0,0,0.1c0.1,0.1,0.1,0.1,0.1,0.1c0,0-0.1,0-0.1,0l-0.1,0.1c0,0,0,0,0.1,0
		c0,0,0,0,0,0h0c0,0,0,0,0,0.1l0,0.1h0.1c0,0,0-0.1,0-0.1c0,0,0,0,0-0.1c0,0,0,0,0,0c0,0-0.1-0.1-0.1-0.1c0,0,0,0,0.1,0c0,0,0,0,0,0
		l0,0c0,0,0,0,0.1,0c0,0,0,0,0,0c0,0,0,0,0,0c0,0,0,0,0,0c0,0,0,0,0,0c0,0,0,0,0.1,0c0,0.1,0,0.1,0,0.1v0.1c0,0,0,0,0,0s0,0,0,0
		c0,0,0,0,0,0.1c0,0,0,0.1,0.1,0.1c0,0,0,0,0,0.1c0,0,0,0.1,0,0.1c0,0,0,0,0,0c0,0,0,0,0,0c0,0,0,0,0,0c0,0,0,0,0,0l0,0.1
		c0,0,0,0,0,0.1c0,0,0.1,0.1,0,0.1c0,0,0.1,0,0.1,0c0,0,0,0,0,0c0,0,0,0,0,0.1c0,0.1,0,0.2,0.1,0.2l0.1,0.3c0,0,0,0,0,0c0,0,0,0,0,0
		c0,0,0,0,0,0h0c0,0.3,0,0.4,0.1,0.4l-0.1,0l0,0.1c0,0,0,0.1,0,0.1c0,0,0,0,0,0v0.1c0,0.1,0,0.2,0.1,0.2l-0.1,0.1
		c0.1,0.1,0.1,0.1,0,0.2c0.1,0.4,0.1,0.7,0.1,1.1c0.1,0.5,0.1,0.9,0.1,1.1l0,0.1c0,0.1,0,0.3,0.1,0.4v0.1c0,0,0,0.1,0,0.1
		c0,0.2,0,0.5,0.1,0.7v0.1l0,0.4c0,0,0,0.1,0,0.1c0,0,0,0.1,0,0.1L37,18c0,0,0,0.1,0,0.1c0,0.1,0,0.1,0,0.2l0.1,0.1v0.3
		c0,0.1,0,0.3,0.1,0.4v0.1c0,0,0,0.1,0,0.1c0,0,0,0,0,0l0,0.1c0,0.1,0,0.1,0,0.2c0,0.1,0,0.1,0,0.2l0,0.1c0,0,0,0.1,0,0.1
		c0,0.1,0,0.1,0,0.2c0,0,0,0.1,0,0.1c0.1,0.1,0.1,0.3,0,0.5c0,0,0,0,0,0v0.1c0,0,0,0.1,0,0.1c0,0.1,0,0.1,0,0.1c0,0,0,0,0,0l0,0.1
		c0,0.1,0,0.2,0,0.3c0,0.1,0,0.2,0,0.3c0,0,0.1,0.1,0.1,0.1V22c0,0,0,0,0,0c0,0,0,0,0,0l0,0.1l0,0.1l0,0.1l0,0.1l0,0.1v0
		c0.1,0,0.3,0,0.4-0.1l0.1,0c0,0,0.1,0,0.1,0c0,0,0.1,0,0.1,0h0.1c0,0,0.1,0,0.1,0l0.1,0c0,0,0.1,0,0.1,0c0.1,0,0.1,0,0.1,0l0.1-0.1
		h0.3c0.1,0,0.2,0,0.3,0h0.1c0,0,0,0,0.1,0c0,0,0,0,0,0l0.1,0c0,0,0.1,0,0.1,0c0,0,0.1,0,0.1,0c0,0,0,0,0,0l0.1,0c0,0,0.1,0,0.1,0
		c0.1,0,0.1,0,0.1,0c0.1,0,0.1,0,0.2,0v-0.1l0.1-0.3c0,0,0-0.1,0-0.1c0,0,0-0.1,0-0.1c0,0,0-0.1,0-0.1c0,0,0,0,0,0
		c0-0.1,0-0.2,0.1-0.2v-0.2c0-0.1,0-0.1,0-0.2c0,0,0-0.1,0-0.1l0.1-0.2l0-0.1c0-0.1,0-0.1,0.1-0.2c0,0,0-0.1,0-0.1v-0.1
		c0,0,0-0.1,0-0.1l0-0.1l0-0.2c0,0,0,0,0.1-0.1c0,0,0,0,0-0.1c0-0.1,0-0.1,0-0.2v-0.2c0-0.1,0-0.2,0-0.2v0h0v-0.2c0-0.1,0-0.1,0-0.2
		c0-0.2,0-0.3,0-0.5V18l0.1-0.4l0-0.3l0-0.1l0-0.2c0-0.1,0-0.2,0-0.3c0,0,0-0.1,0-0.1c0,0,0-0.1,0-0.1l0-0.1l0-0.1l0-0.4
		c0-0.1,0-0.2,0-0.2c0-0.1,0-0.2,0-0.3c0-0.1,0-0.2,0-0.3c0-0.1,0-0.1,0-0.2c0-0.1,0-0.2,0-0.3c0-0.1,0-0.3,0-0.4v-0.4
		c0-0.1,0-0.2,0-0.3l0.1,0l0-0.1c0,0,0,0,0,0c0,0,0,0,0,0c0,0,0-0.2,0.1-0.6c0,0,0,0,0,0c0,0,0,0,0,0c0-0.1,0.1-0.3,0.1-0.4
		c0-0.1,0-0.1,0-0.2v0h0c0,0,0,0,0,0c0,0,0,0,0,0c0,0,0,0,0,0c0,0,0,0,0,0c0-0.1,0-0.2,0-0.2c0-0.1,0-0.1,0-0.2l0-0.1v-0.1l0-0.1
		h0.1c0,0,0,0,0-0.1c0,0,0-0.1,0-0.2c0,0,0-0.1,0-0.1c0,0.1,0.1,0.1,0.2,0.1c0,0,0.1-0.1,0.1-0.1c0,0,0-0.1,0-0.1c0-0.1,0-0.2,0-0.2
		c0-0.1,0-0.2,0-0.3l0,0c0-0.1,0-0.2,0-0.3c0-0.1,0-0.2,0-0.3c0,0.1,0,0.3,0,0.4c0,0.1,0,0.2,0,0.3c0,0.1,0,0.3,0,0.4l0,0.4
		c0,0.1,0.1,0.1,0.2,0.1c0,0,0-0.1,0-0.1c0,0,0-0.1,0-0.1c0,0,0,0,0,0c0.1,0,0.1,0,0.1,0v0.1c0,0.1,0,0.3,0.1,0.4c0,0,0,0,0,0.1
		l0.1,0h0.1c0-0.1,0-0.2,0.1-0.3c0.1-0.1,0.1-0.2,0.1-0.3c0,0,0.1,0,0.1,0c0,0,0.1,0,0.1-0.1c0,0,0-0.1,0-0.1c0,0,0,0,0,0l0-0.3
		c0-0.1,0-0.2,0.1-0.2c0,0.1,0,0.1,0,0.2c0,0.1,0,0.2,0,0.2l0.1,0.1c0,0.1,0,0.1,0,0.2c0,0.1,0,0.2,0,0.2c0,0,0,0,0.1,0c0,0,0,0,0,0
		c0,0,0,0,0,0.1c0,0,0,0,0,0h0.1c0,0.1,0,0.1,0,0.1c0,0,0.1,0,0.1,0l0-0.2c0,0,0,0,0-0.1c0,0,0,0,0,0c0,0,0,0,0,0l0-0.1l0-0.1h0v0
		c0,0,0-0.1,0-0.1c0,0,0,0,0,0c0,0,0-0.1,0-0.1c0,0,0,0,0.1-0.1c0,0,0-0.1,0-0.1l0,0.1l0,0.1c0,0.1,0,0.2,0.1,0.2c0,0.1,0,0.1,0,0.2
		c0,0,0,0,0.1,0c0,0,0,0,0,0h0.1c0,0,0,0,0-0.1c0,0,0,0,0,0l0-0.1c0,0,0,0,0,0l0-0.3l0.1,0l0.1,0v0h0l0-0.1c0,0,0,0,0,0
		c0-0.1,0-0.1,0-0.2v-0.1l0,0.3c0,0,0,0,0,0c0,0,0,0.1,0,0.1l0,0.1c0,0,0,0,0.1,0.1v0.1c0,0,0,0,0,0.1c0.1,0.1,0.1,0.1,0.1,0.1
		c0,0,0.1,0,0.1,0c0,0,0,0,0.1,0c0,0,0,0,0,0c0,0,0,0,0,0c0,0,0,0,0,0c0,0,0,0,0,0c0,0,0,0,0.1,0c0,0.1,0,0.1,0,0.2l0,0l0,0
		c0,0,0,0.1,0,0.1c0,0,0,0,0,0.1c0,0,0,0.1,0,0.1c0,0,0,0,0,0h0c0,0,0,0.1,0,0.1l0,0.1c0,0,0.1,0.1,0.1,0.1c0,0,0.1,0,0.1,0
		c0,0,0,0,0,0c0,0,0,0,0,0l0,0.1l0.1,0.2c0,0.1,0.1,0.2,0.1,0.3c0,0,0,0,0,0c0,0,0,0,0,0c0,0,0,0,0,0h0v0.2c0,0.1,0,0.1,0.1,0.2
		l-0.1,0c0,0,0,0,0,0c0,0,0,0,0,0c0,0,0,0.1,0,0.1v0.1c0,0,0,0.1,0,0.1l-0.1,0.1l0,0.1c0,0,0,0.1,0,0.1c0,0.3,0.1,0.6,0.1,1
		c0,0.3,0,0.7,0,1c0,0.1,0,0.1,0,0.2l0,0.3V16c0,0,0,0.1,0,0.1v0.3c0,0.1,0,0.2,0,0.3c0,0,0,0.1,0,0.1l0,0.3l0,0.2l0,0.1v0.1
		c0,0,0,0.1,0,0.1c0,0,0,0.1,0,0.1c0,0,0,0,0,0l0,0.1v0.3c0,0.1,0,0.2,0,0.3l0,0.1l0.1,0.1l0,0.3c0,0,0,0,0,0.1c0,0,0,0,0,0
		c0,0,0,0.1,0,0.1c0,0,0,0.1,0,0.1c0,0.1,0,0.1,0,0.1c0,0,0,0.1,0,0.1c0,0.1,0,0.2-0.1,0.3l0,0v0c0,0,0,0.1,0,0.1c0,0,0,0.1,0,0.1
		c0,0,0,0,0,0c0,0,0,0.1,0,0.1c0,0.1,0,0.2,0,0.2c0,0.1,0,0.2,0,0.2c0,0,0.1,0.1,0.1,0.1l0,0.1c0,0,0,0,0,0c0,0,0,0,0,0l0,0.1l0,0.1
		v0.1l0,0.1l0,0.1c0,0,0,0,0,0c0,0,0,0,0,0l0,0.1l0.1,0.1c0,0,0,0.1-0.1,0.1c0,0,0,0,0,0c0,0,0,0,0,0c0,0,0,0,0,0c0,0,0,0,0,0
		c0,0,0,0,0,0c0.1,0,0.1,0,0.1,0.1h0.1c0.1,0.1,0.2,0.1,0.3,0.1c0,0,0.1,0,0.1,0c0.1,0,0.2,0.1,0.4,0.3l0,0.1l0.1,0.2l0,0.1
		c0,0,0,0.1,0,0.1l0.1,0.2l0.1,0.2l0.1,0.4L45.9,24.3L45.9,24.3z M31.3,24.2L31.3,24.2C31.3,24.2,31.3,24.2,31.3,24.2
		C31.3,24.2,31.3,24.2,31.3,24.2L31.3,24.2z M31.4,24.3L31.4,24.3L31.4,24.3L31.4,24.3z M31.6,25C31.6,25,31.6,25,31.6,25
		C31.6,25,31.6,25,31.6,25C31.6,25,31.6,25,31.6,25C31.6,25,31.6,25,31.6,25L31.5,25V25c0,0,0,0,0,0c0,0-0.1,0-0.1,0c0,0,0,0,0,0
		c0,0,0.1,0,0.1,0C31.5,25,31.6,25,31.6,25L31.6,25z M31.4,24.4C31.4,24.4,31.4,24.4,31.4,24.4L31.4,24.4z M31.5,23.9L31.5,23.9
		C31.4,23.9,31.4,23.9,31.5,23.9C31.4,23.9,31.5,23.9,31.5,23.9L31.5,23.9z M31.5,25.3C31.5,25.3,31.5,25.3,31.5,25.3h-0.1
		C31.4,25.2,31.5,25.2,31.5,25.3C31.5,25.3,31.5,25.3,31.5,25.3L31.5,25.3z M31.5,24.1L31.5,24.1L31.5,24.1L31.5,24.1z M31.5,23.9
		C31.5,23.9,31.6,23.9,31.5,23.9C31.6,23.9,31.6,23.9,31.5,23.9L31.5,23.9z M31.5,24.4L31.5,24.4L31.5,24.4L31.5,24.4z M31.6,25.5
		L31.6,25.5L31.6,25.5C31.5,25.6,31.6,25.5,31.6,25.5L31.6,25.5z M31.6,24C31.6,24,31.6,24,31.6,24C31.6,24,31.6,24,31.6,24
		C31.6,24,31.6,24,31.6,24C31.6,24.1,31.6,24.1,31.6,24C31.5,24,31.5,24,31.6,24z M31.6,24.4C31.6,24.4,31.6,24.4,31.6,24.4
		c0.1,0,0.1,0,0.1,0c0,0,0,0,0,0C31.7,24.4,31.6,24.4,31.6,24.4L31.6,24.4z M31.6,25.1L31.6,25.1L31.6,25.1L31.6,25.1
		C31.6,25.1,31.6,25.1,31.6,25.1L31.6,25.1z M31.7,23.8L31.7,23.8C31.6,23.8,31.6,23.8,31.7,23.8C31.6,23.8,31.6,23.8,31.7,23.8
		C31.7,23.8,31.7,23.8,31.7,23.8L31.7,23.8z M31.8,23.8l-0.1,0.1C31.7,23.8,31.8,23.8,31.8,23.8L31.8,23.8z M32.1,23.7L32.1,23.7
		L32.1,23.7L32.1,23.7C32.1,23.8,32.1,23.8,32.1,23.7C32,23.8,32,23.8,32.1,23.7c-0.1,0.1-0.1,0.1-0.2,0.1c0,0-0.1,0-0.1,0
		L32.1,23.7C32,23.7,32,23.7,32.1,23.7C32,23.7,32,23.7,32.1,23.7L32.1,23.7L32.1,23.7z M32,24C32,24,32,24,32,24
		C31.9,24,31.9,24,32,24L32,24L32,24z M32.3,26L32.3,26L32.3,26c-0.1,0-0.1,0-0.1,0c0,0,0,0,0,0L32.3,26C32.3,26,32.3,26,32.3,26
		C32.3,26,32.3,26,32.3,26z M32.5,24.1c0,0-0.1,0-0.1,0C32.4,24.2,32.4,24.1,32.5,24.1C32.5,24.1,32.5,24.1,32.5,24.1L32.5,24.1
		L32.5,24.1C32.6,24.2,32.5,24.2,32.5,24.1L32.5,24.1z M32.7,23.5C32.7,23.5,32.7,23.5,32.7,23.5C32.6,23.5,32.6,23.5,32.7,23.5
		c-0.1,0-0.1,0-0.1,0c0,0.1,0,0.1-0.1,0c0,0,0,0,0,0c0,0,0,0,0,0c0,0-0.1,0.1-0.1,0.1l0.1,0.1v-0.1c0,0,0.1,0,0.1,0
		C32.7,23.6,32.7,23.6,32.7,23.5C32.7,23.6,32.7,23.6,32.7,23.5C32.7,23.5,32.7,23.5,32.7,23.5L32.7,23.5z M32.7,25.2L32.7,25.2
		C32.6,25.2,32.7,25.2,32.7,25.2C32.7,25.2,32.7,25.2,32.7,25.2L32.7,25.2z M32.8,22.8C32.8,22.8,32.9,22.8,32.8,22.8
		C32.9,22.8,32.9,22.8,32.8,22.8L32.8,22.8z M33.1,9.5L33.1,9.5C33.1,9.4,33.1,9.5,33.1,9.5L33.1,9.5z M33.1,10.9L33.1,10.9
		C33.1,10.9,33.1,10.9,33.1,10.9L33.1,10.9z M33.1,10.9L33.1,10.9L33.1,10.9C33.1,10.9,33.1,10.9,33.1,10.9
		C33.2,11,33.2,11,33.1,10.9L33.1,10.9z M33.2,22.8L33.2,22.8C33.1,22.8,33.1,22.8,33.2,22.8C33.2,22.8,33.2,22.8,33.2,22.8
		L33.2,22.8z M33.2,22.8L33.2,22.8C33.2,22.9,33.2,22.9,33.2,22.8L33.2,22.8z M33.3,12.8L33.3,12.8C33.3,12.7,33.3,12.7,33.3,12.8
		L33.3,12.8z M33.5,9.5C33.6,9.5,33.6,9.5,33.5,9.5L33.5,9.5L33.5,9.5z M33.6,10L33.6,10L33.6,10L33.6,10z M33.6,9.5
		C33.6,9.5,33.6,9.5,33.6,9.5C33.6,9.5,33.6,9.5,33.6,9.5L33.6,9.5C33.6,9.5,33.6,9.5,33.6,9.5L33.6,9.5z M33.7,9.5
		C33.7,9.5,33.7,9.5,33.7,9.5C33.7,9.5,33.7,9.5,33.7,9.5C33.7,9.5,33.7,9.5,33.7,9.5L33.7,9.5C33.7,9.5,33.7,9.5,33.7,9.5z
		 M33.9,10c0,0,0-0.1,0-0.1C33.9,9.9,33.9,10,33.9,10L33.9,10z M33.9,10.1L33.9,10.1L33.9,10.1z M33.9,10.1L33.9,10.1L33.9,10.1
		L33.9,10.1z M33.9,25.9L33.9,25.9L33.9,25.9C33.8,25.9,33.9,25.9,33.9,25.9C33.9,25.9,33.9,25.9,33.9,25.9L33.9,25.9z M33.9,11.2
		L33.9,11.2L33.9,11.2L33.9,11.2z M34.1,10.1L34.1,10.1L34.1,10.1l0-0.1c0,0,0,0,0,0c0,0,0,0,0,0c0,0,0-0.1,0-0.1V9.8
		c0,0,0.1,0.1,0.1,0.2L34.1,10.1C34.2,10.1,34.2,10.1,34.1,10.1L34.1,10.1C34.1,10,34.1,10.1,34.1,10.1
		C34.1,10.1,34.1,10.1,34.1,10.1C34.1,10.1,34.1,10.1,34.1,10.1C34.1,10.1,34.1,10.1,34.1,10.1L34.1,10.1z M34.7,9.8L34.7,9.8
		C34.7,9.8,34.7,9.8,34.7,9.8C34.7,9.8,34.7,9.8,34.7,9.8z M34.7,9.8L34.7,9.8C34.7,9.9,34.7,9.9,34.7,9.8
		C34.7,9.8,34.7,9.8,34.7,9.8z M34.8,10.1c0,0,0,0.1,0,0.1C34.7,10.2,34.7,10.1,34.8,10.1L34.8,10.1L34.8,10.1c-0.1-0.1,0-0.2,0-0.1
		C34.8,10,34.8,10,34.8,10.1L34.8,10.1z M35,9.6c0-0.1,0-0.2-0.1-0.2H35V9.3c0,0,0-0.1,0-0.1v0.1c0,0,0,0.1,0,0.1c0,0,0,0,0,0
		c0,0,0,0,0,0C35.1,9.6,35.1,9.6,35,9.6c0,0.2,0,0.3,0.1,0.3c0,0,0-0.1,0-0.1C35.1,9.7,35,9.7,35,9.6L35,9.6z M35,9.8L35,9.8
		C35,9.7,35,9.7,35,9.8C35,9.7,35,9.8,35,9.8L35,9.8z M35,11.1c0,0,0-0.1,0-0.1C35,11,35,11,35,11.1C35,11.1,35,11.1,35,11.1
		C35,11.1,35,11.1,35,11.1C35,11.2,35,11.2,35,11.1C35,11.2,35,11.2,35,11.1C35,11.2,35,11.2,35,11.1c0,0.1,0,0.1,0,0.1
		C35,11.2,35,11.1,35,11.1L35,11.1z M35.1,10L35.1,10L35.1,10L35.1,10L35.1,10z M35.1,10L35.1,10C35.1,10,35.1,10,35.1,10
		C35.1,10,35.1,10,35.1,10L35.1,10z M35.1,10.1L35.1,10.1C35.1,10.1,35.1,10.1,35.1,10.1L35.1,10.1z M35.2,10.5L35.2,10.5L35.2,10.5
		L35.2,10.5L35.2,10.5z M35.2,9.9L35.2,9.9C35.3,9.9,35.3,9.9,35.2,9.9C35.3,9.9,35.3,9.9,35.2,9.9L35.2,9.9z M35.2,10
		C35.3,10,35.3,10,35.2,10C35.3,10,35.3,10,35.2,10L35.2,10C35.3,10,35.2,10,35.2,10L35.2,10z M35.3,10.1
		C35.3,10.1,35.3,10.1,35.3,10.1C35.3,10.1,35.3,10.1,35.3,10.1L35.3,10.1L35.3,10.1z M35.3,10.2L35.3,10.2
		C35.3,10.2,35.3,10.2,35.3,10.2L35.3,10.2z M35.4,10.6L35.4,10.6L35.4,10.6L35.4,10.6C35.4,10.6,35.4,10.6,35.4,10.6
		c-0.1,0-0.1-0.1-0.1-0.2v-0.1C35.4,10.4,35.4,10.4,35.4,10.6C35.4,10.6,35.4,10.6,35.4,10.6L35.4,10.6
		C35.5,10.6,35.5,10.6,35.4,10.6L35.4,10.6z M36.3,11.9C36.3,11.9,36.3,11.9,36.3,11.9L36.3,11.9z M36.4,11.4
		C36.4,11.5,36.4,11.5,36.4,11.4C36.4,11.5,36.4,11.5,36.4,11.4L36.4,11.4z M36.4,11.8L36.4,11.8C36.4,11.8,36.4,11.8,36.4,11.8
		C36.4,11.8,36.4,11.8,36.4,11.8L36.4,11.8z M36.4,11.8L36.4,11.8C36.4,11.8,36.4,11.8,36.4,11.8L36.4,11.8z M41.2,12.3L41.2,12.3
		C41.2,12.3,41.2,12.3,41.2,12.3L41.2,12.3z M41.2,10.7L41.2,10.7C41.2,10.7,41.2,10.6,41.2,10.7L41.2,10.7L41.2,10.7L41.2,10.7z
		 M41.3,9.4L41.3,9.4z M41.7,9.9L41.7,9.9C41.7,10,41.7,10,41.7,9.9C41.7,9.9,41.7,9.9,41.7,9.9L41.7,9.9z M41.8,9.4
		C41.8,9.5,41.8,9.5,41.8,9.4L41.8,9.4L41.8,9.4z M41.8,9.5C41.8,9.5,41.8,9.5,41.8,9.5C41.8,9.5,41.8,9.5,41.8,9.5L41.8,9.5
		C41.8,9.5,41.8,9.5,41.8,9.5z M41.9,9.5C41.9,9.5,41.9,9.5,41.9,9.5L41.9,9.5L41.9,9.5C41.9,9.5,41.9,9.5,41.9,9.5L41.9,9.5z
		 M42,11.1L42,11.1L42,11.1L42,11.1z M42,10C42,10,42,9.9,42,10V9.8V10z M42,10C42,10,42,10,42,10C42,10,42,10,42,10
		C42,10,42,10,42,10C42,10,42,10,42,10L42,10z M42,10L42,10C42,10.1,42,10.1,42,10L42,10z M42.3,10L42.3,10L42.3,10L42.3,10z
		 M42.3,10L42.3,10L42.3,10c0-0.1,0-0.1,0-0.1c0,0,0-0.1,0-0.1C42.3,9.8,42.3,9.9,42.3,10L42.3,10C42.3,10.1,42.3,10.1,42.3,10
		C42.3,10,42.3,10,42.3,10C42.3,10,42.3,10,42.3,10C42.3,10,42.3,10,42.3,10L42.3,10z M42.3,9.9L42.3,9.9C42.3,10,42.3,9.9,42.3,9.9
		C42.3,9.9,42.3,9.9,42.3,9.9L42.3,9.9z M42.9,9.9L42.9,9.9C42.9,9.9,42.9,9.9,42.9,9.9L42.9,9.9z M42.9,10L42.9,10L42.9,10L42.9,10
		L42.9,10C42.9,10,42.9,10.1,42.9,10c0,0.1,0,0.1,0,0.2C42.9,10.2,42.9,10.2,42.9,10C42.9,10.1,42.9,10.1,42.9,10L42.9,10z M43,10.9
		C43.1,10.9,43.1,10.9,43,10.9C43.1,10.9,43.1,10.9,43,10.9L43,10.9z M43,11.1L43,11.1L43,11.1C43.1,11.1,43.1,11.1,43,11.1L43,11.1
		z M43.1,10.9L43.1,10.9C43,11,43,11,43.1,10.9L43.1,10.9z M43.2,9.8L43.2,9.8C43.1,9.8,43.1,9.8,43.2,9.8L43.2,9.8z M43.2,9.8
		C43.2,9.8,43.2,9.8,43.2,9.8L43.2,9.8z M43.2,9.8L43.2,9.8V9.6l-0.1-0.1h0c0-0.1,0-0.1,0-0.1v0.1c0,0,0,0.1,0,0.1h0v0
		C43.3,9.6,43.3,9.7,43.2,9.8C43.3,9.8,43.3,9.8,43.2,9.8L43.2,9.8z M43.2,9.7L43.2,9.7L43.2,9.7L43.2,9.7z M43.2,9.8L43.2,9.8
		L43.2,9.8C43.2,9.9,43.2,9.9,43.2,9.8L43.2,9.8z M43.2,10.5L43.2,10.5L43.2,10.5C43.2,10.5,43.2,10.5,43.2,10.5L43.2,10.5z
		 M43.3,10L43.3,10z M43.3,10.2C43.2,10.1,43.2,10.1,43.3,10.2C43.3,10.1,43.3,10.1,43.3,10.2L43.3,10.2z M43.4,9.9
		C43.4,9.9,43.4,10,43.4,9.9C43.4,10,43.4,10,43.4,9.9c0,0.1,0,0.1,0,0.1c0,0,0,0,0,0C43.4,10,43.4,10,43.4,9.9L43.4,9.9z
		 M43.4,10.1L43.4,10.1L43.4,10.1L43.4,10.1C43.4,10.1,43.4,10.1,43.4,10.1L43.4,10.1z M43.4,10.2L43.4,10.2
		C43.5,10.2,43.5,10.2,43.4,10.2L43.4,10.2z M43.6,11.2C43.6,11.2,43.6,11.2,43.6,11.2C43.6,11.2,43.6,11.2,43.6,11.2l0-0.1
		c0,0,0,0,0-0.1c0,0,0,0-0.1,0l-0.1,0.1c0,0,0,0,0,0h0c0,0,0,0,0,0.1v0.1L43.6,11.2C43.7,11.3,43.7,11.2,43.6,11.2
		C43.7,11.2,43.7,11.2,43.6,11.2L43.6,11.2z M43.9,11.6L43.9,11.6C43.9,11.6,43.9,11.6,43.9,11.6L43.9,11.6z M44.3,11.9
		C44.2,11.9,44.2,11.8,44.3,11.9L44.3,11.9z M44.3,11.8L44.3,11.8C44.4,11.8,44.4,11.8,44.3,11.8L44.3,11.8z M44.4,11.5
		C44.4,11.5,44.4,11.5,44.4,11.5C44.4,11.6,44.4,11.5,44.4,11.5L44.4,11.5z"/>
	<g id="Group_5044">
		<g id="Group_5043">
			<path id="Path_11789" class="st0" d="M26.7-1.2c0.3,0,0.6-0.7,1-0.7s0.7-0.4,1-0.3c0.2,0,0.4,0.4,0.6,0.4c0.2,0,0.4,0,0.6,0.1
				s0.3,0.4,0.3,0.4c0.1,0,0.1-0.3,0.1-0.2c0.1,0.1,0.2,0.5,0.3,0.6c0.1,0.3,0,0.5,0,0.8c0.1,0.1,0.2,0.2,0.2,0.4c0,0.1,0,0.2,0,0.2
				c0,0.1-0.1,0.2-0.1,0.2c0,0.1-0.1,0.1-0.1,0.2c-0.1,0.1-0.1,0.3-0.2,0.4c0,0.1-0.1,0.1-0.1,0.2c0,0,0.1,0.1,0.3,0.1
				c0.3,0,0.5,0,0.8,0c0.3,0,0.6,0,0.8,0c0.2,0,0.4,0,0.4,0c0.1,0,2.4-0.1,2.8-0.1s0.9,0,1.5,0c0.6,0,1.4-0.1,1.9,0
				c0.5,0,1.8,0,1.9,0c0.2,0.1,0.1,0.1-0.3,0.1c-0.6,0-2.9,0.1-3.9,0.1s-4,0.2-4.8,0.3c-0.5,0-0.9,0.1-1.4,0.2
				c-0.1,0.1,0,0.2,0.3,0.3c0.5,0.1,1,0.1,1.5,0c0.8-0.1,3.7-0.2,4.4-0.3c0.5,0,0.9,0,1.4,0c0.1,0,1.7-0.1,2,0c0.3,0,0.6,0,1,0
				c0.6,0,1.1,0,1.5,0c0.5,0,0.9,0.1,1.4,0.2c0.3,0.1,0.3,0,0.1-0.1c-0.1-0.1-0.1-0.1,0-0.1c0.3,0,0.5,0,0.8,0c0.3,0,0.6,0,1,0
				c0.4,0,3.2-0.2,3.5-0.2c0.3-0.1,0.7,0,1,0.1C50,2,49.9,2.1,49.6,2.2c-0.2,0.1-0.2,0.1-0.2,0.1c0,0,0,0.1,0.1,0.2
				c0.1,0-0.2,0.1-0.1,0.2c0.1,0,0.2,0.1,0.3,0.1c0.1,0,0,0-0.2,0.1C49.2,3,49,3.1,48.7,3.1c-0.2,0.1-0.4,0.1-0.6,0.2
				c-0.3,0.1-3,0.3-3.3,0.3c-0.2,0-0.3,0-0.5,0.1c-0.1,0-0.3,0.1-0.4,0.1C43.9,3.9,43.7,4,43.6,4c-0.2,0-0.4,0.1-0.5,0.1
				c-0.2,0-0.3,0.1-0.5,0.1c-0.1,0-0.3,0.1-0.4,0.1c-0.3,0.1-4.6,0.5-6,0.7c-1.4,0.2-3.1,0.3-5.2,0.5c-0.3,0-0.7,0.1-1.2,0.1
				c-0.5,0.1-0.9,0.1-1.3,0.1c-0.4,0.1-0.9,0.1-1.5,0.1s-1.1,0.1-1.6,0.1c-0.2,0-0.6,0-1.1,0.1c-0.5,0.1-1,0.1-1.6,0.2
				c-0.7,0.1-1.4,0.1-1.9,0.2c-0.4,0.1-0.8,0.1-1.1,0.1c-0.3,0-0.7,0-1,0c-0.4,0-0.6,0-0.8,0c-0.2,0-0.5,0-0.7-0.1
				c-0.2-0.1-0.5-0.2-0.7-0.4c-0.2-0.2-0.4-0.4-0.5-0.7c-0.1-0.3-0.1-0.6-0.1-0.9l0-0.3c0-0.3-0.1-0.6-0.1-0.8
				c0-0.3-0.1-0.6-0.2-0.8l-0.2-0.8l0.5,0c0.2,0,0.3,0,0.5,0.1c0.2,0,0.4,0.1,0.5,0.1c0.2,0.1,0.4,0.1,0.5,0.1
				c0.2,0,0.3,0.1,0.5,0.1c0.2,0,0.5,0,0.9,0s0.9,0,1.5,0.1c0.3,0,0.6,0,1.2,0c0.5,0,1,0,1.6,0c0.5,0,1,0,1.4,0c0.2,0,0.4,0,0.6,0
				c0.1,0,0.2-0.1,0.3-0.1c0.2,0,0.4-0.1,0.6,0c0.3,0,0.5,0,0.7,0c0.1,0,0.2,0,0.3,0c0.1,0,0.1,0,0.2,0.1C27,2,27,2,27.1,2.1
				c0,0.1,0,0.2,0.2,0.2c0.2,0,0.4,0,0.6,0l0.7-0.1L28,1.8c-0.1-0.2-0.3-0.3-0.5-0.4c-0.1-0.1-0.2-0.2-0.3-0.2
				c-0.1,0-0.1-0.1-0.1-0.1S27,1,26.9,1c0,0,0,0-0.1-0.1c0,0,0-0.1-0.1-0.1c-0.1-0.1-0.1-0.1-0.2-0.1s-0.1,0-0.1-0.1
				c0,0-0.1,0-0.1-0.1c0-0.1-0.1-0.1-0.1-0.1c0,0-0.1-0.1-0.1-0.1c0,0-0.1,0-0.1-0.1c0,0,0,0-0.1-0.1c0,0-0.1-0.1-0.1-0.2
				c0,0-0.1-0.1-0.1-0.1l-0.1-0.1c0,0,0,0-0.1,0c-0.1,0-0.1-0.1-0.2-0.1c-0.1-0.1-0.2-0.2-0.3-0.2c0-0.1-0.1-0.1-0.1-0.2
				c0-0.1,0.1-0.1,0.2-0.2c0.1-0.1,0.3-0.1,0.4-0.1c0.1,0,0.3-0.1,0.4-0.1C26.3-1.1,26.5-1.2,26.7-1.2z"/>
			<path id="Path_11790" class="st0" d="M31.1,6.1c0,0,0.1,0.1,0.2,0.1c0.1,0.2,0.1,0.3,0.1,0.5c-0.1,0.4-0.1,0.7-0.2,1.1
				c-0.1,0.4-0.2,0.7-0.2,1c-0.1,0.3-0.1,0.5-0.1,0.5c0,0.1,0,0.3-0.1,0.7s-0.1,0.9-0.2,1.5c-0.1,0.8-0.2,1.3-0.3,1.6
				c-0.1,0.3-0.1,0.4-0.2,0.4c-0.1,0-0.1,0-0.2,0c-0.1,0-0.1,0.1-0.2,0.2c-0.1,0.2-0.1,0.4-0.1,0.6c0,0.3,0,0.5,0,0.8
				c0,0.2,0.1,0.4,0.1,0.4c0.1,0,0.1,0.1-0.1,0.2c-0.3,0.1-0.4,0.4-0.4,0.7c0,0.1,0.1,0.1,0.2,0.1c0.1,0,0.2,0,0.2,0.1
				c0,0.2,0,0.3,0,0.5c-0.1,0.6-0.2,0.6-0.2,0.2c0-0.3-0.1-0.3-0.1,0.1c-0.1,0.8-0.2,1.6-0.4,2.5c-0.1,0.6-0.3,1.2-0.5,1.9
				c-0.2,0.7-0.4,1.3-0.6,1.8c-0.2,0.5-0.3,0.9-0.4,1.3c-0.1,0.2-0.1,0.4-0.1,0.6c0,0,0,0.1,0,0.1c0,0-0.1,0-0.1,0
				c-0.1,0-0.1,0.1-0.2,0.2c-0.1,0.2-0.2,0.4-0.3,0.6c-0.4,0.8-1,1.6-1.7,2.2c-0.1,0.1-0.2,0.1-0.2,0.2c-0.1,0.1-0.3,0.2-0.5,0.3
				c-0.1,0.1-0.3,0.2-0.4,0.2c-0.1,0-0.3,0.1-0.4,0.1c-0.1,0-0.2,0-0.3,0.1s-0.1,0-0.2,0c0,0,0-0.1,0-0.1c0-0.1,0.1-0.1,0.1-0.2
				c0,0,0.1-0.1,0.1-0.2c0-0.1,0-0.1,0-0.1c0,0,0,0-0.1,0.1c0,0-0.1,0.1-0.2,0.1c-0.2,0.1-0.3,0.2-0.5,0.3c-0.1,0-0.2,0.1-0.3,0.1
				c-0.1,0-0.3,0-0.4,0l-0.2,0c0.2-0.2,0.5-0.4,0.7-0.6c0.2-0.2,0.4-0.5,0.6-0.7c0.3-0.4,0.5-0.8,0.6-1.2c0.1-0.2,0.1-0.4,0.2-0.5
				c0.2-0.5,0.4-0.9,0.5-1.4c0.1-0.3,0.2-0.6,0.2-0.8c0.2-0.6,0.3-1.1,0.4-1.6c0.1-0.2,0.1-0.4,0.1-0.5c0-0.3,0.1-0.6,0.1-1
				c0-0.5,0-1,0.1-1.5c0-0.1,0.1-0.2,0.1-0.3c0.1-0.3,0.2-0.5,0.3-0.8c0.1-0.3,0.2-0.6,0.2-0.9c0-0.2,0-0.3,0-0.5
				c0-0.1,0-0.3-0.1-0.4s0-0.3-0.1-0.5c0-0.3,0-0.5,0-0.8c0.1-0.8,0.2-1.5,0.2-2.4c0.1-1,0.2-1.9,0.3-2.7c0.1-0.5,0.1-1,0.1-1.5
				c-0.1-0.4,0-0.8,0.1-1.1c0.1-0.3,0.2-0.6,0.4-0.8c0.3-0.2,0.7-0.4,1.1-0.4c0.5-0.1,1-0.2,1.6-0.3c0.4,0,0.8,0,1.1,0
				c0.1,0,0.2,0,0.4,0c0.1,0,0.2,0,0.3-0.1c0,0,0,0,0,0C31,6.1,31,6.1,31.1,6.1C31,6.1,31,6.1,31.1,6.1L31.1,6.1z"/>
			<g id="Group_5042">
				<path id="Path_11791" class="st0" d="M-2.3,28.5c0.5,0.1,1.1,0.2,1.8,0.3c1,0.1,1.9,0.2,2.9,0.2c0.4,0,0.9,0,1.3,0.1
					c0.9,0.1,2,0.1,3.4,0.1c0.7,0,1.3,0,1.9,0.1c1.4,0,2.6,0.1,3.7,0.1c0.4,0,0.9,0,1.2,0c0.6,0,1.3,0,2.2-0.1
					c1.2-0.1,2.4-0.1,3.4-0.1c0.2,0,0.5,0,0.8,0c0.6,0,1.2,0,2,0.1s1.4,0,2.1,0c0.4,0,0.8,0,1.1,0s0.6-0.1,0.9-0.1s0.7-0.1,1.1-0.1
					c0.5,0,1.1-0.1,1.9-0.1c1.7,0,3.5-0.1,5.5-0.1c2.3,0,4.4-0.1,6.2-0.1s2.9-0.1,3.4-0.1c0.9-0.1,1.7-0.1,2.6-0.1
					c0.7,0,1.4,0,2.1,0.2c0.5,0.1,0.9,0.3,1.3,0.6c0.4,0.3,0.8,0.6,1.1,0.9c0.2,0.3,0.4,0.6,0.4,0.7c0,0.1,0.1,0.2,0.1,0.2
					c0.1,0.1,0.2,0.1,0.3,0.1c0,0,0.1,0,0.1,0c0.1,0,0.1,0,0.1,0c0.1,0,0.1,0,0.1,0v0c0,0-0.1,0.1-0.2,0.1c-0.4,0.1-0.7,0.1-1.1,0.1
					c-0.5,0-1.4,0-2.6,0c-0.9,0-1.7,0-2.4,0c-0.7,0-1.1,0-1.2,0c-0.1,0-0.7,0-1.6,0s-2.1,0-3.4,0.1c-1.7,0-2.9,0-3.6,0
					c-0.6,0-0.9,0-0.9-0.1c0,0,0-0.1-0.1-0.1c-0.1,0-0.3-0.1-0.4-0.1c-0.3,0-0.8,0-1.4,0c-0.7,0-1.2,0.1-1.8,0.1
					c-0.3,0-0.6,0-0.8,0.1c-0.1,0.1-0.2,0-0.5-0.1c-0.3-0.1-0.5-0.2-0.8-0.2c-0.3,0-0.6,0-0.9,0c-0.2,0-0.3,0.1-0.2,0.1
					c0.1,0.1,0,0.1-0.2,0.1c-0.4,0-0.8,0-1.2,0c-1.3,0-1.5,0-0.5-0.1c0.7-0.1,0.7-0.1-0.2-0.1c-1,0-2.9,0-5.7,0
					c-1.4,0-2.9,0-4.5-0.1c-1.7,0-3.1-0.1-4.3-0.1c-1.2,0-2.2-0.1-3-0.1s-1.4,0-1.5,0c-0.1,0-0.2,0-0.3,0c-0.1,0-0.1,0-0.1-0.1
					c-0.2-0.1-0.4-0.1-0.6-0.1c-0.4-0.1-0.9-0.1-1.5-0.1c-1.8-0.1-3.7-0.4-5.5-0.8c-0.2-0.1-0.4-0.1-0.6-0.1
					C-1.4,30.1-1.7,30-2,29.9c-0.2,0-0.5-0.1-0.7-0.2c-0.1-0.1-0.3-0.2-0.4-0.3c-0.1-0.1-0.2-0.1-0.2-0.2c-0.1,0-0.1-0.1,0-0.1
					c0.1,0,0.2,0,0.3,0c0.2,0,0.3,0,0.5,0.1l0.4,0c0.1,0,0.2,0,0.2,0c0,0-0.1,0-0.2-0.1C-2.2,29-2.4,29-2.5,29
					c-0.3-0.1-0.5-0.2-0.8-0.3c-0.1-0.1-0.2-0.1-0.4-0.2c-0.1-0.1-0.1-0.2-0.2-0.2c0-0.1,0-0.1,0-0.1C-3.3,28.3-2.8,28.4-2.3,28.5z
					 M17.6,30.8c0.3,0,0.6,0,0.9,0l0.9,0c0.2,0,0.4,0,0.4,0s-0.1,0-0.3-0.1c-0.2,0-0.6,0-0.9-0.1s-0.6,0-0.9,0c-0.2,0-0.4,0-0.4,0.1
					C17.2,30.7,17.3,30.8,17.6,30.8z M11.1,30.5c-0.4,0.1,0.5,0.2,2.5,0.3c1.1,0,1.7,0,1.7-0.1c-0.6-0.2-1.2-0.2-1.9-0.2
					c-0.6,0-1.1,0-1.6,0C11.6,30.4,11.3,30.4,11.1,30.5z"/>
				<path id="Path_11792" class="st0" d="M45.8,32.5c0.9,0,1.8,0,3.1,0s2.5-0.1,3.4-0.1c0.4,0,0.7,0,1.1-0.1
					c-0.4-0.1-0.9-0.1-1.3-0.1l-3.1,0c-1.3,0-2.2,0-3.1,0.1c-0.9,0-1.3,0.1-1.3,0.1C44.9,32.5,45.3,32.5,45.8,32.5z"/>
				<path id="Path_11793" class="st0" d="M0,30.9c0.1,0,0.3,0,0.4-0.1c0,0-0.1-0.1-0.4-0.1c-0.1,0-0.3-0.1-0.5-0.1
					c-0.1,0-0.2,0-0.3,0c-0.1,0-0.1,0.1-0.1,0.1c0.1,0.1,0.2,0.1,0.3,0.1C-0.4,30.9-0.2,30.9,0,30.9z"/>
				<path id="Path_11794" class="st0" d="M33.5,31.7c-0.5,0.1-0.5,0.1-0.3,0.1c0.1,0,0.3,0,0.4,0c0,0,0,0,0,0.1
					C33.5,32,33.6,32,33.8,32c0.3,0,0.5-0.1,0.8-0.2c0.4-0.2,0.3-0.2-0.3-0.2C34,31.6,33.8,31.6,33.5,31.7z"/>
				<path id="Path_11795" class="st0" d="M43.6,32.5C43.6,32.4,43.6,32.4,43.6,32.5c-0.2-0.2-1.2-0.3-3.1-0.1c-0.5,0-1,0.1-1.4,0.1
					s-0.8,0-1,0s-0.4,0-0.6,0c-0.2,0-0.3,0-0.5,0c-0.1,0-0.2,0-0.3,0c-0.1,0-0.2,0-0.3,0c-0.1,0-0.2,0-0.2,0.1
					c-0.1,0-0.1,0.1-0.2,0.1c-0.1,0.1-0.1,0.1,0,0.1c0.1,0,0.2,0,0.4,0c0.2,0,0.5,0,0.9-0.1c0.5,0,1,0,1.6-0.1l1.5-0.1
					c0.4,0,0.6,0,0.7,0c0.1,0,0.2,0,0.3,0c0.1,0,0.2,0,0.3,0c0.1,0,0.1,0,0-0.1c-0.1-0.1-0.1-0.1,0.2,0c0.2,0,0.3,0,0.5,0
					c0.2,0,0.4,0,0.7,0c0.2,0,0.3,0,0.4,0C43.4,32.5,43.5,32.5,43.6,32.5z"/>
				<path id="Path_11796" class="st0" d="M29.4,31.8c0.4,0,0.6,0.1,0.7,0.1c0.1,0,0,0.1-0.3,0.1c-0.1,0-0.3,0-0.4,0L29,31.9
					c-0.1,0-0.1,0,0-0.1C29,31.8,29.2,31.8,29.4,31.8z"/>
				<path id="Path_11797" class="st0" d="M32.3,31.8c-0.1,0-0.1,0.1-0.2,0.1c0,0,0,0.1,0,0.1c0.1,0,0.2,0,0.3,0c0.1,0,0.2,0,0.4,0
					c0,0,0.1-0.1,0.1-0.1s-0.1-0.1-0.1-0.1l-0.1,0C32.5,31.8,32.4,31.8,32.3,31.8z"/>
			</g>
		</g>
	</g>
	<g id="Group_5046">
		<g id="Group_5045">
			<path id="Path_11798" class="st0" d="M63.8,15.8l0.2,0.1c0.1,0.1,0.1,0.1,0.2,0.2c0.1,0,0.1,0.1,0.1,0.2c0,0.1,0,0.2-0.1,0.2
				c-0.1,0.1-0.1,0.2-0.2,0.3c-0.1,0.1-0.1,0.2-0.2,0.3c-0.1,0.1-0.1,0.1-0.2,0.2c-0.2,0.3-0.3,0.6-0.4,1c-0.1,0.4-0.2,0.9-0.3,1.4
				c-0.1,0.5-0.1,0.9-0.2,1.4c0,0.4-0.1,0.8-0.1,1c0,0.1,0,0.1-0.1,0.1c0,0,0,0,0,0s0,0,0,0c-0.1,0-0.1,0-0.1-0.1v-0.1
				c0,0,0-0.1,0-0.1V21c0-0.2,0-0.4,0-0.6s0-0.4,0.1-0.6c-0.1,0.3-0.1,0.6-0.1,0.9c0,0.3,0,0.6,0,0.9c0,0.5,0,1.1,0.1,1.6
				c0.1,0.5,0.2,1,0.3,1.6l0.6-0.1c0.2,0,0.4-0.1,0.6-0.1h0.1l0,0c0,0,0,0.1,0,0.1v0.1h0.2c0.2,0,0.1,0,0.3,0.1s0.4,0.2,0.4,0.3
				c0,0.1,0,0.1-0.1,0.2c0,0.1-0.1,0.1-0.2,0.2c-0.1,0.1-0.1,0-0.1-0.1v-0.2c0,0-0.1-0.1-0.2-0.1l0,0c-0.1,0-0.3,0-0.4,0.1
				c-0.2,0-0.4,0.1-0.5,0.2c-0.2,0.1-0.3,0.1-0.5,0.2c-0.1,0-0.2,0.1-0.2,0.2c0,0.1,0,0.2,0,0.3c0,0.1,0,0.2,0,0.2
				c0,0.1,0,0.2-0.1,0.2c0,0.1-0.1,0.1-0.2,0.1c-0.1,0-0.3,0-0.4-0.1l-0.1-0.1c-0.1-0.1-0.3-0.2-0.4-0.2c-0.2,0-0.3,0.1-0.4,0.2
				c-0.2,0.1,0.3-0.1,0.2,0l-0.2,0.3L61.2,27c-0.1,0.1-0.1,0.2-0.2,0.3c-0.1,0.1-0.3,0.1-0.4,0.1c-0.3,0-0.6-0.1-0.8-0.3
				c-0.2-0.2-0.4-0.4-0.5-0.6l0-0.1c0,0,0-0.1,0-0.1c0-0.1,0-0.1,0-0.1l0.3-0.5c0.1-0.2,0.2-0.3,0.4-0.3c0.1,0,0.1,0,0.1,0
				c0,0,0.1,0,0.1,0c0.1,0-0.3,0.2-0.1,0.1s0.4-0.2,0.4-0.3c0-0.2,0-0.6,0-1s0-0.8,0.1-1.3s0.1-0.9,0.2-1.3c0.1-0.3,0.1-0.6,0.3-1
				c0,0,0.1,0,0.1,0V21c0,0.3,0,0.6,0,0.9s0,0.6,0,0.9l0,0.5c0.1-0.1,0.1-0.3,0.1-0.4c0-0.2,0-0.3,0-0.5c0-0.2,0-0.4,0-0.6
				c0-0.2,0-0.4,0-0.5c0-0.3,0-0.7,0-1c0-0.3,0.1-0.7,0.1-1c0-0.4,0.1-0.7,0.1-1.1c0.1-0.4,0.1-0.7,0.1-1.1c0,0,0-0.1,0-0.2
				s0-0.2,0-0.3c0-0.1,0-0.2-0.1-0.3c0-0.1-0.1-0.1-0.2-0.1c0,0-0.1,0-0.3,0c-0.1,0-0.2,0-0.3,0.1c-0.1,0,0.6-0.2,0.3-0.1
				s-0.5,0.1-0.7,0.2c-0.4,0.1-0.7,0.2-1.1,0.2h0c-0.2,0-0.3,0-0.3-0.1c0,0,0,0-0.1,0c0,0,0,0,0,0c0.1-0.1,0.2-0.2,0.4-0.2l0.4-0.2
				h-0.1l-0.1-0.1c0-0.1,0.1-0.2,0.1-0.2c0.2-0.1,0.5-0.2,0.8-0.3c0.4-0.1,0,0,0.6-0.1s1-0.3,1.5-0.4s0.8-0.2,1-0.3l0.1-0.1
				c-0.1,0-0.2,0-0.2,0c-0.1,0-0.1,0-0.2,0c0,0-0.1,0-0.1,0c0,0-0.1,0-0.1,0c-0.1-0.1-0.1-0.1-0.1-0.1c0.1-0.1,0.3-0.2,0.4-0.2
				c0.3-0.1,0.5-0.1,0.8-0.2c0.3,0,0.3-0.1,0.6-0.1c0.2,0,0.4,0,0.6-0.1c0.1,0,0.2,0,0.4,0l0.1,0c0,0,0.1,0,0.1,0.1l0.2,0.3
				c0,0,0,0.1,0,0.1L66,14.6l0.1,0.1c0,0.1,0,0.2,0,0.2l-0.3,0.5c0,0.1-0.1,0.1-0.1,0.1c-0.1,0-0.1,0-0.2,0c-0.1,0-0.2,0-0.3,0
				c-0.1,0-0.2,0-0.3,0c-0.1,0-0.2,0-0.3,0c-0.2,0-0.4,0-0.6,0L63.8,15.8L63.8,15.8z"/>
		</g>
	</g>
	<path id="Path_11799" class="st0" d="M56.8,17.2l0.1,0.4l0.2,0.3c0.1,0.1,0.1,0.2,0.1,0.3c0,0.3,0,0.6-0.1,0.9
		c-0.1,0.3-0.2,0.7-0.4,1l0.9-1.1c0.1-0.1,0.2-0.2,0.3-0.3c0.1-0.1,0.2-0.2,0.4-0.2c0.2,0,0.3,0.1,0.2,0.3c-0.1,0.3-0.2,0.5-0.4,0.7
		c-0.2,0.3-0.4,0.5-0.5,0.8l-0.8,0.9l-0.3,0.6l0.2,2.3c0,0.3,0,0.5,0,0.8c0,0.3,0,0.5,0.1,0.8l0.1,0.3l0.1-0.9c0-0.2,0-0.3,0-0.3
		l0-0.4c0-0.1,0.1,0,0.1,0s0,1.4,0.1,2.5s-1.7,0.2-1.7,0.1c0,0-0.6-0.4-0.6-0.6s-0.3-0.4-0.2-0.6c0.2-0.7,0,0.3,0.1-0.5
		c0.1-0.6,0.2-1.3,0.1-1.9L54,23.7l-1.1,0.9c-0.4,0.3-0.9,0.6-1.3,0.8c-0.3,0.2-0.7,0.4-1.1,0.4c-0.3,0-0.6-0.2-0.8-0.4L49,24.7
		l-0.3-0.2c-0.3-0.2-0.5-0.5-0.5-0.9c-0.1-0.3-0.1-0.7-0.2-1c0-0.7,0.1-1.5,0.4-2.1c0.3-0.8,0.6-1.5,1.1-2.1c0.5-0.7,1-1.2,1.7-1.7
		c0.6-0.4,1.3-0.7,2-0.7c0.4,0,0.7,0,1,0.1l0.6,0.1l0.1-0.3l0-0.4c0-1.6,0-3.2,0-4.7c0-0.3,0-0.5-0.1-0.8c0-0.3-0.1-0.5-0.1-0.8
		c0-0.5,0-1.1,0-1.5s0-1,0-1.5l0-0.5l-0.1-0.5c-0.1-0.3-0.2-0.7-0.2-1c0-0.4,0.1-0.7,0.2-1.1c0.2-0.3,0.6-0.5,1-0.5
		c0.2,0,0.5,0.1,0.7,0.2C56.5,2.9,56.8,3,57,3.2c0.1,0.1,0.2,0.2,0.3,0.2c0.1,0.1,0.3,0.2,0.4,0.2c0.3,0.2,0.6,0.4,0.9,0.7
		c0.2,0.3,0.3,0.6,0.3,1c0,0.2-0.1,0.5-0.1,0.7s-0.1,0.5-0.2,0.8c-0.5,1.7-0.9,3.3-1.2,4.9c-0.3,1.7-0.5,3.3-0.7,5L56.8,17.2z
		 M50.3,20.9c-0.2,0.3-0.4,0.7-0.4,1.1c-0.1,0.4-0.2,0.8-0.2,1.2l0.3,0.1c0.4,0,0.8-0.1,1.2-0.3c0.4-0.2,0.8-0.3,1.1-0.5l1-0.5
		c0,0,0.1,0,0.1,0c0,0,0.1,0,0.1,0c0.1,0,0.1,0,0.1,0.1c0,0,0,0,0,0c0.1,0.2,0.1,0.3-0.1,0.3l-0.1,0.1l-0.2,0.2
		c0.4-0.2,0.7-0.4,1-0.7c0.3-0.2,0.5-0.4,0.5-0.5l0-0.9c0-0.5-0.1-1-0.2-1.4c-0.1-0.5-0.5-0.7-1.2-0.7c-0.3,0-0.6,0.1-0.8,0.3
		c-0.3,0.2-0.6,0.4-0.8,0.6L50.3,20.9z M56.3,17.1c0,0.1,0,0.2,0.1,0.3c0-1-0.1-2-0.1-2.9c0-1,0-1.9,0-2.9c0-0.3,0.1-0.5,0.1-0.8
		c0-0.2,0-0.5,0-0.7c-0.2,1.1-0.2,2.2-0.3,3.3c0,1.1,0,2.3,0,3.4C56.3,16.8,56.3,16.9,56.3,17.1L56.3,17.1z M57.9,17.3
		c0,0,0.1,0.1,0.2,0.1c0.1,0,0.1,0,0.2,0.1c0.1,0.1,0.1,0.1-0.1,0.1H58l-0.2,0c0,0-0.1-0.1-0.1-0.1v-0.1
		C57.7,17.4,57.8,17.3,57.9,17.3L57.9,17.3z"/>
</g>
</svg>
