<?xml version="1.0" encoding="utf-8"?>
<!-- Generator: Adobe Illustrator 25.4.1, SVG Export Plug-In . SVG Version: 6.00 Build 0)  -->
<svg version="1.1" id="Layer_1" xmlns="http://www.w3.org/2000/svg" xmlns:xlink="http://www.w3.org/1999/xlink" x="0px" y="0px"
	 viewBox="0 0 70.7 35.7" style="enable-background:new 0 0 70.7 35.7;" xml:space="preserve">
<style type="text/css">
	.st0{fill:#A87900;}
	.st1{fill:#8F4700;}
	.st2{fill:#A0A300;}
	.st3{fill:#947E00;}
</style>
<path class="st0" d="M35.5,26.7c-0.1,0-0.1,0-0.1,0C35.4,26.6,35.4,26.6,35.5,26.7C35.5,26.6,35.6,26.6,35.5,26.7L35.5,26.7
	L35.5,26.7c0.1-0.1,0.2-0.1,0.3-0.1c0.1,0,0.2,0,0.2,0c0,0-0.1,0-0.1,0c0,0-0.1,0-0.1,0.1c0,0-0.1,0-0.1,0
	C35.6,26.6,35.6,26.7,35.5,26.7L35.5,26.7z M35.5,28.7L35.5,28.7C35.6,28.7,35.5,28.7,35.5,28.7z M35.6,28L35.6,28L35.6,28
	C35.6,28,35.6,28,35.6,28z M35.6,28.2L35.6,28.2L35.6,28.2L35.6,28.2z M35.6,28.1L35.6,28.1C35.6,28.1,35.6,28.1,35.6,28.1
	C35.6,28.1,35.6,28.1,35.6,28.1z M50.5,26.9c-0.1,0.1-0.1,0.2-0.1,0.4c0,0,0,0-0.1,0.1c0,0,0,0.1,0,0.3c-0.1,0-0.1,0.1-0.2,0.3
	l-0.2,0.3h0l-0.2,0.2c0,0.1,0,0.1-0.1,0.1c0,0,0,0-0.1,0c0,0-0.1,0-0.1,0h0l-0.1,0c-0.1,0.1-0.1,0.1-0.2,0.1l-0.2,0l-0.1,0l-0.1-0.1
	c0,0-0.1-0.1-0.1-0.1h-0.1c0,0,0,0-0.1,0c0-0.2,0-0.3-0.1-0.1c0,0.1-0.1,0.1-0.1,0c0-0.1-0.1-0.1-0.2-0.1H48c0,0-0.1,0-0.1,0
	c0,0-0.1,0-0.1,0h-0.1c0,0-0.1,0-0.1,0c0,0,0,0-0.1,0h-0.1h-0.1H47c-0.1,0-0.1,0-0.3,0c-0.1,0-0.2,0-0.3,0l-0.1,0
	c-0.1,0-0.1,0-0.1,0c0,0-0.1,0-0.1,0l-0.2,0.1l-0.1,0l-0.2,0c0,0-0.1,0-0.1,0c0,0-0.1,0-0.1,0c0,0-0.1,0-0.3,0c-0.2,0-0.3,0-0.3,0
	h-0.1h-0.1c-0.1,0-0.1,0-0.2,0l-0.3,0l-0.3,0c0,0-0.1,0-0.1,0l-0.3,0c-0.1,0-0.1,0-0.2,0c0,0-0.1,0-0.2,0l-0.1,0l-0.2,0h-0.3l-0.3,0
	l-0.1,0l-0.1,0h0l-0.2,0.2c0,0,0,0-0.1,0l-0.1,0.1l-0.1,0.1c0,0-0.1,0.1-0.2,0.1l-0.2,0.1C41.2,29,41.1,29,41.1,29
	c0,0-0.1,0-0.4,0.1L40,29.2h-0.1c0,0-0.1,0-0.2,0c-0.1,0-0.2,0-0.2,0c0,0,0,0,0,0l-0.1,0c0,0-0.1,0-0.1,0c-0.1,0-0.1,0-0.1,0
	c-0.1-0.1-0.2-0.2-0.3-0.3c-0.2-0.1-0.3-0.2-0.3-0.2v0l-0.2-0.2H38h0v0h-0.1c-0.1,0-0.1,0-0.2,0c-0.1,0-0.1,0-0.2,0c0,0,0,0-0.1,0
	c0,0,0,0,0,0h-0.1v0l-0.1,0c0,0,0,0-0.1,0c-0.1,0-0.1,0-0.1,0c0,0,0,0-0.1,0c0.1-0.1,0.1-0.2,0.1-0.2c0,0-0.1,0-0.1,0
	c-0.1,0-0.1,0-0.1,0c-0.3,0-0.4,0-0.5,0h0v0h-0.1l-0.5,0l0.6-0.1c0.4-0.1,0.6-0.1,0.5-0.1c0,0,0.2,0,0.4,0c0.1,0,0.1-0.1,0.1-0.2
	l-0.1-0.1c0,0-0.1,0-0.1,0c0,0,0,0,0-0.1c0,0,0-0.1,0-0.1c0.1,0,0.2,0,0.3,0c0.1,0,0.2,0,0.3-0.1c0,0,0,0,0.1,0h0l0-0.1l0-0.1
	c-0.1,0-0.1,0-0.2-0.1c-0.1-0.1-0.2-0.1-0.3-0.1L37,26.9c-0.1,0-0.2,0-0.2,0v0c-0.2,0-0.4,0-0.5,0c0,0,0.1,0,0.2,0
	c0.1,0,0.1,0,0.2,0c0,0,0-0.1,0-0.1c0.1,0,0.1,0,0.2,0c0.1,0,0.1,0,0.2,0c0,0,0-0.1,0-0.1c0,0,0,0,0,0h0.1v0h0.1v-0.1l-0.2,0l-0.1,0
	c0,0,0,0,0,0l-0.1,0l-0.1,0c0,0,0,0-0.1,0l-0.1,0.1l-0.1-0.1c0,0-0.1,0-0.1,0l0.1-0.1l0.1,0l0.2-0.1c0,0,0.1,0,0.2,0c0,0,0,0,0-0.1
	l0,0c-0.1,0-0.1,0-0.1,0c0,0,0,0,0,0l-0.3,0c0,0,0-0.1,0-0.1c0,0,0,0,0,0l0.1,0c0,0,0-0.1,0.1-0.1c0,0,0.1,0,0.1-0.1c0,0,0,0,0,0
	c0,0,0-0.1,0.1-0.1l0-0.1c0,0,0,0,0,0c0,0,0,0,0,0c0,0,0,0,0,0c0,0,0,0,0,0v0c0,0,0.1,0,0.2,0c0,0,0,0,0,0c0.1,0,0.1,0,0.1-0.1
	c0,0,0.1,0,0.1,0l0,0c0,0,0,0,0,0l0,0c0,0,0,0,0,0l0,0c0,0,0,0,0.1,0l0.1,0c0-0.1,0.1-0.1,0.1-0.1c0,0,0-0.1-0.1-0.1c0,0,0,0,0.1,0
	c0,0,0,0,0,0l0.2-0.1l0.2-0.1c0,0,0,0,0.1,0v0v-0.3c0-0.1,0-0.2,0-0.3c0,0,0-0.1,0-0.1c0-0.1,0-0.1,0.1-0.3c0,0,0-0.1,0-0.1
	c0-0.1,0-0.1,0-0.1c0-0.1,0-0.1,0-0.2c0,0,0-0.1,0-0.1v-0.1l0-0.2c0,0,0,0,0.1-0.1c0,0,0-0.1,0-0.1v-0.1l0-0.3c0-0.2,0-0.3,0-0.4v0
	v-0.3c0-0.1,0-0.1,0-0.2l0-0.3l0-0.3c0-0.1,0-0.2,0-0.3v-0.2v-0.1l-0.1-0.3l0-0.1l0-0.2c0-0.2,0-0.3,0-0.4l0-0.3c0,0,0,0,0-0.1
	l0-0.1c0,0,0,0-0.1-0.1c0-0.1,0-0.1,0-0.2v-0.2l-0.1-0.7v-0.1l0-0.4L38,17.1c-0.1-0.4-0.1-0.7-0.1-0.8l0.1,0l0-0.1c0,0,0,0,0,0
	l0-0.7c0,0,0,0,0,0c0,0,0,0,0,0v-0.7v0h0l0.1,0v0c0,0,0,0,0,0l0-0.5c0,0,0,0,0-0.1l0-0.1v0c0,0,0,0,0,0c0,0,0,0,0-0.1c0,0,0,0,0-0.1
	l0-0.2c0,0.1,0.1,0.1,0.2,0.2c0,0,0-0.1,0-0.2c0-0.1,0-0.1,0-0.1c0-0.3-0.1-0.5-0.1-0.6c0,0,0,0,0,0c0,0,0-0.1,0-0.1
	c0-0.1,0-0.2,0-0.3c0-0.1,0-0.1,0-0.3c0.1,0.2,0.1,0.4,0.1,0.6l0.1,0.6l0,0.2l0,0.2c0,0,0,0.1,0.1,0.1c0,0,0.1,0,0.2,0
	c0,0,0,0,0-0.1c0-0.1,0-0.1,0-0.1c0,0,0-0.1,0-0.1l0.1,0c0,0,0.1,0,0.1,0c0,0,0,0.1,0.1,0.3c0,0.1,0,0.2,0.1,0.3c0,0,0,0,0,0v0.1
	c0,0,0,0,0.1,0h0.1v-0.1c0-0.1,0-0.1,0.1-0.3c0-0.1,0-0.2,0-0.3l0.1-0.1c0-0.1,0-0.2-0.1-0.3c0,0,0,0,0,0c0,0,0,0,0,0
	c-0.1-0.2-0.1-0.4,0-0.6c0,0.1,0,0.1,0,0.2c0,0.1,0,0.2,0,0.2l0.1,0c0,0.1,0,0.2,0,0.3v0.2c0.1,0,0.1,0,0.1-0.1l0,0.1h0v0.2h0.1
	c0,0,0-0.1,0-0.1c0,0,0,0,0-0.1l0-0.1c0,0,0,0,0,0l0-0.1l0-0.1v0c0,0,0-0.1,0-0.1l0-0.1c0,0,0-0.1,0-0.1c0,0,0-0.1,0-0.1l0.1,0.1
	v0.1c0,0,0,0.1,0.1,0.2c0,0.1,0,0.1,0,0.2c0,0,0.1,0,0.1,0l0-0.1c0,0,0,0,0,0c0,0,0,0,0,0l0-0.3l0.1,0h0l0,0l0,0.1
	c0,0,0.1,0.1,0.1,0.1c0,0,0,0,0,0.1c0.1,0.1,0.1,0.1,0.1,0.1c0,0,0,0-0.1,0L40,13.6c0,0,0,0,0.1,0h0c0,0,0,0,0,0.1l0,0.1h0.1
	c0,0,0-0.1,0-0.1c0,0,0,0,0-0.1c0,0-0.1-0.1-0.1-0.1c0,0,0,0,0.1,0l0,0c0,0,0,0,0.1,0c0,0,0,0,0,0c0,0,0,0,0,0c0,0,0,0,0.1,0
	c0,0.1,0,0.1,0,0.1v0.1c0,0,0,0,0,0c0,0,0,0,0,0c0,0,0,0,0,0.1c0,0,0,0.1,0.1,0.1c0,0,0,0,0,0.1c0,0,0,0.1,0,0.1c0,0,0,0,0,0
	c0,0,0,0,0,0l0,0.1c0,0,0,0,0,0.1c0,0,0,0.1,0,0.1c0,0,0.1,0,0.1-0.1c0,0,0,0,0,0.1c0,0.1,0,0.1,0.1,0.2l0.1,0.3c0,0,0,0,0,0
	c0,0,0,0,0,0h0c0,0.3,0,0.4,0.1,0.4l-0.1,0l0,0.1c0,0,0,0.1,0.1,0.1v0.1c0,0.1,0,0.2,0.1,0.2L41,16c0.1,0.1,0.1,0.1,0,0.2
	c0.1,0.3,0.1,0.7,0.1,1.1c0.1,0.5,0.1,0.9,0.1,1.1l0,0.1c0,0.1,0,0.2,0.1,0.4V19c0,0,0,0.1,0,0.1c0,0.4,0,0.6,0.1,0.7v0.1l0,0.4
	c0,0,0,0,0,0.1c0,0,0,0,0,0.1l0.1,0.1c0,0.1,0,0.1,0,0.1c0,0.1,0,0.1,0,0.2l0.1,0.1v0.3c0,0.1,0,0.3,0.1,0.4v0.1c0,0,0,0.1,0,0.1
	l0,0.1c0,0,0,0.1,0,0.2c0,0.1,0,0.1,0,0.2l0,0.1c0,0,0,0,0,0.1c0,0.1,0,0.1,0,0.2c0,0.1,0,0.1,0,0.1c0.1,0.1,0.1,0.3,0,0.5
	c0,0,0,0,0,0v0.1c0,0.1,0,0.1,0,0.1c0,0.1,0,0.1,0,0.1c0,0,0,0,0,0l0,0.1c0,0.1,0,0.2,0,0.3c0,0.1,0,0.2,0,0.3c0,0,0.1,0.1,0.1,0.1
	v0.1c0,0,0,0,0,0l0,0.1l0,0.1l0,0.1l0,0.1l0,0.1v0c0.2,0,0.3,0,0.4-0.1l0.1,0c0.1,0,0.1,0,0.1,0c0,0,0.1,0,0.1,0h0.1
	c0,0,0.1,0,0.1,0l0.1,0c0.1,0,0.1,0,0.1,0c0.1,0,0.1,0,0.1,0l0.1-0.1h0.3c0.2,0,0.3,0,0.3,0h0.1c0,0,0,0,0.1,0l0.1,0
	c0,0,0.1,0,0.1,0c0.1,0,0.1,0,0.1,0l0.1,0c0.1,0,0.1,0,0.1,0c0.1,0,0.1,0,0.1,0c0,0,0.1,0,0.2,0v-0.1l0.1-0.3c0,0,0-0.1,0-0.1
	c0,0,0-0.1,0-0.1c0,0,0-0.1,0-0.1c0-0.1,0.1-0.2,0.1-0.2v-0.2c0-0.1,0-0.2,0-0.2c0,0,0-0.1,0-0.1l0.1-0.2l0-0.1c0,0,0-0.1,0.1-0.2
	c0,0,0-0.1,0-0.1v-0.1c0,0,0-0.1,0-0.1l0-0.1l0-0.2c0,0,0,0,0.1-0.1c0,0,0,0,0-0.1c0,0,0-0.1,0-0.2v-0.2c0-0.1,0-0.2,0-0.2v0h0v-0.1
	v-0.2c0-0.1,0-0.1,0-0.2c0-0.3,0-0.4,0-0.5v-0.1l0.1-0.4l0-0.3l0-0.1l0-0.2c0,0,0-0.1,0-0.3c0,0,0-0.1,0-0.1c0,0,0-0.1,0-0.1l0-0.1
	l0-0.1l0-0.4c0-0.1,0-0.2,0-0.2c0-0.1,0-0.3,0-0.4c0-0.1,0-0.2,0-0.3c0-0.1,0-0.1,0-0.2c0-0.1,0-0.2,0-0.3c0-0.2,0-0.3,0-0.4v-0.4
	c0-0.2,0-0.3,0-0.4l0.1,0l0-0.1c0,0,0,0,0,0c0,0,0-0.2,0.1-0.6c0,0,0,0,0,0c0-0.2,0.1-0.3,0.1-0.4c0-0.1,0-0.2,0-0.2v0h0
	c0,0,0,0,0,0c0,0,0,0,0,0c0,0,0,0,0,0c0-0.1,0-0.1,0-0.2c0-0.1,0-0.1,0-0.2l0-0.1v-0.1l0-0.1h0.1c0,0,0,0,0-0.1c0,0,0-0.1,0-0.2
	c0,0,0-0.1,0-0.1c0,0.1,0.1,0.1,0.2,0.1c0,0,0.1-0.1,0.1-0.1c0-0.1,0-0.1,0-0.1c0,0,0-0.1,0-0.2c0-0.2,0-0.3,0-0.3l0,0
	c0,0,0-0.1,0-0.3c0-0.1,0-0.2,0-0.3c0,0.1,0,0.2,0,0.4c0,0.1,0,0.2,0,0.3c0,0.2,0,0.4,0,0.4l0,0.4c0,0.1,0.1,0.1,0.2,0.1
	c0,0,0-0.1,0-0.1c0,0,0-0.1,0-0.1c0.1,0,0.1,0,0.1,0v0.1c0,0.2,0,0.3,0.1,0.4c0,0,0,0,0,0.1l0.1,0h0.1c0-0.1,0-0.2,0.1-0.3
	c0.1-0.1,0.1-0.2,0.1-0.3c0,0,0,0,0.1,0c0,0,0.1,0,0.1-0.1c0-0.1,0-0.1,0-0.1c0,0,0,0,0,0l0-0.3c0,0,0-0.1,0.1-0.2
	c0,0.1,0,0.1,0,0.2c0,0.1,0,0.2,0,0.2l0.1,0.1c0,0.1,0,0.1,0,0.2c0,0.1,0,0.2,0,0.2c0,0,0,0,0.1,0c0,0,0,0,0,0c0,0,0,0,0,0.1h0.1
	c0,0.1,0,0.1,0,0.1c0,0,0,0,0.1,0l0-0.2c0,0,0,0,0-0.1c0,0,0,0,0,0l0-0.1l0-0.1h0v0c0,0,0-0.1,0-0.1c0,0,0-0.1,0-0.1
	c0,0,0,0,0.1-0.1c0,0,0,0,0-0.1l0,0.1l0,0.1c0,0,0,0.1,0.1,0.2c0,0.1,0,0.1,0,0.2c0,0,0,0,0.1,0H48c0,0,0,0,0-0.1l0-0.1c0,0,0,0,0,0
	l0-0.3l0.1,0l0.1,0v0h0l0-0.1c0,0,0,0,0,0c0,0,0-0.1,0-0.2v-0.1l0,0.3c0,0,0,0,0,0c0,0,0,0.1,0,0.1l0,0.1c0,0,0,0,0.1,0.1v0.1
	c0,0,0,0,0,0.1c0.1,0.1,0.1,0.1,0.1,0.1c0,0,0.1,0,0.1,0c0,0,0,0,0.1,0c0,0,0,0,0,0c0,0,0,0,0,0c0,0,0,0,0.1,0c0,0.1,0,0.1,0,0.2
	l0,0l0,0c0,0,0,0.1,0,0.1c0,0,0,0,0,0.1c0,0.1,0,0.1,0,0.1c0,0,0,0,0,0h0c0,0,0,0,0,0.1l0,0.1c0,0,0.1,0.1,0.1,0.1
	c0,0,0.1,0,0.1-0.1c0,0,0,0,0,0l0,0.1l0.1,0.2c0,0.1,0.1,0.2,0.1,0.3c0,0,0,0,0,0c0,0,0,0,0,0h0V15v0.1c0,0.1,0,0.1,0.1,0.2l-0.1,0
	c0,0,0,0,0,0c0,0,0,0.1,0,0.1v0v0.1c0,0.1,0,0.1,0,0.1l-0.1,0.1l0,0.1c0,0,0,0.1,0,0.1c0,0.3,0.1,0.6,0.1,1c0,0.5,0,0.9,0,1
	c0,0,0,0.1,0,0.2l0,0.3v0.1c0,0,0,0.1,0,0.1v0.3c0,0.1,0,0.2,0,0.3c0,0,0,0.1,0,0.1l0,0.3l0,0.2l0,0.1v0.1c0,0.1,0,0.1,0,0.1
	c0,0,0,0.1,0,0.1l0,0.1v0.3c0,0.1,0,0.2,0,0.3l0,0.1l0.1,0.1l0,0.3c0,0,0,0,0,0.1c0,0,0,0,0,0.1c0,0.1,0,0.1,0,0.1
	c0,0.1,0,0.1,0,0.1c0,0,0,0.1,0,0.1c0,0.1,0,0.1-0.1,0.3l0,0v0c0,0.1,0,0.1,0,0.1c0,0.1,0,0.1,0,0.1c0,0,0,0,0,0c0,0,0,0.1,0,0.1
	c0,0.1,0,0.2,0,0.2c0,0.1,0,0.2,0,0.2c0,0,0.1,0.1,0.1,0.1l0,0.1c0,0,0,0,0,0l0,0.1l0,0.1v0.1l0,0.1l0,0.1c0,0,0,0,0,0l0,0.1
	l0.1,0.1c0,0,0,0.1-0.1,0.1c0,0,0,0,0,0c0,0,0,0,0,0c0,0,0,0,0,0c0.1,0,0.1,0,0.1,0.1h0.1c0.1,0.1,0.2,0.1,0.3,0.1c0,0,0.1,0,0.1,0
	c0.1,0,0.2,0.1,0.4,0.4l0,0.1l0.1,0.2l0,0.1c0,0,0,0.1,0,0.1l0.1,0.2l0.1,0.2l0.1,0.4L50.5,26.9L50.5,26.9z M35.8,26.7L35.8,26.7
	C35.8,26.7,35.8,26.7,35.8,26.7z M35.9,26.9L35.9,26.9L35.9,26.9L35.9,26.9z M36.1,27.5C36.1,27.5,36.1,27.6,36.1,27.5
	C36.1,27.6,36.1,27.6,36.1,27.5L36,27.6v-0.1c0,0,0,0,0,0c0,0-0.1,0-0.1,0c0,0,0.1,0,0.1,0C36.1,27.6,36.1,27.6,36.1,27.5z M35.9,27
	C35.9,27,35.9,27,35.9,27L35.9,27z M36,26.4L36,26.4C35.9,26.4,36,26.4,36,26.4z M36.1,27.8C36.1,27.9,36,27.9,36.1,27.8h-0.1
	C36,27.8,36,27.8,36.1,27.8z M36,26.6C36,26.6,36,26.6,36,26.6L36,26.6C36,26.6,36,26.6,36,26.6z M36,26.4
	C36,26.4,36.1,26.4,36,26.4C36.1,26.4,36.1,26.4,36,26.4z M36.1,26.9L36.1,26.9L36.1,26.9L36.1,26.9z M36.1,28.1L36.1,28.1
	L36.1,28.1C36.1,28.1,36.1,28.1,36.1,28.1z M36.1,26.6C36.1,26.6,36.1,26.6,36.1,26.6C36.1,26.6,36.1,26.6,36.1,26.6
	C36,26.6,36.1,26.6,36.1,26.6z M36.1,27C36.1,26.9,36.1,26.9,36.1,27c0.1,0,0.1,0,0.1,0C36.2,27,36.2,27,36.1,27z M36.1,27.6
	L36.1,27.6L36.1,27.6L36.1,27.6C36.1,27.6,36.1,27.6,36.1,27.6z M36.2,26.4L36.2,26.4C36.1,26.4,36.2,26.4,36.2,26.4
	C36.2,26.4,36.2,26.4,36.2,26.4z M36.4,26.3l-0.1,0.1C36.2,26.3,36.3,26.3,36.4,26.3z M36.6,26.3C36.6,26.3,36.6,26.3,36.6,26.3
	L36.6,26.3L36.6,26.3C36.6,26.3,36.6,26.3,36.6,26.3c-0.1,0-0.1,0.1-0.2,0.1c0,0-0.1,0-0.1,0L36.6,26.3
	C36.5,26.3,36.6,26.3,36.6,26.3L36.6,26.3C36.6,26.3,36.6,26.3,36.6,26.3z M36.5,26.6C36.5,26.6,36.5,26.6,36.5,26.6L36.5,26.6
	L36.5,26.6z M36.9,28.6L36.9,28.6L36.9,28.6c-0.1,0-0.1,0-0.1,0L36.9,28.6C36.8,28.6,36.9,28.6,36.9,28.6z M37,26.7
	c-0.1,0-0.1,0-0.1,0C36.9,26.7,36.9,26.7,37,26.7C37,26.7,37,26.7,37,26.7L37,26.7L37,26.7C37.1,26.7,37.1,26.7,37,26.7z M37.2,26.1
	C37.2,26.1,37.2,26.1,37.2,26.1c-0.1,0-0.1,0-0.1,0c0,0.1,0,0.1-0.1,0c0,0,0,0,0,0c0,0-0.1,0.1-0.1,0.1l0.1,0.1v-0.1
	c0,0,0.1,0,0.1,0C37.2,26.2,37.2,26.2,37.2,26.1C37.2,26.1,37.2,26.1,37.2,26.1z M37.2,27.8L37.2,27.8
	C37.2,27.7,37.2,27.7,37.2,27.8z M37.3,25.4C37.4,25.3,37.4,25.3,37.3,25.4C37.4,25.3,37.4,25.4,37.3,25.4z M37.6,12L37.6,12
	C37.6,11.9,37.6,11.9,37.6,12z M37.7,13.3L37.7,13.3C37.7,13.4,37.7,13.4,37.7,13.3z M37.7,13.4L37.7,13.4L37.7,13.4
	C37.7,13.4,37.7,13.4,37.7,13.4L37.7,13.4z M37.7,25.4L37.7,25.4C37.7,25.3,37.7,25.3,37.7,25.4L37.7,25.4z M37.7,25.4L37.7,25.4
	C37.7,25.4,37.7,25.4,37.7,25.4z M37.8,15.3L37.8,15.3C37.8,15.2,37.8,15.2,37.8,15.3z M38.1,11.9C38.1,12,38.1,12,38.1,11.9
	L38.1,11.9C38,11.9,38.1,11.9,38.1,11.9z M38.1,12.5L38.1,12.5L38.1,12.5L38.1,12.5z M38.2,12C38.2,12,38.2,12,38.2,12L38.2,12
	C38.2,12,38.2,12,38.2,12z M38.3,12C38.3,12,38.3,12,38.3,12C38.2,12,38.2,12,38.3,12L38.3,12C38.2,11.9,38.2,11.9,38.3,12z
	 M38.4,12.5c0,0,0-0.1,0-0.1C38.4,12.4,38.4,12.4,38.4,12.5z M38.4,12.6L38.4,12.6L38.4,12.6z M38.4,12.6
	C38.4,12.6,38.4,12.6,38.4,12.6L38.4,12.6C38.4,12.6,38.4,12.6,38.4,12.6z M38.4,28.5L38.4,28.5L38.4,28.5
	C38.4,28.5,38.4,28.5,38.4,28.5z M38.5,13.7L38.5,13.7L38.5,13.7L38.5,13.7z M38.6,12.6L38.6,12.6L38.6,12.6l0-0.1c0,0,0,0,0,0
	c0,0,0-0.1,0-0.1v-0.1c0,0,0.1,0.1,0.1,0.2L38.6,12.6C38.7,12.6,38.7,12.6,38.6,12.6L38.6,12.6C38.7,12.5,38.7,12.5,38.6,12.6
	C38.7,12.6,38.6,12.6,38.6,12.6z M39.3,12.3L39.3,12.3C39.3,12.3,39.3,12.3,39.3,12.3z M39.3,12.3L39.3,12.3
	C39.3,12.3,39.3,12.3,39.3,12.3z M39.3,12.5c0,0,0,0.1,0,0.1C39.3,12.6,39.3,12.6,39.3,12.5L39.3,12.5L39.3,12.5
	c-0.1-0.1,0-0.2,0-0.1C39.3,12.4,39.3,12.5,39.3,12.5z M39.6,12.1c0-0.1,0-0.2-0.1-0.2h0.1v-0.1c0,0,0-0.1,0-0.1v0.1
	c0,0,0,0.1,0,0.1c0,0,0,0,0,0C39.6,12,39.6,12.1,39.6,12.1c0,0.2,0,0.3,0.1,0.3c0,0,0-0.1,0-0.1C39.6,12.2,39.6,12.2,39.6,12.1
	L39.6,12.1z M39.5,12.2L39.5,12.2C39.5,12.2,39.5,12.2,39.5,12.2z M39.6,13.6c0-0.1,0-0.1,0-0.1C39.5,13.5,39.6,13.5,39.6,13.6
	C39.6,13.5,39.6,13.6,39.6,13.6C39.6,13.6,39.6,13.6,39.6,13.6C39.6,13.6,39.6,13.7,39.6,13.6c0,0.1,0,0.1,0,0.1
	C39.5,13.6,39.5,13.6,39.6,13.6z M39.6,12.4C39.6,12.4,39.6,12.4,39.6,12.4L39.6,12.4L39.6,12.4L39.6,12.4
	C39.6,12.4,39.6,12.4,39.6,12.4z M39.7,12.5L39.7,12.5C39.7,12.5,39.7,12.5,39.7,12.5z M39.7,12.5L39.7,12.5
	C39.7,12.6,39.7,12.6,39.7,12.5z M39.7,13L39.7,13L39.7,13L39.7,13L39.7,13z M39.8,12.4L39.8,12.4C39.8,12.3,39.8,12.4,39.8,12.4z
	 M39.8,12.5C39.8,12.5,39.8,12.5,39.8,12.5L39.8,12.5C39.8,12.5,39.8,12.5,39.8,12.5z M39.8,12.6C39.9,12.6,39.9,12.6,39.8,12.6
	L39.8,12.6L39.8,12.6z M39.8,12.6L39.8,12.6C39.9,12.7,39.8,12.7,39.8,12.6z M40,13.1L40,13.1L40,13.1L40,13.1
	C39.9,13.1,39.9,13,40,13.1c-0.1,0-0.1-0.1-0.1-0.2v-0.1C39.9,12.8,39.9,12.9,40,13.1C40,13,40,13,40,13.1L40,13.1
	C40,13.1,40,13.1,40,13.1z M40.9,14.4C40.9,14.4,40.9,14.4,40.9,14.4L40.9,14.4z M40.9,13.9C40.9,13.9,41,14,40.9,13.9
	C40.9,14,40.9,14,40.9,13.9z M41,14.3L41,14.3C40.9,14.3,41,14.3,41,14.3z M41,14.3L41,14.3C40.9,14.3,40.9,14.3,41,14.3z
	 M45.8,14.8L45.8,14.8C45.8,14.8,45.8,14.8,45.8,14.8z M45.8,13.2L45.8,13.2C45.8,13.1,45.8,13.1,45.8,13.2L45.8,13.2L45.8,13.2
	L45.8,13.2z M45.9,11.8L45.9,11.8C45.9,11.9,45.9,11.9,45.9,11.8z M46.3,12.4L46.3,12.4C46.3,12.5,46.3,12.4,46.3,12.4z M46.3,11.9
	C46.4,11.9,46.4,11.9,46.3,11.9L46.3,11.9C46.3,11.9,46.3,11.9,46.3,11.9z M46.4,12C46.4,11.9,46.4,11.9,46.4,12L46.4,12
	C46.4,12,46.4,12,46.4,12z M46.5,12C46.5,12,46.5,12,46.5,12L46.5,12L46.5,12C46.5,12,46.5,12,46.5,12z M46.6,13.5L46.6,13.5
	L46.6,13.5L46.6,13.5z M46.6,12.5C46.6,12.4,46.6,12.4,46.6,12.5v-0.1V12.5z M46.6,12.5C46.6,12.5,46.6,12.5,46.6,12.5
	C46.6,12.5,46.6,12.5,46.6,12.5z M46.6,12.5L46.6,12.5C46.6,12.5,46.6,12.5,46.6,12.5z M46.8,12.5L46.8,12.5L46.8,12.5L46.8,12.5z
	 M46.9,12.5L46.9,12.5L46.9,12.5c0-0.1,0-0.1,0-0.1c0,0,0,0,0-0.1C46.9,12.3,46.9,12.3,46.9,12.5L46.9,12.5
	C46.9,12.6,46.9,12.5,46.9,12.5C46.9,12.5,46.9,12.5,46.9,12.5z M46.8,12.4L46.8,12.4C46.9,12.4,46.8,12.4,46.8,12.4z M47.5,12.4
	L47.5,12.4C47.5,12.3,47.5,12.4,47.5,12.4z M47.5,12.5L47.5,12.5L47.5,12.5L47.5,12.5L47.5,12.5C47.5,12.5,47.5,12.5,47.5,12.5
	c0,0.1,0,0.1,0,0.2C47.5,12.7,47.5,12.6,47.5,12.5C47.5,12.6,47.5,12.5,47.5,12.5z M47.6,13.4C47.6,13.4,47.7,13.4,47.6,13.4
	L47.6,13.4z M47.6,13.5C47.6,13.5,47.6,13.5,47.6,13.5L47.6,13.5C47.7,13.6,47.7,13.6,47.6,13.5C47.6,13.6,47.6,13.5,47.6,13.5z
	 M47.7,13.4L47.7,13.4C47.6,13.5,47.6,13.4,47.7,13.4z M47.7,12.3L47.7,12.3C47.7,12.3,47.7,12.3,47.7,12.3z M47.7,12.3
	C47.7,12.2,47.8,12.2,47.7,12.3L47.7,12.3z M47.8,12.3L47.8,12.3v-0.2L47.8,12h0c0-0.1,0-0.1,0-0.1v0.1c0,0,0,0.1,0,0.1h0v0
	C47.9,12.1,47.9,12.1,47.8,12.3C47.9,12.2,47.9,12.3,47.8,12.3z M47.8,12.2L47.8,12.2L47.8,12.2L47.8,12.2z M47.8,12.3L47.8,12.3
	L47.8,12.3L47.8,12.3C47.8,12.4,47.8,12.3,47.8,12.3z M47.8,13L47.8,13L47.8,13C47.8,13,47.8,13,47.8,13z M47.9,12.5L47.9,12.5
	C47.9,12.5,47.9,12.5,47.9,12.5z M47.9,12.6C47.8,12.6,47.8,12.6,47.9,12.6C47.9,12.5,47.9,12.6,47.9,12.6z M48,12.4
	C48,12.4,48,12.4,48,12.4c0,0.1,0,0.1,0,0.1C48,12.5,48,12.5,48,12.4z M48,12.6L48,12.6L48,12.6L48,12.6C48,12.6,48,12.6,48,12.6z
	 M48,12.7L48,12.7C48.1,12.7,48.1,12.7,48,12.7z M48.2,13.7C48.2,13.7,48.2,13.6,48.2,13.7l0-0.1c0,0,0,0,0-0.1c0,0,0,0-0.1,0
	l-0.1,0.1c0,0,0,0,0,0h0c0,0,0,0,0,0.1v0.1L48.2,13.7C48.3,13.7,48.3,13.7,48.2,13.7z M48.5,14L48.5,14C48.5,14.1,48.5,14.1,48.5,14
	z M48.9,14.4C48.8,14.3,48.8,14.3,48.9,14.4L48.9,14.4z M48.9,14.3L48.9,14.3C49,14.3,49,14.3,48.9,14.3z M49,13.9
	C49,14,49,14,49,13.9C49,14,49,14,49,13.9z"/>
<g>
	<g>
		<path class="st1" d="M31.2,1.3c0.3,0,0.6-0.7,1-0.7c0.4,0,0.7-0.4,1-0.3c0.2,0,0.4,0.4,0.6,0.4c0.2,0,0.4,0,0.6,0.1
			c0.2,0,0.3,0.4,0.3,0.4c0.1,0,0.1-0.3,0.1-0.2C34.9,1,35,1.4,35,1.5c0.1,0.1,0,0.6-0.1,0.8c0.1,0.2,0.2,0.3,0.2,0.4
			c0,0.1,0,0.2,0,0.2c0,0.1-0.1,0.1-0.1,0.2C35,3.2,35,3.3,35,3.3c-0.1,0.1-0.1,0.3-0.2,0.4c0,0.1-0.1,0.2-0.1,0.2
			C34.7,4,34.8,4,35,4c0.2,0,0.5,0,0.8,0c0.3,0,0.6,0,0.8,0c0.2,0,0.4,0,0.4,0c0.1,0,2.4-0.1,2.8-0.1c0.4,0,0.9,0,1.5,0
			c0.6,0,1.5-0.1,1.9,0c0.5,0,1.8,0,1.9,0c0.2,0.1,0.1,0.1-0.3,0.1c-0.7,0-2.9,0.1-3.9,0.1c-1,0-4,0.2-4.9,0.3
			c-0.8,0.1-1.3,0.1-1.4,0.2c-0.1,0.1,0,0.2,0.3,0.3c0.3,0,0.8,0.1,1.5,0c0.8-0.1,3.7-0.2,4.4-0.3c0.7,0,1.2,0,1.4,0
			c0.1,0,1.7-0.1,2,0c0.3,0,0.6,0,1,0c0.6,0,1.1,0,1.5,0c0.4,0,0.9,0.1,1.4,0.2c0.3,0.1,0.3,0,0.1-0.1c-0.1-0.1-0.1-0.1,0-0.1
			c0.1,0,0.4,0,0.8,0c0.3,0,0.6,0,1.1,0c0.4,0,3.2-0.2,3.5-0.2c0.5,0,0.9,0,1,0.1c0.2,0.1,0.1,0.2-0.3,0.3C54,4.7,54,4.7,54,4.8
			c0,0,0,0.1,0.1,0.2c0.1,0-0.2,0.1-0.1,0.2c0.1,0,0.2,0.1,0.3,0.1c0.1,0,0,0-0.2,0.1c-0.2,0.1-0.4,0.1-0.7,0.2
			c-0.3,0.1-0.3,0.1-0.6,0.2c-0.3,0.1-3,0.3-3.3,0.3c-0.1,0-0.3,0-0.5,0.1c-0.2,0-0.3,0.1-0.4,0.1c-0.1,0.1-0.2,0.1-0.4,0.2
			c-0.2,0-0.3,0.1-0.5,0.1c-0.2,0-0.3,0-0.5,0.1c-0.2,0-0.3,0.1-0.4,0.1c-0.3,0.1-4.6,0.5-6,0.7c-1.4,0.2-3.1,0.3-5.2,0.5
			C35.2,8,34.8,8,34.3,8c-0.5,0.1-0.9,0.1-1.3,0.1c-0.4,0.1-0.9,0.1-1.5,0.1c-0.6,0-1.1,0.1-1.6,0.1c-0.2,0-0.6,0-1.1,0.1
			c-0.5,0.1-1,0.1-1.6,0.2c-0.7,0.1-1.4,0.1-2,0.2c-0.6,0.1-1,0.1-1.2,0.1c-0.3,0-0.7,0-1,0c-0.4,0-0.6,0-0.8,0
			c-0.3,0-0.5,0-0.7-0.1c-0.2-0.1-0.4-0.2-0.7-0.4c-0.3-0.2-0.4-0.4-0.5-0.7c-0.1-0.3-0.1-0.6-0.1-0.9c0-0.1,0-0.2,0-0.3
			c0-0.2,0-0.5-0.1-0.8c0-0.3-0.1-0.6-0.2-0.8L19.6,4l0.5,0c0.2,0,0.3,0,0.5,0.1c0.2,0,0.4,0.1,0.5,0.1c0.2,0.1,0.4,0.1,0.5,0.1
			c0.2,0,0.4,0.1,0.5,0.1c0.2,0,0.5,0,0.9,0c0.4,0,0.9,0,1.5,0.1c0.3,0,0.6,0,1.2,0c0.5,0,1,0,1.6,0c0.5,0,1,0,1.4,0
			c0.4,0,0.6,0,0.6,0c0,0,0.1-0.1,0.3-0.1c0.2,0,0.4,0,0.6,0c0.3,0,0.5,0,0.7,0c0.2,0,0.3,0,0.4,0c0.1,0,0.1,0,0.2,0.1
			c0.1,0.1,0.1,0.1,0.1,0.2c0,0.1,0,0.2,0.2,0.3c0.1,0,0.3,0,0.6,0l0.8-0.1l-0.6-0.5c-0.2-0.2-0.3-0.3-0.5-0.4
			c-0.1-0.1-0.2-0.2-0.3-0.2c-0.1,0-0.1-0.1-0.1-0.1c0,0-0.1-0.1-0.1-0.1c0,0,0,0-0.1-0.1c0,0,0-0.1-0.1-0.1
			c-0.1-0.1-0.1-0.1-0.1-0.1c-0.1,0-0.1,0-0.1-0.1c0,0-0.1,0-0.1-0.1c0,0-0.1-0.1-0.1-0.1c-0.1-0.1-0.1-0.1-0.1-0.1
			c0,0-0.1,0-0.1-0.1c0,0,0,0-0.1-0.1c0,0-0.1-0.1-0.1-0.2c0,0-0.1-0.1-0.1-0.1c0,0-0.1,0-0.1-0.1c0,0,0,0-0.1,0
			c0,0-0.1-0.1-0.2-0.1c-0.1-0.1-0.2-0.2-0.3-0.2c0-0.1-0.1-0.1-0.1-0.2c0-0.1,0.1-0.1,0.2-0.2c0.1-0.1,0.2-0.1,0.4-0.1
			c0.2,0,0.3-0.1,0.4-0.1C30.8,1.3,31,1.2,31.2,1.3z"/>
		<path class="st1" d="M35.6,8.5c0,0,0.1,0.1,0.2,0.1c0.1,0.1,0.1,0.3,0.1,0.5c0,0.2-0.1,0.6-0.2,1.1c-0.1,0.4-0.2,0.7-0.2,1
			c-0.1,0.3-0.1,0.5-0.1,0.5c0,0.1,0,0.3-0.1,0.7c0,0.4-0.1,0.9-0.2,1.5c-0.1,0.8-0.2,1.3-0.3,1.6c-0.1,0.3-0.1,0.4-0.2,0.4
			c0,0-0.1,0-0.2,0c-0.1,0-0.1,0.1-0.2,0.2c-0.1,0.1-0.1,0.3-0.1,0.6c0,0.3,0,0.5,0,0.8c0,0.2,0.1,0.4,0.1,0.4
			c0.1,0,0.1,0.1-0.1,0.2c-0.2,0.1-0.2,0.2-0.3,0.3c-0.1,0.1-0.1,0.3-0.1,0.4c0,0.1,0.1,0.1,0.2,0.1c0.1,0,0.2,0,0.2,0.1
			c0,0.1,0,0.2,0,0.5c-0.1,0.6-0.2,0.6-0.2,0.2c0-0.3-0.1-0.3-0.1,0.1c0,0.4-0.2,1.3-0.4,2.5c-0.1,0.6-0.3,1.2-0.5,1.9
			c-0.2,0.7-0.4,1.3-0.6,1.8c-0.2,0.5-0.3,0.9-0.4,1.3c-0.1,0.4-0.2,0.6-0.1,0.6c0,0.1,0,0.1,0,0.1c0,0-0.1,0-0.1,0
			c-0.1,0-0.1,0.1-0.2,0.2c-0.1,0.1-0.2,0.4-0.3,0.6c-0.4,0.8-0.9,1.6-1.7,2.2c-0.1,0-0.2,0.1-0.2,0.2c-0.1,0.1-0.3,0.2-0.5,0.3
			c-0.1,0.1-0.3,0.2-0.4,0.2c-0.1,0-0.3,0.1-0.4,0.1c-0.1,0-0.2,0-0.3,0.1c-0.1,0-0.1,0-0.2,0c0,0,0-0.1,0-0.1
			c0-0.1,0.1-0.1,0.1-0.2c0-0.1,0.1-0.1,0.1-0.2c0-0.1,0-0.1,0-0.1c0,0-0.1,0-0.1,0.1c-0.1,0-0.1,0.1-0.2,0.1
			c-0.2,0.1-0.3,0.2-0.5,0.3c-0.1,0-0.2,0.1-0.4,0.1c-0.1,0-0.3,0-0.4,0c-0.1,0-0.2,0-0.2,0c0.3-0.2,0.5-0.4,0.7-0.6
			c0.2-0.2,0.4-0.4,0.6-0.7c0.3-0.4,0.5-0.8,0.6-1.2c0.1-0.2,0.1-0.4,0.2-0.5c0.2-0.4,0.3-0.9,0.5-1.4c0.1-0.3,0.2-0.6,0.2-0.8
			c0.2-0.6,0.3-1.1,0.5-1.6c0.1-0.2,0.1-0.4,0.1-0.5c0-0.2,0.1-0.6,0.1-1c0-0.6,0-1,0.1-1.5c0-0.1,0.1-0.2,0.1-0.3
			c0.1-0.3,0.2-0.5,0.3-0.8c0.1-0.3,0.2-0.6,0.2-0.9c0-0.2,0-0.4,0-0.5c0-0.1,0-0.3-0.1-0.4c0-0.1,0-0.3-0.1-0.5c0-0.2,0-0.5,0-0.8
			c0.1-0.8,0.2-1.5,0.2-2.4c0.1-1,0.2-1.9,0.3-2.7c0.1-0.8,0.1-1.3,0.1-1.5c-0.1-0.4-0.1-0.8,0.1-1.1c0.1-0.4,0.2-0.7,0.4-0.8
			c0.2-0.2,0.5-0.3,1.1-0.4c0.5-0.1,1-0.2,1.6-0.3c0.5,0,0.9-0.1,1.1,0c0.1,0,0.3,0,0.4,0c0.1,0,0.2-0.1,0.3-0.1c0,0,0,0,0,0
			C35.5,8.5,35.5,8.5,35.6,8.5C35.5,8.5,35.5,8.5,35.6,8.5L35.6,8.5z"/>
		<g>
			<path class="st1" d="M2,31.1c0.5,0.1,1.1,0.2,1.8,0.3c1,0.1,2,0.2,2.9,0.2c0.4,0,0.9,0,1.3,0.1c0.9,0.1,2.1,0.1,3.4,0.1
				c0.7,0,1.3,0,1.9,0.1c1.4,0,2.6,0.1,3.8,0.1c0.4,0,0.9,0,1.3,0c0.6,0,1.3,0,2.3-0.1c1.3-0.1,2.4-0.1,3.4-0.1c0.2,0,0.5,0,0.8,0
				c0.6,0,1.3,0,2,0.1c0.8,0,1.4,0,2.1,0c0.4,0,0.8,0,1.1,0c0.3,0,0.6-0.1,0.9-0.1c0.3,0,0.7-0.1,1.1-0.1c0.5,0,1.1-0.1,1.9-0.1
				c1.8,0,3.6-0.1,5.5-0.1c2.3,0,4.4-0.1,6.2-0.1c1.8,0,2.9-0.1,3.4-0.1c0.9-0.1,1.8-0.1,2.6-0.1c0.9,0,1.6,0.1,2.1,0.2
				c0.4,0.1,0.9,0.3,1.3,0.6c0.4,0.3,0.8,0.6,1.1,1c0.2,0.3,0.4,0.6,0.4,0.7c0,0.1,0.1,0.2,0.1,0.2c0.1,0.1,0.2,0.1,0.3,0.1
				c0,0,0.1,0,0.1,0c0.1,0,0.1,0,0.1,0c0.1,0,0.1,0,0.1,0v0c0,0-0.1,0.1-0.3,0.1c-0.2,0.1-0.6,0.1-1.1,0.1c-0.5,0-1.4,0-2.6,0
				c-0.9,0-1.8,0-2.4,0c-0.7,0-1.1,0-1.3,0c-0.1,0-0.7,0-1.6,0c-0.9,0-2.1,0-3.4,0.1c-1.8,0-2.9,0-3.6,0c-0.6,0-0.9,0-0.9-0.1
				c0,0,0-0.1-0.1-0.1c-0.1,0-0.2-0.1-0.4-0.1c-0.3,0-0.8,0-1.4,0c-0.7,0-1.3,0.1-1.8,0.1c-0.5,0-0.8,0.1-0.8,0.1
				c-0.1,0.1-0.2,0-0.5-0.1c-0.2-0.1-0.4-0.1-0.8-0.2c-0.3,0-0.6,0-0.9,0c-0.3,0-0.3,0.1-0.2,0.1c0.1,0.1,0,0.1-0.2,0.1
				c-0.2,0-0.6,0-1.2,0c-1.3,0-1.5,0-0.5-0.1c0.7-0.1,0.7-0.1-0.2-0.1c-1,0-2.9,0-5.8,0c-1.4,0-2.9,0-4.5-0.1
				c-1.7,0-3.1-0.1-4.3-0.1c-1.2,0-2.2-0.1-3.1-0.1c-0.9,0-1.4,0-1.5,0c-0.1,0-0.2,0-0.3,0c-0.1,0-0.1,0-0.1-0.1
				c-0.1,0-0.3-0.1-0.6-0.1c-0.4-0.1-0.9-0.1-1.5-0.1c-2-0.1-3.9-0.4-5.5-0.8c-0.1,0-0.3-0.1-0.6-0.1c-0.3-0.1-0.6-0.2-0.9-0.2
				c-0.3-0.1-0.6-0.2-0.7-0.2C1.5,32.1,1.4,32,1.2,32C1.1,31.9,1,31.8,1,31.8c-0.1,0-0.1-0.1,0-0.1c0.1,0,0.2,0,0.3,0
				c0.2,0,0.3,0,0.5,0.1c0.1,0,0.2,0,0.4,0c0.1,0,0.2,0,0.2,0c0,0-0.1,0-0.2-0.1c-0.1,0-0.2-0.1-0.3-0.1c-0.3-0.1-0.6-0.2-0.8-0.3
				c-0.1-0.1-0.2-0.1-0.4-0.2c-0.1-0.1-0.1-0.2-0.2-0.2c0-0.1,0-0.1,0-0.1C1,30.9,1.5,31,2,31.1z M22,33.4c0.3,0,0.5,0,0.9,0
				c0.4,0,0.7,0,0.9,0c0.2,0,0.4,0,0.4,0c0,0-0.1,0-0.3-0.1c-0.3,0-0.6,0-0.9-0.1c-0.4,0-0.6,0-0.9,0c-0.2,0-0.4,0-0.4,0.1
				C21.6,33.3,21.8,33.4,22,33.4z M15.5,33.1c-0.4,0.1,0.5,0.2,2.5,0.3c1.1,0,1.8,0,1.7-0.1c0-0.1-0.6-0.1-1.9-0.2
				c-0.6,0-1.1,0-1.6,0C15.8,33,15.5,33,15.5,33.1z"/>
			<path class="st1" d="M50.4,35.1c0.9,0,1.8,0,3.2,0c1.4,0,2.5-0.1,3.4-0.1c0.7,0,1.1-0.1,1.1-0.1c0,0-0.5,0-1.4-0.1
				c-0.7,0-1.8,0-3.2,0c-1.4,0-2.3,0-3.2,0.1c-0.9,0-1.3,0.1-1.3,0.1C49.1,35.1,49.5,35.1,50.4,35.1z"/>
			<path class="st1" d="M4.3,33.5c0.3,0,0.4-0.1,0.4-0.1c0,0-0.1-0.1-0.4-0.1c-0.2,0-0.3-0.1-0.5-0.1c-0.1,0-0.2,0-0.3,0
				c-0.1,0.1-0.1,0.1-0.1,0.1c0.1,0,0.1,0.1,0.3,0.1C4,33.5,4.1,33.5,4.3,33.5z"/>
			<path class="st1" d="M38.1,34.3c-0.5,0.1-0.5,0.1-0.3,0.1c0.2,0,0.3,0,0.4,0c0,0,0,0,0,0.1c-0.1,0.1-0.1,0.1,0.1,0.1
				c0.2,0,0.5-0.1,0.8-0.2c0.4-0.2,0.3-0.2-0.3-0.2C38.6,34.2,38.3,34.2,38.1,34.3z"/>
			<path class="st1" d="M48.2,35.1C48.2,35,48.2,35,48.2,35.1c-0.2-0.2-1.2-0.3-3.1-0.1c-0.5,0-1,0.1-1.4,0.1c-0.5,0-0.8,0-1,0
				c-0.2,0-0.4,0-0.6,0c-0.2,0-0.4,0-0.5,0c-0.1,0-0.2,0-0.3,0c-0.1,0-0.2,0-0.3,0c-0.1,0-0.2,0-0.2,0.1c-0.1,0-0.1,0.1-0.2,0.1
				c-0.1,0.1-0.1,0.1,0,0.1c0,0,0.2,0,0.4,0c0.2,0,0.5,0,0.9-0.1c0.5,0,1,0,1.6-0.1c0.6,0,1-0.1,1.5-0.1c0.4,0,0.6,0,0.7,0
				c0.1,0,0.2,0,0.3,0c0.1,0,0.2,0,0.3,0c0.1,0,0.1,0,0-0.1c-0.1-0.1-0.1-0.1,0.2,0c0.1,0,0.3,0,0.5,0c0.2,0,0.4,0,0.7,0
				c0.2,0,0.3,0,0.4,0C48,35.1,48.1,35.1,48.2,35.1z"/>
			<path class="st1" d="M33.9,34.4c0.4,0,0.6,0.1,0.7,0.1c0.1,0,0,0.1-0.3,0.1c-0.1,0-0.3,0-0.4,0c-0.1,0-0.2,0-0.4-0.1
				c-0.1,0-0.1,0,0-0.1C33.5,34.4,33.7,34.4,33.9,34.4z"/>
			<path class="st1" d="M36.9,34.4c-0.1,0-0.1,0.1-0.2,0.1c0,0,0,0.1,0,0.1c0.1,0,0.1,0,0.3,0c0.2,0,0.2,0,0.4,0
				c0,0,0.1-0.1,0.1-0.1c0,0-0.1-0.1-0.1-0.1c-0.1,0-0.1,0-0.1,0C37,34.4,37,34.4,36.9,34.4z"/>
		</g>
	</g>
</g>
<g>
	<g>
		<path class="st2" d="M68.5,18.3l0.2,0.1c0.1,0.1,0.1,0.1,0.2,0.2c0.1,0.1,0.1,0.1,0.1,0.2c0,0.1,0,0.2-0.1,0.2
			c-0.1,0.1-0.1,0.2-0.2,0.3c-0.1,0.1-0.1,0.2-0.2,0.3c-0.1,0.1-0.1,0.1-0.2,0.2c-0.1,0.2-0.3,0.5-0.4,1c-0.1,0.4-0.2,0.9-0.3,1.4
			c-0.1,0.5-0.1,0.9-0.2,1.4c0,0.4-0.1,0.8-0.1,1c0,0.1,0,0.1-0.1,0.1c0,0,0,0,0,0c0,0,0,0,0,0c-0.1,0-0.1,0-0.1-0.1v-0.1
			c0-0.1,0-0.1,0-0.1v-0.8c0-0.2,0-0.4,0-0.6c0-0.2,0-0.4,0.1-0.6c-0.1,0.3-0.1,0.6-0.1,0.9c0,0.3,0,0.6,0,0.9c0,0.5,0,1.1,0.1,1.6
			c0,0.5,0.1,1,0.3,1.6l0.6-0.1c0.2,0,0.4-0.1,0.6-0.1h0.1l0,0c0,0,0,0.1,0,0.1v0.1h0.2c0.2,0,0.1,0,0.3,0.1c0.2,0,0.4,0.2,0.4,0.3
			c0,0.1,0,0.1-0.1,0.2c0,0.1-0.1,0.1-0.2,0.2c-0.1,0.1-0.1,0-0.1-0.1v-0.2c0,0-0.1-0.1-0.2-0.1l0,0c-0.1,0-0.2,0-0.4,0.1
			c-0.2,0-0.3,0.1-0.5,0.2c-0.2,0.1-0.3,0.1-0.5,0.2c-0.1,0.1-0.2,0.1-0.2,0.2c0,0.1,0,0.2,0,0.3c0,0.1,0,0.2,0,0.2
			c0,0.1,0,0.2-0.1,0.2c0,0.1-0.1,0.1-0.2,0.1c-0.1,0-0.2,0-0.4-0.1L66.9,29c-0.1-0.1-0.3-0.2-0.4-0.2c-0.1,0-0.3,0.1-0.4,0.2
			c-0.2,0.1,0.3-0.1,0.2,0l-0.2,0.3l-0.1,0.3c-0.1,0.1-0.1,0.2-0.2,0.3C65.6,30,65.5,30,65.3,30c-0.3,0-0.6-0.1-0.8-0.3
			c-0.2-0.2-0.4-0.4-0.5-0.6l0-0.1c-0.1,0-0.1-0.1,0-0.1c0-0.1,0-0.1,0-0.1l0.3-0.5c0-0.2,0.2-0.3,0.4-0.3c0,0,0.1,0,0.1,0
			c0,0,0.1,0,0.1,0c0.1,0-0.3,0.2-0.1,0.1c0.3-0.1,0.4-0.2,0.4-0.3c0-0.3,0-0.6,0-1c0-0.4,0-0.8,0.1-1.3c0-0.4,0.1-0.9,0.2-1.3
			c0.1-0.4,0.2-0.7,0.3-1c0,0,0.1,0,0.1,0v0.1v0.1c0,0.3,0,0.6,0,0.9c0,0.3,0,0.6,0,0.9l0,0.5c0-0.1,0.1-0.3,0.1-0.4
			c0-0.2,0-0.3,0-0.5c0-0.2,0-0.4,0-0.6c0-0.2,0-0.4,0-0.5c0-0.3,0-0.7,0-1c0-0.3,0.1-0.7,0.1-1c0-0.4,0.1-0.7,0.1-1.1
			c0-0.4,0.1-0.7,0.1-1.1c0,0,0-0.1,0-0.2c0-0.1,0-0.2,0-0.3c0-0.1,0-0.2-0.1-0.3c0-0.1-0.1-0.1-0.2-0.1c0,0-0.1,0-0.3,0
			c-0.2,0-0.3,0.1-0.3,0.1c-0.1,0,0.6-0.2,0.3-0.1c-0.2,0.1-0.5,0.1-0.7,0.2c-0.4,0.1-0.8,0.2-1.1,0.2h0c-0.2,0-0.3,0-0.3-0.1
			c0,0,0,0-0.1,0c0,0,0,0,0,0c0-0.1,0.2-0.1,0.4-0.2l0.4-0.2h-0.1l-0.1-0.1c0-0.1,0-0.2,0.1-0.2c0.1-0.1,0.3-0.2,0.8-0.3
			c0.4-0.1,0,0,0.6-0.1c0.5-0.1,1-0.3,1.5-0.4c0.5-0.1,0.8-0.2,1-0.3l0.1-0.1c-0.1,0-0.2,0-0.2,0c-0.1,0-0.1,0-0.2,0
			c-0.1,0-0.1,0-0.1,0c0,0-0.1,0-0.1,0C67.6,17,67.6,17,67.6,17c0-0.1,0.2-0.1,0.4-0.2c0.2-0.1,0.5-0.1,0.8-0.2
			c0.3,0,0.3-0.1,0.6-0.1c0.3,0,0.5-0.1,0.6-0.1c0.2,0,0.3,0,0.4,0l0.1,0c0,0,0.1,0,0.1,0.1l0.2,0.3c0,0,0,0.1,0,0.1l-0.1,0.2
			l0.1,0.1c0,0.1,0,0.1,0,0.2L70.5,18c0,0.1-0.1,0.1-0.1,0.1c-0.1,0-0.1,0-0.2,0c-0.1,0-0.2,0-0.3,0c-0.1,0-0.2,0-0.3,0
			c-0.2,0-0.1,0-0.3,0c-0.2,0-0.4,0-0.6,0L68.5,18.3L68.5,18.3z"/>
	</g>
</g>
<path class="st3" d="M61.4,19.7l0.1,0.4c0,0.1,0.1,0.2,0.2,0.3c0.1,0.1,0.1,0.2,0.1,0.3c0,0.3,0,0.6-0.1,0.9c-0.1,0.4-0.3,0.7-0.4,1
	l0.9-1.1c0.1-0.1,0.2-0.2,0.3-0.3c0.1-0.1,0.2-0.2,0.4-0.2c0.2,0,0.3,0.1,0.2,0.3c-0.1,0.2-0.2,0.5-0.4,0.7
	c-0.2,0.3-0.4,0.5-0.6,0.8l-0.8,0.9l-0.3,0.6l0.2,2.3c0,0.3,0,0.5,0,0.8c0,0.3,0,0.5,0.1,0.8l0.1,0.3l0.1-0.9c0-0.2,0-0.3,0-0.3
	l0-0.4c0-0.1,0.1,0,0.1,0s0,1.4,0.1,2.5c0,1.1-1.7,0.2-1.7,0.1c0,0-0.6-0.4-0.6-0.6c0-0.2-0.3-0.4-0.2-0.6c0.2-0.7,0,0.3,0.1-0.5
	c0.1-0.7,0.2-1.2,0.1-2l-0.7,0.3l-1.1,0.9c-0.4,0.3-0.9,0.6-1.3,0.9c-0.4,0.3-0.8,0.4-1.2,0.4c-0.3,0-0.6-0.1-0.8-0.4l-0.7-0.7
	l-0.3-0.2c-0.3-0.2-0.4-0.5-0.5-0.9c-0.1-0.4-0.2-0.7-0.2-1c0-0.7,0.1-1.4,0.4-2.2c0.3-0.8,0.7-1.5,1.1-2.2c0.5-0.7,1.1-1.2,1.7-1.7
	c0.7-0.5,1.3-0.7,2-0.7c0.4,0,0.8,0,1.1,0.1l0.6,0.1l0.1-0.3l0-0.4c0-1.6,0-3.2,0-4.7c0-0.3,0-0.5-0.1-0.8c0-0.3-0.1-0.5-0.1-0.8
	c0-0.5,0-1.1,0-1.6c0-0.5,0-1,0-1.6l0-0.5l-0.1-0.5c-0.1-0.3-0.2-0.7-0.2-1c0-0.4,0.1-0.7,0.2-1.1c0.2-0.3,0.5-0.5,1-0.5
	c0.1,0,0.3,0.1,0.7,0.2c0.4,0.2,0.6,0.3,0.7,0.3c0.1,0.1,0.2,0.2,0.3,0.2c0.1,0.1,0.3,0.2,0.4,0.2c0.4,0.3,0.7,0.5,0.9,0.7
	c0.2,0.2,0.3,0.5,0.3,1c0,0.2-0.1,0.5-0.1,0.7c-0.1,0.3-0.1,0.5-0.2,0.8c-0.5,1.7-0.9,3.4-1.2,5c-0.3,1.6-0.5,3.3-0.7,5.1L61.4,19.7
	z M54.9,23.5c-0.2,0.2-0.3,0.5-0.4,1.1c-0.1,0.6-0.2,1-0.2,1.2l0.3,0.1c0.5,0,0.9-0.1,1.3-0.3c0.4-0.2,0.8-0.3,1.1-0.5l1-0.5
	c0,0,0.1,0,0.1,0c0,0,0,0,0.1,0c0.1,0,0.1,0,0.1,0.1c0.1,0.2,0.1,0.3-0.1,0.3l-0.1,0.1l-0.2,0.2c0.4-0.2,0.7-0.4,1-0.7
	c0.3-0.2,0.5-0.4,0.5-0.5l0-0.9c0-0.5-0.1-0.9-0.3-1.4c-0.1-0.5-0.5-0.7-1.2-0.7c-0.3,0-0.6,0.1-0.9,0.3c-0.3,0.2-0.6,0.4-0.8,0.6
	L54.9,23.5z M60.9,19.6c0,0.1,0.1,0.2,0.1,0.3c0-1-0.1-2-0.1-3c0-1,0-1.9,0-3c0-0.3,0.1-0.5,0.1-0.8c0-0.3,0-0.5,0-0.7
	c-0.2,1.1-0.2,2.2-0.3,3.4c0,1.1,0,2.3,0,3.4C60.9,19.3,60.9,19.5,60.9,19.6z M62.6,19.8c0,0,0.1,0.1,0.2,0.1c0.1,0,0.1,0,0.2,0.1
	c0.1,0.1,0.1,0.1-0.1,0.1l-0.1,0l-0.2,0c0,0-0.1-0.1-0.1-0.1l0-0.1C62.4,19.9,62.5,19.8,62.6,19.8z"/>
</svg>
