<?xml version="1.0" encoding="utf-8"?>
<!-- Generator: Adobe Illustrator 19.0.0, SVG Export Plug-In . SVG Version: 6.00 Build 0)  -->
<svg version="1.1" id="Layer_1" xmlns="http://www.w3.org/2000/svg" xmlns:xlink="http://www.w3.org/1999/xlink" x="0px" y="0px"
	 viewBox="-270 379.3 70.7 35.7" style="enable-background:new -270 379.3 70.7 35.7;" xml:space="preserve">
<style type="text/css">
	.st0{fill:#3A2A15;}
</style>
<g id="Group_5047" transform="translate(4.57 2.2)">
	<path id="Path_11788" class="st0" d="M-239,403.4c-0.1,0-0.1,0-0.1,0H-239C-239,403.4-238.9,403.4-239,403.4L-239,403.4L-239,403.4
		c0.1-0.1,0.2-0.1,0.3-0.1c0.1,0,0.2,0,0.2,0h-0.1c0,0-0.1,0-0.1,0.1h-0.1C-238.9,403.4-238.9,403.4-239,403.4L-239,403.4z
		 M-239,405.4L-239,405.4L-239,405.4L-239,405.4z M-238.9,404.7L-238.9,404.7L-238.9,404.7C-239,404.7-238.9,404.7-238.9,404.7
		L-238.9,404.7z M-239,404.9L-239,404.9L-239,404.9L-239,404.9z M-238.9,404.8L-238.9,404.8L-238.9,404.8L-238.9,404.8L-238.9,404.8
		L-238.9,404.8z M-224.1,403.6c-0.1,0.1-0.1,0.3-0.1,0.4c0,0,0,0-0.1,0.1c0,0.1,0,0.2,0,0.3c-0.1,0-0.1,0.1-0.2,0.3l-0.2,0.3l0,0
		l-0.2,0.2c0,0.1,0,0.1-0.1,0.1c0,0,0,0-0.1,0h-0.1l0,0h-0.1c-0.1,0.1-0.1,0.1-0.2,0.1h-0.2h-0.1l-0.1-0.1l-0.1-0.1h-0.1
		c0,0,0,0-0.1,0c0-0.2,0-0.3-0.1-0.1c0,0.1-0.1,0.1-0.1,0c0-0.1-0.1-0.1-0.2-0.1h-0.2h-0.1h-0.1h-0.1h-0.1c0,0,0,0-0.1,0h-0.4
		c-0.1,0-0.2,0-0.3,0c-0.1,0-0.2,0-0.3,0h-0.1h-0.1h-0.1l-0.2,0.1h-0.1h-0.2h-0.1h-0.1l0,0c0,0-0.1,0-0.3,0c-0.1,0-0.2,0-0.3,0h-0.2
		c-0.1,0-0.1,0-0.2,0h-0.3h-0.3h-0.1h-0.3c-0.1,0-0.1,0-0.2,0c-0.1,0-0.1,0-0.2,0h-0.1h-0.2h-0.3h-0.3h-0.1h-0.1l0,0l-0.2,0.2h-0.1
		h0.3l-0.1,0.1c0,0-0.1,0.1-0.2,0.1l-0.3,0.2c-0.1,0.1-0.1,0.1-0.2,0.1c0,0-0.1,0-0.4,0.1l-0.7,0.1h-0.1c-0.1,0-0.1,0-0.2,0
		c-0.1,0-0.2,0-0.2,0l0,0h-0.1h-0.1h-0.1c-0.1-0.1-0.2-0.2-0.3-0.3c0-0.3-0.1-0.4-0.2-0.4l0,0l-0.2-0.2h-0.4l0,0h-0.1
		c-0.1,0-0.1,0-0.2,0c-0.1,0-0.1,0-0.2,0h-0.1l0,0l0,0h-0.1l0,0h-0.1h-0.1h-0.1c0,0,0,0-0.1,0c0.1-0.1,0.1-0.1,0.1-0.2h-0.1h-0.1
		c-0.2,0-0.3,0-0.5,0l0,0l0,0h-0.1h-0.5l0.6-0.1c0.2,0,0.3-0.1,0.5-0.1c0.1,0,0.3,0,0.4,0c0.1,0,0.1-0.1,0.1-0.2l-0.1-0.2h-0.1
		c0,0,0,0,0-0.1v-0.1c0.1,0,0.2,0,0.3,0c0.1,0,0.2,0,0.3-0.1c0,0,0,0,0.1,0l0,0l0,0v-0.1v-0.1c-0.1,0-0.2,0-0.2-0.1
		c-0.1-0.1-0.2-0.1-0.3-0.1l-0.1-0.1c-0.1,0-0.2,0-0.2,0l0,0c-0.2,0-0.3,0-0.5,0c0.1,0,0.1,0,0.2,0c0.1,0,0.1,0,0.2,0v-0.1
		c0.1,0,0.1,0,0.2,0s0.1,0,0.2,0v-0.1l0,0h0.1l0,0h0.1l0,0h-0.2h-0.1l0,0h-0.1h-0.1c0,0,0,0-0.1,0l-0.1,0.1l-0.1-0.1h-0.1l0,0
		l0.1-0.1h0.1l0.2-0.1c0.1,0,0.1,0,0.2,0V403l0,0h-0.1l0,0h-0.3v-0.1l0,0l0,0h0.1c0,0,0-0.1,0.1-0.1c0,0,0.1,0,0.1-0.1l0,0v-0.1l0,0
		v-0.1l0,0l0,0l0,0l0,0l0,0l0,0c0,0,0.1,0,0.2,0l0,0c0.1,0,0.1,0,0.1-0.1h0.1l0,0l0,0l0,0l0,0l0,0l0,0h0.1h0.1
		c0-0.1,0.1-0.1,0.1-0.1v-0.1l0,0c0,0,0,0,0.1,0l0,0l0.2-0.1l0.2-0.1c0,0,0,0,0.1,0v-0.3c0-0.1,0-0.2,0-0.3v-0.1
		c0-0.1,0-0.2,0.1-0.3v-0.1c0-0.1,0-0.1,0-0.1c0-0.1,0-0.2,0-0.2v-0.1l0,0v-0.1v-0.2c0,0,0,0,0.1-0.1c0.1-0.1,0-0.1,0-0.1v-0.1v-0.3
		c0-0.1,0-0.2,0-0.3V399c0-0.1,0-0.1,0-0.2v-0.3v-0.3c0-0.1,0-0.2,0-0.3v-0.3l-0.1-0.3v-0.1V397c0-0.1,0-0.3,0-0.4v-0.3
		c0,0,0,0,0-0.1l0,0v-0.1c0,0,0,0-0.1-0.1c0-0.1,0-0.2,0-0.2v-0.2l-0.1-0.7v-0.1v-0.4l-0.1-0.8c-0.1-0.3-0.1-0.6-0.1-0.8h0.1v-0.1
		l0,0l0,0V392l0,0l0,0v-0.7l0,0h0.1l0,0l0,0v-0.5v-0.1v-0.1l0,0l0,0v-0.1v-0.1v-0.2c0,0.1,0.1,0.1,0.2,0.2c0-0.1,0-0.1,0-0.2
		s0-0.1,0-0.1c0-0.2,0-0.4-0.1-0.6l0,0l0,0v-0.1c0-0.1,0-0.2,0-0.3s0-0.2,0-0.3c0.1,0.2,0.1,0.4,0.1,0.6l0.1,0.6v0.2v0.2
		c0,0,0,0.1,0.1,0.1c0.1,0,0.1,0,0.2,0v-0.1v-0.1v-0.1l0,0h0.1h0.1c0,0,0,0.1,0.1,0.3c0,0.1,0,0.2,0.1,0.3l0,0v0.1h0.1h0.1v-0.1
		c0-0.1,0-0.2,0.1-0.3c0-0.1,0-0.2,0-0.3l0.1-0.1c0-0.1,0-0.2-0.1-0.3l0,0l0,0l0,0c-0.1-0.2-0.1-0.4,0-0.6c0,0.1,0,0.2,0,0.2
		c0,0.1,0,0.2,0,0.2h0.1c0,0.1,0,0.2,0,0.3v0.2c0.1,0,0.1,0,0.1-0.1v0.1l0,0v0.2h0.1v-0.1v-0.1V390l0,0l0,0v-0.1v-0.1l0,0v-0.1v-0.1
		v-0.1v-0.1l0,0l0.1,0.1v0.1c0,0.1,0,0.2,0.1,0.2c0,0.1,0,0.2,0,0.2h0.1v-0.1l0,0l0,0v-0.3h0.1l0,0l0,0v0.1l0.1,0.1c0,0,0,0,0,0.1
		c0.1,0.1,0.1,0.1,0.1,0.1h-0.1l-0.1,0.1c0,0,0,0,0.1,0l0,0l0,0c0,0,0,0,0,0.1v0.1h0.1v-0.1c0,0,0,0,0-0.1l0,0l-0.1-0.1
		c0,0,0,0,0.1,0l0,0l0,0c0,0,0,0,0.1,0l0,0l0,0l0,0l0,0c0,0,0,0,0.1,0c0,0.1,0,0.1,0,0.1v0.1l0,0l0,0c0,0,0,0,0,0.1
		c0,0,0,0.1,0.1,0.1c0,0,0,0,0,0.1v0.1l0,0l0,0l0,0l0,0v0.1c0,0,0,0,0,0.1c0,0,0.1,0.1,0,0.1h0.1l0,0c0,0,0,0,0,0.1
		c0,0.1,0,0.2,0.1,0.2l0.1,0.3l0,0l0,0l0,0l0,0c0,0.3,0,0.4,0.1,0.4h-0.1v0.1v0.1l0,0v0.1c0,0.1,0,0.2,0.1,0.2l-0.1,0.1
		c0.1,0.1,0.1,0.1,0,0.2c0.1,0.4,0.1,0.7,0.1,1.1c0.1,0.5,0.1,0.9,0.1,1.1v0.1c0,0.1,0,0.3,0.1,0.4v0.1v0.1c0,0.2,0,0.5,0.1,0.7v0.1
		v0.4v0.1v0.1l0.1,0.3v0.1c0,0.1,0,0.1,0,0.2l0.1,0.1v0.3c0,0.1,0,0.3,0.1,0.4v0.1v0.1l0,0v0.1c0,0.1,0,0.1,0,0.2s0,0.1,0,0.2v0.1
		v0.1c0,0.1,0,0.1,0,0.2v0.1c0.1,0.1,0.1,0.3,0,0.5l0,0v0.1v0.1c0,0.1,0,0.1,0,0.1l0,0v0.1c0,0.1,0,0.2,0,0.3s0,0.2,0,0.3l0.1,0.1
		v0.1l0,0l0,0v0.1v0.1v0.1v0.1v0.1l0,0c0.1,0,0.3,0,0.4-0.1h0.1h0.1h0.1h0.1h0.1h0.1h0.1c0.1,0,0.1,0,0.1,0l0.1-0.1h0.3
		c0.1,0,0.2,0,0.3,0h0.1c0,0,0,0,0.1,0l0,0h0.1h0.1h0.1l0,0h0.1h0.1c0.1,0,0.1,0,0.1,0c0.1,0,0.1,0,0.2,0v-0.1l0.1-0.3v-0.1V401
		v-0.1l0,0c0-0.1,0-0.2,0.1-0.2v-0.2c0-0.1,0-0.1,0-0.2v-0.1l0.1-0.2v-0.1c0-0.1,0-0.1,0.1-0.2v-0.1v-0.1v-0.1v-0.1v-0.2
		c0,0,0,0,0.1-0.1c0,0,0,0,0-0.1c0-0.1,0-0.1,0-0.2v-0.2c0-0.1,0-0.2,0-0.2l0,0l0,0v-0.2c0-0.1,0-0.1,0-0.2c0-0.2,0-0.3,0-0.5v-0.1
		l0.1-0.4v-0.3v-0.1v-0.2c0-0.1,0-0.2,0-0.3v-0.1v-0.1v-0.1v-0.1v-0.4c0-0.1,0-0.2,0-0.2c0-0.1,0-0.2,0-0.3s0-0.2,0-0.3s0-0.1,0-0.2
		s0-0.2,0-0.3s0-0.3,0-0.4v-0.4c0-0.1,0-0.2,0-0.3h0.1v-0.1l0,0l0,0c0,0,0-0.2,0.1-0.6l0,0l0,0c0-0.1,0.1-0.3,0.1-0.4s0-0.1,0-0.2
		l0,0l0,0l0,0l0,0l0,0l0,0c0-0.1,0-0.2,0-0.2c0-0.1,0-0.1,0-0.2V391v-0.1v-0.1h0.1c0,0,0,0,0-0.1c0,0,0-0.1,0-0.2v-0.1
		c0,0.1,0.1,0.1,0.2,0.1l0.1-0.1v-0.1c0-0.1,0-0.2,0-0.2c0-0.1,0-0.2,0-0.3l0,0c0-0.1,0-0.2,0-0.3c0-0.1,0-0.2,0-0.3
		c0,0.1,0,0.3,0,0.4c0,0.1,0,0.2,0,0.3s0,0.3,0,0.4v0.4c0,0.1,0.1,0.1,0.2,0.1v-0.1v-0.1l0,0c0.1,0,0.1,0,0.1,0v0.1
		c0,0.1,0,0.3,0.1,0.4c0,0,0,0,0,0.1h0.1h0.1c0-0.1,0-0.2,0.1-0.3c0.1-0.1,0.1-0.2,0.1-0.3h0.1c0,0,0.1,0,0.1-0.1v-0.1l0,0v-0.3
		c0-0.1,0-0.2,0.1-0.2c0,0.1,0,0.1,0,0.2s0,0.2,0,0.2l0.1,0.1c0,0.1,0,0.1,0,0.2s0,0.2,0,0.2s0,0,0.1,0l0,0c0,0,0,0,0,0.1l0,0h0.1
		c0,0.1,0,0.1,0,0.1h0.1v-0.2c0,0,0,0,0-0.1l0,0l0,0v-0.1v-0.1l0,0l0,0v-0.1l0,0v-0.1c0,0,0,0,0.1-0.1v-0.1v0.1v0.1
		c0,0.1,0,0.2,0.1,0.2c0,0.1,0,0.1,0,0.2c0,0,0,0,0.1,0l0,0h0.1c0,0,0,0,0-0.1l0,0v-0.1l0,0v-0.3h0.1h0.1l0,0l0,0v-0.1l0,0
		c0-0.1,0-0.1,0-0.2v-0.1v0.3l0,0v0.1v0.1c0,0,0,0,0.1,0.1v0.1c0,0,0,0,0,0.1c0.1,0.1,0.1,0.1,0.1,0.1h0.1c0,0,0,0,0.1,0l0,0l0,0
		l0,0l0,0c0,0,0,0,0.1,0c0,0.1,0,0.1,0,0.2l0,0l0,0v0.1c0,0,0,0,0,0.1v0.1l0,0l0,0v0.1v0.1l0.1,0.1h0.1l0,0l0,0v0.1l0.1,0.2
		c0,0.1,0.1,0.2,0.1,0.3l0,0l0,0l0,0l0,0v0.2c0,0.1,0,0.1,0.1,0.2h-0.1l0,0l0,0v0.1v0.1v0.1l-0.1,0.1v0.1v0.1c0,0.3,0.1,0.6,0.1,1
		c0,0.3,0,0.7,0,1c0,0.1,0,0.1,0,0.2v0.3v-0.3v0.1v0.3c0,0.1,0,0.2,0,0.3v0.1v0.3v0.2v0.1v0.1v0.1v0.1l0,0v0.1v0.3
		c0,0.1,0,0.2,0,0.3v0.1l0.1,0.1v0.3c0,0,0,0,0,0.1l0,0v0.1v0.1c0,0.1,0,0.1,0,0.1v0.1c0,0.1,0,0.2-0.1,0.3l0,0l0,0v0.1v0.1l0,0v0.1
		c0,0.1,0,0.2,0,0.2c0,0.1,0,0.2,0,0.2l0.1,0.1v0.1l0,0l0,0v0.1v0.1v0.1v0.1v0.1l0,0l0,0v0.1l0.1,0.1c0,0,0,0.1-0.1,0.1l0,0l0,0l0,0
		l0,0l0,0c0.1,0,0.1,0,0.1,0.1h0.1c0.1,0.1,0.2,0.1,0.3,0.1h0.1c0.1,0,0.2,0.1,0.4,0.3v0.1l0.1,0.2v0.1v0.1l0.1,0.2l0.1,0.2l0.1,0.4
		L-224.1,403.6L-224.1,403.6z M-238.7,403.5L-238.7,403.5L-238.7,403.5L-238.7,403.5L-238.7,403.5z M-238.6,403.6L-238.6,403.6
		L-238.6,403.6L-238.6,403.6z M-238.4,404.3L-238.4,404.3L-238.4,404.3L-238.4,404.3L-238.4,404.3h-0.1l0,0l0,0h-0.1l0,0h0.1H-238.4
		L-238.4,404.3z M-238.6,403.7L-238.6,403.7L-238.6,403.7z M-238.5,403.2L-238.5,403.2C-238.6,403.2-238.6,403.2-238.5,403.2
		C-238.6,403.2-238.5,403.2-238.5,403.2L-238.5,403.2z M-238.5,404.6L-238.5,404.6h-0.1C-238.6,404.5-238.5,404.5-238.5,404.6
		L-238.5,404.6L-238.5,404.6z M-238.5,403.4L-238.5,403.4L-238.5,403.4L-238.5,403.4z M-238.5,403.2
		C-238.5,403.2-238.4,403.2-238.5,403.2C-238.4,403.2-238.4,403.2-238.5,403.2L-238.5,403.2z M-238.5,403.7L-238.5,403.7
		L-238.5,403.7L-238.5,403.7z M-238.4,404.8L-238.4,404.8L-238.4,404.8C-238.5,404.9-238.4,404.8-238.4,404.8L-238.4,404.8z
		 M-238.4,403.3L-238.4,403.3L-238.4,403.3L-238.4,403.3C-238.4,403.4-238.4,403.4-238.4,403.3
		C-238.5,403.3-238.5,403.3-238.4,403.3z M-238.4,403.7L-238.4,403.7C-238.3,403.7-238.3,403.7-238.4,403.7L-238.4,403.7
		L-238.4,403.7L-238.4,403.7z M-238.4,404.4L-238.4,404.4L-238.4,404.4L-238.4,404.4L-238.4,404.4L-238.4,404.4z M-238.3,403.1
		L-238.3,403.1C-238.4,403.1-238.4,403.1-238.3,403.1C-238.4,403.1-238.4,403.1-238.3,403.1L-238.3,403.1L-238.3,403.1z
		 M-238.2,403.1l-0.1,0.1C-238.3,403.1-238.2,403.1-238.2,403.1L-238.2,403.1z M-237.9,403L-237.9,403L-237.9,403L-237.9,403
		C-237.9,403.1-237.9,403.1-237.9,403C-238,403.1-238,403.1-237.9,403c-0.1,0.1-0.1,0.1-0.2,0.1h-0.1L-237.9,403
		C-238,403-238,403-237.9,403C-238,403-238,403-237.9,403L-237.9,403L-237.9,403z M-238,403.3L-238,403.3
		C-238.1,403.3-238.1,403.3-238,403.3L-238,403.3L-238,403.3z M-237.7,405.3L-237.7,405.3L-237.7,405.3c-0.1,0-0.1,0-0.1,0l0,0
		H-237.7L-237.7,405.3L-237.7,405.3z M-237.5,403.4L-237.5,403.4C-237.6,403.5-237.6,403.4-237.5,403.4L-237.5,403.4L-237.5,403.4
		L-237.5,403.4C-237.4,403.5-237.5,403.5-237.5,403.4L-237.5,403.4z M-237.3,402.8L-237.3,402.8
		C-237.4,402.8-237.4,402.8-237.3,402.8C-237.4,402.8-237.4,402.8-237.3,402.8c-0.1,0.1-0.1,0.1-0.2,0l0,0l0,0l-0.1,0.1l0.1,0.1
		v-0.1h0.1C-237.3,402.9-237.3,402.9-237.3,402.8C-237.3,402.9-237.3,402.9-237.3,402.8L-237.3,402.8L-237.3,402.8z M-237.3,404.5
		L-237.3,404.5C-237.4,404.5-237.3,404.5-237.3,404.5L-237.3,404.5L-237.3,404.5z M-237.2,402.1
		C-237.2,402.1-237.1,402.1-237.2,402.1C-237.1,402.1-237.1,402.1-237.2,402.1L-237.2,402.1z M-236.9,388.8L-236.9,388.8
		C-236.9,388.7-236.9,388.8-236.9,388.8L-236.9,388.8z M-236.9,390.2L-236.9,390.2L-236.9,390.2L-236.9,390.2z M-236.9,390.2
		L-236.9,390.2L-236.9,390.2L-236.9,390.2C-236.8,390.3-236.8,390.3-236.9,390.2L-236.9,390.2z M-236.8,402.1L-236.8,402.1
		C-236.9,402.1-236.9,402.1-236.8,402.1L-236.8,402.1L-236.8,402.1z M-236.8,402.1L-236.8,402.1
		C-236.8,402.2-236.8,402.2-236.8,402.1L-236.8,402.1z M-236.7,392.1L-236.7,392.1C-236.7,392-236.7,392-236.7,392.1L-236.7,392.1z
		 M-236.5,388.8C-236.4,388.8-236.4,388.8-236.5,388.8L-236.5,388.8L-236.5,388.8z M-236.4,389.3L-236.4,389.3L-236.4,389.3
		L-236.4,389.3z M-236.4,388.8L-236.4,388.8L-236.4,388.8L-236.4,388.8L-236.4,388.8L-236.4,388.8z M-236.3,388.8L-236.3,388.8
		L-236.3,388.8L-236.3,388.8L-236.3,388.8L-236.3,388.8z M-236.1,389.3v-0.1V389.3L-236.1,389.3z M-236.1,389.4L-236.1,389.4
		L-236.1,389.4z M-236.1,389.4L-236.1,389.4L-236.1,389.4L-236.1,389.4z M-236.1,405.2L-236.1,405.2L-236.1,405.2
		C-236.2,405.2-236.1,405.2-236.1,405.2L-236.1,405.2L-236.1,405.2z M-236.1,390.5L-236.1,390.5L-236.1,390.5L-236.1,390.5z
		 M-235.9,389.4L-235.9,389.4L-235.9,389.4v-0.1l0,0l0,0v-0.1v-0.1c0,0,0.1,0.1,0.1,0.2L-235.9,389.4
		C-235.8,389.4-235.8,389.4-235.9,389.4L-235.9,389.4C-235.9,389.3-235.9,389.4-235.9,389.4L-235.9,389.4L-235.9,389.4L-235.9,389.4
		L-235.9,389.4z M-235.3,389.1L-235.3,389.1L-235.3,389.1L-235.3,389.1z M-235.3,389.1L-235.3,389.1
		C-235.3,389.2-235.3,389.2-235.3,389.1L-235.3,389.1z M-235.2,389.4v0.1C-235.3,389.5-235.3,389.4-235.2,389.4L-235.2,389.4
		L-235.2,389.4c-0.1-0.1,0-0.2,0-0.1C-235.2,389.3-235.2,389.3-235.2,389.4L-235.2,389.4z M-235,388.9c0-0.1,0-0.2-0.1-0.2h0.1v-0.1
		v-0.1v0.1v0.1l0,0l0,0C-234.9,388.9-234.9,388.9-235,388.9c0,0.2,0,0.3,0.1,0.3v-0.1C-234.9,389-235,389-235,388.9L-235,388.9z
		 M-235,389.1L-235,389.1C-235,389-235,389-235,389.1C-235,389-235,389.1-235,389.1L-235,389.1z M-235,390.4v-0.1
		C-235,390.3-235,390.3-235,390.4L-235,390.4L-235,390.4C-235,390.5-235,390.5-235,390.4C-235,390.5-235,390.5-235,390.4
		C-235,390.5-235,390.5-235,390.4c0,0.1,0,0.1,0,0.1S-235,390.4-235,390.4L-235,390.4z M-234.9,389.3L-234.9,389.3L-234.9,389.3
		L-234.9,389.3L-234.9,389.3z M-234.9,389.3L-234.9,389.3L-234.9,389.3L-234.9,389.3L-234.9,389.3z M-234.9,389.4L-234.9,389.4
		L-234.9,389.4L-234.9,389.4z M-234.8,389.8L-234.8,389.8L-234.8,389.8L-234.8,389.8L-234.8,389.8z M-234.8,389.2L-234.8,389.2
		C-234.7,389.2-234.7,389.2-234.8,389.2C-234.7,389.2-234.7,389.2-234.8,389.2L-234.8,389.2z M-234.8,389.3
		C-234.7,389.3-234.7,389.3-234.8,389.3C-234.7,389.3-234.7,389.3-234.8,389.3L-234.8,389.3C-234.7,389.3-234.8,389.3-234.8,389.3
		L-234.8,389.3z M-234.7,389.4L-234.7,389.4L-234.7,389.4L-234.7,389.4L-234.7,389.4z M-234.7,389.5L-234.7,389.5L-234.7,389.5
		L-234.7,389.5z M-234.6,389.9L-234.6,389.9L-234.6,389.9L-234.6,389.9L-234.6,389.9c-0.1,0-0.1-0.1-0.1-0.2v-0.1
		C-234.6,389.7-234.6,389.7-234.6,389.9L-234.6,389.9L-234.6,389.9C-234.5,389.9-234.5,389.9-234.6,389.9L-234.6,389.9z
		 M-233.7,391.2L-233.7,391.2L-233.7,391.2z M-233.6,390.7C-233.6,390.8-233.6,390.8-233.6,390.7
		C-233.6,390.8-233.6,390.8-233.6,390.7L-233.6,390.7z M-233.6,391.1L-233.6,391.1L-233.6,391.1L-233.6,391.1L-233.6,391.1z
		 M-233.6,391.1L-233.6,391.1L-233.6,391.1L-233.6,391.1z M-228.8,391.6L-228.8,391.6L-228.8,391.6L-228.8,391.6z M-228.8,390
		L-228.8,390C-228.8,390-228.8,389.9-228.8,390L-228.8,390L-228.8,390L-228.8,390z M-228.7,388.7L-228.7,388.7z M-228.3,389.2
		L-228.3,389.2C-228.3,389.3-228.3,389.3-228.3,389.2L-228.3,389.2L-228.3,389.2z M-228.2,388.7
		C-228.2,388.8-228.2,388.8-228.2,388.7L-228.2,388.7L-228.2,388.7z M-228.2,388.8L-228.2,388.8L-228.2,388.8L-228.2,388.8
		L-228.2,388.8z M-228.1,388.8L-228.1,388.8L-228.1,388.8L-228.1,388.8L-228.1,388.8L-228.1,388.8z M-228,390.4L-228,390.4
		L-228,390.4L-228,390.4z M-228,389.3C-228,389.3-228,389.2-228,389.3v-0.2V389.3z M-228,389.3L-228,389.3L-228,389.3L-228,389.3
		L-228,389.3L-228,389.3z M-228,389.3L-228,389.3C-228,389.4-228,389.4-228,389.3L-228,389.3z M-227.7,389.3L-227.7,389.3
		L-227.7,389.3L-227.7,389.3z M-227.7,389.3L-227.7,389.3L-227.7,389.3c0-0.1,0-0.1,0-0.1v-0.1
		C-227.7,389.1-227.7,389.2-227.7,389.3L-227.7,389.3C-227.7,389.4-227.7,389.4-227.7,389.3L-227.7,389.3L-227.7,389.3L-227.7,389.3
		L-227.7,389.3z M-227.7,389.2L-227.7,389.2C-227.7,389.3-227.7,389.2-227.7,389.2L-227.7,389.2L-227.7,389.2z M-227.1,389.2
		L-227.1,389.2L-227.1,389.2L-227.1,389.2z M-227.1,389.3L-227.1,389.3L-227.1,389.3L-227.1,389.3L-227.1,389.3
		C-227.1,389.3-227.1,389.4-227.1,389.3c0,0.1,0,0.1,0,0.2C-227.1,389.5-227.1,389.5-227.1,389.3
		C-227.1,389.4-227.1,389.4-227.1,389.3L-227.1,389.3z M-227,390.2C-226.9,390.2-226.9,390.2-227,390.2
		C-226.9,390.2-226.9,390.2-227,390.2L-227,390.2z M-227,390.4L-227,390.4L-227,390.4C-226.9,390.4-226.9,390.4-227,390.4
		L-227,390.4z M-226.9,390.2L-226.9,390.2C-227,390.3-227,390.3-226.9,390.2L-226.9,390.2z M-226.8,389.1L-226.8,389.1
		C-226.9,389.1-226.9,389.1-226.8,389.1L-226.8,389.1z M-226.8,389.1L-226.8,389.1L-226.8,389.1z M-226.8,389.1L-226.8,389.1v-0.2
		l-0.1-0.1l0,0c0-0.1,0-0.1,0-0.1v0.1v0.1l0,0l0,0C-226.7,388.9-226.7,389-226.8,389.1C-226.7,389.1-226.7,389.1-226.8,389.1
		L-226.8,389.1z M-226.8,389L-226.8,389L-226.8,389L-226.8,389z M-226.8,389.1L-226.8,389.1L-226.8,389.1
		C-226.8,389.2-226.8,389.2-226.8,389.1L-226.8,389.1z M-226.8,389.8L-226.8,389.8L-226.8,389.8L-226.8,389.8L-226.8,389.8z
		 M-226.7,389.3L-226.7,389.3z M-226.7,389.5C-226.8,389.4-226.8,389.4-226.7,389.5C-226.7,389.4-226.7,389.4-226.7,389.5
		L-226.7,389.5z M-226.6,389.2C-226.6,389.2-226.6,389.3-226.6,389.2C-226.6,389.3-226.6,389.3-226.6,389.2c0,0.1,0,0.1,0,0.1l0,0
		C-226.6,389.3-226.6,389.3-226.6,389.2L-226.6,389.2z M-226.6,389.4L-226.6,389.4L-226.6,389.4L-226.6,389.4L-226.6,389.4
		L-226.6,389.4z M-226.6,389.5L-226.6,389.5C-226.5,389.5-226.5,389.5-226.6,389.5L-226.6,389.5z M-226.4,390.5L-226.4,390.5
		L-226.4,390.5v-0.1c0,0,0,0,0-0.1c0,0,0,0-0.1,0l-0.1,0.1l0,0l0,0c0,0,0,0,0,0.1v0.1L-226.4,390.5
		C-226.3,390.6-226.3,390.5-226.4,390.5C-226.3,390.5-226.3,390.5-226.4,390.5L-226.4,390.5z M-226.1,390.9L-226.1,390.9
		L-226.1,390.9L-226.1,390.9z M-225.7,391.2C-225.8,391.2-225.8,391.1-225.7,391.2L-225.7,391.2z M-225.7,391.1L-225.7,391.1
		C-225.6,391.1-225.6,391.1-225.7,391.1L-225.7,391.1z M-225.6,390.8L-225.6,390.8C-225.6,390.9-225.6,390.8-225.6,390.8
		L-225.6,390.8z"/>
	<g id="Group_5044">
		<g id="Group_5043">
			<path id="Path_11789" class="st0" d="M-243.3,378.1c0.3,0,0.6-0.7,1-0.7c0.4,0,0.7-0.4,1-0.3c0.2,0,0.4,0.4,0.6,0.4
				s0.4,0,0.6,0.1c0.2,0.1,0.3,0.4,0.3,0.4c0.1,0,0.1-0.3,0.1-0.2c0.1,0.1,0.2,0.5,0.3,0.6c0.1,0.3,0,0.5,0,0.8
				c0.1,0.1,0.2,0.2,0.2,0.4c0,0.1,0,0.2,0,0.2c0,0.1-0.1,0.2-0.1,0.2c0,0.1-0.1,0.1-0.1,0.2c-0.1,0.1-0.1,0.3-0.2,0.4
				c0,0.1-0.1,0.1-0.1,0.2c0,0,0.1,0.1,0.3,0.1c0.3,0,0.5,0,0.8,0c0.3,0,0.6,0,0.8,0s0.4,0,0.4,0c0.1,0,2.4-0.1,2.8-0.1
				c0.4,0,0.9,0,1.5,0c0.6,0,1.4-0.1,1.9,0c0.5,0,1.8,0,1.9,0c0.2,0.1,0.1,0.1-0.3,0.1c-0.6,0-2.9,0.1-3.9,0.1s-4,0.2-4.8,0.3
				c-0.5,0-0.9,0.1-1.4,0.2c-0.1,0.1,0,0.2,0.3,0.3c0.5,0.1,1,0.1,1.5,0c0.8-0.1,3.7-0.2,4.4-0.3c0.5,0,0.9,0,1.4,0
				c0.1,0,1.7-0.1,2,0c0.3,0,0.6,0,1,0c0.6,0,1.1,0,1.5,0c0.5,0,0.9,0.1,1.4,0.2c0.3,0.1,0.3,0,0.1-0.1c-0.1-0.1-0.1-0.1,0-0.1
				c0.3,0,0.5,0,0.8,0c0.3,0,0.6,0,1,0c0.4,0,3.2-0.2,3.5-0.2c0.3-0.1,0.7,0,1,0.1c-0.2-0.1-0.3,0-0.6,0.1c-0.2,0.1-0.2,0.1-0.2,0.1
				s0,0.1,0.1,0.2c0.1,0-0.2,0.1-0.1,0.2c0.1,0,0.2,0.1,0.3,0.1c0.1,0,0,0-0.2,0.1c-0.3,0.1-0.5,0.2-0.8,0.2
				c-0.2,0.1-0.4,0.1-0.6,0.2c-0.3,0.1-3,0.3-3.3,0.3c-0.2,0-0.3,0-0.5,0.1c-0.1,0-0.3,0.1-0.4,0.1c0,0.1-0.2,0.2-0.3,0.2
				c-0.2,0-0.4,0.1-0.5,0.1c-0.2,0-0.3,0.1-0.5,0.1c-0.1,0-0.3,0.1-0.4,0.1c-0.3,0.1-4.6,0.5-6,0.7c-1.4,0.2-3.1,0.3-5.2,0.5
				c-0.3,0-0.7,0.1-1.2,0.1c-0.5,0.1-0.9,0.1-1.3,0.1c-0.4,0.1-0.9,0.1-1.5,0.1c-0.6,0-1.1,0.1-1.6,0.1c-0.2,0-0.6,0-1.1,0.1
				s-1,0.1-1.6,0.2c-0.7,0.1-1.4,0.1-1.9,0.2c-0.4,0.1-0.8,0.1-1.1,0.1s-0.7,0-1,0c-0.4,0-0.6,0-0.8,0s-0.5,0-0.7-0.1
				s-0.5-0.2-0.7-0.4c-0.2-0.2-0.4-0.4-0.5-0.7c-0.1-0.3-0.1-0.6-0.1-0.9v-0.3c0-0.3-0.1-0.6-0.1-0.8c0-0.3-0.1-0.6-0.2-0.8
				l-0.2-0.8h0.5c0.2,0,0.3,0,0.5,0.1c0.2,0,0.4,0.1,0.5,0.1c0.2,0.1,0.4,0.1,0.5,0.1c0.2,0,0.3,0.1,0.5,0.1s0.5,0,0.9,0
				c0.4,0,0.9,0,1.5,0.1c0.3,0,0.6,0,1.2,0c0.5,0,1,0,1.6,0c0.5,0,1,0,1.4,0c0.2,0,0.4,0,0.6,0c0.1,0,0.2-0.1,0.3-0.1
				c0.2,0,0.4-0.1,0.6,0c0.3,0,0.5,0,0.7,0c0.1,0,0.2,0,0.3,0c0.1,0,0.1,0,0.2,0.1c-0.2-0.2-0.2-0.2-0.1-0.1c0,0.1,0,0.2,0.2,0.2
				s0.4,0,0.6,0l0.7-0.1l-0.6-0.4c-0.1-0.2-0.3-0.3-0.5-0.4c-0.1-0.1-0.2-0.2-0.3-0.2c-0.1,0-0.1-0.1-0.1-0.1s-0.1-0.1-0.2-0.1
				c0,0,0,0-0.1-0.1c0,0,0-0.1-0.1-0.1c-0.1-0.1-0.1-0.1-0.2-0.1s-0.1,0-0.1-0.1c0,0-0.1,0-0.1-0.1s-0.1-0.1-0.1-0.1l-0.1-0.1
				c0,0-0.1,0-0.1-0.1c0,0,0,0-0.1-0.1c0,0-0.1-0.1-0.1-0.2l-0.1-0.1l-0.1-0.1c0,0,0,0-0.1,0c-0.1,0-0.1-0.1-0.2-0.1
				c-0.1-0.1-0.2-0.2-0.3-0.2c0-0.1-0.1-0.1-0.1-0.2c0-0.1,0.1-0.1,0.2-0.2c0.1-0.1,0.3-0.1,0.4-0.1c0.1,0,0.3-0.1,0.4-0.1
				C-243.7,378.2-243.5,378.1-243.3,378.1z"/>
			<path id="Path_11790" class="st0" d="M-238.9,385.4c0,0,0.1,0.1,0.2,0.1c0.1,0.2,0.1,0.3,0.1,0.5c-0.1,0.4-0.1,0.7-0.2,1.1
				c-0.1,0.4-0.2,0.7-0.2,1c-0.1,0.3-0.1,0.5-0.1,0.5c0,0.1,0,0.3-0.1,0.7c-0.1,0.4-0.1,0.9-0.2,1.5c-0.1,0.8-0.2,1.3-0.3,1.6
				c-0.1,0.3-0.1,0.4-0.2,0.4c-0.1,0-0.1,0-0.2,0c-0.1,0-0.1,0.1-0.2,0.2c-0.1,0.2-0.1,0.4-0.1,0.6c0,0.3,0,0.5,0,0.8
				c0,0.2,0.1,0.4,0.1,0.4c0.1,0,0.1,0.1-0.1,0.2c-0.3,0.1-0.4,0.4-0.4,0.7c0,0.1,0.1,0.1,0.2,0.1c0.1,0,0.2,0,0.2,0.1
				c0,0.2,0,0.3,0,0.5c-0.1,0.6-0.2,0.6-0.2,0.2c0-0.3-0.1-0.3-0.1,0.1c-0.1,0.8-0.2,1.6-0.4,2.5c-0.1,0.6-0.3,1.2-0.5,1.9
				c-0.2,0.7-0.4,1.3-0.6,1.8c-0.2,0.5-0.3,0.9-0.4,1.3c-0.1,0.2-0.1,0.4-0.1,0.6v0.1h-0.1c-0.1,0-0.1,0.1-0.2,0.2
				c-0.1,0.2-0.2,0.4-0.3,0.6c-0.4,0.8-1,1.6-1.7,2.2c-0.1,0.1-0.2,0.1-0.2,0.2c-0.1,0.1-0.3,0.2-0.5,0.3c-0.1,0.1-0.3,0.2-0.4,0.2
				c-0.1,0-0.3,0.1-0.4,0.1c-0.1,0-0.2,0-0.3,0.1c-0.1,0.1-0.1,0-0.2,0v-0.1c0-0.1,0.1-0.1,0.1-0.2c0,0,0.1-0.1,0.1-0.2s0-0.1,0-0.1
				s0,0-0.1,0.1c0,0-0.1,0.1-0.2,0.1c-0.2,0.1-0.3,0.2-0.5,0.3c-0.1,0-0.2,0.1-0.3,0.1c-0.1,0-0.3,0-0.4,0h-0.2
				c0.2-0.2,0.5-0.4,0.7-0.6c0.2-0.2,0.4-0.5,0.6-0.7c0.3-0.4,0.5-0.8,0.6-1.2c0.1-0.2,0.1-0.4,0.2-0.5c0.2-0.5,0.4-0.9,0.5-1.4
				c0.1-0.3,0.2-0.6,0.2-0.8c0.2-0.6,0.3-1.1,0.4-1.6c0.1-0.2,0.1-0.4,0.1-0.5c0-0.3,0.1-0.6,0.1-1c0-0.5,0-1,0.1-1.5
				c0-0.1,0.1-0.2,0.1-0.3c0.1-0.3,0.2-0.5,0.3-0.8c0.1-0.3,0.2-0.6,0.2-0.9c0-0.2,0-0.3,0-0.5c0-0.1,0-0.3-0.1-0.4
				c-0.1-0.1,0-0.3-0.1-0.5c0-0.3,0-0.5,0-0.8c0.1-0.8,0.2-1.5,0.2-2.4c0.1-1,0.2-1.9,0.3-2.7c0.1-0.5,0.1-1,0.1-1.5
				c-0.1-0.4,0-0.8,0.1-1.1c0.1-0.3,0.2-0.6,0.4-0.8c0.3-0.2,0.7-0.4,1.1-0.4c0.5-0.1,1-0.2,1.6-0.3c0.4,0,0.8,0,1.1,0
				c0.1,0,0.2,0,0.4,0c0.1,0,0.2,0,0.3-0.1l0,0C-239,385.4-239,385.4-238.9,385.4C-239,385.4-239,385.4-238.9,385.4L-238.9,385.4z"
				/>
			<g id="Group_5042">
				<path id="Path_11791" class="st0" d="M-272.3,407.8c0.5,0.1,1.1,0.2,1.8,0.3c1,0.1,1.9,0.2,2.9,0.2c0.4,0,0.9,0,1.3,0.1
					c0.9,0.1,2,0.1,3.4,0.1c0.7,0,1.3,0,1.9,0.1c1.4,0,2.6,0.1,3.7,0.1c0.4,0,0.9,0,1.2,0c0.6,0,1.3,0,2.2-0.1
					c1.2-0.1,2.4-0.1,3.4-0.1c0.2,0,0.5,0,0.8,0c0.6,0,1.2,0,2,0.1c0.8,0.1,1.4,0,2.1,0c0.4,0,0.8,0,1.1,0s0.6-0.1,0.9-0.1
					c0.3,0,0.7-0.1,1.1-0.1c0.5,0,1.1-0.1,1.9-0.1c1.7,0,3.5-0.1,5.5-0.1c2.3,0,4.4-0.1,6.2-0.1s2.9-0.1,3.4-0.1
					c0.9-0.1,1.7-0.1,2.6-0.1c0.7,0,1.4,0,2.1,0.2c0.5,0.1,0.9,0.3,1.3,0.6c0.4,0.3,0.8,0.6,1.1,0.9c0.2,0.3,0.4,0.6,0.4,0.7
					s0.1,0.2,0.1,0.2c0.1,0.1,0.2,0.1,0.3,0.1h0.1c0.1,0,0.1,0,0.1,0c0.1,0,0.1,0,0.1,0l0,0c0,0-0.1,0.1-0.2,0.1
					c-0.4,0.1-0.7,0.1-1.1,0.1c-0.5,0-1.4,0-2.6,0c-0.9,0-1.7,0-2.4,0s-1.1,0-1.2,0s-0.7,0-1.6,0c-0.9,0-2.1,0-3.4,0.1
					c-1.7,0-2.9,0-3.6,0c-0.6,0-0.9,0-0.9-0.1c0,0,0-0.1-0.1-0.1c-0.1,0-0.3-0.1-0.4-0.1c-0.3,0-0.8,0-1.4,0c-0.7,0-1.2,0.1-1.8,0.1
					c-0.3,0-0.6,0-0.8,0.1c-0.1,0.1-0.2,0-0.5-0.1s-0.5-0.2-0.8-0.2s-0.6,0-0.9,0c-0.2,0-0.3,0.1-0.2,0.1c0.1,0.1,0,0.1-0.2,0.1
					c-0.4,0-0.8,0-1.2,0c-1.3,0-1.5,0-0.5-0.1c0.7-0.1,0.7-0.1-0.2-0.1c-1,0-2.9,0-5.7,0c-1.4,0-2.9,0-4.5-0.1
					c-1.7,0-3.1-0.1-4.3-0.1c-1.2,0-2.2-0.1-3-0.1c-0.8,0-1.4,0-1.5,0c-0.1,0-0.2,0-0.3,0s-0.1,0-0.1-0.1c-0.2-0.1-0.4-0.1-0.6-0.1
					c-0.4-0.1-0.9-0.1-1.5-0.1c-1.8-0.1-3.7-0.4-5.5-0.8c-0.2-0.1-0.4-0.1-0.6-0.1c-0.5,0.4-0.8,0.3-1.1,0.2c-0.2,0-0.5-0.1-0.7-0.2
					c-0.1-0.1-0.3-0.2-0.4-0.3s-0.2-0.1-0.2-0.2c-0.1,0-0.1-0.1,0-0.1c0.1,0,0.2,0,0.3,0c0.2,0,0.3,0,0.5,0.1h0.4c0.1,0,0.2,0,0.2,0
					s-0.1,0-0.2-0.1s-0.3-0.1-0.4-0.1c-0.3-0.1-0.5-0.2-0.8-0.3c-0.1-0.1-0.2-0.1-0.4-0.2c-0.1-0.1-0.1-0.2-0.2-0.2
					c0-0.1,0-0.1,0-0.1C-273.3,407.6-272.8,407.7-272.3,407.8z M-252.4,410.1c0.3,0,0.6,0,0.9,0h0.9c0.2,0,0.4,0,0.4,0
					s-0.1,0-0.3-0.1c-0.2,0-0.6,0-0.9-0.1c-0.3-0.1-0.6,0-0.9,0c-0.2,0-0.4,0-0.4,0.1C-252.8,410-252.7,410.1-252.4,410.1z
					 M-258.9,409.8c-0.4,0.1,0.5,0.2,2.5,0.3c1.1,0,1.7,0,1.7-0.1c-0.6-0.2-1.2-0.2-1.9-0.2c-0.6,0-1.1,0-1.6,0
					C-258.4,409.7-258.7,409.7-258.9,409.8z"/>
				<path id="Path_11792" class="st0" d="M-224.2,411.8c0.9,0,1.8,0,3.1,0c1.3,0,2.5-0.1,3.4-0.1c0.4,0,0.7,0,1.1-0.1
					c-0.4-0.1-0.9-0.1-1.3-0.1h-3.1c-1.3,0-2.2,0-3.1,0.1c-0.9,0-1.3,0.1-1.3,0.1C-225.1,411.8-224.7,411.8-224.2,411.8z"/>
				<path id="Path_11793" class="st0" d="M-270,410.2c0.1,0,0.3,0,0.4-0.1c0,0-0.1-0.1-0.4-0.1c-0.1,0-0.3-0.1-0.5-0.1
					c-0.1,0-0.2,0-0.3,0c-0.1,0-0.1,0.1-0.1,0.1c0.1,0.1,0.2,0.1,0.3,0.1C-270.4,410.2-270.2,410.2-270,410.2z"/>
				<path id="Path_11794" class="st0" d="M-236.5,411c-0.5,0.1-0.5,0.1-0.3,0.1c0.1,0,0.3,0,0.4,0c0,0,0,0,0,0.1
					c-0.1,0.1,0,0.1,0.2,0.1c0.3,0,0.5-0.1,0.8-0.2c0.4-0.2,0.3-0.2-0.3-0.2C-236,410.9-236.2,410.9-236.5,411z"/>
				<path id="Path_11795" class="st0" d="M-226.4,411.8C-226.4,411.7-226.4,411.7-226.4,411.8c-0.2-0.2-1.2-0.3-3.1-0.1
					c-0.5,0-1,0.1-1.4,0.1c-0.4,0-0.8,0-1,0c-0.2,0-0.4,0-0.6,0s-0.3,0-0.5,0c-0.1,0-0.2,0-0.3,0c-0.1,0-0.2,0-0.3,0
					c-0.1,0-0.2,0-0.2,0.1c-0.1,0-0.1,0.1-0.2,0.1c-0.1,0.1-0.1,0.1,0,0.1c0.1,0,0.2,0,0.4,0c0.2,0,0.5,0,0.9-0.1c0.5,0,1,0,1.6-0.1
					l1.5-0.1c0.4,0,0.6,0,0.7,0c0.1,0,0.2,0,0.3,0c0.1,0,0.2,0,0.3,0c0.1,0,0.1,0,0-0.1c-0.1-0.1-0.1-0.1,0.2,0c0.2,0,0.3,0,0.5,0
					c0.2,0,0.4,0,0.7,0c0.2,0,0.3,0,0.4,0C-226.6,411.8-226.5,411.8-226.4,411.8z"/>
				<path id="Path_11796" class="st0" d="M-240.6,411.1c0.4,0,0.6,0.1,0.7,0.1c0.1,0,0,0.1-0.3,0.1c-0.1,0-0.3,0-0.4,0l-0.4-0.1
					c-0.1,0-0.1,0,0-0.1C-241,411.1-240.8,411.1-240.6,411.1z"/>
				<path id="Path_11797" class="st0" d="M-237.7,411.1c-0.1,0-0.1,0.1-0.2,0.1v0.1c0.1,0,0.2,0,0.3,0c0.1,0,0.2,0,0.4,0l0.1-0.1
					l-0.1-0.1h-0.1C-237.5,411.1-237.6,411.1-237.7,411.1z"/>
			</g>
		</g>
	</g>
	<g id="Group_5046">
		<g id="Group_5045">
			<path id="Path_11798" class="st0" d="M-206.2,395.1l0.2,0.1c0.1,0.1,0.1,0.1,0.2,0.2c0.1,0,0.1,0.1,0.1,0.2c0,0.1,0,0.2-0.1,0.2
				c-0.1,0.1-0.1,0.2-0.2,0.3c-0.1,0.1-0.1,0.2-0.2,0.3c-0.1,0.1-0.1,0.1-0.2,0.2c-0.2,0.3-0.3,0.6-0.4,1c-0.1,0.4-0.2,0.9-0.3,1.4
				c-0.1,0.5-0.1,0.9-0.2,1.4c0,0.4-0.1,0.8-0.1,1c0,0.1,0,0.1-0.1,0.1l0,0l0,0c-0.1,0-0.1,0-0.1-0.1v-0.1v-0.1v-0.9
				c0-0.2,0-0.4,0-0.6c0-0.2,0-0.4,0.1-0.6c-0.1,0.3-0.1,0.6-0.1,0.9c0,0.3,0,0.6,0,0.9c0,0.5,0,1.1,0.1,1.6c0.1,0.5,0.2,1,0.3,1.6
				l0.6-0.1c0.2,0,0.4-0.1,0.6-0.1h0.1l0,0v0.1v0.1h0.2c0.2,0,0.1,0,0.3,0.1c0.2,0.1,0.4,0.2,0.4,0.3c0,0.1,0,0.1-0.1,0.2
				c0,0.1-0.1,0.1-0.2,0.2c-0.1,0.1-0.1,0-0.1-0.1v-0.2c0,0-0.1-0.1-0.2-0.1l0,0c-0.1,0-0.3,0-0.4,0.1c-0.2,0-0.4,0.1-0.5,0.2
				c-0.2,0.1-0.3,0.1-0.5,0.2c-0.1,0-0.2,0.1-0.2,0.2s0,0.2,0,0.3c0,0.1,0,0.2,0,0.2c0,0.1,0,0.2-0.1,0.2c0,0.1-0.1,0.1-0.2,0.1
				c-0.1,0-0.3,0-0.4-0.1l-0.1-0.1c-0.1-0.1-0.3-0.2-0.4-0.2c-0.2,0-0.3,0.1-0.4,0.2c-0.2,0.1,0.3-0.1,0.2,0l-0.2,0.3v0.2
				c-0.1,0.1-0.1,0.2-0.2,0.3c-0.1,0.1-0.3,0.1-0.4,0.1c-0.3,0-0.6-0.1-0.8-0.3c-0.2-0.2-0.4-0.4-0.5-0.6v-0.1v-0.1
				c0-0.1,0-0.1,0-0.1l0.3-0.5c0.1-0.2,0.2-0.3,0.4-0.3c0.1,0,0.1,0,0.1,0h0.1c0.1,0-0.3,0.2-0.1,0.1c0.2-0.1,0.4-0.2,0.4-0.3
				c0-0.2,0-0.6,0-1c0-0.4,0-0.8,0.1-1.3c0.1-0.5,0.1-0.9,0.2-1.3c0.1-0.3,0.1-0.6,0.3-1h0.1v0.4c0,0.3,0,0.6,0,0.9
				c0,0.3,0,0.6,0,0.9v0.5c0.1-0.1,0.1-0.3,0.1-0.4c0-0.2,0-0.3,0-0.5c0-0.2,0-0.4,0-0.6c0-0.2,0-0.4,0-0.5c0-0.3,0-0.7,0-1
				c0-0.3,0.1-0.7,0.1-1c0-0.4,0.1-0.7,0.1-1.1c0.1-0.4,0.1-0.7,0.1-1.1c0,0,0-0.1,0-0.2s0-0.2,0-0.3s0-0.2-0.1-0.3
				c0-0.1-0.1-0.1-0.2-0.1c0,0-0.1,0-0.3,0c-0.1,0-0.2,0-0.3,0.1c-0.1,0,0.6-0.2,0.3-0.1c-0.3,0.1-0.5,0.1-0.7,0.2
				c-0.4,0.1-0.7,0.2-1.1,0.2l0,0c-0.2,0-0.3,0-0.3-0.1c0,0,0,0-0.1,0l0,0c0.1-0.1,0.2-0.2,0.4-0.2l0.4-0.2h-0.1l-0.1-0.1
				c0-0.1,0.1-0.2,0.1-0.2c0.2-0.1,0.5-0.2,0.8-0.3c0.4-0.1,0,0,0.6-0.1c0.6-0.1,1-0.3,1.5-0.4s0.8-0.2,1-0.3l0.1-0.1
				c-0.1,0-0.2,0-0.2,0c-0.1,0-0.1,0-0.2,0h-0.1h-0.1c-0.1-0.1-0.1-0.1-0.1-0.1c0.1-0.1,0.3-0.2,0.4-0.2c0.3-0.1,0.5-0.1,0.8-0.2
				c0.3,0,0.3-0.1,0.6-0.1c0.2,0,0.4,0,0.6-0.1c0.1,0,0.2,0,0.4,0h0.1c0,0,0.1,0,0.1,0.1l0.2,0.3v0.1v0.2l0.1,0.1c0,0.1,0,0.2,0,0.2
				l-0.3,0.5c0,0.1-0.1,0.1-0.1,0.1c-0.1,0-0.1,0-0.2,0c-0.1,0-0.2,0-0.3,0c-0.1,0-0.2,0-0.3,0c-0.1,0-0.2,0-0.3,0
				c-0.2,0-0.4,0-0.6,0L-206.2,395.1L-206.2,395.1z"/>
		</g>
	</g>
	<path id="Path_11799" class="st0" d="M-213.2,396.5l0.1,0.4l0.2,0.3c0.1,0.1,0.1,0.2,0.1,0.3c0,0.3,0,0.6-0.1,0.9
		c-0.1,0.3-0.2,0.7-0.4,1l0.9-1.1c0.1-0.1,0.2-0.2,0.3-0.3c0.1-0.1,0.2-0.2,0.4-0.2s0.3,0.1,0.2,0.3c-0.1,0.3-0.2,0.5-0.4,0.7
		c-0.2,0.3-0.4,0.5-0.5,0.8l-0.8,0.9l-0.3,0.6l0.2,2.3c0,0.3,0,0.5,0,0.8s0,0.5,0.1,0.8l0.1,0.3l0.1-0.9c0-0.2,0-0.3,0-0.3v-0.4
		c0-0.1,0.1,0,0.1,0s0,1.4,0.1,2.5c0.1,1.1-1.7,0.2-1.7,0.1c0,0-0.6-0.4-0.6-0.6s-0.3-0.4-0.2-0.6c0.2-0.7,0,0.3,0.1-0.5
		c0.1-0.6,0.2-1.3,0.1-1.9l-0.9,0.3l-1.1,0.9c-0.4,0.3-0.9,0.6-1.3,0.8c-0.3,0.2-0.7,0.4-1.1,0.4c-0.3,0-0.6-0.2-0.8-0.4l-0.7-0.7
		l-0.3-0.2c-0.3-0.2-0.5-0.5-0.5-0.9c-0.1-0.3-0.1-0.7-0.2-1c0-0.7,0.1-1.5,0.4-2.1c0.3-0.8,0.6-1.5,1.1-2.1c0.5-0.7,1-1.2,1.7-1.7
		c0.6-0.4,1.3-0.7,2-0.7c0.4,0,0.7,0,1,0.1l0.6,0.1l0.1-0.3v-0.4c0-1.6,0-3.2,0-4.7c0-0.3,0-0.5-0.1-0.8c0-0.3-0.1-0.5-0.1-0.8
		c0-0.5,0-1.1,0-1.5c0-0.4,0-1,0-1.5V385l-0.1-0.5c-0.1-0.3-0.2-0.7-0.2-1c0-0.4,0.1-0.7,0.2-1.1c0.2-0.3,0.6-0.5,1-0.5
		c0.2,0,0.5,0.1,0.7,0.2c0.2,0.1,0.5,0.2,0.7,0.4c0.1,0.1,0.2,0.2,0.3,0.2c0.1,0.1,0.3,0.2,0.4,0.2c0.3,0.2,0.6,0.4,0.9,0.7
		c0.2,0.3,0.3,0.6,0.3,1c0,0.2-0.1,0.5-0.1,0.7s-0.1,0.5-0.2,0.8c-0.5,1.7-0.9,3.3-1.2,4.9c-0.3,1.7-0.5,3.3-0.7,5L-213.2,396.5z
		 M-219.7,400.2c-0.2,0.3-0.4,0.7-0.4,1.1c-0.1,0.4-0.2,0.8-0.2,1.2l0.3,0.1c0.4,0,0.8-0.1,1.2-0.3c0.4-0.2,0.8-0.3,1.1-0.5l1-0.5
		h0.1h0.1c0.1,0,0.1,0,0.1,0.1l0,0c0.1,0.2,0.1,0.3-0.1,0.3l-0.1,0.1l-0.2,0.2c0.4-0.2,0.7-0.4,1-0.7c0.3-0.2,0.5-0.4,0.5-0.5v-0.9
		c0-0.5-0.1-1-0.2-1.4c-0.1-0.5-0.5-0.7-1.2-0.7c-0.3,0-0.6,0.1-0.8,0.3c-0.3,0.2-0.6,0.4-0.8,0.6L-219.7,400.2z M-213.7,396.4
		c0,0.1,0,0.2,0.1,0.3c0-1-0.1-2-0.1-2.9c0-1,0-1.9,0-2.9c0-0.3,0.1-0.5,0.1-0.8c0-0.2,0-0.5,0-0.7c-0.2,1.1-0.2,2.2-0.3,3.3
		c0,1.1,0,2.3,0,3.4C-213.7,396.1-213.7,396.2-213.7,396.4L-213.7,396.4z M-212.1,396.6c0,0,0.1,0.1,0.2,0.1c0.1,0,0.1,0,0.2,0.1
		s0.1,0.1-0.1,0.1h-0.2h-0.2l-0.1-0.1v-0.1C-212.3,396.7-212.2,396.6-212.1,396.6L-212.1,396.6z"/>
</g>
</svg>
