<?xml version="1.0" encoding="utf-8"?>
<!-- Generator: Adobe Illustrator 25.4.1, SVG Export Plug-In . SVG Version: 6.00 Build 0)  -->
<svg version="1.1" id="Layer_1" xmlns="http://www.w3.org/2000/svg" xmlns:xlink="http://www.w3.org/1999/xlink" x="0px" y="0px"
	 viewBox="0 0 307 46.3" style="enable-background:new 0 0 307 46.3;" xml:space="preserve">
<style type="text/css">
	.Drop_x0020_Shadow{fill:none;}
	.Round_x0020_Corners_x0020_2_x0020_pt{fill:#FFFFFF;stroke:#000000;stroke-miterlimit:10;}
	.Live_x0020_Reflect_x0020_X{fill:none;}
	.Bevel_x0020_Soft{fill:url(#SVGID_1_);}
	.Dusk{fill:#FFFFFF;}
	.Foliage_GS{fill:#FFDD00;}
	.Pompadour_GS{fill-rule:evenodd;clip-rule:evenodd;fill:#44ADE2;}
	.st0{fill:#FFFFFF;}
</style>
<linearGradient id="SVGID_1_" gradientUnits="userSpaceOnUse" x1="-638.7632" y1="-267.0087" x2="-638.0561" y2="-266.3016">
	<stop  offset="0" style="stop-color:#DEDFE3"/>
	<stop  offset="0.1738" style="stop-color:#D8D9DD"/>
	<stop  offset="0.352" style="stop-color:#C9CACD"/>
	<stop  offset="0.5323" style="stop-color:#B4B5B8"/>
	<stop  offset="0.7139" style="stop-color:#989A9C"/>
	<stop  offset="0.8949" style="stop-color:#797C7E"/>
	<stop  offset="1" style="stop-color:#656B6C"/>
</linearGradient>
<g id="Group_9749" transform="translate(1233.774 563.627) rotate(180)">
	<path id="Path_17791" class="st0" d="M1018.3,517.4c-29.9,0.5-61.4,0.1-91.5,0v38.8h3.5c1.8,0,8.5,3.3,10.3,3.3
		c19.4,0,32.1,6.9,51.8,2.7c27.3-5.8,42-0.2,67.6,1.1c6.9,0.3,26.8,1,31.7-0.5c17.5-5.8,24.1,2.7,43.2-0.5c7.1-1.1,18.7-1,28.4-0.3
		c32.9,2.1,41.9-0.7,70.5-1.2v-43.5"/>
</g>
</svg>
