<?xml version="1.0" encoding="utf-8"?>
<!-- Generator: Adobe Illustrator 25.4.1, SVG Export Plug-In . SVG Version: 6.00 Build 0)  -->
<svg version="1.1" id="Layer_1" xmlns="http://www.w3.org/2000/svg" xmlns:xlink="http://www.w3.org/1999/xlink" x="0px" y="0px"
	 viewBox="0 0 2116.6 42.9" style="enable-background:new 0 0 2116.6 42.9;" xml:space="preserve">
<style type="text/css">
	.Drop_x0020_Shadow{fill:none;}
	.Round_x0020_Corners_x0020_2_x0020_pt{fill:#FFFFFF;stroke:#000000;stroke-miterlimit:10;}
	.Live_x0020_Reflect_x0020_X{fill:none;}
	.Bevel_x0020_Soft{fill:url(#SVGID_1_);}
	.Dusk{fill:#FFFFFF;}
	.Foliage_GS{fill:#FFDD00;}
	.Pompadour_GS{fill-rule:evenodd;clip-rule:evenodd;fill:#44ADE2;}
	.st0{fill:#212121;}
</style>
<linearGradient id="SVGID_1_" gradientUnits="userSpaceOnUse" x1="658.1906" y1="-277.6752" x2="658.8976" y2="-276.9681">
	<stop  offset="0" style="stop-color:#DEDFE3"/>
	<stop  offset="0.1738" style="stop-color:#D8D9DD"/>
	<stop  offset="0.352" style="stop-color:#C9CACD"/>
	<stop  offset="0.5323" style="stop-color:#B4B5B8"/>
	<stop  offset="0.7139" style="stop-color:#989A9C"/>
	<stop  offset="0.8949" style="stop-color:#797C7E"/>
	<stop  offset="1" style="stop-color:#656B6C"/>
</linearGradient>
<g id="Group_6604" transform="translate(0 -516.079)">
	<g id="Group_6588">
		<path id="Path_17787" class="st0" d="M80.5,513.7c-26.3,0.5-54,0.1-80.5,0v34.1h3c1.6,0,7.4,2.9,9.1,2.9c17,0,28.2,6.1,45.5,2.3
			c24-5.1,36.9-0.2,59.5,0.9c6.1,0.3,23.6,0.9,27.9-0.5c15.4-5.1,21.2,2.4,38-0.4c6.2-0.9,16.5-0.8,25-0.3c28.9,1.9,36.8-0.6,62-1.1
			v-38.3"/>
	</g>
	<g id="Group_6589">
		<path id="Path_17788" class="st0" d="M323.9,513.7c-26.3,0.5-54,0.1-80.5,0v34.1h3c1.6,0,7.4,2.9,9.1,2.9c17,0,28.2,6.1,45.5,2.3
			c24-5.1,36.9-0.2,59.5,0.9c6.1,0.3,23.6,0.9,27.9-0.5c15.4-5.1,21.2,2.4,38-0.4c6.2-0.9,16.5-0.8,25-0.3c28.9,1.9,36.8-0.6,62-1.1
			v-38.3"/>
	</g>
	<g id="Group_6590">
		<path id="Path_17789" class="st0" d="M554.1,513.7c-26.3,0.5-54,0.1-80.5,0v34.1h3c1.6,0,7.4,2.9,9.1,2.9c17,0,28.2,6.1,45.5,2.3
			c24-5.1,36.9-0.2,59.5,0.9c6.1,0.3,23.6,0.9,27.9-0.5c15.4-5.1,21.2,2.4,38-0.4c6.2-0.9,16.5-0.8,25-0.3c28.9,1.9,36.8-0.6,62-1.1
			v-38.3"/>
	</g>
	<g id="Group_6591">
		<path id="Path_17790" class="st0" d="M797.5,513.7c-26.3,0.5-54,0.1-80.5,0v34.1h3c1.6,0,7.4,2.9,9.1,2.9c17,0,28.2,6.1,45.5,2.3
			c24-5.1,36.9-0.2,59.5,0.9c6.1,0.3,23.6,0.9,27.9-0.5c15.4-5.1,21.2,2.4,38-0.4c6.2-0.9,16.5-0.8,25-0.3c28.9,1.9,36.8-0.6,62-1.1
			v-38.3"/>
	</g>
	<g id="Group_6592">
		<path id="Path_17791" class="st0" d="M1007.2,512.7c-26.3,0.5-54,0.1-80.5,0v34.1h3c1.6,0,7.4,2.9,9.1,2.9c17,0,28.2,6.1,45.5,2.3
			c24-5.1,36.9-0.2,59.5,0.9c6.1,0.3,23.6,0.9,27.9-0.5c15.4-5.1,21.2,2.4,38-0.4c6.2-0.9,16.5-0.8,25-0.3c28.9,1.9,36.8-0.6,62-1.1
			v-38.3"/>
	</g>
	<g id="Group_6593">
		<path id="Path_17792" class="st0" d="M1250.7,512.7c-26.3,0.5-54,0.1-80.5,0v34.1h3c1.6,0,7.4,2.9,9.1,2.9c17,0,28.2,6.1,45.5,2.3
			c24-5.1,36.9-0.2,59.5,0.9c6.1,0.3,23.6,0.9,27.9-0.5c15.4-5.1,21.2,2.4,38-0.4c6.2-0.9,16.5-0.8,25-0.3c28.9,1.9,36.8-0.6,62-1.1
			v-38.3"/>
	</g>
	<g id="Group_6594">
		<path id="Path_17793" class="st0" d="M1461.4,511.7c-26.3,0.5-54,0.1-80.5,0v34.1h3c1.6,0,7.4,2.9,9.1,2.9c17,0,28.2,6.1,45.5,2.3
			c24-5.1,36.9-0.2,59.5,0.9c6.1,0.3,23.6,0.9,27.9-0.5c15.4-5.1,21.2,2.4,38-0.4c6.2-0.9,16.5-0.8,25-0.3c28.9,1.9,36.8-0.6,62-1.1
			v-38.3"/>
	</g>
	<g id="Group_6595">
		<path id="Path_17794" class="st0" d="M1704.8,511.7c-26.3,0.5-54,0.1-80.5,0v34.1h3c1.6,0,7.4,2.9,9.1,2.9c17,0,28.2,6.1,45.5,2.3
			c24-5.1,36.9-0.2,59.5,0.9c6.1,0.3,23.6,0.9,27.9-0.5c15.4-5.1,21.2,2.4,38-0.4c6.2-0.9,16.5-0.8,25-0.3c28.9,1.9,36.8-0.6,62-1.1
			v-38.3"/>
	</g>
	<g id="Group_6596">
		<path id="Path_17795" class="st0" d="M1927.1,511.7c-26.3,0.5-54,0.1-80.5,0v34.1h3c1.6,0,7.4,2.9,9.1,2.9c17,0,28.2,6.1,45.5,2.3
			c24-5.1,36.9-0.2,59.5,0.9c6.1,0.3,23.6,0.9,27.9-0.5c15.4-5.1,21.2,2.4,38-0.4c6.2-0.9,16.5-0.8,25-0.3c28.9,1.9,36.8-0.6,62-1.1
			v-38.3"/>
	</g>
</g>
</svg>
