<?xml version="1.0" encoding="utf-8"?>
<!-- Generator: Adobe Illustrator 19.0.0, SVG Export Plug-In . SVG Version: 6.00 Build 0)  -->
<svg version="1.1" id="Layer_1" xmlns="http://www.w3.org/2000/svg" xmlns:xlink="http://www.w3.org/1999/xlink" x="0px" y="0px"
	 viewBox="-203 376.6 204.8 41.4" style="enable-background:new -203 376.6 204.8 41.4;" xml:space="preserve">
<style type="text/css">
	.st0{fill:#FFFFFF;}
	.st1{fill:#CA4771;}
	.st2{fill:#99D9E5;}
	.st3{fill:#8577B4;}
</style>
<path id="Path_1" class="st0" d="M-188.3,387.6c-0.7-0.2-1.4-0.3-2.2-0.3h-9v23.1c0,0.8,0.6,1.4,1.4,1.4c0.8,0,1.4-0.6,1.4-1.4v-7.9
	h6.2c4.2,0,7.6-3.4,7.6-7.6C-182.9,391.5-185.1,388.6-188.3,387.6 M-190.5,399.7h-6.2v-9.6h6.2c2.7,0,4.8,2.2,4.8,4.8
	C-185.7,397.6-187.8,399.7-190.5,399.7"/>
<path id="Path_2" class="st0" d="M-168,402.5c3.8-0.5,6.7-3.7,6.7-7.6c0-3.4-2.2-6.3-5.5-7.3c-0.7-0.2-1.4-0.3-2.2-0.3h-9v23.1
	c0,0.8,0.6,1.4,1.4,1.4c0.8,0,1.4-0.6,1.4-1.4v-7.9h3.6l6.6,8.7c0.3,0.4,0.7,0.6,1.1,0.6c0.8,0,1.4-0.6,1.4-1.4
	c0-0.3-0.1-0.6-0.3-0.9L-168,402.5z M-175.1,390.1h6.2c2.7,0,4.8,2.2,4.8,4.8c0,2.7-2.2,4.8-4.8,4.8h-6.2
	C-175.1,399.7-175.1,390.1-175.1,390.1z"/>
<path id="Path_3" class="st0" d="M-125.9,385.7c-3.2-3.3-7.7-5.1-12.3-5.1s-9,1.9-12.3,5.1c-3.2,3.2-5,7.6-5,12.1s1.8,8.8,4.9,12.1
	c3.2,3.3,7.7,5.2,12.4,5.2s9.1-1.9,12.4-5.2c3.2-3.2,4.9-7.5,4.9-12.1C-120.9,393.3-122.7,389-125.9,385.7 M-130.2,409.9
	c-2.4,1.6-5.1,2.4-8,2.4c-2.8,0-5.6-0.8-8-2.4c-4.1-2.7-6.5-7.2-6.5-12.1c0-4.9,2.5-9.5,6.6-12.1c2.3-1.5,5.1-2.3,7.9-2.3
	s5.5,0.8,7.9,2.3c4.1,2.7,6.6,7.2,6.6,12.1C-123.7,402.7-126.2,407.3-130.2,409.9"/>
<path id="Path_4" class="st0" d="M-2.9,387.6L-2.9,387.6c-0.8,0-1.4,0.6-1.4,1.4v18l-12-18.5c-0.4-0.6-1-0.9-1.7-0.9
	c-1.1,0-2,0.9-2,2v20.8c0,0.8,0.6,1.4,1.4,1.4l0,0c0.8,0,1.4-0.6,1.4-1.4v-18l12,18.5c0.4,0.6,1,0.9,1.7,0.9c1.1,0,2-0.9,2-2l0,0
	V389C-1.5,388.2-2.1,387.6-2.9,387.6"/>
<path id="Path_5" class="st0" d="M-94,389.5c-0.2-1.1-1.2-1.9-2.3-1.9l0,0c-1,0-1.9,0.6-2.2,1.6l-4.9,14h-0.1l-4.9-14
	c-0.3-0.9-1.2-1.6-2.2-1.6c-1.1,0-2.1,0.8-2.3,1.9l-4.2,20.6c0,0.1,0,0.2,0,0.3c0,0.8,0.6,1.4,1.4,1.4c0.7,0,1.2-0.5,1.4-1.1l3.9-19
	l4.4,12.4c0.4,1.1,1.5,1.9,2.7,1.9s2.3-0.8,2.7-1.9l4.4-12.4l3.9,19c0.1,0.7,0.7,1.1,1.4,1.1c0.8,0,1.4-0.6,1.4-1.4
	c0-0.1,0-0.2,0-0.3L-94,389.5z"/>
<path id="Path_6" class="st0" d="M-82.6,387.6L-82.6,387.6c-0.8,0-1.4,0.6-1.4,1.4v21.4c0,0.8,0.6,1.4,1.4,1.4l0,0
	c0.8,0,1.4-0.6,1.4-1.4V389C-81.2,388.2-81.8,387.6-82.6,387.6"/>
<path id="Path_7" class="st0" d="M-54.2,406.7c-0.6-0.5-1.4-0.4-1.9,0.1c-1.9,2-4.6,3.1-7.3,3.1c-5.6,0-10.2-4.6-10.2-10.2
	c0-0.4,0-0.8,0.1-1.3c0.6-4.5,4.1-8.1,8.6-8.8c3.1-0.5,6.3,0.5,8.6,2.7c0.5,0.5,1.3,0.5,1.9,0.1c0.6-0.5,0.7-1.4,0.2-2l-0.1-0.1
	c-1.3-1.2-2.8-2.2-4.4-2.8c-1.5-0.6-3-0.9-4.6-0.9s-3.2,0.3-4.6,0.9c-5,1.9-8.4,6.8-8.4,12.1s3.2,10.1,8.2,12.1
	c1.5,0.6,3.2,0.9,4.8,0.9c1.7,0,3.3-0.3,4.8-0.9c1.7-0.7,3.2-1.7,4.5-3.1C-53.6,408.2-53.6,407.3-54.2,406.7L-54.2,406.7
	L-54.2,406.7z"/>
<path id="Path_8" class="st0" d="M-31.5,387.6c-1.5-0.6-3-0.9-4.6-0.9s-3.2,0.3-4.6,0.9c-5,1.9-8.4,6.8-8.4,12.1
	c0,5.3,3.2,10.1,8.2,12.1c1.5,0.6,3.2,0.9,4.8,0.9c1.7,0,3.3-0.3,4.8-0.9c4.9-2,8.1-6.7,8.2-12.1C-23.1,394.4-26.4,389.5-31.5,387.6
	 M-36.1,409.9c-5.6,0-10.2-4.6-10.2-10.2s4.6-10.2,10.2-10.2c5.6,0,10.2,4.6,10.2,10.2C-25.9,405.4-30.5,409.9-36.1,409.9"/>
<path id="Path_9" class="st1" d="M-146.3,390.9L-146.3,390.9c3.4-0.9,3.9,2.2,2.1,4.4c-0.3,0.3-0.5,0.7-0.6,1.1
	c-0.2,0.9,0.6,1.7,0.8,2.6c0.2,1.4-0.8,2.7-2.2,2.9c-0.1,0-0.1,0-0.2,0c-2.7,0.2-4.1-3.2-3.9-5.5
	C-150.2,394-148.6,391.8-146.3,390.9"/>
<path id="Path_10" class="st2" d="M-141,398c0.3,1.3,1.4,2.3,2.8,2.4c2,0,4-2.7,2.5-4.4c-1.1-1.1-2.8-1.4-4.2-0.8
	C-140.9,395.7-141.4,396.9-141,398"/>
<path id="Path_11" class="st1" d="M-130,406.9c-1.5,1.1-3.4,1.7-5.3,1.7c-1-0.1-1.9-0.8-2.1-1.7c-0.4-1-0.2-2.1,0.5-2.9
	c1.1-1.4,2.8-3.4,4.6-4.1c1.1-0.4,2.4,0.1,3,1.1s0.9,2.1,0.9,3.3c0,0.5-0.1,0.9-0.3,1.3C-129,406.1-129.5,406.5-130,406.9"/>
<path id="Path_12" class="st3" d="M-142.8,404.1c-0.7-0.6-1.6-0.7-2.4-0.3c-1.2,0.6-1.1,2.2-0.6,3.2c0.3,1.2,1.5,1.9,2.7,1.8
	c0.8,0,1.5-0.3,2.1-0.8s0.8-1.4,0.4-2.1c-0.2-0.2-0.4-0.5-0.7-0.6C-141.7,405-142.2,404.5-142.8,404.1"/>
<path id="Path_13" class="st3" d="M-130.2,389.5c-0.1-0.2-0.2-0.5-0.4-0.7c-1.8-3-5.6-4.1-8.7-2.5c-1.3,0.7-1.9,1.7-0.9,3.1
	c1,1.3,2.7,1.6,4,2.4c0.5,0.3,1,0.6,1.4,1.1c0.2,0.2,0.3,0.5,0.5,0.7c0.7,0.8,1.9,1.1,2.9,0.7C-129.2,393.5-129.5,391.2-130.2,389.5
	"/>
<path id="Path_14" class="st3" d="M-126.2,396.7c0.6,0.9,0.5,2.1-0.4,2.7c-0.1,0.1-0.2,0.1-0.3,0.2c-1,0.3-2.1-0.2-2.5-1.2
	c0-0.1-0.1-0.2-0.1-0.4c0-1.1,0.9-1.9,1.9-1.9c0.1,0,0.3,0,0.4,0C-126.8,396.1-126.4,396.4-126.2,396.7"/>
</svg>
