<?xml version="1.0" encoding="utf-8"?>
<!-- Generator: Adobe Illustrator 25.2.3, SVG Export Plug-In . SVG Version: 6.00 Build 0)  -->
<svg version="1.1" id="Layer_1" xmlns="http://www.w3.org/2000/svg" xmlns:xlink="http://www.w3.org/1999/xlink" x="0px" y="0px"
	 viewBox="0 0 204.8 41.4" style="enable-background:new 0 0 204.8 41.4;" xml:space="preserve">
<style type="text/css">
	.st0{fill:#1A1F25;}
	.st1{fill:#CA4771;}
	.st2{fill:#99D9E5;}
	.st3{fill:#8577B4;}
</style>
<path id="Path_1" class="st0" d="M14.7,11c-0.7-0.2-1.4-0.3-2.2-0.3h-9v23.1c0,0.8,0.6,1.4,1.4,1.4s1.4-0.6,1.4-1.4v-7.9h6.2
	c4.2,0,7.6-3.4,7.6-7.6C20.1,14.9,17.9,12,14.7,11 M12.5,23.1H6.3v-9.6h6.2c2.7,0,4.8,2.2,4.8,4.8C17.3,21,15.2,23.1,12.5,23.1"/>
<path id="Path_2" class="st0" d="M35,25.9c3.8-0.5,6.7-3.7,6.7-7.6c0-3.4-2.2-6.3-5.5-7.3c-0.7-0.2-1.4-0.3-2.2-0.3h-9v23.1
	c0,0.8,0.6,1.4,1.4,1.4s1.4-0.6,1.4-1.4v-7.9h3.6l6.6,8.7c0.3,0.4,0.7,0.6,1.1,0.6c0.8,0,1.4-0.6,1.4-1.4c0-0.3-0.1-0.6-0.3-0.9
	L35,25.9z M27.9,13.5h6.2c2.7,0,4.8,2.2,4.8,4.8c0,2.7-2.2,4.8-4.8,4.8h-6.2V13.5z"/>
<path id="Path_3" class="st0" d="M77.1,9.1C73.9,5.8,69.4,4,64.8,4c-4.6,0-9,1.9-12.3,5.1c-3.2,3.2-5,7.6-5,12.1
	c0,4.5,1.8,8.8,4.9,12.1c3.2,3.3,7.7,5.2,12.4,5.2c4.7,0,9.1-1.9,12.4-5.2c3.2-3.2,4.9-7.5,4.9-12.1C82.1,16.7,80.3,12.4,77.1,9.1
	 M72.8,33.3c-2.4,1.6-5.1,2.4-8,2.4c-2.8,0-5.6-0.8-8-2.4c-4.1-2.7-6.5-7.2-6.5-12.1c0-4.9,2.5-9.5,6.6-12.1
	c2.3-1.5,5.1-2.3,7.9-2.3c2.8,0,5.5,0.8,7.9,2.3c4.1,2.7,6.6,7.2,6.6,12.1C79.3,26.1,76.8,30.7,72.8,33.3"/>
<path id="Path_4" class="st0" d="M200.1,11L200.1,11c-0.8,0-1.4,0.6-1.4,1.4v18l-12-18.5c-0.4-0.6-1-0.9-1.7-0.9c-1.1,0-2,0.9-2,2
	v20.8c0,0.8,0.6,1.4,1.4,1.4l0,0c0.8,0,1.4-0.6,1.4-1.4v-18l12,18.5c0.4,0.6,1,0.9,1.7,0.9c1.1,0,2-0.9,2-2l0,0V12.4
	C201.5,11.6,200.9,11,200.1,11"/>
<path id="Path_5" class="st0" d="M109,12.9c-0.2-1.1-1.2-1.9-2.3-1.9h0c-1,0-1.9,0.6-2.2,1.6l-4.9,14h-0.1l-4.9-14
	c-0.3-0.9-1.2-1.6-2.2-1.6c-1.1,0-2.1,0.8-2.3,1.9l-4.2,20.6c0,0.1,0,0.2,0,0.3c0,0.8,0.6,1.4,1.4,1.4c0.7,0,1.2-0.5,1.4-1.1l3.9-19
	l4.4,12.4c0.4,1.1,1.5,1.9,2.7,1.9c1.2,0,2.3-0.8,2.7-1.9l4.4-12.4l3.9,19c0.1,0.7,0.7,1.1,1.4,1.1c0.8,0,1.4-0.6,1.4-1.4
	c0-0.1,0-0.2,0-0.3L109,12.9z"/>
<path id="Path_6" class="st0" d="M120.4,11L120.4,11c-0.8,0-1.4,0.6-1.4,1.4v21.4c0,0.8,0.6,1.4,1.4,1.4l0,0c0.8,0,1.4-0.6,1.4-1.4
	V12.4C121.8,11.6,121.2,11,120.4,11"/>
<path id="Path_7" class="st0" d="M148.8,30.1c-0.6-0.5-1.4-0.4-1.9,0.1c-1.9,2-4.6,3.1-7.3,3.1c-5.6,0-10.2-4.6-10.2-10.2
	c0-0.4,0-0.8,0.1-1.3c0.6-4.5,4.1-8.1,8.6-8.8c3.1-0.5,6.3,0.5,8.6,2.7c0.5,0.5,1.3,0.5,1.9,0.1c0.6-0.5,0.7-1.4,0.2-2
	c0,0-0.1-0.1-0.1-0.1c-1.3-1.2-2.8-2.2-4.4-2.8c-1.5-0.6-3-0.9-4.6-0.9c-1.6,0-3.2,0.3-4.6,0.9c-5,1.9-8.4,6.8-8.4,12.1
	c0,5.3,3.2,10.1,8.2,12.1c1.5,0.6,3.2,0.9,4.8,0.9c1.7,0,3.3-0.3,4.8-0.9c1.7-0.7,3.2-1.7,4.5-3.1C149.4,31.6,149.4,30.7,148.8,30.1
	C148.8,30.1,148.8,30.1,148.8,30.1L148.8,30.1z"/>
<path id="Path_8" class="st0" d="M171.5,11c-1.5-0.6-3-0.9-4.6-0.9c-1.6,0-3.2,0.3-4.6,0.9c-5,1.9-8.4,6.8-8.4,12.1
	c0,5.3,3.2,10.1,8.2,12.1c1.5,0.6,3.2,0.9,4.8,0.9c1.7,0,3.3-0.3,4.8-0.9c4.9-2,8.1-6.7,8.2-12.1C179.9,17.8,176.6,12.9,171.5,11
	 M166.9,33.3c-5.6,0-10.2-4.6-10.2-10.2c0-5.6,4.6-10.2,10.2-10.2c5.6,0,10.2,4.6,10.2,10.2C177.1,28.8,172.5,33.3,166.9,33.3"/>
<path id="Path_9" class="st1" d="M56.7,14.3L56.7,14.3c3.4-0.9,3.9,2.2,2.1,4.4c-0.3,0.3-0.5,0.7-0.6,1.1c-0.2,0.9,0.6,1.7,0.8,2.6
	c0.2,1.4-0.8,2.7-2.2,2.9c-0.1,0-0.1,0-0.2,0c-2.7,0.2-4.1-3.2-3.9-5.5C52.8,17.4,54.4,15.2,56.7,14.3"/>
<path id="Path_10" class="st2" d="M62,21.4c0.3,1.3,1.4,2.3,2.8,2.4c2,0,4-2.7,2.5-4.4c-1.1-1.1-2.8-1.4-4.2-0.8
	C62.1,19.1,61.6,20.3,62,21.4"/>
<path id="Path_11" class="st1" d="M73,30.3c-1.5,1.1-3.4,1.7-5.3,1.7c-1-0.1-1.9-0.8-2.1-1.7c-0.4-1-0.2-2.1,0.5-2.9
	c1.1-1.4,2.8-3.4,4.6-4.1c1.1-0.4,2.4,0.1,3,1.1c0.6,1,0.9,2.1,0.9,3.3c0,0.5-0.1,0.9-0.3,1.3C74,29.5,73.5,29.9,73,30.3"/>
<path id="Path_12" class="st3" d="M60.2,27.5c-0.7-0.6-1.6-0.7-2.4-0.3c-1.2,0.6-1.1,2.2-0.6,3.2c0.3,1.2,1.5,1.9,2.7,1.8
	c0.8,0,1.5-0.3,2.1-0.8c0.6-0.5,0.8-1.4,0.4-2.1c-0.2-0.2-0.4-0.5-0.7-0.6C61.3,28.4,60.8,27.9,60.2,27.5"/>
<path id="Path_13" class="st3" d="M72.8,12.9c-0.1-0.2-0.2-0.5-0.4-0.7c-1.8-3-5.6-4.1-8.7-2.5c-1.3,0.7-1.9,1.7-0.9,3.1
	c1,1.3,2.7,1.6,4,2.4c0.5,0.3,1,0.6,1.4,1.1c0.2,0.2,0.3,0.5,0.5,0.7c0.7,0.8,1.9,1.1,2.9,0.7C73.8,16.9,73.5,14.6,72.8,12.9"/>
<path id="Path_14" class="st3" d="M76.8,20.1c0.6,0.9,0.5,2.1-0.4,2.7c-0.1,0.1-0.2,0.1-0.3,0.2c-1,0.3-2.1-0.2-2.5-1.2
	c0-0.1-0.1-0.2-0.1-0.4c0-1.1,0.9-1.9,1.9-1.9c0.1,0,0.3,0,0.4,0C76.2,19.5,76.6,19.8,76.8,20.1"/>
</svg>
