<svg xmlns="http://www.w3.org/2000/svg" xmlns:xlink="http://www.w3.org/1999/xlink" width="81.993" height="81.774" viewBox="0 0 81.993 81.774">
  <defs>
    <clipPath id="clip-path">
      <rect id="Rectangle_1173" data-name="Rectangle 1173" width="81.993" height="81.774" fill="#412e19" stroke="#412e19" stroke-width="1"/>
    </clipPath>
  </defs>
  <g id="Group_2305" data-name="Group 2305" transform="translate(7.358 6.239)">
    <g id="Group_2304" data-name="Group 2304" transform="translate(-7.358 -6.239)" clip-path="url(#clip-path)">
      <path id="Path_3659" data-name="Path 3659" d="M131.525,75.652a18.325,18.325,0,0,1,1.808.645q.895.372,1.738.823l.8-.408,3.175-1.619a.785.785,0,0,1,.911.145l2.52,2.52,2.52,2.52a.782.782,0,0,1,.126.937l-1.6,3.146-.408.8c.3.559.574,1.141.823,1.734s.456,1.189.645,1.808l.856.278,3.387,1.1a.776.776,0,0,1,.541.741h0v7.129a.79.79,0,0,1-.593.76L145.438,99.8l-.856.278q-.283.928-.645,1.808c-.248.593-.522,1.174-.823,1.734l.408.8,1.616,3.175a.779.779,0,0,1-.141.908l-2.52,2.52-2.52,2.52a.788.788,0,0,1-.941.13l-3.146-1.6-.8-.408q-.845.45-1.738.823a18.323,18.323,0,0,1-1.808.645l-.278.856-1.1,3.39a.785.785,0,0,1-.745.541h-7.125a.784.784,0,0,1-.76-.589l-1.086-3.342-.278-.856a18.333,18.333,0,0,1-1.808-.645q-.895-.372-1.738-.823l-.8.408-3.175,1.619a.785.785,0,0,1-.912-.145l-2.52-2.52-2.52-2.52a.781.781,0,0,1-.126-.937l1.6-3.146.411-.8q-.461-.856-.826-1.734t-.645-1.808l-.856-.278-3.387-1.1a.789.789,0,0,1-.541-.745h0V90.829a.789.789,0,0,1,.593-.76l3.338-1.086.856-.278q.284-.928.645-1.808t.826-1.734l-.411-.8-1.616-3.175a.774.774,0,0,1,.145-.908h0l2.52-2.52,2.52-2.52a.788.788,0,0,1,.941-.13l3.146,1.6.8.408q.845-.45,1.738-.823a18.335,18.335,0,0,1,1.808-.645l.278-.856,1.1-3.39a.785.785,0,0,1,.745-.541H129.4a.784.784,0,0,1,.76.589l1.086,3.342Zm1.208,2.09a17.447,17.447,0,0,0-2-.693.78.78,0,0,1-.571-.522l-.408-1.249-.923-2.846h-5.991l-.923,2.846-.408,1.249a.779.779,0,0,1-.534.511,17.815,17.815,0,0,0-2.034.7,18.293,18.293,0,0,0-1.916.934.786.786,0,0,1-.763.03l-1.171-.6-2.668-1.36-2.116,2.116-2.119,2.116,1.36,2.668.6,1.171,0,0a.77.77,0,0,1-.015.734,18.449,18.449,0,0,0-.941,1.942,17.749,17.749,0,0,0-.7,2,.782.782,0,0,1-.519.571l-1.249.4-2.846.926v5.988l2.846.926,1.249.4h0a.789.789,0,0,1,.515.537,18.134,18.134,0,0,0,1.612,3.913.783.783,0,0,1,.052.8l-.6,1.171-1.36,2.668,2.119,2.116,2.116,2.116,2.668-1.36,1.171-.6a.8.8,0,0,1,.737.015,17.748,17.748,0,0,0,1.942.948,17.454,17.454,0,0,0,2,.693.78.78,0,0,1,.571.522l.408,1.249.923,2.846h5.991l.923-2.846.408-1.249a.779.779,0,0,1,.534-.511,17.815,17.815,0,0,0,2.034-.7,18.291,18.291,0,0,0,1.916-.934.786.786,0,0,1,.763-.03l1.171.6,2.668,1.36,2.116-2.116,2.119-2.116-1.36-2.668-.6-1.171a.777.777,0,0,1,.015-.737,18.151,18.151,0,0,0,1.641-3.942.782.782,0,0,1,.519-.571l1.249-.4,2.846-.926V91.4l-2.846-.926-1.249-.4a.792.792,0,0,1-.511-.537,17.9,17.9,0,0,0-1.634-3.946.784.784,0,0,1-.03-.767l.6-1.171,1.36-2.668-2.119-2.116-2.116-2.116-2.668,1.36-1.171.6a.8.8,0,0,1-.737-.015,17.727,17.727,0,0,0-1.941-.949" transform="translate(-81.977 -55.701)" fill="#412e19" stroke="#412e19" stroke-width="1"/>
      <path id="Path_3662" data-name="Path 3662" d="M190.992,145.784a13.732,13.732,0,1,1-9.715,4.024,13.694,13.694,0,0,1,9.715-4.024m8.6,5.132a12.166,12.166,0,1,0,3.564,8.6,12.129,12.129,0,0,0-3.564-8.6" transform="translate(-147.128 -120.827)" fill="#412e19" stroke="#412e19" stroke-width="1"/>
      <path id="Path_3663" data-name="Path 3663" d="M260.781,180.908a6.028,6.028,0,0,1-.01,10.435.527.527,0,0,1-.54-.005,6.028,6.028,0,0,1,.01-10.435.527.527,0,0,1,.54.005m1.282,2.734a4.987,4.987,0,0,0-1.558-1.656,4.965,4.965,0,0,0,0,8.274,4.979,4.979,0,0,0,1.558-6.618" transform="translate(-216.643 -151.293)" fill="#412e19" stroke="#412e19" stroke-width="1"/>
      <path id="Path_3664" data-name="Path 3664" d="M287.384,250.514a4.96,4.96,0,0,0-4.569-1.071,4.969,4.969,0,0,0-3.421,3.212,4.97,4.97,0,0,0,6.791-.209,5.029,5.029,0,0,0,1.2-1.933m-1.729-2.1a6.07,6.07,0,0,1,2.684,1.538.532.532,0,0,1,.161.538,6.024,6.024,0,0,1-10.061,2.724.529.529,0,0,1-.163-.535,6.075,6.075,0,0,1,1.563-2.707,6.041,6.041,0,0,1,5.816-1.558" transform="translate(-234.927 -209.865)" fill="#412e19" stroke="#412e19" stroke-width="1"/>
      <path id="Path_3665" data-name="Path 3665" d="M279.323,228.439a.532.532,0,1,1-1.063,0V210.776a.532.532,0,1,1,1.063,0Z" transform="translate(-234.928 -176.86)" fill="#412e19" stroke="#412e19" stroke-width="1"/>
      <path id="Path_3666" data-name="Path 3666" d="M208.07,249.954a6.07,6.07,0,0,1,2.684-1.538,6.032,6.032,0,0,1,7.379,4.265.534.534,0,0,1-.163.535,6.074,6.074,0,0,1-2.684,1.541,6.034,6.034,0,0,1-5.813-1.558,6.07,6.07,0,0,1-1.566-2.707.538.538,0,0,1,.163-.538m2.958-.513a5,5,0,0,0-2,1.073,5,5,0,0,0,1.2,1.933,4.966,4.966,0,0,0,6.791.209,4.969,4.969,0,0,0-5.987-3.215" transform="translate(-173.756 -209.865)" fill="#412e19" stroke="#412e19" stroke-width="1"/>
    </g>
  </g>
</svg>
