<?xml version="1.0" encoding="utf-8"?>
<!-- Generator: Adobe Illustrator 25.4.1, SVG Export Plug-In . SVG Version: 6.00 Build 0)  -->
<svg version="1.1" id="Layer_1" xmlns="http://www.w3.org/2000/svg" xmlns:xlink="http://www.w3.org/1999/xlink" x="0px" y="0px"
	 viewBox="0 0 30 30" style="enable-background:new 0 0 30 30;" xml:space="preserve">
<style type="text/css">
	.Drop_x0020_Shadow{fill:none;}
	.Round_x0020_Corners_x0020_2_x0020_pt{fill:#FFFFFF;stroke:#000000;stroke-miterlimit:10;}
	.Live_x0020_Reflect_x0020_X{fill:none;}
	.Bevel_x0020_Soft{fill:url(#SVGID_1_);}
	.Dusk{fill:#FFFFFF;}
	.Foliage_GS{fill:#FFDD00;}
	.Pompadour_GS{fill-rule:evenodd;clip-rule:evenodd;fill:#44ADE2;}
	.st0{fill:#282832;}
</style>
<linearGradient id="SVGID_1_" gradientUnits="userSpaceOnUse" x1="-383.8392" y1="-282.5729" x2="-383.1321" y2="-281.8658">
	<stop  offset="0" style="stop-color:#DEDFE3"/>
	<stop  offset="0.1738" style="stop-color:#D8D9DD"/>
	<stop  offset="0.352" style="stop-color:#C9CACD"/>
	<stop  offset="0.5323" style="stop-color:#B4B5B8"/>
	<stop  offset="0.7139" style="stop-color:#989A9C"/>
	<stop  offset="0.8949" style="stop-color:#797C7E"/>
	<stop  offset="1" style="stop-color:#656B6C"/>
</linearGradient>
<path id="Path_36" class="st0" d="M25.5,3.5H4.5c-0.5,0-1,0.4-1,1v21.1c0,0.5,0.4,1,1,1h21.1c0.5,0,1-0.4,1-1V4.5
	C26.5,3.9,26.1,3.5,25.5,3.5z M10.3,23.1H6.9v-11h3.4V23.1z M8.6,10.6c-1.1,0-2-0.9-2-2c0-1.1,0.9-2,2-2s2,0.9,2,2v0
	C10.6,9.8,9.7,10.6,8.6,10.6z M23.1,23.1h-3.4v-5.3c0-1.3,0-2.9-1.8-2.9c-1.8,0-2.1,1.4-2.1,2.8v5.4h-3.4v-11h3.3v1.5h0
	c0.7-1.1,1.9-1.8,3.2-1.8c3.4,0,4.1,2.3,4.1,5.2L23.1,23.1L23.1,23.1z"/>
</svg>
