<?xml version="1.0" encoding="utf-8"?>
<!-- Generator: Adobe Illustrator 25.4.1, SVG Export Plug-In . SVG Version: 6.00 Build 0)  -->
<svg version="1.1" id="Layer_1" xmlns="http://www.w3.org/2000/svg" xmlns:xlink="http://www.w3.org/1999/xlink" x="0px" y="0px"
	 viewBox="0 0 50 60" style="enable-background:new 0 0 50 60;" xml:space="preserve">
<style type="text/css">
	.Drop_x0020_Shadow{fill:none;}
	.Round_x0020_Corners_x0020_2_x0020_pt{fill:#FFFFFF;stroke:#000000;stroke-miterlimit:10;}
	.Live_x0020_Reflect_x0020_X{fill:none;}
	.Bevel_x0020_Soft{fill:url(#SVGID_1_);}
	.Dusk{fill:#FFFFFF;}
	.Foliage_GS{fill:#FFDD00;}
	.Pompadour_GS{fill-rule:evenodd;clip-rule:evenodd;fill:#44ADE2;}
	.st0{fill:#A67C52;}
	.st1{fill:#754D25;}
	.st2{fill:#FFFFFF;}
	.st3{opacity:0.2;enable-background:new    ;}
	.st4{fill:#8C6339;}
	.st5{fill:#C59B6C;}
	.st6{fill:#544741;}
	.st7{fill:#FEDE18;}
	.st8{fill:#4C7C47;}
	.st9{fill:#84C772;}
	.st10{fill:#5B9E57;}
</style>
<linearGradient id="SVGID_1_" gradientUnits="userSpaceOnUse" x1="-375.8492" y1="-270.0854" x2="-375.1422" y2="-269.3783">
	<stop  offset="0" style="stop-color:#DEDFE3"/>
	<stop  offset="0.1738" style="stop-color:#D8D9DD"/>
	<stop  offset="0.352" style="stop-color:#C9CACD"/>
	<stop  offset="0.5323" style="stop-color:#B4B5B8"/>
	<stop  offset="0.7139" style="stop-color:#989A9C"/>
	<stop  offset="0.8949" style="stop-color:#797C7E"/>
	<stop  offset="1" style="stop-color:#656B6C"/>
</linearGradient>
<g id="Group_6669" transform="translate(0 0)">
	<g id="Group_6608" transform="translate(0.436 5.09)">
		<g id="Group_6607" transform="translate(0 0)">
			<path id="Path_17797" class="st0" d="M8.4,35.3L7.8,18.5l21.9,11.8l0.6,16.8L8.4,35.3z"/>
			<path id="Path_17798" class="st1" d="M29.6,30.3l13.9-9l0.6,16.8l-13.9,9L29.6,30.3z"/>
			<path id="Path_17799" class="st2" d="M7.8,18.5l13.9-9l21.9,11.8l-13.9,9L7.8,18.5z"/>
			<path id="Path_17800" class="st3" d="M8,24.5l21.8,11.6l0-0.8L8,23.7L8,24.5z"/>
			<path id="Path_17801" class="st0" d="M6.9,23.1l23,12.3l-0.2-5l-23-12.2L6.9,23.1z"/>
			<path id="Path_17802" class="st4" d="M29.8,35.3l14.6-9.6l-0.2-4.7l-14.6,9.4L29.8,35.3z"/>
			<path id="Path_17803" class="st5" d="M6.7,18.1l14.8-9.7l22.8,12.5l-14.6,9.4L6.7,18.1z"/>
			<path id="Path_17804" class="st6" d="M8.1,18.2l13.7-8.9l21,11.6l-13.5,8.6L8.1,18.2z"/>
			<path id="Path_17805" class="st3" d="M29.8,35.3l13.9-9.2l0,0.8l-13.9,9.2L29.8,35.3z"/>
		</g>
	</g>
	<g id="Group_6614" transform="translate(12 0)">
		<g id="Group_6613" transform="translate(0)">
			<g id="Group_6612">
				<g id="Group_6609" transform="translate(1.854)">
					<ellipse id="Ellipse_258" class="st7" cx="10.1" cy="18.4" rx="2.5" ry="3.1"/>
					<path id="Path_17806" class="st8" d="M10.9,15.5c0.8-0.8,1.5-1.6,2.2-2.5l-2.2,1.3l1.5-3.7l-2.2,2.6V8.4l-0.8,4.5l-2.8-2.7
						l2.2,3.2L7,12.2l1.9,2.5l-2-1.1l2.2,1.9L10.9,15.5z"/>
				</g>
				<g id="Group_6610" transform="translate(0.762 0.773)">
					<path id="Path_17807" class="st8" d="M10.7,24.4c-0.3-2.3-1.7-4-2.8-6.1c-0.6-1-1-2.2-1.2-3.4c-0.1-0.6,0-1.2,0.2-1.8
						c0.2-0.7,0.9-1.1,1.6-0.9c-0.5,0.1-1,0.5-0.9,1.1c0,0.5,0,1,0.2,1.6c0.3,1,0.8,2,1.3,3c0.6,1,1.1,2.1,1.5,3.1
						C11,22,11.1,23.2,10.7,24.4z"/>
					<path id="Path_17808" class="st9" d="M9.2,25.3c0.7-0.4,1.4-0.9,1.9-1.5c0.5-0.6,1-1.2,1.3-1.9c0.8-1.3,1.3-2.8,1.5-4.3
						c0.3-1.5,0-3-0.7-4.3c-0.8-1.3-1.7-2.8-2.4-4.2c1.2,1.2,2.3,2.4,3.3,3.7c0.5,0.7,0.9,1.5,1,2.4c0.2,0.8,0.2,1.7,0.1,2.6
						c-0.3,1.7-1,3.2-2,4.6C12.3,23.8,10.8,24.8,9.2,25.3z"/>
					<path id="Path_17809" class="st10" d="M10,25.2c0.8-1.4,1.1-3,0.9-4.7c-0.2-1.5-1.1-2.9-1.6-4.6C9,15,8.9,14.1,9.1,13.2
						c0.2-0.9,0.7-1.7,1.4-2.4c1.4-1.2,3-2,4.8-2.4c-1.5,0.7-2.9,1.8-4,3c-1,1.1-1.3,2.8-0.7,4.2c0.4,1.5,1.4,3.1,1.4,4.9
						C12,22.3,11.2,24,10,25.2z"/>
				</g>
				<g id="Group_6611" transform="translate(0 1.026)">
					<path id="Path_17810" class="st8" d="M10.5,24.3c0.9-2.4,2.9-3.9,4.8-5.8c1-0.9,1.7-2.1,2.2-3.3c0.2-0.6,0.4-1.3,0.3-2
						c0-0.7-0.7-1.5-1.4-1.4c0.6,0.2,0.9,0.8,0.7,1.4c-0.1,0.6-0.3,1.1-0.6,1.6c-0.6,1-1.4,2-2.3,2.8c-0.9,0.9-1.8,1.9-2.5,3
						C10.9,21.6,10.5,22.9,10.5,24.3z"/>
					<path id="Path_17811" class="st9" d="M12.4,23.3c-0.6-0.2-1.2-0.5-1.7-1c-0.5-0.5-0.9-1-1.3-1.5c-0.7-1.1-1.2-2.4-1.5-3.7
						c-0.3-1.4-0.1-2.9,0.5-4.2c0.6-1.4,1.4-3,1.9-4.5c-1,1.4-1.9,2.8-2.7,4.3c-0.4,0.8-0.7,1.6-0.8,2.5c-0.1,0.8-0.1,1.6,0,2.4
						c0.3,1.4,0.9,2.8,1.9,3.9C9.6,22.6,10.9,23.3,12.4,23.3z"/>
					<path id="Path_17812" class="st10" d="M10.4,24c0.8-1.4,1.9-2.5,3.2-3.3c1.1-0.7,2.3-0.7,3.6-1.1c0.8-0.3,1.4-0.7,2-1.3
						c0.6-0.7,1.2-1.6,1.5-2.5c0.6-1.7,0.9-3.6,0.9-5.4c-0.3,1.8-0.8,3.5-1.5,5.1c-0.5,1.3-1.6,2.4-2.9,2.9
						c-1.1,0.4-2.4,0.5-3.7,1.5C12.1,20.9,11,22.4,10.4,24z"/>
				</g>
			</g>
		</g>
	</g>
	<g id="Group_6620" transform="translate(7.806 2.213)">
		<g id="Group_6619" transform="translate(0 0)">
			<g id="Group_6618">
				<g id="Group_6615" transform="translate(0.852)">
					<path id="Path_17813" class="st7" d="M8.8,18.7c0.1,1.5,1.4,2.7,3,2.6c1.5-0.4,2.4-1.9,2-3.4c-0.1-1.5-1.4-2.7-3-2.6
						C9.4,15.7,8.5,17.2,8.8,18.7z"/>
					<path id="Path_17814" class="st8" d="M11.6,15.4c0.7-0.9,1.3-1.9,1.8-2.9l-2,1.6l1-3.9l-1.8,3L9.9,8.4L9.9,13l-3.2-2.2l2.7,2.8
						l-2.1-0.9l2.3,2.2l-2.1-0.8l2.4,1.5L11.6,15.4z"/>
				</g>
				<g id="Group_6616" transform="translate(0.47 0.134)">
					<path id="Path_17815" class="st8" d="M12.2,24.9c-0.6-2.2-2.3-3.7-3.7-5.6c-0.8-0.9-1.3-2-1.7-3.2c-0.2-0.6-0.2-1.2-0.1-1.8
						c0.1-0.6,0.7-1.3,1.4-1.2c-0.5,0.1-0.9,0.7-0.8,1.2c0.1,0.5,0.2,1,0.4,1.5c0.5,1,1.1,1.9,1.8,2.7c0.7,0.9,1.4,1.9,2,2.9
						C12.2,22.5,12.4,23.7,12.2,24.9z"/>
					<path id="Path_17816" class="st9" d="M10.8,26c0.7-0.5,1.2-1.1,1.6-1.8c0.4-0.7,0.8-1.4,1-2.1c0.6-1.4,0.9-2.9,0.9-4.5
						c0-1.5-0.4-2.9-1.3-4.1c-1-1.2-2.1-2.5-3-3.8c1.3,1,2.6,2,3.8,3.2c0.6,0.6,1.1,1.4,1.4,2.2c0.3,0.8,0.4,1.7,0.4,2.5
						c0,1.7-0.5,3.4-1.3,4.9C13.7,24,12.4,25.3,10.8,26z"/>
					<path id="Path_17817" class="st10" d="M11.6,25.8c0.6-1.5,0.7-3.2,0.2-4.8c-0.4-1.5-1.5-2.7-2.3-4.3C9.1,15.9,8.9,15,9,14.1
						c0.1-0.9,0.4-1.8,1-2.6c1.2-1.4,2.7-2.5,4.4-3.1c-1.4,1-2.6,2.2-3.5,3.6c-0.8,1.3-0.9,2.9-0.1,4.3c0.7,1.4,1.8,2.8,2.1,4.6
						C13.1,22.6,12.7,24.4,11.6,25.8z"/>
				</g>
				<g id="Group_6617" transform="translate(0 1.292)">
					<path id="Path_17818" class="st8" d="M11.8,24.1c0.6-2.5,2.3-4.3,3.8-6.5c0.8-1.1,1.4-2.3,1.7-3.6c0.1-0.7,0.2-1.4,0-2
						c-0.1-0.7-0.9-1.4-1.6-1.1c0.6,0.1,1,0.7,0.9,1.2c0,0.6-0.2,1.2-0.4,1.7c-0.5,1.1-1.1,2.2-1.8,3.2c-0.8,1.1-1.5,2.2-2,3.3
						C11.7,21.4,11.5,22.7,11.8,24.1z"/>
					<path id="Path_17819" class="st9" d="M13.5,22.8c-0.7-0.1-1.3-0.3-1.8-0.7c-0.5-0.4-1-0.8-1.5-1.3c-0.9-1-1.6-2.2-2.1-3.4
						C7.6,16,7.6,14.6,8,13.2c0.4-1.5,0.9-3.2,1.2-4.8C8.4,9.9,7.7,11.5,7.1,13c-0.3,0.8-0.4,1.7-0.5,2.6c0,0.8,0.1,1.6,0.4,2.4
						c0.5,1.4,1.3,2.6,2.5,3.6C10.6,22.6,12,23,13.5,22.8z"/>
					<path id="Path_17820" class="st10" d="M11.6,23.8c0.6-1.5,1.5-2.8,2.6-3.8c1-0.9,2.1-1,3.4-1.7c0.7-0.4,1.3-1,1.8-1.6
						c0.5-0.8,0.9-1.8,1.1-2.7c0.4-1.8,0.4-3.7,0.1-5.5c0,1.8-0.3,3.5-0.7,5.3c-0.3,1.4-1.2,2.6-2.4,3.3c-1.1,0.6-2.3,0.9-3.5,2.1
						C12.8,20.5,12,22.1,11.6,23.8z"/>
				</g>
			</g>
		</g>
	</g>
	<g id="Group_6626" transform="translate(0 1.138)">
		<g id="Group_6625" transform="translate(0)">
			<g id="Group_6624">
				<g id="Group_6621" transform="translate(0 4.218)">
					<path id="Path_17821" class="st7" d="M12.6,17.7c0.9,1.2,2.6,1.5,3.8,0.6c0,0,0,0,0,0c1-1.1,1-2.9-0.1-4
						c-0.9-1.2-2.6-1.5-3.8-0.6c0,0,0,0,0,0C11.5,14.8,11.5,16.6,12.6,17.7z"/>
					<path id="Path_17822" class="st8" d="M13.3,13.3c0.1-1.1,0.1-2.3,0-3.4l-0.8,2.4l-1.2-3.8l0.1,3.5L8.2,8.4l2.4,3.9l-3.9-0.1
						l3.7,0.9l-2.2,0.3l3.1,0.6l-2.2,0.5l2.9,0L13.3,13.3z"/>
				</g>
				<g id="Group_6622" transform="translate(1.562 2.108)">
					<path id="Path_17823" class="st8" d="M17,23.5c-1.7-1.6-3.9-1.9-6.1-2.6c-1.1-0.4-2.2-1-3.1-1.7c-0.5-0.4-0.8-0.9-1-1.5
						c-0.3-0.6-0.1-1.4,0.6-1.8c-0.4,0.4-0.4,1,0,1.4c0.3,0.4,0.7,0.8,1.1,1c0.9,0.6,1.9,1,2.9,1.3c1.1,0.3,2.2,0.8,3.2,1.3
						C15.7,21.5,16.5,22.4,17,23.5z"/>
					<path id="Path_17824" class="st9" d="M16.4,25.2c0.3-0.8,0.4-1.6,0.4-2.4c0-0.8-0.1-1.6-0.2-2.3c-0.3-1.5-0.8-2.9-1.6-4.3
						c-0.7-1.3-1.9-2.2-3.3-2.7c-1.4-0.5-3-1-4.5-1.6c1.6,0.1,3.3,0.3,4.9,0.6c0.8,0.2,1.6,0.6,2.3,1.1c0.7,0.5,1.3,1.2,1.7,1.9
						c0.9,1.5,1.4,3.1,1.5,4.8C17.7,22,17.3,23.7,16.4,25.2z"/>
					<path id="Path_17825" class="st10" d="M16.9,24.6c-0.3-1.6-1.1-3-2.3-4.1c-1.1-1-2.7-1.5-4.2-2.4C9.6,17.6,9,17,8.5,16.2
						c-0.4-0.9-0.6-1.8-0.5-2.7c0.2-1.8,1-3.6,2.1-5c-0.7,1.6-1,3.3-1.1,5c0,1.5,0.8,2.9,2.2,3.6c1.3,0.8,3,1.4,4.2,2.8
						C16.5,21.1,17.1,22.9,16.9,24.6z"/>
				</g>
				<g id="Group_6623" transform="translate(0.842)">
					<path id="Path_17826" class="st8" d="M17.1,26.4c-0.8-2.4-0.3-4.9-0.2-7.5c0.1-1.3-0.1-2.7-0.5-4c-0.2-0.6-0.6-1.2-1.1-1.7
						c-0.5-0.6-1.3-0.6-1.9-0.1c0,0,0,0,0,0c0.5-0.2,1.2,0,1.4,0.5c0,0,0,0,0,0c0.3,0.5,0.5,1.1,0.6,1.6c0.2,1.2,0.2,2.4,0.1,3.7
						c-0.1,1.3-0.1,2.6,0,3.9C15.6,24.2,16.2,25.4,17.1,26.4z"/>
					<path id="Path_17827" class="st9" d="M17.9,24.4c-0.6,0.3-1.3,0.4-1.9,0.4c-0.6,0-1.3-0.1-1.9-0.3c-1.3-0.3-2.5-0.9-3.5-1.8
						c-1.1-0.9-1.9-2.1-2.4-3.5c-0.5-1.5-0.9-3.2-1.5-4.7C6.8,16.3,7,18,7.4,19.6c0.2,0.9,0.5,1.7,1,2.4c0.4,0.7,1,1.3,1.6,1.8
						c1.1,0.9,2.5,1.5,3.9,1.7C15.3,25.8,16.8,25.4,17.9,24.4z"/>
					<path id="Path_17828" class="st10" d="M16.8,26.3c-0.3-1.6-0.2-3.2,0.2-4.7c0.4-1.3,1.3-2.1,2-3.3c0.4-0.7,0.6-1.5,0.6-2.3
						c0-1-0.2-2-0.5-2.9c-0.6-1.7-1.6-3.3-2.8-4.7c0.9,1.5,1.6,3.1,2.2,4.8c0.5,1.4,0.4,2.9-0.3,4.1c-0.6,1.1-1.5,2-1.8,3.6
						C16,22.8,16.2,24.6,16.8,26.3z"/>
				</g>
			</g>
		</g>
	</g>
	<g id="Group_6632" transform="translate(5.101 3.958)">
		<g id="Group_6631">
			<g id="Group_6630">
				<g id="Group_6627" transform="translate(0 4.218)">
					
						<ellipse id="Ellipse_259" transform="matrix(0.7909 -0.6119 0.6119 0.7909 -6.7459 12.2385)" class="st7" cx="14.5" cy="16" rx="2.5" ry="3"/>
					<path id="Path_17829" class="st8" d="M13.3,13.3c0.1-1.1,0.1-2.3,0-3.4l-0.8,2.4l-1.2-3.8l0.1,3.5L8.2,8.4l2.4,3.9l-3.9-0.1
						l3.7,0.9l-2.2,0.3l3.1,0.6l-2.2,0.5l2.9,0L13.3,13.3z"/>
				</g>
				<g id="Group_6628" transform="translate(1.562 2.108)">
					<path id="Path_17830" class="st8" d="M17,23.5c-1.7-1.6-3.9-1.9-6.1-2.6c-1.1-0.4-2.2-1-3.1-1.7c-0.5-0.4-0.8-0.9-1-1.5
						c-0.3-0.6-0.1-1.4,0.6-1.8c-0.4,0.4-0.4,1,0,1.4c0.3,0.4,0.7,0.8,1.1,1c0.9,0.6,1.9,1,2.9,1.3c1.1,0.3,2.2,0.8,3.2,1.3
						C15.7,21.5,16.5,22.4,17,23.5z"/>
					<path id="Path_17831" class="st9" d="M16.4,25.2c0.3-0.8,0.4-1.6,0.4-2.4c0-0.8-0.1-1.6-0.2-2.3c-0.3-1.5-0.8-2.9-1.6-4.3
						c-0.7-1.3-1.9-2.2-3.3-2.7c-1.4-0.5-3-1-4.5-1.6c1.6,0.1,3.3,0.3,4.9,0.6c0.8,0.2,1.6,0.6,2.3,1.1c0.7,0.5,1.3,1.2,1.7,1.9
						c0.9,1.5,1.4,3.1,1.5,4.8C17.7,22,17.3,23.7,16.4,25.2z"/>
					<path id="Path_17832" class="st10" d="M16.9,24.6c-0.3-1.6-1.1-3-2.3-4.1c-1.1-1-2.7-1.5-4.2-2.4C9.6,17.6,9,17,8.5,16.2
						c-0.4-0.9-0.6-1.8-0.5-2.7c0.2-1.8,1-3.6,2.1-5c-0.7,1.6-1,3.3-1.1,5c0,1.5,0.8,2.9,2.2,3.6c1.3,0.8,3,1.4,4.2,2.8
						C16.5,21.1,17.1,22.9,16.9,24.6z"/>
				</g>
				<g id="Group_6629" transform="translate(0.842)">
					<path id="Path_17833" class="st8" d="M17.1,26.4c-0.8-2.4-0.3-4.9-0.2-7.5c0.1-1.3-0.1-2.7-0.5-4c-0.2-0.6-0.6-1.2-1.1-1.7
						c-0.5-0.6-1.3-0.6-1.9-0.1c0,0,0,0,0,0c0.5-0.2,1.2,0,1.4,0.5c0,0,0,0,0,0c0.3,0.5,0.5,1.1,0.6,1.6c0.2,1.2,0.2,2.4,0.1,3.7
						c-0.1,1.3-0.1,2.6,0,3.9C15.6,24.2,16.2,25.4,17.1,26.4z"/>
					<path id="Path_17834" class="st9" d="M17.9,24.4c-0.6,0.3-1.3,0.4-1.9,0.4c-0.6,0-1.3-0.1-1.9-0.3c-1.3-0.3-2.5-0.9-3.5-1.8
						c-1.1-0.9-1.9-2.1-2.4-3.5c-0.5-1.5-0.9-3.2-1.5-4.7C6.8,16.3,7,18,7.4,19.6c0.2,0.9,0.5,1.7,1,2.4c0.4,0.7,1,1.3,1.6,1.8
						c1.1,0.9,2.5,1.5,3.9,1.7C15.3,25.8,16.8,25.4,17.9,24.4z"/>
					<path id="Path_17835" class="st10" d="M16.8,26.3c-0.3-1.6-0.2-3.2,0.2-4.7c0.4-1.3,1.3-2.1,2-3.3c0.4-0.7,0.6-1.5,0.6-2.3
						c0-1-0.2-2-0.5-2.9c-0.6-1.7-1.6-3.3-2.8-4.7c0.9,1.5,1.6,3.1,2.2,4.8c0.5,1.4,0.4,2.9-0.3,4.1c-0.6,1.1-1.5,2-1.8,3.6
						C16,22.8,16.2,24.6,16.8,26.3z"/>
				</g>
			</g>
		</g>
	</g>
	<g id="Group_6638" transform="translate(10.24 0.383)">
		<g id="Group_6637" transform="translate(0 0)">
			<g id="Group_6636">
				<g id="Group_6633" transform="translate(0 4.218)">
					
						<ellipse id="Ellipse_260" transform="matrix(0.7907 -0.6122 0.6122 0.7907 -6.747 12.2464)" class="st7" cx="14.5" cy="16" rx="2.5" ry="3"/>
					<path id="Path_17836" class="st8" d="M13.3,13.3c0.1-1.1,0.1-2.3,0-3.4l-0.8,2.4l-1.2-3.8l0.1,3.5L8.2,8.4l2.4,3.9l-3.9-0.1
						l3.7,0.9l-2.2,0.3l3.1,0.6l-2.2,0.5l2.9,0L13.3,13.3z"/>
				</g>
				<g id="Group_6634" transform="translate(1.562 2.108)">
					<path id="Path_17837" class="st8" d="M17,23.5c-1.7-1.6-3.9-1.9-6.1-2.6c-1.1-0.4-2.2-1-3.1-1.7c-0.5-0.4-0.8-0.9-1-1.5
						c-0.3-0.6-0.1-1.4,0.6-1.8c-0.4,0.4-0.4,1,0,1.4c0.3,0.4,0.7,0.8,1.1,1c0.9,0.6,1.9,1,2.9,1.3c1.1,0.3,2.2,0.8,3.2,1.3
						C15.7,21.5,16.5,22.4,17,23.5z"/>
					<path id="Path_17838" class="st9" d="M16.4,25.2c0.3-0.8,0.4-1.6,0.4-2.4c0-0.8-0.1-1.6-0.2-2.3c-0.3-1.5-0.8-2.9-1.6-4.3
						c-0.7-1.3-1.9-2.2-3.3-2.7c-1.4-0.5-3-1-4.5-1.6c1.6,0.1,3.3,0.3,4.9,0.6c0.8,0.2,1.6,0.6,2.3,1.1c0.7,0.5,1.3,1.2,1.7,1.9
						c0.9,1.5,1.4,3.1,1.5,4.8C17.7,22,17.3,23.7,16.4,25.2z"/>
					<path id="Path_17839" class="st10" d="M16.9,24.6c-0.3-1.6-1.1-3-2.3-4.1c-1.1-1-2.7-1.5-4.2-2.4C9.6,17.6,9,17,8.5,16.2
						c-0.4-0.9-0.6-1.8-0.5-2.7c0.2-1.8,1-3.6,2.1-5c-0.7,1.6-1,3.3-1.1,5c0,1.5,0.8,2.9,2.2,3.6c1.3,0.8,3,1.4,4.2,2.8
						C16.5,21.1,17.1,22.9,16.9,24.6z"/>
				</g>
				<g id="Group_6635" transform="translate(0.842)">
					<path id="Path_17840" class="st8" d="M17.1,26.4c-0.8-2.4-0.3-4.9-0.2-7.5c0.1-1.3-0.1-2.7-0.5-4c-0.2-0.6-0.6-1.2-1.1-1.7
						c-0.5-0.6-1.3-0.6-1.9-0.1c0,0,0,0,0,0c0.5-0.2,1.2,0,1.4,0.5c0,0,0,0,0,0c0.3,0.5,0.5,1.1,0.6,1.6c0.2,1.2,0.2,2.4,0.1,3.7
						c-0.1,1.3-0.1,2.6,0,3.9C15.6,24.2,16.2,25.4,17.1,26.4z"/>
					<path id="Path_17841" class="st9" d="M17.9,24.4c-0.6,0.3-1.3,0.4-1.9,0.4c-0.6,0-1.3-0.1-1.9-0.3c-1.3-0.3-2.5-0.9-3.5-1.8
						c-1.1-0.9-1.9-2.1-2.4-3.5c-0.5-1.5-0.9-3.2-1.5-4.7C6.8,16.3,7,18,7.4,19.6c0.2,0.9,0.5,1.7,1,2.4c0.4,0.7,1,1.3,1.6,1.8
						c1.1,0.9,2.5,1.5,3.9,1.7C15.3,25.8,16.8,25.4,17.9,24.4z"/>
					<path id="Path_17842" class="st10" d="M16.8,26.3c-0.3-1.6-0.2-3.2,0.2-4.7c0.4-1.3,1.3-2.1,2-3.3c0.4-0.7,0.6-1.5,0.6-2.3
						c0-1-0.2-2-0.5-2.9c-0.6-1.7-1.6-3.3-2.8-4.7c0.9,1.5,1.6,3.1,2.2,4.8c0.5,1.4,0.4,2.9-0.3,4.1c-0.6,1.1-1.5,2-1.8,3.6
						C16,22.8,16.2,24.6,16.8,26.3z"/>
				</g>
			</g>
		</g>
	</g>
	<g id="Group_6644" transform="translate(8.743 5.059)">
		<g id="Group_6643" transform="translate(0)">
			<g id="Group_6642">
				<g id="Group_6639" transform="translate(0 4.218)">
					<path id="Path_17843" class="st7" d="M12.6,17.7c0.9,1.2,2.6,1.5,3.8,0.6c0,0,0,0,0,0c1-1.1,1-2.9-0.1-4
						c-0.9-1.2-2.6-1.5-3.8-0.6c0,0,0,0,0,0C11.5,14.8,11.5,16.6,12.6,17.7z"/>
					<path id="Path_17844" class="st8" d="M13.3,13.3c0.1-1.1,0.1-2.3,0-3.4l-0.8,2.4l-1.2-3.8l0.1,3.5L8.2,8.4l2.4,3.9l-3.9-0.1
						l3.7,0.9l-2.2,0.3l3.1,0.6l-2.2,0.5l2.9,0L13.3,13.3z"/>
				</g>
				<g id="Group_6640" transform="translate(1.562 2.108)">
					<path id="Path_17845" class="st8" d="M17,23.5c-1.7-1.6-3.9-1.9-6.1-2.6c-1.1-0.4-2.2-1-3.1-1.7c-0.5-0.4-0.8-0.9-1-1.5
						c-0.3-0.6-0.1-1.4,0.6-1.8c-0.4,0.4-0.4,1,0,1.4c0.3,0.4,0.7,0.8,1.1,1c0.9,0.6,1.9,1,2.9,1.3c1.1,0.3,2.2,0.8,3.2,1.3
						C15.7,21.5,16.5,22.4,17,23.5z"/>
					<path id="Path_17846" class="st9" d="M16.4,25.2c0.3-0.8,0.4-1.6,0.4-2.4c0-0.8-0.1-1.6-0.2-2.3c-0.3-1.5-0.8-2.9-1.6-4.3
						c-0.7-1.3-1.9-2.2-3.3-2.7c-1.4-0.5-3-1-4.5-1.6c1.6,0.1,3.3,0.3,4.9,0.6c0.8,0.2,1.6,0.6,2.3,1.1c0.7,0.5,1.3,1.2,1.7,1.9
						c0.9,1.5,1.4,3.1,1.5,4.8C17.7,22,17.3,23.7,16.4,25.2z"/>
					<path id="Path_17847" class="st10" d="M16.9,24.6c-0.3-1.6-1.1-3-2.3-4.1c-1.1-1-2.7-1.5-4.2-2.4C9.6,17.6,9,17,8.5,16.2
						c-0.4-0.9-0.6-1.8-0.5-2.7c0.2-1.8,1-3.6,2.1-5c-0.7,1.6-1,3.3-1.1,5c0,1.5,0.8,2.9,2.2,3.6c1.3,0.8,3,1.4,4.2,2.8
						C16.5,21.1,17.1,22.9,16.9,24.6z"/>
				</g>
				<g id="Group_6641" transform="translate(0.842)">
					<path id="Path_17848" class="st8" d="M17.1,26.4c-0.8-2.4-0.3-4.9-0.2-7.5c0.1-1.3-0.1-2.7-0.5-4c-0.2-0.6-0.6-1.2-1.1-1.7
						c-0.5-0.6-1.3-0.6-1.9-0.1c0,0,0,0,0,0c0.5-0.2,1.2,0,1.4,0.5c0,0,0,0,0,0c0.3,0.5,0.5,1.1,0.6,1.6c0.2,1.2,0.2,2.4,0.1,3.7
						c-0.1,1.3-0.1,2.6,0,3.9C15.6,24.2,16.2,25.4,17.1,26.4z"/>
					<path id="Path_17849" class="st9" d="M17.9,24.4c-0.6,0.3-1.3,0.4-1.9,0.4c-0.6,0-1.3-0.1-1.9-0.3c-1.3-0.3-2.5-0.9-3.5-1.8
						c-1.1-0.9-1.9-2.1-2.4-3.5c-0.5-1.5-0.9-3.2-1.5-4.7C6.8,16.3,7,18,7.4,19.6c0.2,0.9,0.5,1.7,1,2.4c0.4,0.7,1,1.3,1.6,1.8
						c1.1,0.9,2.5,1.5,3.9,1.7C15.3,25.8,16.8,25.4,17.9,24.4z"/>
					<path id="Path_17850" class="st10" d="M16.8,26.3c-0.3-1.6-0.2-3.2,0.2-4.7c0.4-1.3,1.3-2.1,2-3.3c0.4-0.7,0.6-1.5,0.6-2.3
						c0-1-0.2-2-0.5-2.9c-0.6-1.7-1.6-3.3-2.8-4.7c0.9,1.5,1.6,3.1,2.2,4.8c0.5,1.4,0.4,2.9-0.3,4.1c-0.6,1.1-1.5,2-1.8,3.6
						C16,22.8,16.2,24.6,16.8,26.3z"/>
				</g>
			</g>
		</g>
	</g>
	<g id="Group_6650" transform="translate(12.55 6.777)">
		<g id="Group_6649" transform="translate(0 0)">
			<g id="Group_6648">
				<g id="Group_6645" transform="translate(0 4.218)">
					
						<ellipse id="Ellipse_261" transform="matrix(0.7907 -0.6122 0.6122 0.7907 -6.747 12.246)" class="st7" cx="14.5" cy="16" rx="2.5" ry="3"/>
					<path id="Path_17851" class="st8" d="M13.3,13.3c0.1-1.1,0.1-2.3,0-3.4l-0.8,2.4l-1.2-3.8l0.1,3.5L8.2,8.4l2.4,3.9l-3.9-0.1
						l3.7,0.9l-2.2,0.3l3.1,0.6l-2.2,0.5l2.9,0L13.3,13.3z"/>
				</g>
				<g id="Group_6646" transform="translate(1.562 2.108)">
					<path id="Path_17852" class="st8" d="M17,23.5c-1.7-1.6-3.9-1.9-6.1-2.6c-1.1-0.4-2.2-1-3.1-1.7c-0.5-0.4-0.8-0.9-1-1.5
						c-0.3-0.6-0.1-1.4,0.6-1.8c-0.4,0.4-0.4,1,0,1.4c0.3,0.4,0.7,0.8,1.1,1c0.9,0.6,1.9,1,2.9,1.3c1.1,0.3,2.2,0.8,3.2,1.3
						C15.7,21.5,16.5,22.4,17,23.5z"/>
					<path id="Path_17853" class="st9" d="M16.4,25.2c0.3-0.8,0.4-1.6,0.4-2.4c0-0.8-0.1-1.6-0.2-2.3c-0.3-1.5-0.8-2.9-1.6-4.3
						c-0.7-1.3-1.9-2.2-3.3-2.7c-1.4-0.5-3-1-4.5-1.6c1.6,0.1,3.3,0.3,4.9,0.6c0.8,0.2,1.6,0.6,2.3,1.1c0.7,0.5,1.3,1.2,1.7,1.9
						c0.9,1.5,1.4,3.1,1.5,4.8C17.7,22,17.3,23.7,16.4,25.2z"/>
					<path id="Path_17854" class="st10" d="M16.9,24.6c-0.3-1.6-1.1-3-2.3-4.1c-1.1-1-2.7-1.5-4.2-2.4C9.6,17.6,9,17,8.5,16.2
						c-0.4-0.9-0.6-1.8-0.5-2.7c0.2-1.8,1-3.6,2.1-5c-0.7,1.6-1,3.3-1.1,5c0,1.5,0.8,2.9,2.2,3.6c1.3,0.8,3,1.4,4.2,2.8
						C16.5,21.1,17.1,22.9,16.9,24.6z"/>
				</g>
				<g id="Group_6647" transform="translate(0.842)">
					<path id="Path_17855" class="st8" d="M17.1,26.4c-0.8-2.4-0.3-4.9-0.2-7.5c0.1-1.3-0.1-2.7-0.5-4c-0.2-0.6-0.6-1.2-1.1-1.7
						c-0.5-0.6-1.3-0.6-1.9-0.1c0,0,0,0,0,0c0.5-0.2,1.2,0,1.4,0.5c0,0,0,0,0,0c0.3,0.5,0.5,1.1,0.6,1.6c0.2,1.2,0.2,2.4,0.1,3.7
						c-0.1,1.3-0.1,2.6,0,3.9C15.6,24.2,16.2,25.4,17.1,26.4z"/>
					<path id="Path_17856" class="st9" d="M17.9,24.4c-0.6,0.3-1.3,0.4-1.9,0.4c-0.6,0-1.3-0.1-1.9-0.3c-1.3-0.3-2.5-0.9-3.5-1.8
						c-1.1-0.9-1.9-2.1-2.4-3.5c-0.5-1.5-0.9-3.2-1.5-4.7C6.8,16.3,7,18,7.4,19.6c0.2,0.9,0.5,1.7,1,2.4c0.4,0.7,1,1.3,1.6,1.8
						c1.1,0.9,2.5,1.5,3.9,1.7C15.3,25.8,16.8,25.4,17.9,24.4z"/>
					<path id="Path_17857" class="st10" d="M16.8,26.3c-0.3-1.6-0.2-3.2,0.2-4.7c0.4-1.3,1.3-2.1,2-3.3c0.4-0.7,0.6-1.5,0.6-2.3
						c0-1-0.2-2-0.5-2.9c-0.6-1.7-1.6-3.3-2.8-4.7c0.9,1.5,1.6,3.1,2.2,4.8c0.5,1.4,0.4,2.9-0.3,4.1c-0.6,1.1-1.5,2-1.8,3.6
						C16,22.8,16.2,24.6,16.8,26.3z"/>
				</g>
			</g>
		</g>
	</g>
	<g id="Group_6656" transform="translate(15.31 3.404)">
		<g id="Group_6655" transform="translate(0 0)">
			<g id="Group_6654">
				<g id="Group_6651" transform="translate(0 4.218)">
					<path id="Path_17858" class="st7" d="M12.6,17.7c0.9,1.2,2.6,1.5,3.8,0.6c0,0,0,0,0,0c1-1.1,1-2.9-0.1-4
						c-0.9-1.2-2.6-1.5-3.8-0.6c0,0,0,0,0,0C11.5,14.8,11.5,16.6,12.6,17.7z"/>
					<path id="Path_17859" class="st8" d="M13.3,13.3c0.1-1.1,0.1-2.3,0-3.4l-0.8,2.4l-1.2-3.8l0.1,3.5L8.2,8.4l2.4,3.9l-3.9-0.1
						l3.7,0.9l-2.2,0.3l3.1,0.6l-2.2,0.5l2.9,0L13.3,13.3z"/>
				</g>
				<g id="Group_6652" transform="translate(1.562 2.108)">
					<path id="Path_17860" class="st8" d="M17,23.5c-1.7-1.6-3.9-1.9-6.1-2.6c-1.1-0.4-2.2-1-3.1-1.7c-0.5-0.4-0.8-0.9-1-1.5
						c-0.3-0.6-0.1-1.4,0.6-1.8c-0.4,0.4-0.4,1,0,1.4c0.3,0.4,0.7,0.8,1.1,1c0.9,0.6,1.9,1,2.9,1.3c1.1,0.3,2.2,0.8,3.2,1.3
						C15.7,21.5,16.5,22.4,17,23.5z"/>
					<path id="Path_17861" class="st9" d="M16.4,25.2c0.3-0.8,0.4-1.6,0.4-2.4c0-0.8-0.1-1.6-0.2-2.3c-0.3-1.5-0.8-2.9-1.6-4.3
						c-0.7-1.3-1.9-2.2-3.3-2.7c-1.4-0.5-3-1-4.5-1.6c1.6,0.1,3.3,0.3,4.9,0.6c0.8,0.2,1.6,0.6,2.3,1.1c0.7,0.5,1.3,1.2,1.7,1.9
						c0.9,1.5,1.4,3.1,1.5,4.8C17.7,22,17.3,23.7,16.4,25.2z"/>
					<path id="Path_17862" class="st10" d="M16.9,24.6c-0.3-1.6-1.1-3-2.3-4.1c-1.1-1-2.7-1.5-4.2-2.4C9.6,17.6,9,17,8.5,16.2
						c-0.4-0.9-0.6-1.8-0.5-2.7c0.2-1.8,1-3.6,2.1-5c-0.7,1.6-1,3.3-1.1,5c0,1.5,0.8,2.9,2.2,3.6c1.3,0.8,3,1.4,4.2,2.8
						C16.5,21.1,17.1,22.9,16.9,24.6z"/>
				</g>
				<g id="Group_6653" transform="translate(0.842)">
					<path id="Path_17863" class="st8" d="M17.1,26.4c-0.8-2.4-0.3-4.9-0.2-7.5c0.1-1.3-0.1-2.7-0.5-4c-0.2-0.6-0.6-1.2-1.1-1.7
						c-0.5-0.6-1.3-0.6-1.9-0.1c0,0,0,0,0,0c0.5-0.2,1.2,0,1.4,0.5c0,0,0,0,0,0c0.3,0.5,0.5,1.1,0.6,1.6c0.2,1.2,0.2,2.4,0.1,3.7
						c-0.1,1.3-0.1,2.6,0,3.9C15.6,24.2,16.2,25.4,17.1,26.4z"/>
					<path id="Path_17864" class="st9" d="M17.9,24.4c-0.6,0.3-1.3,0.4-1.9,0.4c-0.6,0-1.3-0.1-1.9-0.3c-1.3-0.3-2.5-0.9-3.5-1.8
						c-1.1-0.9-1.9-2.1-2.4-3.5c-0.5-1.5-0.9-3.2-1.5-4.7C6.8,16.3,7,18,7.4,19.6c0.2,0.9,0.5,1.7,1,2.4c0.4,0.7,1,1.3,1.6,1.8
						c1.1,0.9,2.5,1.5,3.9,1.7C15.3,25.8,16.8,25.4,17.9,24.4z"/>
					<path id="Path_17865" class="st10" d="M16.8,26.3c-0.3-1.6-0.2-3.2,0.2-4.7c0.4-1.3,1.3-2.1,2-3.3c0.4-0.7,0.6-1.5,0.6-2.3
						c0-1-0.2-2-0.5-2.9c-0.6-1.7-1.6-3.3-2.8-4.7c0.9,1.5,1.6,3.1,2.2,4.8c0.5,1.4,0.4,2.9-0.3,4.1c-0.6,1.1-1.5,2-1.8,3.6
						C16,22.8,16.2,24.6,16.8,26.3z"/>
				</g>
			</g>
		</g>
	</g>
	<g id="Group_6662" transform="translate(20.268 2.043)">
		<g id="Group_6661" transform="translate(0 0)">
			<g id="Group_6660">
				<g id="Group_6657" transform="translate(0 4.218)">
					
						<ellipse id="Ellipse_262" transform="matrix(0.7907 -0.6122 0.6122 0.7907 -6.7464 12.2458)" class="st7" cx="14.5" cy="16" rx="2.5" ry="3"/>
					<path id="Path_17866" class="st8" d="M13.3,13.3c0.1-1.1,0.1-2.3,0-3.4l-0.8,2.4l-1.2-3.8l0.1,3.5L8.2,8.4l2.4,3.9l-3.9-0.1
						l3.7,0.9l-2.2,0.3l3.1,0.6l-2.2,0.5l2.9,0L13.3,13.3z"/>
				</g>
				<g id="Group_6658" transform="translate(1.562 2.108)">
					<path id="Path_17867" class="st8" d="M17,23.5c-1.7-1.6-3.9-1.9-6.1-2.6c-1.1-0.4-2.2-1-3.1-1.7c-0.5-0.4-0.8-0.9-1-1.5
						c-0.3-0.6-0.1-1.4,0.6-1.8c-0.4,0.4-0.4,1,0,1.4c0.3,0.4,0.7,0.8,1.1,1c0.9,0.6,1.9,1,2.9,1.3c1.1,0.3,2.2,0.8,3.2,1.3
						C15.7,21.5,16.5,22.4,17,23.5z"/>
					<path id="Path_17868" class="st9" d="M16.4,25.2c0.3-0.8,0.4-1.6,0.4-2.4c0-0.8-0.1-1.6-0.2-2.3c-0.3-1.5-0.8-2.9-1.6-4.3
						c-0.7-1.3-1.9-2.2-3.3-2.7c-1.4-0.5-3-1-4.5-1.6c1.6,0.1,3.3,0.3,4.9,0.6c0.8,0.2,1.6,0.6,2.3,1.1c0.7,0.5,1.3,1.2,1.7,1.9
						c0.9,1.5,1.4,3.1,1.5,4.8C17.7,22,17.3,23.8,16.4,25.2z"/>
					<path id="Path_17869" class="st10" d="M16.9,24.6c-0.3-1.6-1.1-3-2.3-4.1c-1.1-1-2.7-1.5-4.2-2.4C9.6,17.6,9,17,8.5,16.2
						c-0.4-0.9-0.6-1.8-0.5-2.7c0.2-1.8,1-3.6,2.1-5c-0.7,1.6-1,3.3-1.1,5c0,1.5,0.8,2.9,2.2,3.6c1.3,0.8,3,1.4,4.2,2.8
						C16.5,21.1,17.1,22.9,16.9,24.6z"/>
				</g>
				<g id="Group_6659" transform="translate(0.842)">
					<path id="Path_17870" class="st8" d="M17.1,26.4c-0.8-2.4-0.3-4.9-0.2-7.5c0.1-1.3-0.1-2.7-0.5-4c-0.2-0.6-0.6-1.2-1.1-1.7
						c-0.5-0.6-1.3-0.6-1.9-0.1c0,0,0,0,0,0c0.5-0.2,1.2,0,1.4,0.5c0,0,0,0,0,0c0.3,0.5,0.5,1.1,0.6,1.6c0.2,1.2,0.2,2.4,0.1,3.7
						c-0.1,1.3-0.1,2.6,0,3.9C15.6,24.2,16.2,25.4,17.1,26.4z"/>
					<path id="Path_17871" class="st9" d="M17.9,24.4c-0.6,0.3-1.3,0.4-1.9,0.4c-0.6,0-1.3-0.1-1.9-0.3c-1.3-0.3-2.5-0.9-3.5-1.8
						c-1.1-0.9-1.9-2.1-2.4-3.5c-0.5-1.5-0.9-3.2-1.5-4.7C6.8,16.3,7,18,7.4,19.6c0.2,0.9,0.5,1.7,1,2.4c0.4,0.7,1,1.3,1.6,1.8
						c1.1,0.9,2.5,1.5,3.9,1.7C15.3,25.8,16.8,25.4,17.9,24.4z"/>
					<path id="Path_17872" class="st10" d="M16.8,26.3c-0.3-1.6-0.2-3.2,0.2-4.7c0.4-1.3,1.3-2.1,2-3.3c0.4-0.7,0.6-1.5,0.6-2.3
						c0-1-0.2-2-0.5-2.9c-0.6-1.7-1.6-3.3-2.8-4.7c0.9,1.5,1.6,3.1,2.2,4.8c0.5,1.4,0.4,2.9-0.3,4.1c-0.6,1.1-1.5,2-1.8,3.6
						C16,22.8,16.2,24.6,16.8,26.3z"/>
				</g>
			</g>
		</g>
	</g>
	<g id="Group_6668" transform="translate(15.198 5.285)">
		<g id="Group_6667" transform="translate(0 0)">
			<g id="Group_6666">
				<g id="Group_6663" transform="translate(0 4.218)">
					<path id="Path_17873" class="st7" d="M12.6,17.7c0.9,1.2,2.6,1.5,3.8,0.6c0,0,0,0,0,0c1-1.1,1-2.9-0.1-4
						c-0.9-1.2-2.6-1.5-3.8-0.6c0,0,0,0,0,0C11.5,14.8,11.5,16.6,12.6,17.7z"/>
					<path id="Path_17874" class="st8" d="M13.3,13.3c0.1-1.1,0.1-2.3,0-3.4l-0.8,2.4l-1.2-3.8l0.1,3.5L8.2,8.4l2.4,3.9l-3.9-0.1
						l3.7,0.9l-2.2,0.3l3.1,0.6l-2.2,0.5l2.9,0L13.3,13.3z"/>
				</g>
				<g id="Group_6664" transform="translate(1.562 2.108)">
					<path id="Path_17875" class="st8" d="M17,23.5c-1.7-1.6-3.9-1.9-6.1-2.6c-1.1-0.4-2.2-1-3.1-1.7c-0.5-0.4-0.8-0.9-1-1.5
						c-0.3-0.6-0.1-1.4,0.6-1.8c-0.4,0.4-0.4,1,0,1.4c0.3,0.4,0.7,0.8,1.1,1c0.9,0.6,1.9,1,2.9,1.3c1.1,0.3,2.2,0.8,3.2,1.3
						C15.7,21.5,16.5,22.4,17,23.5z"/>
					<path id="Path_17876" class="st9" d="M16.4,25.2c0.3-0.8,0.4-1.6,0.4-2.4c0-0.8-0.1-1.6-0.2-2.3c-0.3-1.5-0.8-2.9-1.6-4.3
						c-0.7-1.3-1.9-2.2-3.3-2.7c-1.4-0.5-3-1-4.5-1.6c1.6,0.1,3.3,0.3,4.9,0.6c0.8,0.2,1.6,0.6,2.3,1.1c0.7,0.5,1.3,1.2,1.7,1.9
						c0.9,1.5,1.4,3.1,1.5,4.8C17.7,22,17.3,23.7,16.4,25.2z"/>
					<path id="Path_17877" class="st10" d="M16.9,24.6c-0.3-1.6-1.1-3-2.3-4.1c-1.1-1-2.7-1.5-4.2-2.4C9.6,17.6,9,17,8.5,16.2
						c-0.4-0.9-0.6-1.8-0.5-2.7c0.2-1.8,1-3.6,2.1-5c-0.7,1.6-1,3.3-1.1,5c0,1.5,0.8,2.9,2.2,3.6c1.3,0.8,3,1.4,4.2,2.8
						C16.5,21.1,17.1,22.9,16.9,24.6z"/>
				</g>
				<g id="Group_6665" transform="translate(0.842)">
					<path id="Path_17878" class="st8" d="M17,26.4c-0.8-2.4-0.3-4.9-0.2-7.5c0.1-1.3-0.1-2.7-0.5-4c-0.2-0.6-0.6-1.2-1.1-1.7
						c-0.5-0.6-1.3-0.6-1.9-0.1c0,0,0,0,0,0c0.5-0.2,1.2,0,1.4,0.5c0,0,0,0,0,0c0.3,0.5,0.5,1.1,0.6,1.6c0.2,1.2,0.2,2.4,0.1,3.7
						c-0.1,1.3-0.1,2.6,0,3.9C15.6,24.2,16.2,25.4,17,26.4z"/>
					<path id="Path_17879" class="st9" d="M17.9,24.4c-0.6,0.3-1.3,0.4-1.9,0.4c-0.6,0-1.3-0.1-1.9-0.3c-1.3-0.3-2.5-0.9-3.5-1.8
						c-1.1-0.9-1.9-2.1-2.4-3.5c-0.5-1.5-0.9-3.2-1.5-4.7C6.8,16.3,7,18,7.4,19.6c0.2,0.9,0.5,1.7,1,2.4c0.4,0.7,1,1.3,1.6,1.8
						c1.1,0.9,2.5,1.5,3.9,1.7C15.3,25.8,16.8,25.4,17.9,24.4z"/>
					<path id="Path_17880" class="st10" d="M16.8,26.3c-0.3-1.6-0.2-3.2,0.2-4.7c0.4-1.3,1.3-2.1,2-3.3c0.4-0.7,0.6-1.5,0.6-2.3
						c0-1-0.2-2-0.5-2.9c-0.6-1.7-1.6-3.3-2.8-4.7c0.9,1.5,1.6,3.1,2.2,4.8c0.5,1.4,0.4,2.9-0.3,4.1c-0.6,1.1-1.5,2-1.8,3.6
						C16,22.8,16.2,24.6,16.8,26.3z"/>
				</g>
			</g>
		</g>
	</g>
</g>
</svg>
