<?xml version="1.0" encoding="utf-8"?>
<!-- Generator: Adobe Illustrator 25.4.1, SVG Export Plug-In . SVG Version: 6.00 Build 0)  -->
<svg version="1.1" id="Layer_1" xmlns="http://www.w3.org/2000/svg" xmlns:xlink="http://www.w3.org/1999/xlink" x="0px" y="0px"
	 viewBox="0 0 252.3 509" style="enable-background:new 0 0 252.3 509;" xml:space="preserve">
<style type="text/css">
	.Drop_x0020_Shadow{fill:none;}
	.Round_x0020_Corners_x0020_2_x0020_pt{fill:#FFFFFF;stroke:#000000;stroke-miterlimit:10;}
	.Live_x0020_Reflect_x0020_X{fill:none;}
	.Bevel_x0020_Soft{fill:url(#SVGID_1_);}
	.Dusk{fill:#FFFFFF;}
	.Foliage_GS{fill:#FFDD00;}
	.Pompadour_GS{fill-rule:evenodd;clip-rule:evenodd;fill:#44ADE2;}
	.st0{fill:#A1CF6F;}
	.st1{fill:#C3986C;}
	.st2{fill:#946C45;}
	.st3{fill:#8CC864;}
	.st4{fill:#7BB95A;}
</style>
<linearGradient id="SVGID_1_" gradientUnits="userSpaceOnUse" x1="-277.7337" y1="-47.3266" x2="-277.0266" y2="-46.6195">
	<stop  offset="0" style="stop-color:#DEDFE3"/>
	<stop  offset="0.1738" style="stop-color:#D8D9DD"/>
	<stop  offset="0.352" style="stop-color:#C9CACD"/>
	<stop  offset="0.5323" style="stop-color:#B4B5B8"/>
	<stop  offset="0.7139" style="stop-color:#989A9C"/>
	<stop  offset="0.8949" style="stop-color:#797C7E"/>
	<stop  offset="1" style="stop-color:#656B6C"/>
</linearGradient>
<g id="Group_9828" transform="translate(-1320.152 -200)">
	<g id="Group_9791" transform="translate(1320.152 200)">
		<g id="Group_9766" transform="translate(102.274 40.508)">
			<path id="Path_23668" class="st0" d="M22.3,36.1c-15.6-2-20.7-10-19.5-18.9S10.8,1.8,26.5,3.8s26.2,19.8,26.2,19.8
				S37.9,38.1,22.3,36.1z"/>
		</g>
		<g id="Group_9767" transform="translate(152.273 0)">
			<path id="Path_23669" class="st0" d="M19.3,38C3.8,32.3,0.5,22.9,3.7,14S15.6,0.2,31.1,5.9s22.2,26.4,22.2,26.4
				S34.9,43.7,19.3,38z"/>
		</g>
		<g id="Group_9768" transform="translate(126.803 42.268)">
			<path id="Path_23670" class="st0" d="M27.8,43.5c-19.3-1.5-26-11-25.1-22s9-19.3,28.2-17.8s33.3,22.6,33.3,22.6S47,45,27.8,43.5z
				"/>
		</g>
		<g id="Group_9769" transform="translate(173.383 50.832)">
			<path id="Path_23671" class="st0" d="M17.8,36.6C3.2,30.4,0.4,21.2,4,12.9S16.1,0.2,30.7,6.4s20,26.4,20,26.4
				S32.4,42.8,17.8,36.6z"/>
		</g>
		<g id="Group_9770" transform="translate(142.862 72.957)">
			<path id="Path_23672" class="st0" d="M18.1,32C4.8,28.7,1.2,21.3,3.1,13.7s8.6-12.5,21.9-9.2s20.7,19.8,20.7,19.8
				S31.4,35.3,18.1,32z"/>
		</g>
		<g id="Group_9771" transform="translate(196.878 87.574)">
			<path id="Path_23673" class="st0" d="M31.9,4.7c13.5,4.7,16.5,12.8,13.8,20.5s-10.1,12.1-23.6,7.4S2.6,10.1,2.6,10.1
				S18.4,0,31.9,4.7z"/>
		</g>
		<g id="Group_9772" transform="translate(177.587 116.015)">
			<path id="Path_23674" class="st0" d="M20.6,9.2C36-0.4,46.4,3.1,51.8,11.9s3.9,19.6-11.5,29.2S2.6,42.4,2.6,42.4
				S5.2,18.7,20.6,9.2z"/>
		</g>
		<g id="Group_9773" transform="translate(202.689 142.799)">
			<path id="Path_23675" class="st0" d="M25.8,30.7c-12.5,4.8-19.5,0.8-22.2-6.3S3.5,9.6,15.9,4.8s27.5,4.3,27.5,4.3
				S38.3,25.9,25.8,30.7z"/>
		</g>
		<g id="Group_9774" transform="translate(182.424 175.65)">
			<path id="Path_23676" class="st0" d="M41,7.8c15.8,9.4,17.6,20.4,12.2,29.4S37.4,50,21.5,40.6S2.6,7.1,2.6,7.1S25.2-1.6,41,7.8z"
				/>
		</g>
		<g id="Group_9775" transform="translate(134.485 147.539)">
			<path id="Path_23677" class="st0" d="M3.1,25.4C0.8,11.4,6.4,5,14.4,3.7s15.3,3,17.6,16.9S21.7,48.2,21.7,48.2S5.4,39.3,3.1,25.4
				z"/>
		</g>
		<g id="Group_9776" transform="translate(159.284 174.453)">
			<path id="Path_23678" class="st0" d="M3,33.4C0.6,13.7,8.8,5,20,3.6s21.3,5.1,23.8,24.8s-16,38.2-16,38.2S5.5,53.1,3,33.4z"/>
		</g>
		<g id="Group_9777" transform="translate(105.274 165.7)">
			<path id="Path_23679" class="st0" d="M10,33.6C-0.2,22.3,1.2,13.2,7.7,7.4s15.7-6.1,25.8,5.3s6.6,31.1,6.6,31.1S20.1,45,10,33.6z
				"/>
		</g>
		<g id="Group_9778" transform="translate(111.388 163.369)">
			<path id="Path_23680" class="st0" d="M38.8,3.6c18.8,2,25.2,11.5,24,22.2s-9.3,18.7-28.2,16.7s-32-23.1-32-23.1
				S19.9,1.6,38.8,3.6z"/>
		</g>
		<g id="Group_9779" transform="translate(58.383 176.19)">
			<path id="Path_23681" class="st0" d="M38.3,3.9c17.8,3.4,23,13,21.1,23.2S49,44.2,31.2,40.7S2.6,16.1,2.6,16.1S20.6,0.5,38.3,3.9
				z"/>
		</g>
		<g id="Group_9780" transform="translate(88.916 147.78)">
			<path id="Path_23682" class="st0" d="M8.7,34.3c-9.4-13-7-22.3,0.4-27.7s17-4.7,26.4,8.2S39.2,48,39.2,48S18.1,47.3,8.7,34.3z"/>
		</g>
		<g id="Group_9781" transform="translate(44.11 189.777)">
			<path id="Path_23683" class="st0" d="M40.7,37.6c-0.8,18.4-9.6,25.1-20.1,24.7S1.9,54.3,2.7,35.9S23.1,3.4,23.1,3.4
				S41.5,19.2,40.7,37.6z"/>
		</g>
		<g id="Group_9782" transform="translate(27.619 167.849)">
			<path id="Path_23684" class="st0" d="M33.7,5.1c14,5.5,16.9,14.2,13.7,22.2s-11.1,12.4-25.1,6.9S2.6,9.6,2.6,9.6
				S19.7-0.4,33.7,5.1z"/>
		</g>
		<g id="Group_9783" transform="translate(54.386 134.552)">
			<path id="Path_23685" class="st0" d="M30.2,26.7C31,40,25.1,45.5,17.5,46S3.4,41.7,2.6,28.4S14.9,3.4,14.9,3.4
				S29.4,13.4,30.2,26.7z"/>
		</g>
		<g id="Group_9784" transform="translate(6.696 157.288)">
			<path id="Path_23686" class="st0" d="M4.5,28.9C-0.3,14.8,4.4,7.1,12.5,4.3S29,4.8,33.8,18.9s-5.9,30.6-5.9,30.6
				S9.4,43.1,4.5,28.9z"/>
		</g>
		<g id="Group_9785" transform="translate(25.537 113.847)">
			<path id="Path_23687" class="st0" d="M34.5,35C28.8,49.1,20.1,52,12,48.7S-0.5,37.4,5.2,23.2S30.1,3.4,30.1,3.4
				S40.2,20.8,34.5,35z"/>
		</g>
		<g id="Group_9786" transform="translate(0 120.275)">
			<path id="Path_23688" class="st0" d="M32.3,18.3c7.7,12.6,4.8,21-2.4,25.4s-16,3.1-23.7-9.5S5.4,3.4,5.4,3.4S24.7,5.7,32.3,18.3z
				"/>
		</g>
		<g id="Group_9787" transform="translate(9.182 72.922)">
			<path id="Path_23689" class="st0" d="M36.1,3.6c17.4,1.9,23.2,10.7,22.2,20.6s-8.7,17.3-26.1,15.4S2.6,18.2,2.6,18.2
				S18.7,1.7,36.1,3.6z"/>
		</g>
		<g id="Group_9788" transform="translate(9.155 71.405)">
			<path id="Path_23690" class="st0" d="M20.1,41.4c-16.7-7-20-17.4-16-27S17.8-0.3,34.6,6.7s23.1,30,23.1,30S36.8,48.3,20.1,41.4z"
				/>
		</g>
		<g id="Group_9789" transform="translate(37.581 32.032)">
			<path id="Path_23691" class="st0" d="M9.2,15.5C20,1.5,30.6,1.1,38.6,7.2S49,23.8,38.2,37.8S4.1,52.1,4.1,52.1
				S-1.6,29.5,9.2,15.5z"/>
		</g>
		<g id="Group_9790" transform="translate(42.701 43.862)">
			<path id="Path_23692" class="st0" d="M24.4,34.6c-15,0.9-21.3-5.7-21.8-14.2S7.5,4.4,22.5,3.5s28.2,13.8,28.2,13.8
				S39.5,33.7,24.4,34.6z"/>
		</g>
	</g>
	<g id="Group_9792" transform="translate(1424.595 358.418)">
		<path id="Path_23693" class="st1" d="M30.2,332.2c0.2,7.6-5.8,13.9-13.4,14.2c-7.6,0.3-13.9-5.7-14.2-13.2c0-0.1,0-0.1,0-0.2v-1
			l3.7-161.2c1-27.3,3.1-54,4.6-80.8c0.7-13.3,1.4-26.7,1.6-40C12.7,36.8,12.8,23,11,11.2l-0.1-0.6c-0.5-3.3,1.7-6.5,5.1-7
			c3.2-0.5,6.3,1.6,7,4.8c2.1,10.3,3.2,20.7,3.4,31.2v0.2c0.1,3.3,0.2,6.8,0.4,10.1C27.1,63.4,27.1,77,27,90.5
			c-0.1,26.9-1,54-0.7,80.3L30.2,332.2z"/>
		<path id="Path_23694" class="st2" d="M30.2,332.2c0.2,7.6-5.8,13.9-13.4,14.2l3.3-160.1c1-29.8,3.2-59,4.6-88.2
			c0.7-14.7,1.4-29.3,1.6-43.8c0.1-4.8,0.1-9.6,0.1-14.4c0.1,3.3,0.2,6.8,0.4,10.1C27.1,63.4,27.1,77,27,90.5
			c-0.1,26.9-1,54-0.7,80.3L30.2,332.2z"/>
	</g>
	<g id="Group_9793" transform="translate(1335.787 217.818)">
		<path id="Path_23695" class="st0" d="M197.3,155.2c1.2,11,7.4,66-13.4,75.6c-10.3,4.8-18.4,5.2-42.1,1.2
			c-32-5.3-38.2,0.4-70.9-2.1c-2.8-0.2-47.1-4.2-60.2-31.7c-6.7-13.5,1.2-19,0-51.7c-1.4-36.3-11.5-40.2-6.8-57.4
			C7.9,74,25.1,61.9,59.4,38.4c3.1-2.1,6-4.1,8.9-5.9c40-26.6,53.8-28.1,59.1-28.6c7.8-0.6,37.1-3,50.7,14.3
			c11.8,15,26.1,25.4,29.2,64.2c0.3,3.7,0.4,7.4,0.1,11.1C206.2,116.9,193.8,123.9,197.3,155.2z"/>
		<path id="Path_23696" class="st3" d="M197.3,155.2c1.2,11,7.4,66-13.4,75.6c-10.3,4.8-18.4,5.2-42.1,1.2
			c-32-5.3-38.2,0.4-70.9-2.1c-2.8-0.2-47.1-4.2-60.2-31.7c-6.7-13.5,1.2-19,0-51.7c-1.4-36.3-11.5-40.2-6.8-57.4
			C7.9,74,25.1,61.9,59.4,38.4c3.1-2.1,6-4.1,8.9-5.9c10.5,2.1,18.7,6.4,23.2,12.9c13.3,19.8-18.2,46.4-4.7,79.8
			c11.7,28.7,50.5,47.1,67.9,37.2c15.8-9.1,3.1-36,21.3-54.8c7.8-8,19.1-12.7,31.5-14.2C206.2,116.9,193.8,123.9,197.3,155.2z"/>
	</g>
	<g id="Group_9812" transform="translate(1327.708 219.829)">
		<g id="Group_9794" transform="translate(174.117 133.218)">
			<path id="Path_23697" class="st4" d="M3.2,29C0.5,12.7,7,5.2,16.3,3.7s17.8,3.5,20.5,19.7S24.9,55.5,24.9,55.5S5.9,45.2,3.2,29z"
				/>
		</g>
		<g id="Group_9795" transform="translate(158.207 177.643)">
			<path id="Path_23698" class="st4" d="M19.7,6.4c12.8-5.9,20.5-2.3,23.9,5.1S44.8,27,32,33S2.6,30.4,2.6,30.4S6.9,12.3,19.7,6.4z"
				/>
		</g>
		<g id="Group_9796" transform="translate(71.804 173.464)">
			<path id="Path_23699" class="st4" d="M3.2,22.5C6.7,6.4,15.5,1.9,24.7,3.9s15.2,9.9,11.7,25.9s-23,25.4-23,25.4
				S-0.4,38.5,3.2,22.5z"/>
		</g>
		<g id="Group_9797" transform="translate(87.469 113.595)">
			<path id="Path_23700" class="st4" d="M37.8,5.9C53.3,12.8,56,22.7,52,31.5s-13.2,13.3-28.6,6.3S2.6,9.2,2.6,9.2
				S22.3-1.1,37.8,5.9z"/>
		</g>
		<g id="Group_9798" transform="translate(184.402 59.823)">
			<path id="Path_23701" class="st4" d="M36.4,30.3c2.4,16.2-4.2,23.6-13.5,24.9s-17.7-3.8-20.1-20S15.3,3.4,15.3,3.4
				S34,14.1,36.4,30.3z"/>
		</g>
		<g id="Group_9799" transform="translate(131.886 119.021)">
			<path id="Path_23702" class="st4" d="M39.1,41.5c-15.3,11.1-26.3,8.3-32.7-0.4S0.7,21,16,9.8s39.2-4.3,39.2-4.3
				S54.4,30.3,39.1,41.5z"/>
		</g>
		<g id="Group_9800" transform="translate(93.393 165.614)">
			<path id="Path_23703" class="st4" d="M27.3,32.2c-13.1,5.3-20.6,1.2-23.6-6.2S3.3,10.3,16.4,5.1s29.2,4,29.2,4
				S40.4,26.9,27.3,32.2z"/>
		</g>
		<g id="Group_9801" transform="translate(24.908 150.549)">
			<path id="Path_23704" class="st4" d="M4.5,30.6c-4.9-15.3,0.3-23.4,9-26.2s17.7,0.8,22.6,16.1s-6.9,32.7-6.9,32.7
				S9.4,45.8,4.5,30.6z"/>
		</g>
		<g id="Group_9802" transform="translate(0 99.864)">
			<path id="Path_23705" class="st4" d="M35.4,4.6c15.3,4.9,18.9,13.9,16.1,22.7s-11,13.9-26.3,9S2.6,11.6,2.6,11.6
				S20.1-0.3,35.4,4.6z"/>
		</g>
		<g id="Group_9803" transform="translate(101.613 54.4)">
			<path id="Path_23706" class="st4" d="M2.8,22C5,7.1,12.7,2.4,21.2,3.6s14.6,8,12.4,22.8S14.3,51.2,14.3,51.2S0.7,36.9,2.8,22z"/>
		</g>
		<g id="Group_9804" transform="translate(147.829 24.181)">
			<path id="Path_23707" class="st4" d="M30.9,31.7C25.2,43.9,17.3,46,10.2,42.7S-0.3,32,5.5,19.7S28.6,3.4,28.6,3.4
				S36.7,19.4,30.9,31.7z"/>
		</g>
		<g id="Group_9805" transform="translate(105.865 72.309)">
			<path id="Path_23708" class="st4" d="M33.9,32.4c-1.8,15-9.5,19.9-18,18.8S1.1,43.6,2.9,28.6S21.7,3.4,21.7,3.4
				S35.7,17.5,33.9,32.4z"/>
		</g>
		<g id="Group_9806" transform="translate(50.469 112.399)">
			<path id="Path_23709" class="st4" d="M21,5.6c13-5,20.4-0.9,23.2,6.6s0.2,15.4-12.9,20.4S2.6,28.2,2.6,28.2S8,10.6,21,5.6z"/>
		</g>
		<g id="Group_9807" transform="translate(33.727 40.695)">
			<path id="Path_23710" class="st4" d="M23,38.9c-16.8-3-21.8-12-20.1-21.5S12.5,1.2,29.3,4.2S56.5,27,56.5,27S39.7,41.9,23,38.9z"
				/>
		</g>
		<g id="Group_9808" transform="translate(101.167 17.872)">
			<path id="Path_23711" class="st4" d="M35.9,18.5c9.4,13.7,6.6,23.3-1.2,28.6S17,51.5,7.6,37.9S4.8,3.4,4.8,3.4
				S26.6,4.9,35.9,18.5z"/>
		</g>
		<g id="Group_9809" transform="translate(153.684)">
			<path id="Path_23712" class="st4" d="M37.5,29.2c4,16.5-2,24.8-11.5,27.1S7.4,54.1,3.3,37.5s9.8-34.1,9.8-34.1
				S33.5,12.6,37.5,29.2z"/>
		</g>
		<g id="Group_9810" transform="translate(94.991 21.127)">
			<path id="Path_23713" class="st4" d="M8.9,14.4C18.9,1.6,28.8,1.3,36.2,7s9.4,15.4-0.7,28.3S3.9,48.2,3.9,48.2
				S-1.2,27.3,8.9,14.4z"/>
		</g>
		<g id="Group_9811" transform="translate(44.564 24.819)">
			<path id="Path_23714" class="st4" d="M21.8,6.3c14-6,22.2-1.8,25.6,6.2s0.8,16.8-13.3,22.8S2.6,31.6,2.6,31.6S7.8,12.2,21.8,6.3z
				"/>
		</g>
	</g>
	<g id="Group_9827" transform="translate(1340.204 236.732)">
		<g id="Group_9813" transform="translate(134.9 28.267)">
			<path id="Path_23715" class="st3" d="M31.8,34.4C18.9,42.8,10,40.1,5.2,32.7s-3.7-16.6,9.2-25s32.1-1.8,32.1-1.8
				S44.7,26.1,31.8,34.4z"/>
		</g>
		<g id="Group_9814" transform="translate(78.447 23.339)">
			<path id="Path_23716" class="st3" d="M34.7,36.2c-12.3,10.6-21.9,9.1-28,2s-6.3-16.8,6-27.5s33.3-6.6,33.3-6.6S47,25.6,34.7,36.2
				z"/>
		</g>
		<g id="Group_9815" transform="translate(129.728 0)">
			<path id="Path_23717" class="st3" d="M38.6,37.3C35.7,54.4,26.7,59.7,17,58S0.4,48.5,3.3,31.4s22.9-28,22.9-28
				S41.5,20.3,38.6,37.3z"/>
		</g>
		<g id="Group_9816" transform="translate(132.941 58.987)">
			<path id="Path_23718" class="st3" d="M37.6,38.6c-9.3,14.1-19.4,15.3-27.4,10s-11.1-15-1.8-29.1s31.4-16,31.4-16
				S46.8,24.5,37.6,38.6z"/>
		</g>
		<g id="Group_9817" transform="translate(127.106 124.779)">
			<path id="Path_23719" class="st3" d="M3.6,26.6C0.3,12.7,5.5,5.8,13.4,3.9s15.7,1.9,19,15.9S24,48.4,24,48.4S6.9,40.5,3.6,26.6z"
				/>
		</g>
		<g id="Group_9818" transform="translate(63.786 111.094)">
			<path id="Path_23720" class="st3" d="M8.1,40c-9.7-17.2-5.4-28.3,4.4-33.9S34,2.8,43.7,20s-0.3,41.2-0.3,41.2S17.7,57.2,8.1,40z"
				/>
		</g>
		<g id="Group_9819" transform="translate(36.659 68.944)">
			<path id="Path_23721" class="st3" d="M2.7,25.6c1.8-17.2,10.5-23,20.3-22s17.1,8.5,15.3,25.8S17.3,58.6,17.3,58.6
				S0.9,42.8,2.7,25.6z"/>
		</g>
		<g id="Group_9820" transform="translate(46.253 3.076)">
			<path id="Path_23722" class="st3" d="M31.4,23.2c4.3,13.4-0.2,20.6-7.8,23S8,45.6,3.7,32.2s6-28.7,6-28.7S27,9.8,31.4,23.2z"/>
		</g>
		<g id="Group_9821" transform="translate(101.463 28.404)">
			<path id="Path_23723" class="st3" d="M41.6,42.7c-12.7,14.4-24.3,14-32.6,6.8s-10-18.7,2.8-33.1s38-12.9,38-12.9
				S54.4,28.3,41.6,42.7z"/>
		</g>
		<g id="Group_9822" transform="translate(129.709 85.637)">
			<path id="Path_23724" class="st3" d="M38.7,38.6c-5,16.5-14.6,20.6-24,17.7S-0.6,44.8,4.4,28.2S30.6,3.4,30.6,3.4
				S43.7,22,38.7,38.6z"/>
		</g>
		<g id="Group_9823" transform="translate(123.329 148.5)">
			<path id="Path_23725" class="st3" d="M14.3,9.7C25.9,0.5,34.7,2.4,40,9.1s5,15.6-6.7,24.8S2.6,38.4,2.6,38.4S2.6,18.9,14.3,9.7z"
				/>
		</g>
		<g id="Group_9824" transform="translate(55.01 184.209)">
			<path id="Path_23726" class="st3" d="M25.3,39.7C7.8,38.2,1.8,29.6,2.7,19.6s8.3-17.5,25.7-16s30,20.7,30,20.7
				S42.7,41.2,25.3,39.7z"/>
		</g>
		<g id="Group_9825" transform="translate(6.435 146.143)">
			<path id="Path_23727" class="st3" d="M31,3.8c14.3,2.4,18.6,10,17.3,18.1s-8,13.8-22.3,11.4S2.6,14.1,2.6,14.1S16.7,1.3,31,3.8z"
				/>
		</g>
		<g id="Group_9826" transform="translate(0 80.251)">
			<path id="Path_23728" class="st3" d="M4,19C9.1,4.7,17.7,1.5,25.9,4.4s12.9,10.8,7.8,25.2S9.6,50.3,9.6,50.3S-1.1,33.4,4,19z"/>
		</g>
	</g>
</g>
</svg>
