<?xml version="1.0" encoding="utf-8"?>
<!-- Generator: Adobe Illustrator 19.0.0, SVG Export Plug-In . SVG Version: 6.00 Build 0)  -->
<svg version="1.1" id="Layer_1" xmlns="http://www.w3.org/2000/svg" xmlns:xlink="http://www.w3.org/1999/xlink" x="0px" y="0px"
	 viewBox="-287.9 389.9 25.6 14.1" style="enable-background:new -287.9 389.9 25.6 14.1;" xml:space="preserve">
<style type="text/css">
	.st0{fill:#282832;}
	.st1{fill:#A1A333;}
</style>
<g id="Group_11" transform="translate(0 -6)">
	<path id="Path_37" class="st0" d="M-553,9.7c-1,0.5-2.2,0.8-3.3,0.9c1.2-0.7,2.1-1.9,2.5-3.2c-1.1,0.7-2.4,1.1-3.6,1.4
		c-1.1-1.2-2.6-1.8-4.3-1.8c-3.2,0-5.7,2.6-5.7,5.7l0,0c0,0.4,0,0.9,0.1,1.3c-4.6-0.2-8.9-2.4-11.8-6c-0.5,0.9-0.8,1.9-0.8,2.9
		c0,1.9,0.9,3.7,2.5,4.8c-0.9,0-1.8-0.3-2.6-0.7v0.1c0,2.7,1.9,5.1,4.6,5.7c-0.5,0.1-1,0.2-1.5,0.2c-0.4,0-0.7,0-1.1-0.1
		c0.8,2.3,2.9,3.9,5.4,4c-2,1.6-4.6,2.5-7.1,2.5c-0.5,0-0.9,0-1.4-0.1c2.6,1.7,5.7,2.5,8.8,2.5c10.6,0,16.4-8.8,16.4-16.4v-0.7
		C-554.7,11.8-553.7,10.9-553,9.7z"/>
</g>
<path id="union" class="st1" d="M-285.8,390.3c-0.4-0.5-1.1-0.5-1.6-0.1c0,0,0,0-0.1,0.1c-0.5,0.4-0.5,1.2,0,1.6l0,0l11.6,11.8
	c0.4,0.4,1.1,0.5,1.6,0.1c0,0,0,0,0.1-0.1l11.6-11.8c0.5-0.4,0.5-1.2,0-1.6l0,0c-0.4-0.4-1.1-0.5-1.6-0.1c0,0,0,0-0.1,0.1l-10.7,11
	L-285.8,390.3L-285.8,390.3z"/>
</svg>
