<?xml version="1.0" encoding="utf-8"?>
<!-- Generator: Adobe Illustrator 25.2.3, SVG Export Plug-In . SVG Version: 6.00 Build 0)  -->
<svg version="1.1" id="Layer_1" xmlns="http://www.w3.org/2000/svg" xmlns:xlink="http://www.w3.org/1999/xlink" x="0px" y="0px"
	 viewBox="0 0 30 30" style="enable-background:new 0 0 30 30;" xml:space="preserve">
<style type="text/css">
	.st0{fill:#282832;}
	.st1{fill:none;stroke:#282832;stroke-width:1.5;stroke-linecap:round;stroke-linejoin:round;}
</style>
<g id="Group_11" transform="translate(0 -6)">
	<path id="Path_37" class="st0" d="M-263-372.3c-1,0.5-2.2,0.8-3.3,0.9c1.2-0.7,2.1-1.9,2.5-3.2c-1.1,0.7-2.4,1.1-3.6,1.4
		c-1.1-1.2-2.6-1.8-4.3-1.8c-3.2,0-5.7,2.6-5.7,5.7c0,0,0,0,0,0c0,0.4,0,0.9,0.1,1.3c-4.6-0.2-8.9-2.4-11.8-6
		c-0.5,0.9-0.8,1.9-0.8,2.9c0,1.9,0.9,3.7,2.5,4.8c-0.9,0-1.8-0.3-2.6-0.7v0.1c0,2.7,1.9,5.1,4.6,5.7c-0.5,0.1-1,0.2-1.5,0.2
		c-0.4,0-0.7,0-1.1-0.1c0.8,2.3,2.9,3.9,5.4,4c-2,1.6-4.6,2.5-7.1,2.5c-0.5,0-0.9,0-1.4-0.1c2.6,1.7,5.7,2.5,8.8,2.5
		c10.6,0,16.4-8.8,16.4-16.4v-0.7C-264.7-370.2-263.7-371.1-263-372.3z"/>
</g>
<g id="Group_5009" transform="translate(-0.407 -0.25)">
	<path id="Rectangle_109" class="st1" d="M8.3,6.5h14.2c1.7,0,3.2,1.4,3.2,3.2v12.7c0,1.7-1.4,3.2-3.2,3.2H8.3
		c-1.7,0-3.2-1.4-3.2-3.2V9.7C5.1,8,6.5,6.5,8.3,6.5z"/>
	<line id="Line_23" class="st1" x1="9.9" y1="5" x2="9.9" y2="8.1"/>
	<line id="Line_24" class="st1" x1="20.9" y1="5" x2="20.9" y2="8.1"/>
	<line id="Line_25" class="st1" x1="5.1" y1="11.3" x2="25.7" y2="11.3"/>
</g>
</svg>
