<?xml version="1.0" encoding="utf-8"?>
<!-- Generator: Adobe Illustrator 25.2.3, SVG Export Plug-In . SVG Version: 6.00 Build 0)  -->
<svg version="1.1" id="Layer_1" xmlns="http://www.w3.org/2000/svg" xmlns:xlink="http://www.w3.org/1999/xlink" x="0px" y="0px"
	 viewBox="0 0 30 30" style="enable-background:new 0 0 30 30;" xml:space="preserve">
<style type="text/css">
	.st0{fill:#282832;}
</style>
<g id="Group_7" transform="translate(0.001 -0.073)">
	<path id="Path_35" class="st0" d="M29.9,15.1c0-8.2-6.7-14.9-14.9-14.9S0.2,6.9,0.2,15.1c0,7.3,5.3,13.5,12.5,14.7V19.4H8.9v-4.3
		h3.8v-3.3c0-3.7,2.2-5.8,5.6-5.8c1.1,0,2.2,0.1,3.3,0.3V10h-1.9c-1.2-0.2-2.3,0.7-2.4,1.8c0,0.2,0,0.3,0,0.5v2.8h4.1l-0.7,4.3h-3.5
		v10.4C24.6,28.6,29.9,22.4,29.9,15.1z"/>
</g>
</svg>
