<?xml version="1.0" encoding="utf-8"?>
<!-- Generator: Adobe Illustrator 25.2.3, SVG Export Plug-In . SVG Version: 6.00 Build 0)  -->
<svg version="1.1" xmlns="http://www.w3.org/2000/svg" xmlns:xlink="http://www.w3.org/1999/xlink" x="0px" y="0px"
	 viewBox="0 0 30 30" style="enable-background:new 0 0 30 30;" xml:space="preserve">
<style type="text/css">
	.st0{display:none;}
	.st1{display:inline;}
	.st2{fill:#282832;}
	.st3{display:inline;fill:none;stroke:#282832;stroke-width:2;stroke-linecap:round;stroke-linejoin:round;}
	.st4{display:inline;fill:#282832;}
	.st5{fill:none;stroke:#282832;stroke-width:2;stroke-linecap:round;stroke-linejoin:round;}
</style>
<g id="Layer_1" class="st0">
	<g id="Group_11" transform="translate(0 -6)" class="st1">
		<path id="Path_37" class="st2" d="M-263-372.3c-1,0.5-2.2,0.8-3.3,0.9c1.2-0.7,2.1-1.9,2.5-3.2c-1.1,0.7-2.4,1.1-3.6,1.4
			c-1.1-1.2-2.6-1.8-4.3-1.8c-3.2,0-5.7,2.6-5.7,5.7c0,0,0,0,0,0c0,0.4,0,0.9,0.1,1.3c-4.6-0.2-8.9-2.4-11.8-6
			c-0.5,0.9-0.8,1.9-0.8,2.9c0,1.9,0.9,3.7,2.5,4.8c-0.9,0-1.8-0.3-2.6-0.7v0.1c0,2.7,1.9,5.1,4.6,5.7c-0.5,0.1-1,0.2-1.5,0.2
			c-0.4,0-0.7,0-1.1-0.1c0.8,2.3,2.9,3.9,5.4,4c-2,1.6-4.6,2.5-7.1,2.5c-0.5,0-0.9,0-1.4-0.1c2.6,1.7,5.7,2.5,8.8,2.5
			c10.6,0,16.4-8.8,16.4-16.4v-0.7C-264.7-370.2-263.7-371.1-263-372.3z"/>
	</g>
	<path id="Path_11760" class="st3" d="M18.7,2.6v6.6h6.6"/>
	<path id="Path_11761" class="st3" d="M25.3,12.5V9.2l-6.6-6.6H5.5v9.9"/>
	<path id="Path_11762" class="st3" d="M5.5,24.1v3.3h19.9v-3.3"/>
	<path id="Path_11763" class="st4" d="M9.8,22.3c-0.2,0-0.4,0-0.7-0.1v-1c0.1,0,0.2,0,0.2,0.1c0.1,0.1,0.2,0,0.2,0
		c0.2,0,0.3,0,0.4-0.2c0.1-0.2,0.2-0.4,0.2-0.7v-4.4h1.3v4.3c0,0.5-0.1,1-0.4,1.5C10.8,22.2,10.3,22.3,9.8,22.3z"/>
	<path id="Path_11764" class="st4" d="M16,17.6c0,0.5-0.2,0.9-0.5,1.2c-0.4,0.3-0.8,0.5-1.3,0.4h-0.3v1.6h-1.2v-4.7h1.7
		c0.5,0,0.9,0.1,1.3,0.4C15.8,16.8,16,17.2,16,17.6z M13.8,18.1h0.2c0.2,0,0.3-0.1,0.5-0.2c0.2-0.1,0.2-0.2,0.2-0.4
		c0-0.2-0.1-0.5-0.4-0.5c0,0-0.1,0-0.1,0h-0.3L13.8,18.1L13.8,18.1z"/>
	<path id="Path_11765" class="st4" d="M18.6,18.1h2.1v2.6c-0.6,0.2-1.2,0.3-1.8,0.2c-0.6,0-1.2-0.2-1.7-0.7
		c-0.4-0.5-0.6-1.2-0.6-1.8c0-0.7,0.2-1.3,0.7-1.8c0.5-0.5,1.1-0.7,1.8-0.7c0.3,0,0.6,0,0.8,0.1c0.2,0.1,0.4,0.2,0.7,0.2l-0.4,1
		C19.8,17.1,19.4,17,19,17c-0.3,0-0.6,0.1-0.8,0.3c-0.2,0.3-0.3,0.7-0.3,1.2c0,0.3,0.1,0.7,0.2,1c0.2,0.3,0.5,0.4,0.8,0.3
		c0.2,0,0.3,0,0.5-0.1V19h-0.8L18.6,18.1z"/>
	<rect id="Rectangle_166" x="3" y="12.5" class="st3" width="24.8" height="11.6"/>
</g>
<g id="Layer_2" class="st0">
	<path id="Path_4147" class="st3" d="M18.7,2.6v6.6h6.6"/>
	<path id="Path_4148" class="st3" d="M25.3,12.5V9.2l-6.6-6.6H5.4v9.9"/>
	<path id="Path_4149" class="st3" d="M5.4,24.1v3.3h19.8v-3.3"/>
	<path id="Path_4150" class="st4" d="M12,17.6c0,0.5-0.2,0.9-0.5,1.2c-0.4,0.3-0.8,0.5-1.3,0.4H9.8v1.6H8.6v-4.7h1.7
		c0.5,0,0.9,0.1,1.3,0.4C11.8,16.8,12,17.2,12,17.6z M9.8,18.1h0.2c0.2,0,0.3-0.1,0.5-0.2c0.2-0.1,0.2-0.2,0.2-0.4
		c0-0.2-0.1-0.5-0.4-0.5c0,0-0.1,0-0.1,0H9.8L9.8,18.1z"/>
	<path id="Path_4151" class="st4" d="M17.3,20.8h-1.7l-1.7-3.3l0,0c0,0.5,0.1,0.9,0.1,1.2v2.1h-1.2v-4.7h1.7l1.7,3.3l0,0
		c0-0.5-0.1-0.8-0.1-1.2v-2.1h1.2V20.8z"/>
	<path id="Path_4152" class="st4" d="M20.2,18.1h2.1v2.6c-0.6,0.2-1.2,0.3-1.8,0.2c-0.6,0-1.2-0.2-1.7-0.7c-0.4-0.5-0.6-1.2-0.6-1.8
		c0-0.7,0.2-1.3,0.7-1.8c0.5-0.5,1.1-0.7,1.8-0.7c0.3,0,0.6,0,0.8,0.1c0.2,0.1,0.4,0.2,0.7,0.2l-0.4,1C21.4,17.1,21,17,20.6,17
		c-0.3,0-0.6,0.1-0.8,0.3c-0.2,0.3-0.3,0.7-0.3,1.1c0,0.3,0.1,0.7,0.2,1c0.2,0.3,0.5,0.4,0.8,0.3c0.2,0,0.3,0,0.5-0.1v-0.7h-0.8
		C20.2,18.9,20.2,18.1,20.2,18.1z"/>
	<rect id="Rectangle_120" x="3" y="12.5" class="st3" width="24.8" height="11.6"/>
</g>
<g id="Layer_3">
	<g id="Group_5016" transform="translate(-1 -1)">
		<path id="Path_11766" class="st2" d="M11.6,20.5c0,0.6-0.2,1.2-0.6,1.7c-0.5,0.4-1.1,0.6-1.7,0.6H7.8v-4.4h1.5
			c0.6,0,1.2,0.2,1.6,0.5C11.4,19.3,11.6,19.9,11.6,20.5z M10.3,20.5c0-0.3-0.1-0.6-0.2-0.9c-0.2-0.2-0.5-0.3-0.7-0.3H9v2.5h0.3
			c0.3,0,0.6-0.1,0.8-0.3C10.3,21.2,10.3,20.8,10.3,20.5L10.3,20.5z"/>
		<path id="Path_11767" class="st2" d="M16.4,20.5c0,0.6-0.2,1.2-0.5,1.7c-0.4,0.4-1,0.6-1.6,0.6c-0.6,0-1.2-0.2-1.6-0.6
			c-0.4-0.5-0.6-1.1-0.6-1.7c0-0.6,0.2-1.2,0.5-1.7c0.4-0.4,1-0.6,1.6-0.6c0.6,0,1.2,0.2,1.6,0.6C16.3,19.3,16.5,19.9,16.4,20.5z
			 M13.4,20.5c0,0.8,0.3,1.3,0.9,1.3c0.3,0,0.5-0.1,0.7-0.3c0.3-0.6,0.3-1.3,0-1.9c-0.2-0.2-0.4-0.3-0.7-0.3
			C13.7,19.3,13.4,19.7,13.4,20.5z"/>
		<path id="Path_11768" class="st2" d="M19.2,19.3c-0.3,0-0.5,0.1-0.7,0.3c-0.2,0.3-0.3,0.6-0.2,1c0,0.8,0.3,1.3,1,1.3
			c0.2,0,0.4,0,0.6-0.1c0.2-0.1,0.4-0.1,0.5-0.2v1c-0.4,0.2-0.8,0.3-1.2,0.2c-0.6,0-1.1-0.2-1.5-0.6c-0.4-0.5-0.6-1.1-0.5-1.7
			c0-0.4,0.1-0.8,0.3-1.2c0.2-0.3,0.4-0.6,0.7-0.8c0.3-0.2,0.7-0.3,1.1-0.3c0.5,0,0.9,0.1,1.4,0.3l-0.4,0.9
			c-0.2-0.1-0.3-0.1-0.5-0.2C19.6,19.3,19.4,19.3,19.2,19.3z"/>
		<path id="Path_11769" class="st2" d="M25.2,22.7h-1.4L23,21.4l-0.8,1.4h-1.3l1.5-2.2l-1.4-2.1h1.3l0.8,1.4l0.8-1.4h1.4l-1.4,2.2
			L25.2,22.7z"/>
		<path id="Path_11770" class="st5" d="M19.1,3.7v6.7h6.7"/>
		<path id="Path_11771" class="st5" d="M25.8,15.5v-5l-6.7-6.7H6.8v11.7"/>
		<path id="Path_11772" class="st5" d="M6.8,25.5v2.8h19v-2.8"/>
		<rect id="Rectangle_167" x="4" y="15.3" class="st5" width="24.8" height="9.9"/>
	</g>
</g>
</svg>
