<?xml version="1.0" encoding="utf-8"?>
<!-- Generator: Adobe Illustrator 25.2.3, SVG Export Plug-In . SVG Version: 6.00 Build 0)  -->
<svg version="1.1" id="Layer_1" xmlns="http://www.w3.org/2000/svg" xmlns:xlink="http://www.w3.org/1999/xlink" x="0px" y="0px"
	 viewBox="0 0 30 30" style="enable-background:new 0 0 30 30;" xml:space="preserve">
<style type="text/css">
	.st0{fill:#282832;}
</style>
<path id="Path_36" class="st0" d="M28.4,0.4H1.7C1,0.4,0.5,1,0.5,1.6v26.6c0,0.7,0.5,1.2,1.2,1.2h26.6c0.7,0,1.2-0.5,1.2-1.2V1.6
	C29.6,1,29,0.4,28.4,0.4z M9.1,25.2H4.8V11.3h4.3V25.2z M7,9.4C5.6,9.4,4.5,8.3,4.5,7S5.6,4.5,7,4.5c1.4,0,2.5,1.1,2.5,2.5v0
	C9.5,8.3,8.3,9.4,7,9.4z M25.3,25.2H21v-6.7c0-1.6,0-3.7-2.2-3.7s-2.6,1.8-2.6,3.6v6.8h-4.3V11.3H16v1.9H16c0.8-1.4,2.4-2.3,4.1-2.2
	c4.4,0,5.1,2.8,5.1,6.6L25.3,25.2L25.3,25.2z"/>
</svg>
