<?xml version="1.0" encoding="utf-8"?>
<!-- Generator: Adobe Illustrator 25.2.3, SVG Export Plug-In . SVG Version: 6.00 Build 0)  -->
<svg version="1.1" xmlns="http://www.w3.org/2000/svg" xmlns:xlink="http://www.w3.org/1999/xlink" x="0px" y="0px"
	 viewBox="0 0 50 50" style="enable-background:new 0 0 50 50;" xml:space="preserve">
<style type="text/css">
	.st0{display:none;}
	.st1{display:inline;}
	.st2{fill:none;stroke:#282832;stroke-width:2;stroke-linecap:round;stroke-linejoin:round;}
</style>
<g id="Layer_1" class="st0">
	<g id="Group_5018" transform="translate(-2 -2.151)" class="st1">
		<path id="Path_4132" class="st2" d="M14,20.2h26c1.7,0,3.1,1.4,3.1,3.1v16.8c0,1.7-1.4,3.1-3.1,3.1H14c-1.7,0-3.1-1.4-3.1-3.1
			V23.2C10.9,21.6,12.3,20.2,14,20.2z"/>
		<path id="Path_4133" class="st2" d="M24.7,27.8l6.1,3.8l-6.1,3.8V27.8z"/>
		<line id="Line_26" class="st2" x1="38.8" y1="15.3" x2="15.1" y2="15.3"/>
		<line id="Line_27" class="st2" x1="35.7" y1="11.2" x2="18.1" y2="11.2"/>
	</g>
</g>
<g id="Layer_2" class="st0">
	<g id="Group_5019" transform="translate(-5 -1)" class="st1">
		<path id="Path_4134" class="st2" d="M39.3,42L16,39.8V12.2L39.3,10V42z"/>
		<line id="Line_28" class="st2" x1="44" y1="13" x2="44" y2="39"/>
		<line id="Line_29" class="st2" x1="21" y1="29" x2="33" y2="29"/>
		<line id="Line_30" class="st2" x1="21" y1="34" x2="33" y2="35"/>
		<circle id="Ellipse_1" class="st2" cx="27" cy="20" r="4"/>
	</g>
</g>
<g id="Layer_3">
	<g id="Group_5020" transform="translate(-3 -3)">
		<line id="Line_31" class="st2" x1="23.2" y1="28.8" x2="39.2" y2="28.8"/>
		<rect id="Rectangle_117" x="23.2" y="16.8" class="st2" width="16" height="8"/>
		<line id="Line_32" class="st2" x1="39.2" y1="37.8" x2="23.2" y2="37.8"/>
		<line id="Line_33" class="st2" x1="39.2" y1="33.8" x2="23.2" y2="33.8"/>
		<path id="Path_4135" class="st2" d="M16.1,30.3h-4v10.2c0,1.9,1.5,3.4,3.4,3.4"/>
		<path id="Path_4136" class="st2" d="M19,12.2v28.3c0,1.9-1.5,3.4-3.4,3.4h24.9c1.9,0,3.4-1.5,3.4-3.4V12.2H19z"/>
	</g>
</g>
</svg>
