<?xml version="1.0" encoding="utf-8"?>
<!-- Generator: Adobe Illustrator 25.2.3, SVG Export Plug-In . SVG Version: 6.00 Build 0)  -->
<svg version="1.1" id="Layer_1" xmlns="http://www.w3.org/2000/svg" xmlns:xlink="http://www.w3.org/1999/xlink" x="0px" y="0px"
	 viewBox="0 0 30 30" style="enable-background:new 0 0 30 30;" xml:space="preserve">
<style type="text/css">
	.st0{fill:#282832;}
	.st1{fill:#99D9E5;}
</style>
<g id="Group_11" transform="translate(0 -6)">
	<path id="Path_37" class="st0" d="M-263-372.3c-1,0.5-2.2,0.8-3.3,0.9c1.2-0.7,2.1-1.9,2.5-3.2c-1.1,0.7-2.4,1.1-3.6,1.4
		c-1.1-1.2-2.6-1.8-4.3-1.8c-3.2,0-5.7,2.6-5.7,5.7c0,0,0,0,0,0c0,0.4,0,0.9,0.1,1.3c-4.6-0.2-8.9-2.4-11.8-6
		c-0.5,0.9-0.8,1.9-0.8,2.9c0,1.9,0.9,3.7,2.5,4.8c-0.9,0-1.8-0.3-2.6-0.7v0.1c0,2.7,1.9,5.1,4.6,5.7c-0.5,0.1-1,0.2-1.5,0.2
		c-0.4,0-0.7,0-1.1-0.1c0.8,2.3,2.9,3.9,5.4,4c-2,1.6-4.6,2.5-7.1,2.5c-0.5,0-0.9,0-1.4-0.1c2.6,1.7,5.7,2.5,8.8,2.5
		c10.6,0,16.4-8.8,16.4-16.4v-0.7C-264.7-370.2-263.7-371.1-263-372.3z"/>
</g>
<path id="Path_17" class="st1" d="M1.5,16.7c1.7,5.9,7,11.4,13.2,11.4c9.7,0,19.2-12.9,11.7-20.9c-4.7-5-13.8-6.9-19.9-3.6
	C1.2,6.4,0.1,11.7,1.5,16.7"/>
</svg>
