<?xml version="1.0" encoding="utf-8"?>
<!-- Generator: Adobe Illustrator 25.2.3, SVG Export Plug-In . SVG Version: 6.00 Build 0)  -->
<svg version="1.1" id="Layer_1" xmlns="http://www.w3.org/2000/svg" xmlns:xlink="http://www.w3.org/1999/xlink" x="0px" y="0px"
	 viewBox="0 0 302.1 145.1" style="enable-background:new 0 0 302.1 145.1;" xml:space="preserve">
<style type="text/css">
	.st0{opacity:0.2;}
	.st1{fill:#282832;fill-opacity:0;}
	.st2{opacity:2.100000e-02;fill:#282832;enable-background:new    ;}
	.st3{opacity:4.300000e-02;fill:#282832;enable-background:new    ;}
	.st4{opacity:6.400000e-02;fill:#282832;enable-background:new    ;}
	.st5{opacity:8.500000e-02;fill:#282832;enable-background:new    ;}
	.st6{opacity:0.106;fill:#282832;enable-background:new    ;}
	.st7{opacity:0.127;fill:#282832;enable-background:new    ;}
	.st8{opacity:0.149;fill:#282832;enable-background:new    ;}
	.st9{opacity:0.17;fill:#282832;enable-background:new    ;}
	.st10{opacity:0.191;fill:#282832;enable-background:new    ;}
	.st11{opacity:0.213;fill:#282832;enable-background:new    ;}
	.st12{opacity:0.234;fill:#282832;enable-background:new    ;}
	.st13{opacity:0.255;fill:#282832;enable-background:new    ;}
	.st14{opacity:0.276;fill:#282832;enable-background:new    ;}
	.st15{opacity:0.298;fill:#282832;enable-background:new    ;}
	.st16{opacity:0.319;fill:#282832;enable-background:new    ;}
	.st17{opacity:0.34;fill:#282832;enable-background:new    ;}
	.st18{fill:#282832;}
</style>
<g id="Group_4193" transform="translate(-760.594 -41.71)">
	<g id="Ñëîé_2" transform="translate(760.594 41.71)" class="st0">
		<g id="Group_4080">
			<g id="Group_4079">
				<path id="Path_6042" class="st1" d="M64.3,11.5c-0.3,0.9-2.5,1.2-6.4,1.6c-3.9,0.5-9.6,1-15.7,3.7c-3.3,1.4-6.3,3.4-9,5.8
					c-3.1,2.8-5.5,6.2-7.3,9.9c-2,4.1-3,8.6-2.9,13.2c0,1.1,0.2,2.2,0.4,3.2c0.2,1,0.5,2,0.9,2.9c0.9,2,2.2,3.8,3.6,5.4
					c3.4,3.5,8.6,6.8,14.8,9.7c6.6,3,13.5,5.7,20.5,7.8c7.4,2.4,15.2,4.6,23.4,6.7l25.6,6.6c17.5,4.4,35.8,8.9,54.8,12.7
					c9.5,1.9,19.1,3.5,28.9,4.8c9.7,1.4,19.5,2.1,29.3,2.3c9.6,0.1,19-0.6,26.8-2.9c3.5-0.9,6.8-2.4,9.9-4.4
					c2.3-1.6,4.3-3.8,5.7-6.2c2.7-5,3.5-12.7,1.8-18.7c-0.4-1.5-0.9-2.9-1.5-4.2c-0.3-0.7-0.7-1.2-1-1.8c-0.4-0.5-0.7-1.1-1.1-1.5
					c-1.7-2-3.8-3.6-6.3-4.6c-5.7-2.5-13.9-3.6-22-4.3c-8.2-0.7-16.6-1.1-24.7-1.6c-15.4-0.8-30.7-2.6-45.8-5.3
					c-28-5.2-49.5-13.5-63.6-20.4c-14.1-7-21-12.5-20.3-14.1c0.8-1.8,9.2,0.4,23.9,4.1c14.8,3.7,36,8.8,62.6,11.3
					c13.3,1.3,27.9,1.8,43.9,1.8c8,0,16.4-0.1,25.4,0.3c4.5,0.2,9.2,0.4,14.2,1.1c5.5,0.6,10.8,1.9,15.9,3.9c3,1.1,5.8,2.6,8.5,4.4
					c2.8,1.9,5.4,4.2,7.7,6.7c2.3,2.5,4.2,5.3,5.7,8.3c1.5,2.9,2.7,5.9,3.6,9c1.8,6.1,2.4,12.5,2,18.8c-0.2,3.3-0.7,6.5-1.6,9.6
					c-0.8,3.3-2.1,6.5-3.6,9.6l-1.3,2.3l-1.5,2.2c-1,1.5-2.1,3-3.3,4.3l-1.8,2c-0.6,0.7-1.2,1.3-1.9,1.8c-1.3,1.1-2.7,2.3-4.1,3.3
					c-5.4,3.7-11.4,6.5-17.6,8.4c-11.9,3.6-23.5,4.2-34.8,4.2c-10.9-0.2-21.9-1.1-32.7-2.7c-10.5-1.5-20.7-3.4-30.6-5.5
					c-19.8-4.3-38.5-9.4-56.1-14.6c-8.8-2.6-17.3-5.2-25.6-7.8c-8.4-2.6-16.5-5.4-24.4-8.5c-7.8-3-15.3-6.5-22.6-10.5
					c-7.1-4.1-14.1-9-19.7-15.9c-2.8-3.6-4.9-7.7-6.3-12c-0.6-2.1-1-4.3-1.2-6.5c-0.2-2.1-0.2-4.1,0-6.2c0.7-7.2,3.1-14,7-20
					c3.3-5.1,7.6-9.5,12.7-12.8c4.2-2.7,8.9-4.6,13.8-5.6c6.4-1.3,13.1-0.9,19.4,1.1C62.8,9,64.6,10.6,64.3,11.5z"/>
				<path id="Path_6043" class="st2" d="M62.8,11.1c-0.2,0.9-2.4,1.2-6.3,1.6c-5.4,0.5-10.6,1.9-15.6,4c-3.3,1.5-6.3,3.6-8.8,6.1
					c-3,2.9-5.4,6.4-7,10.3c-1.9,4.2-2.7,8.8-2.5,13.4c0.1,1.1,0.2,2.2,0.5,3.2c0.1,0.5,0.3,1,0.5,1.5l0.2,0.7l0.4,0.7
					c1,2.1,2.3,3.9,4,5.5c3.6,3.5,8.9,6.9,15.1,9.7c6.7,3,13.5,5.6,20.5,7.8c7.4,2.3,15.2,4.6,23.3,6.7l25.5,6.6
					c17.4,4.4,35.7,8.9,54.6,12.6c9.5,1.9,19.1,3.5,28.8,4.8c9.7,1.4,19.4,2.1,29.2,2.3c9.6,0.1,19.1-0.6,26.9-2.9
					c3.6-0.9,7-2.4,10.1-4.5c2.5-1.7,4.5-3.9,6-6.4c2.9-5.1,3.7-12.9,2-19.1c-0.6-2.9-1.9-5.6-3.6-7.9c-1.7-2.1-3.9-3.7-6.4-4.8
					c-5.7-2.6-13.9-3.7-21.9-4.4c-8.2-0.7-16.5-1.1-24.6-1.6c-15.3-0.8-30.5-2.5-45.5-5.1c-27.8-5-49.3-13.1-63.3-19.8
					c-14.1-6.8-21-12.1-20.3-13.7c0.8-1.7,9.1,0.5,23.7,4.3c20.5,5.4,41.3,9.1,62.4,11.2c13.3,1.3,27.8,1.8,43.8,1.8
					c8,0,16.3,0,25.3,0.3c4.5,0.2,9.2,0.5,14.1,1.2c5.4,0.7,10.7,2,15.8,4c6,2.4,11.4,6.2,15.7,11.2c4.1,5,7.1,10.8,8.8,17.1
					c1.7,6,2.3,12.3,1.8,18.5c-0.2,3.2-0.8,6.4-1.6,9.4c-0.9,3.3-2.1,6.4-3.6,9.4c-0.8,1.6-1.7,3.1-2.8,4.5l-1.5,2.2
					c-0.5,0.7-1.2,1.3-1.7,2c-2.3,2.6-4.9,4.9-7.7,6.9c-5.3,3.6-11.2,6.4-17.3,8.1c-11.7,3.5-23.2,4.1-34.4,4.1
					c-10.9-0.2-21.7-1.1-32.4-2.7c-10.5-1.5-20.6-3.4-30.4-5.5c-19.7-4.2-38.3-9.3-55.8-14.4c-8.8-2.6-17.2-5.1-25.5-7.7
					c-8.3-2.6-16.4-5.4-24.2-8.3c-7.7-2.9-15.2-6.3-22.4-10.2c-7.1-4-14-8.6-19.6-15.2c-2.9-3.4-5.1-7.2-6.6-11.4l-0.5-1.6L7,55.7
					c-0.2-1.1-0.5-2.1-0.6-3.2c-0.3-2-0.3-4.1-0.2-6.1c0.8-13.2,7.5-25.4,18.2-33.1c4-2.9,8.6-5,13.4-6.1c3.7-0.9,7.5-1.2,11.3-1
					c2.7,0.1,5.4,0.6,8,1.3C61.2,8.8,63,10.3,62.8,11.1z"/>
				<path id="Path_6044" class="st3" d="M61.3,10.8c-0.2,0.9-2.4,1.1-6.2,1.7c-5.4,0.6-10.6,2.1-15.4,4.4c-3.2,1.6-6.2,3.8-8.7,6.4
					c-2.9,3.1-5.2,6.6-6.8,10.6c-1.8,4.3-2.5,8.9-2.2,13.5c0.5,4.6,2.7,8.7,6.2,11.7c3.7,3.6,9.3,6.8,15.5,9.7
					c6.7,3,13.5,5.6,20.5,7.7c7.4,2.3,15.1,4.6,23.3,6.7c8.2,2.1,16.7,4.3,25.4,6.6c17.3,4.4,35.5,8.9,54.3,12.6
					c9.4,1.9,19,3.5,28.7,4.8c9.7,1.3,19.4,2.1,29.2,2.3c9.6,0,19.1-0.6,27-2.9c3.6-0.9,7.1-2.5,10.3-4.5c2.6-1.7,4.7-4,6.3-6.6
					c1.6-2.9,2.5-6.1,2.9-9.3c0.4-3.4,0.2-6.9-0.6-10.2c-0.6-3-1.9-5.8-3.7-8.3c-1.7-2.2-3.9-3.9-6.5-5.1
					c-5.7-2.7-13.8-3.8-21.9-4.5c-8.1-0.7-16.4-1.1-24.4-1.5c-15.2-0.8-30.3-2.4-45.2-4.9c-27.6-4.8-49-12.7-63.1-19.2
					c-14.1-6.6-21-11.8-20.4-13.2c0.7-1.6,8.9,0.7,23.5,4.4c20.4,5.4,41.2,9.1,62.2,11.1c13.2,1.2,27.7,1.7,43.6,1.8
					c8,0.1,16.3,0,25.2,0.4c4.7,0.2,9.4,0.6,14,1.3c5.3,0.7,10.6,2.1,15.6,4.2c5.9,2.5,11.1,6.4,15.1,11.3
					c3.9,4.9,6.8,10.6,8.3,16.8c1.6,5.9,2.1,12.1,1.6,18.1c-0.5,6.4-2.3,12.7-5.3,18.4c-3.3,6-7.9,11.1-13.6,15
					c-5.2,3.5-11,6.2-17,7.9c-11.6,3.4-22.9,4-34,4c-10.8-0.2-21.5-1.1-32.2-2.6c-10.4-1.5-20.4-3.3-30.2-5.4
					c-19.6-4.2-38-9.2-55.5-14.3c-8.7-2.5-17.1-5.1-25.3-7.6c-8.3-2.6-16.3-5.3-24.1-8.2c-7.6-2.8-15.1-6.2-22.3-10
					c-7-3.8-13.9-8.2-19.5-14.6c-2.9-3.2-5.2-6.8-6.9-10.8c-0.4-1-0.8-2-1.1-3C7.7,56,7.5,55,7.2,54c-0.4-2-0.6-4-0.6-6
					c0.1-7,1.9-13.9,5.4-20c2.8-5.2,6.7-9.7,11.3-13.3c3.9-3,8.3-5.2,13-6.5c3.6-1,7.4-1.5,11.1-1.5c2.7,0,5.3,0.4,7.9,1
					C59.6,8.7,61.5,10,61.3,10.8z"/>
				<path id="Path_6045" class="st4" d="M59.8,10.5c-0.1,0.8-2.3,1.1-6.1,1.7c-5.3,0.7-10.5,2.4-15.3,4.8c-3.2,1.8-6,4.1-8.5,6.7
					c-2.8,3.2-5,6.9-6.5,10.8c-1.7,4.3-2.3,9-1.7,13.6c0.3,2.2,1,4.3,2.1,6.2c1.3,2.1,2.9,4,4.7,5.6c4,3.6,9.6,6.8,15.9,9.6
					c6.7,2.9,13.6,5.5,20.6,7.7c7.4,2.3,15.1,4.5,23.2,6.6l25.2,6.6c17.2,4.4,35.3,8.8,54.1,12.5c9.4,1.8,18.9,3.5,28.6,4.8
					c9.6,1.3,19.4,2.1,29.1,2.3c9.6,0,19.1-0.6,27.1-2.9c3.7-1,7.2-2.5,10.5-4.6c2.7-1.8,4.9-4.1,6.6-6.8c1.6-2.9,2.6-6.2,3-9.5
					c0.4-3.5,0.2-7-0.5-10.4c-0.4-1.6-0.9-3.2-1.5-4.7c-0.6-1.4-1.3-2.7-2.2-3.9c-1.7-2.3-4-4.2-6.6-5.4c-3.2-1.5-6.6-2.5-10-3.1
					c-3.9-0.7-7.8-1.3-11.8-1.6c-8.1-0.7-16.3-1.1-24.3-1.5c-15.1-0.7-30.1-2.3-44.9-4.6c-21.6-3.5-42.7-9.7-62.8-18.6
					c-14-6.4-21-11.4-20.4-12.8c0.6-1.5,8.8,0.8,23.4,4.5c20.3,5.4,41,9.1,61.9,11c13.2,1.2,27.7,1.7,43.5,1.7
					c7.9,0.1,16.2,0,25.1,0.4c4.7,0.2,9.3,0.6,13.9,1.3c5.3,0.7,10.5,2.2,15.3,4.3c5.7,2.5,10.7,6.4,14.6,11.3
					c1.9,2.5,3.6,5.1,4.9,8c1.3,2.7,2.3,5.6,3,8.5c1.5,5.8,1.9,11.8,1.3,17.8c-0.6,6.3-2.4,12.4-5.4,18c-3.3,5.8-7.9,10.8-13.4,14.6
					c-5.1,3.5-10.8,6-16.8,7.7c-11.4,3.3-22.6,3.9-33.6,3.9c-10.7-0.2-21.3-1-31.9-2.6c-10.3-1.4-20.3-3.3-30-5.4
					c-19.4-4.1-37.8-9.1-55.2-14.1c-8.7-2.5-17-5-25.2-7.5c-8.2-2.5-16.2-5.2-23.9-8.1c-7.6-2.8-15-6-22.1-9.7
					c-7-3.8-13.7-7.9-19.4-13.9c-2.9-3-5.3-6.5-7.1-10.2c-1.7-3.7-2.6-7.8-2.8-11.8c-0.2-6.9,1.4-13.8,4.6-19.9
					c2.6-5.2,6.3-9.8,10.7-13.5c3.7-3.1,7.9-5.5,12.5-7C41,7,47.5,6.5,53.8,7.7C58,8.6,59.9,9.8,59.8,10.5z"/>
				<path id="Path_6046" class="st5" d="M58.3,10.3c-0.1,0.8-2.2,1.1-6,1.8c-5.3,0.8-10.4,2.6-15.1,5.2c-3.2,1.8-6,4.2-8.3,7
					c-2.8,3.3-4.9,7.1-6.3,11.1c-1.6,4.4-2,9.1-1.3,13.7c0.2,1.1,0.5,2.2,0.9,3.2c0.2,0.5,0.5,1,0.7,1.5c0.2,0.5,0.5,1,0.8,1.5
					c1.4,2.1,3.1,4,5,5.7c4.9,3.9,10.4,7.1,16.2,9.5c6.7,2.9,13.6,5.5,20.6,7.6c7.4,2.3,15.1,4.5,23.1,6.6
					c8.1,2.1,16.5,4.3,25.1,6.6c17.2,4.4,35.2,8.8,53.9,12.5c9.3,1.8,18.9,3.5,28.5,4.8c9.6,1.3,19.3,2.1,29.1,2.3
					c9.6,0,19.1-0.6,27.2-2.9c3.8-1,7.4-2.5,10.7-4.6c2.8-1.8,5.1-4.2,6.8-7c3.3-5.5,4.1-13.6,2.7-20.3c-0.6-3.2-1.9-6.2-3.8-8.9
					c-0.8-1.2-1.8-2.3-2.9-3.2c-1.2-1-2.4-1.8-3.8-2.5c-5.7-3-13.8-4.2-21.7-4.9c-8-0.7-16.2-1.1-24.2-1.5
					c-15-0.7-29.9-2.1-44.7-4.4c-21.5-3.3-42.5-9.4-62.5-18c-14-6.3-21-11.1-20.5-12.4c0.6-1.4,8.7,0.9,23.2,4.6
					c20.2,5.4,40.9,9,61.7,11c13.1,1.2,27.6,1.7,43.3,1.7c7.9,0.1,16.1,0,25,0.5c4.6,0.2,9.2,0.7,13.8,1.4
					c5.2,0.8,10.3,2.3,15.1,4.5c2.7,1.3,5.2,2.8,7.6,4.7c2.4,1.9,4.6,4.2,6.5,6.7c3.6,4.8,6.1,10.3,7.5,16.2
					c1.3,5.7,1.7,11.6,1.1,17.5c-0.3,3-0.9,6-1.8,8.9c-0.9,3-2.2,6-3.7,8.7c-3.3,5.6-7.8,10.5-13.2,14.1c-5,3.4-10.6,5.9-16.5,7.5
					c-5.5,1.6-11,2.6-16.7,3.1l-4.1,0.4c-1.4,0.1-2.7,0.1-4.1,0.2c-2.8,0.2-5.5,0.1-8.2,0.1c-10.6-0.2-21.2-1-31.7-2.6
					c-10.2-1.4-20.2-3.3-29.8-5.3c-19.3-4.1-37.6-9-54.8-14c-8.6-2.5-17-5-25.1-7.5c-8.2-2.5-16.1-5.1-23.8-7.9
					c-7.5-2.7-14.8-5.9-22-9.5c-6.9-3.6-13.6-7.7-19.3-13.3c-2.9-2.8-5.3-6.1-7.2-9.7c-0.5-0.9-0.9-1.8-1.3-2.8
					c-0.4-1-0.7-1.9-1-2.9c-0.5-1.9-0.9-3.8-1.1-5.8C7.4,44,8.7,37.2,11.6,31c5.2-11.2,14.1-18.2,22-21.1c3.4-1.3,7.1-2.1,10.7-2.4
					c2.6-0.2,5.2-0.1,7.8,0.3C56.4,8.6,58.4,9.6,58.3,10.3z"/>
				<path id="Path_6047" class="st6" d="M56.7,10.2c-0.1,0.7-2.2,1.1-5.9,1.8c-5.3,1-10.3,2.9-14.9,5.6c-3.1,2-5.8,4.5-8.1,7.4
					c-2.7,3.4-4.7,7.3-6,11.4c-1.5,4.5-1.8,9.2-0.9,13.8c1.1,4.4,3.7,8.4,8.2,12c5,3.9,10.6,7.1,16.4,9.5C52.2,74.5,59,77,66,79.2
					c7.3,2.3,15.1,4.5,23.1,6.6l25,6.5c17.1,4.4,35,8.8,53.6,12.4c9.3,1.8,18.8,3.5,28.4,4.7c9.6,1.3,19.3,2.1,29,2.2
					c2.4,0,4.8,0,7.2-0.1c1.2-0.1,2.4-0.1,3.5-0.2l3.5-0.3c1.2-0.1,2.3-0.2,3.4-0.4s2.3-0.3,3.3-0.5c2.1-0.5,4.3-0.8,6.3-1.5
					c2-0.5,3.9-1.2,5.8-2l2.6-1.3c0.8-0.4,1.6-0.9,2.4-1.4c2.9-1.8,5.3-4.3,7.1-7.1c3.4-5.7,4.3-13.8,2.9-20.7
					c-0.6-3.3-1.9-6.4-3.8-9.2c-1.7-2.5-4-4.6-6.7-6c-5.7-3.1-13.8-4.3-21.7-5.1c-8-0.8-16.1-1.1-24-1.5c-14.9-0.6-29.7-2-44.4-4.2
					c-21.4-3.2-42.3-9-62.2-17.4c-14-6.1-21-10.8-20.5-12c0.5-1.3,8.6,1,23,4.8c20.1,5.3,40.7,9,61.4,10.9
					c13.1,1.2,27.5,1.6,43.2,1.7c7.9,0.1,16.1,0.1,24.8,0.6c4.6,0.2,9.2,0.7,13.7,1.5c5.2,0.8,10.2,2.4,14.9,4.7
					c5.4,2.6,10,6.5,13.5,11.4c3.4,4.8,5.8,10.2,7,15.9c1.3,5.6,1.6,11.4,0.9,17.1c-0.7,6.1-2.5,11.9-5.5,17.2
					c-3.3,5.5-7.7,10.1-13,13.6c-1.3,0.8-2.6,1.7-3.9,2.4l-4,2c-2.7,1.1-5.4,2.1-8.2,2.9c-2.8,0.9-5.5,1.4-8.3,1.9
					c-1.4,0.3-2.7,0.4-4.1,0.6s-2.7,0.4-4.1,0.5l-4.1,0.4c-1.4,0.1-2.7,0.1-4.1,0.2c-2.7,0.2-5.4,0.1-8.1,0.1
					c-10.5-0.2-21-1-31.4-2.5c-10.2-1.4-20-3.2-29.6-5.2c-19.2-4.1-37.4-8.9-54.5-13.8c-8.6-2.5-16.9-5-24.9-7.4
					c-8.1-2.5-16.1-5-23.6-7.8c-7.4-2.7-14.7-5.8-21.8-9.3c-6.9-3.5-13.5-7.5-19.2-12.8c-1.4-1.3-2.8-2.7-4-4.3
					c-0.6-0.7-1.2-1.6-1.8-2.4c-0.6-0.8-1.1-1.6-1.6-2.5c-0.5-0.9-0.9-1.8-1.4-2.6c-0.4-0.9-0.7-1.9-1.1-2.8
					c-0.2-0.5-0.3-0.9-0.5-1.4l-0.3-1.4c-0.2-0.9-0.4-1.9-0.6-2.8c-0.8-6.7,0.2-13.5,2.9-19.7c2.2-5.2,5.4-9.9,9.3-13.9
					c3.3-3.3,7.2-5.9,11.5-7.8c5.7-2.5,12.1-3.5,18.3-2.8C54.8,8.6,56.8,9.5,56.7,10.2z"/>
				<path id="Path_6048" class="st7" d="M55.2,10.1c0,0.6-2.1,1-5.9,1.9C44.1,13,39.1,15,34.6,18C28,22.6,23.1,29.4,21,37.3
					c-1.2,4.4-1.7,9.5-0.4,13.9c0.2,0.5,0.3,1.1,0.5,1.7l0.7,1.6c0.1,0.3,0.2,0.5,0.4,0.8l0.5,0.8c0.3,0.5,0.6,1,1,1.5
					c0.8,1,1.6,2,2.6,2.9c0.5,0.5,0.9,1,1.5,1.4l1.7,1.3c5.1,3.8,10.7,7,16.7,9.4c6.4,2.7,13.3,5.2,20.6,7.5c7.3,2.3,15,4.4,23,6.6
					l24.9,6.5c17,4.4,34.8,8.8,53.4,12.4c9.3,1.8,18.7,3.5,28.3,4.7c9.6,1.3,19.3,2.1,28.9,2.2c2.4,0,4.8,0,7.2-0.1l3.5-0.2l3.5-0.3
					c1.2-0.1,2.3-0.2,3.4-0.4s2.3-0.3,3.4-0.5c2.2-0.5,4.4-0.8,6.4-1.5c2-0.6,4-1.2,5.9-2c1.8-0.8,3.5-1.7,5.1-2.7
					c3-1.9,5.5-4.4,7.4-7.3c3.5-5.8,4.6-14,3.2-21.1c-0.6-3.4-1.9-6.6-3.7-9.6c-1.7-2.6-4.1-4.8-6.8-6.3c-5.8-3.2-13.8-4.5-21.7-5.2
					c-8-0.8-16-1.1-23.9-1.5c-14.8-0.6-29.5-1.9-44.1-4c-21.3-3.1-42.1-8.7-61.9-16.8c-14-5.9-21-10.5-20.6-11.5
					c0.5-1.2,8.5,1.2,22.8,4.9c20.1,5.3,40.5,8.9,61.2,10.8c13.1,1.2,27.4,1.6,43,1.7c7.8,0.1,16,0.1,24.7,0.6
					c4.6,0.3,9.1,0.8,13.6,1.6c5.1,0.9,10,2.5,14.6,4.8c5.2,2.7,9.6,6.6,13,11.4c3.2,4.7,5.5,10,6.6,15.6c1.2,5.5,1.4,11.2,0.7,16.8
					c-0.7,5.9-2.6,11.6-5.6,16.8c-3.2,5.3-7.6,9.8-12.8,13.2c-2.5,1.6-5.1,3-7.8,4.2c-2.6,1.1-5.3,2-8.1,2.8
					c-2.7,0.9-5.4,1.3-8.1,1.9c-1.4,0.2-2.7,0.4-4.1,0.6s-2.7,0.4-4.1,0.5l-4.1,0.4c-1.3,0.1-2.7,0.1-4,0.2
					c-2.7,0.2-5.4,0.1-8.1,0.1c-10.4-0.2-20.8-1-31.2-2.5c-10.1-1.4-19.9-3.2-29.4-5.2c-19.1-4-37.2-8.8-54.2-13.7
					c-8.5-2.4-16.8-4.9-24.8-7.3c-8.1-2.5-16-4.9-23.5-7.7c-7.4-2.6-14.6-5.6-21.7-9c-6.9-3.2-13.3-7.3-19-12.3L19,70.9
					c-0.7-0.7-1.3-1.4-1.9-2.1c-1.3-1.4-2.4-3-3.5-4.6c-0.5-0.8-0.9-1.7-1.4-2.5l-0.7-1.3c-0.2-0.4-0.4-0.9-0.5-1.3
					c-0.3-0.9-0.7-1.8-1-2.7c-0.2-0.9-0.4-1.8-0.6-2.7c-1.1-6.6-0.4-13.4,2-19.6c4.3-11.2,12.3-18.6,19.7-22.2
					c5.6-2.8,11.8-4,17.9-3.6C53.2,8.6,55.2,9.5,55.2,10.1z"/>
				<path id="Path_6049" class="st8" d="M53.7,10c0,0.6-2.1,1-5.8,1.9c-5.2,1.2-10.2,3.4-14.5,6.5c-3,2.2-5.6,4.9-7.8,7.9
					c-1.2,1.7-2.2,3.6-3.1,5.5c-0.9,2.1-1.7,4.2-2.2,6.4c-1.1,4.5-1.4,9.6,0.1,14l0.2,0.8l0.4,0.8l0.7,1.6c0.6,1.1,1.3,2.1,2.1,3.1
					c0.4,0.5,0.8,1,1.2,1.5l1.5,1.4l0.7,0.7l0.8,0.7l1.7,1.4c5.2,3.7,10.9,6.9,16.9,9.3c6.4,2.7,13.3,5.1,20.6,7.4
					c7.3,2.3,15,4.4,22.9,6.6l24.7,6.5c16.9,4.4,34.7,8.7,53.1,12.4c9.2,1.8,18.7,3.4,28.2,4.7c9.6,1.3,19.2,2.1,28.9,2.2
					c2.4,0,4.8,0,7.2-0.1l3.5-0.2l3.5-0.3c1.2-0.1,2.3-0.2,3.4-0.4l3.4-0.5c2.2-0.5,4.4-0.8,6.4-1.5c2-0.6,4-1.2,6-2
					c1.8-0.8,3.6-1.7,5.2-2.8c3.1-1.9,5.7-4.4,7.7-7.5c3.7-5.9,4.8-14.2,3.5-21.5c-0.6-3.5-1.8-6.8-3.7-9.9c-1.7-2.7-4.1-5-6.9-6.6
					c-5.8-3.3-13.8-4.7-21.6-5.5c-7.9-0.8-16-1.1-23.8-1.5c-15.6-0.7-30.4-1.8-43.8-3.8c-21.1-2.9-41.8-8.4-61.6-16.3
					c-13.9-5.7-21-10.1-20.6-11.1c0.5-1.1,8.4,1.3,22.6,5c20,5.3,40.4,8.9,61,10.8c13,1.2,27.3,1.6,42.9,1.7
					c7.8,0.1,15.9,0.1,24.6,0.7c4.5,0.3,9,0.9,13.5,1.7c5,0.9,9.9,2.6,14.4,5c5,2.7,9.3,6.6,12.4,11.3c3,4.7,5.1,9.9,6.2,15.4
					c1.1,5.4,1.3,11,0.5,16.5c-0.1,1.4-0.5,2.8-0.7,4.2c-0.4,1.4-0.7,2.8-1.2,4.1c-0.9,2.8-2.2,5.5-3.7,8.1
					c-3.2,5.2-7.5,9.5-12.6,12.8c-2.4,1.6-5,2.9-7.7,4.1c-2.6,1.1-5.2,2-7.9,2.7c-2.7,0.8-5.3,1.3-8,1.9l-4,0.6
					c-1.3,0.2-2.7,0.4-4,0.5l-4,0.4l-4,0.2c-2.7,0.2-5.3,0.1-8,0.1c-10.3-0.2-20.7-1-30.9-2.5c-10-1.4-19.7-3.1-29.2-5.1
					c-19-4-36.9-8.7-53.9-13.5c-8.5-2.4-16.7-4.8-24.7-7.2c-8-2.4-15.9-4.8-23.3-7.6c-7.3-2.6-14.5-5.5-21.5-8.8
					c-6.8-3.1-13.1-7.1-18.9-11.8l-2.1-1.9l-1-0.9l-1-1l-1.8-2.1c-0.6-0.7-1.1-1.5-1.7-2.3c-1.1-1.5-2-3.2-2.8-4.8
					c-0.4-0.9-0.7-1.7-1-2.6l-0.5-1.3l-0.3-1.3c-0.8-3.4-1.1-6.8-0.8-10.3c0.3-3.1,0.9-6.1,1.9-9.1C14.5,26,21.2,17.9,30,13
					c3.1-1.7,6.5-3,10-3.7l2.2-0.4l2-0.2c1.1-0.1,2.3-0.1,3.4-0.1C51.6,8.7,53.7,9.5,53.7,10z"/>
				<path id="Path_6050" class="st9" d="M52.1,10c0,0.5-2,0.9-5.7,1.9c-5.2,1.3-10.1,3.7-14.3,6.9l-2,1.7c-0.7,0.6-1.3,1.3-2,1.9
					c-1.3,1.4-2.5,3-3.6,4.6c-2.4,3.7-4.1,7.8-5.1,12.1c-1.1,4.6-0.9,9.5,0.6,14c2.1,4.9,5.6,9.1,10.1,12c5.3,3.7,11.1,6.8,17.1,9.2
					c6.4,2.7,13.3,5.1,20.6,7.4c7.3,2.3,14.9,4.4,22.9,6.5l24.6,6.5c16.8,4.4,34.5,8.7,52.9,12.3c9.2,1.8,18.6,3.4,28.1,4.7
					c9.6,1.3,19.2,2.1,28.8,2.2c2.4,0,4.8,0,7.2-0.1l3.5-0.2l3.5-0.3c1.2-0.1,2.3-0.2,3.4-0.4l3.4-0.5c2.2-0.5,4.4-0.8,6.5-1.5
					c1-0.3,2.1-0.5,3.1-0.9l3-1.1c1.9-0.8,3.6-1.7,5.3-2.8c3.2-1.9,5.9-4.5,7.9-7.6c3.9-6,5-14.4,3.7-21.8c-0.3-1.8-0.8-3.6-1.4-5.4
					c-0.6-1.7-1.4-3.3-2.3-4.8c-1.7-2.9-4.1-5.2-7-6.9c-3.1-1.8-6.5-3.1-10.1-3.9c-3.8-0.9-7.7-1.5-11.6-1.8
					c-7.9-0.8-15.9-1.1-23.6-1.5c-15.5-0.7-30.2-1.7-43.5-3.6c-21-2.8-41.6-8-61.3-15.7c-13.9-5.5-21-9.8-20.6-10.7
					c0.4-1,8.2,1.4,22.4,5.2c19.9,5.3,40.2,8.9,60.7,10.7c13,1.2,27.2,1.6,42.7,1.7c7.8,0.1,15.8,0.2,24.4,0.8
					c4.5,0.3,8.9,0.9,13.3,1.8c4.9,0.9,9.7,2.7,14.1,5.1c4.8,2.7,8.9,6.6,11.9,11.3c2.9,4.6,4.9,9.7,5.8,15.1
					c1,5.3,1.1,10.8,0.3,16.2c-0.4,2.8-1.1,5.5-2,8.1c-0.9,2.8-2.2,5.4-3.7,7.8c-3.1,5-7.4,9.2-12.4,12.3c-4.7,3-9.9,5.2-15.3,6.6
					c-2.6,0.8-5.3,1.2-7.9,1.8l-4,0.6c-1.3,0.2-2.6,0.4-4,0.5l-4,0.4l-3.9,0.2c-2.6,0.2-5.3,0.1-7.9,0.1c-10.3-0.2-20.5-1-30.7-2.4
					c-9.9-1.4-19.6-3.1-29-5.1c-18.9-3.9-36.7-8.6-53.6-13.4c-8.4-2.4-16.6-4.8-24.6-7.2c-8-2.4-15.8-4.8-23.2-7.4
					c-7.3-2.5-14.4-5.4-21.4-8.6c-6.7-3-13-6.8-18.8-11.3C18,69.1,13.2,63,11.1,56.2c-1.7-6.3-1.6-12.9,0.4-19.1
					c2.8-9.5,9-17.7,17.4-23C34,10.9,39.9,9.1,46,8.9C50.1,8.9,52.1,9.5,52.1,10z"/>
				<path id="Path_6051" class="st10" d="M50.6,10c0,0.5-2,0.9-5.6,2c-0.9,0.3-1.9,0.6-3,1c-0.5,0.2-1.1,0.4-1.7,0.6
					c-0.6,0.3-1.2,0.5-1.8,0.8c-1.3,0.6-2.6,1.3-3.8,2c-1.4,0.9-2.6,1.9-3.9,2.9c-2.9,2.4-5.4,5.3-7.3,8.5
					c-2.3,3.8-3.9,7.9-4.7,12.3C18,44.8,18,49.9,20,54.3c1,2.3,2.4,4.5,4.1,6.4c2,2.1,4.1,3.9,6.5,5.6c5.4,3.6,11.2,6.7,17.2,9.1
					c6.4,2.7,13.3,5.1,20.6,7.3c7.3,2.3,14.8,4.4,22.8,6.5l24.5,6.5c16.7,4.3,34.3,8.7,52.7,12.3c9.2,1.8,18.5,3.4,28,4.6
					c9.5,1.3,19.1,2,28.8,2.2c2.4,0,4.8,0,7.2-0.1l3.5-0.2l3.5-0.3c2.3-0.1,4.6-0.6,6.9-0.9l3.3-0.7c1.1-0.2,2.2-0.5,3.2-0.8
					c4.1-1,8-2.6,11.6-4.8c3.3-1.9,6.1-4.6,8.2-7.8c4.1-6.2,5.3-14.6,4-22.2c-0.6-3.7-1.8-7.2-3.6-10.4c-0.9-1.5-1.9-2.9-3.1-4.1
					c-1.2-1.2-2.5-2.3-4-3.2c-5.8-3.7-13.8-5.1-21.6-5.9c-7.9-0.8-15.8-1.1-23.5-1.5c-15.4-0.7-30-1.6-43.2-3.4
					c-20.9-2.7-41.4-7.7-61-15.1c-13.9-5.3-21-9.5-20.6-10.3c0.4-0.9,8.1,1.6,22.2,5.3c19.8,5.3,40.1,8.9,60.5,10.7
					c12.9,1.1,27.1,1.6,42.5,1.7c7.7,0.1,15.8,0.2,24.3,0.9c4.4,0.3,8.8,0.9,13.2,1.9c4.8,1,9.5,2.8,13.8,5.3c2.3,1.4,4.4,3,6.3,4.9
					c1.9,1.9,3.6,4.1,5,6.4c2.7,4.5,4.6,9.6,5.5,14.8c0.9,5.2,1,10.6,0.2,15.8c-0.4,2.7-1.1,5.4-2,7.9c-0.9,2.7-2.2,5.2-3.7,7.6
					c-3.1,4.9-7.3,8.9-12.2,11.9c-4.7,2.9-9.7,5.1-15.1,6.4c-1.3,0.4-2.6,0.7-3.9,1l-3.9,0.8c-2.6,0.3-5.2,0.9-7.8,1l-3.9,0.4
					l-3.9,0.2c-2.6,0.2-5.2,0.1-7.8,0.1c-10.2-0.2-20.3-1-30.4-2.4c-9.9-1.3-19.5-3.1-28.8-5c-18.7-3.9-36.5-8.5-53.3-13.2
					c-8.4-2.4-16.5-4.7-24.4-7.1s-15.7-4.7-23.1-7.3c-7.2-2.4-14.3-5.3-21.2-8.4c-6.6-2.9-12.9-6.6-18.7-10.9
					c-2.8-2.2-5.4-4.6-7.7-7.3c-2.2-2.7-4-5.8-5.2-9.2c-0.6-1.6-1-3.3-1.3-5c-0.1-0.8-0.2-1.6-0.3-2.5c0-0.8-0.1-1.6-0.1-2.4
					c0-3,0.4-6,1.2-9c2.4-9.5,8.2-17.8,16.2-23.3c1.5-1,3.1-2,4.8-2.8c1.5-0.7,3-1.2,4.5-1.7l2.1-0.6l1.9-0.4
					c1.1-0.2,2.2-0.4,3.4-0.4C48.5,9.1,50.6,9.6,50.6,10z"/>
				<path id="Path_6052" class="st11" d="M49,10.1c0,0.2-0.5,0.4-1.4,0.7c-0.5,0.2-1.1,0.3-1.8,0.5l-2.4,0.8
					c-0.9,0.3-1.9,0.7-2.9,1.1c-1.1,0.4-2.2,1-3.4,1.5c-2.7,1.4-5.2,3.2-7.5,5.2c-2.8,2.5-5.2,5.5-7.1,8.8
					c-2.2,3.9-3.7,8.1-4.4,12.5c-0.4,2.4-0.4,4.8-0.2,7.2c0.1,1.2,0.3,2.4,0.7,3.6c0.2,0.6,0.3,1.2,0.5,1.8c0.2,0.6,0.5,1.1,0.8,1.7
					c2.1,4.5,6.2,8.5,11.2,11.9c5.5,3.6,11.3,6.6,17.4,9c6.4,2.6,13.3,5.1,20.5,7.3c7.2,2.3,14.8,4.4,22.7,6.5l24.3,6.5
					c16.7,4.3,34.2,8.7,52.4,12.3c9.1,1.8,18.4,3.4,27.9,4.6c9.5,1.3,19.1,2,28.7,2.2c2.4,0,4.8,0,7.2-0.1l3.5-0.1l3.5-0.3
					c2.3-0.1,4.6-0.6,6.9-0.9l3.3-0.7l1.7-0.3l1.6-0.5c4.1-1,8.1-2.7,11.8-4.8c1.7-1,3.3-2.2,4.8-3.5l2-2.1c0.7-0.7,1.1-1.5,1.7-2.3
					c4.3-6.3,5.5-14.8,4.3-22.5c-0.5-3.8-1.8-7.4-3.6-10.7c-1.7-3.1-4.2-5.7-7.1-7.6c-5.9-3.8-13.9-5.3-21.7-6.2
					c-7.8-0.9-15.7-1.1-23.4-1.5c-15.4-0.6-29.8-1.5-43-3.2c-20.7-2.5-41.1-7.4-60.7-14.5c-13.8-5.2-21-9.1-20.7-9.8
					c0.3-0.8,8,1.7,22.1,5.4c19.7,5.3,39.9,8.8,60.2,10.6c12.9,1.2,27,1.5,42.4,1.7c7.7,0.1,15.7,0.2,24.1,0.9c4.4,0.3,8.8,1,13,2
					c4.7,1.1,9.3,2.9,13.5,5.4c4.5,2.8,8.2,6.6,10.8,11.2c2.6,4.5,4.3,9.4,5.2,14.5c0.8,5.1,0.8,10.4,0,15.5
					c-0.8,5.4-2.8,10.5-5.8,15.1c-0.8,1.2-1.6,2.3-2.5,3.4l-2.9,3.1c-2,1.9-4.3,3.6-6.6,5c-4.6,2.8-9.6,4.9-14.8,6.3l-1.9,0.5
					L252,125l-3.9,0.8c-2.6,0.3-5.2,0.8-7.7,1l-3.9,0.3l-3.9,0.2c-2.6,0.2-5.2,0.1-7.7,0.1c-10.1-0.2-20.2-0.9-30.1-2.4
					c-9.8-1.3-19.3-3-28.6-4.9c-18.6-3.8-36.3-8.4-53-13.1c-8.4-2.3-16.5-4.7-24.3-7S73.3,95.4,66,92.9c-7.4-2.5-14.4-5.2-21.1-8.2
					c-6.6-2.8-12.8-6.4-18.6-10.5c-1.4-1-2.8-2.1-4-3.3c-0.6-0.6-1.3-1.1-1.9-1.8l-1.8-1.9c-1.1-1.3-2.2-2.7-3.1-4.1
					c-0.5-0.7-0.9-1.5-1.3-2.2c-0.4-0.7-0.8-1.5-1.1-2.3c-0.3-0.8-0.6-1.6-0.9-2.4c-0.3-0.8-0.4-1.6-0.6-2.4
					c-0.4-1.6-0.6-3.2-0.6-4.8c-0.1-3,0.1-6,0.8-8.9c2-9.4,7.4-17.8,15.1-23.6c2.8-2,5.8-3.7,9-4.9c1.4-0.5,2.7-0.9,3.9-1.1
					c1.2-0.2,2.3-0.5,3.3-0.6s1.9-0.2,2.6-0.2c0.8,0,1.4,0,1.9,0.1C48.5,9.7,49,9.9,49,10.1z"/>
				<path id="Path_6053" class="st12" d="M47.5,10.3c0,0.4-1.9,0.8-5.5,2.1c-5.1,1.7-9.7,4.6-13.6,8.2c-2.7,2.6-5,5.7-6.8,9.1
					c-2.1,3.9-3.5,8.2-4.1,12.7c-0.3,2.4-0.3,4.8,0,7.2c0.4,2.4,1.2,4.8,2.3,7c2.5,4.5,6.6,8.4,11.7,11.8c5.5,3.5,11.4,6.5,17.5,8.8
					c6.4,2.6,13.3,5,20.5,7.2s14.7,4.4,22.6,6.5l24.2,6.5c16.6,4.3,34,8.6,52.2,12.2c9.1,1.8,18.4,3.4,27.8,4.6
					c9.5,1.3,19.1,2,28.6,2.2c2.4,0,4.8,0,7.2-0.1l3.5-0.1l3.5-0.3c2.3-0.1,4.6-0.6,6.9-0.9c1.1-0.2,2.2-0.5,3.3-0.7
					c1.1-0.2,2.2-0.5,3.3-0.8c4.2-1,8.2-2.7,11.9-4.9c0.9-0.5,1.7-1.1,2.6-1.7l2.3-1.9l2-2.1c0.2-0.2,0.3-0.4,0.5-0.5l0.4-0.6
					l0.8-1.2c2.2-3.3,3.7-7,4.4-10.9c0.7-3.9,0.8-8,0.3-12c-0.5-3.8-1.7-7.5-3.5-11c-1.7-3.2-4.2-5.9-7.1-8c-6-4-13.9-5.6-21.7-6.5
					c-7.8-0.9-15.7-1.2-23.3-1.5c-15.3-0.6-29.7-1.4-42.7-3c-20.6-2.4-40.9-7.1-60.4-14c-13.8-5-20.9-8.8-20.7-9.4
					c0.3-0.7,7.9,1.8,21.9,5.6c19.6,5.3,39.7,8.8,60,10.6c12.8,1.1,26.9,1.5,42.2,1.8c7.7,0.2,15.6,0.2,24,1
					c4.3,0.4,8.7,1.1,12.9,2.1c4.7,1.1,9.1,2.9,13.1,5.5c4.2,2.9,7.8,6.7,10.3,11.1c2.4,4.4,4.1,9.3,4.8,14.2
					c0.8,5,0.7,10.2-0.2,15.2c-0.9,5.3-2.8,10.3-5.8,14.7l-1.2,1.7l-0.6,0.8l-0.7,0.8c-0.9,1-1.8,2-2.8,3l-3.1,2.6
					c-1.1,0.8-2.2,1.6-3.4,2.2c-4.5,2.7-9.4,4.8-14.5,6.1c-1.2,0.4-2.5,0.7-3.8,0.9c-1.3,0.3-2.5,0.5-3.8,0.8
					c-2.5,0.3-5.1,0.8-7.6,1l-3.8,0.3l-3.8,0.2c-2.6,0.2-5.1,0.1-7.7,0.1c-10-0.2-20-0.9-29.9-2.3c-9.7-1.3-19.2-3-28.4-4.9
					c-18.5-3.8-36.1-8.3-52.7-12.9c-8.3-2.3-16.4-4.6-24.2-6.9C82,97.3,74.3,95,67,92.5c-7.3-2.5-14.3-5.1-21-8
					c-6.5-2.8-12.7-6.2-18.5-10.1c-5.6-4-10.5-8.9-13.5-14.9c-1.4-2.9-2.2-6-2.6-9.2c-0.3-2.9-0.1-5.9,0.4-8.8
					c0.9-5.1,2.8-9.9,5.5-14.3c2.3-3.6,5.1-6.9,8.4-9.6c2.6-2.1,5.6-3.9,8.7-5.2c1.2-0.5,2.5-1,3.8-1.3c1.1-0.3,2.1-0.6,3.2-0.7
					C45.4,9.7,47.5,9.9,47.5,10.3z"/>
				<path id="Path_6054" class="st13" d="M46,10.5c0,0.1-0.5,0.4-1.4,0.7c-0.5,0.2-1,0.4-1.7,0.6l-2.3,0.9c-2.1,0.8-4.2,1.8-6.1,3
					c-2.6,1.6-5,3.5-7.2,5.7c-2.6,2.8-4.9,5.9-6.6,9.3c-2,4-3.3,8.4-3.7,12.8c-0.6,5,0.5,10,3,14.3c2.6,4.5,7,8.4,12.2,11.7
					C42.6,76,55.9,80.8,70.3,85.3c7.2,2.2,14.7,4.3,22.5,6.4l24.1,6.5c16.5,4.3,33.8,8.6,51.9,12.2c9.1,1.8,18.3,3.4,27.7,4.6
					c9.5,1.3,19,2,28.6,2.2c2.4,0,4.8,0,7.2-0.1l3.6-0.1l3.5-0.3c2.4-0.1,4.6-0.6,6.9-0.9c1.1-0.2,2.2-0.4,3.4-0.7
					c1.1-0.2,2.2-0.5,3.3-0.8c4.2-1,8.3-2.7,12.1-4.9c3.6-2,6.6-4.8,8.9-8.2c2.3-3.3,3.9-7.1,4.6-11.1c0.8-4,0.9-8.1,0.4-12.1
					c-0.5-3.9-1.6-7.7-3.5-11.2c-1.7-3.3-4.2-6.1-7.2-8.3c-3.1-2.1-6.6-3.7-10.2-4.6c-3.8-1-7.6-1.7-11.5-2.2
					c-7.8-0.9-15.6-1.2-23.2-1.5c-15.2-0.6-29.5-1.3-42.4-2.9c-11.7-1.3-23.2-3.3-34.6-6c-10.1-2.4-18.6-5-25.5-7.4
					c-13.7-4.8-20.9-8.5-20.7-9c0.2-0.6,7.8,2,21.7,5.7c19.6,5.3,39.6,8.8,59.8,10.5c12.8,1.1,26.8,1.5,42,1.8
					c7.6,0.2,15.5,0.3,23.8,1.1c4.3,0.4,8.5,1.1,12.7,2.2c4.6,1.1,8.9,3,12.8,5.6c4.1,2.8,7.4,6.6,9.8,11c2.3,4.4,3.8,9.1,4.5,14
					c0.7,4.9,0.6,10-0.3,14.9c-0.9,5.1-2.9,10-5.8,14.3c-3,4.4-6.9,8.1-11.5,10.7c-4.5,2.6-9.3,4.6-14.3,5.9
					c-1.2,0.4-2.5,0.7-3.7,0.9c-1.2,0.2-2.5,0.5-3.7,0.7c-2.5,0.3-5,0.8-7.5,1l-3.8,0.3l-3.8,0.2c-2.5,0.2-5,0.1-7.6,0.1
					c-9.9-0.2-19.8-0.9-29.6-2.3c-9.6-1.3-19.1-2.9-28.2-4.8c-18.4-3.7-35.8-8.2-52.4-12.8c-8.3-2.3-16.3-4.6-24.1-6.9
					c-7.8-2.2-15.4-4.5-22.7-6.9c-14.5-5-28-10.1-39.3-17.7c-5.6-3.8-10.6-8.4-13.6-14.1c-0.8-1.4-1.4-2.9-1.9-4.4
					c-0.3-0.7-0.5-1.5-0.6-2.3c-0.2-0.7-0.4-1.5-0.5-2.2c-0.4-2.9-0.4-5.8,0-8.6c1.3-9.3,5.8-17.8,12.8-24.1
					c2.5-2.2,5.3-4.1,8.3-5.5c2.2-1,4.5-1.8,6.9-2.4c1-0.2,1.8-0.4,2.5-0.5c0.7-0.1,1.4-0.1,1.9-0.1C45.4,10.2,45.9,10.3,46,10.5z"
					/>
				<path id="Path_6055" class="st14" d="M44.4,10.7c0.1,0.3-1.9,0.7-5.3,2.2c-8.6,3.5-15.5,10.2-19.4,18.7c-1.9,4.1-3,8.5-3.3,13
					c-0.3,5,0.9,10,3.7,14.3c2.8,4.5,7.5,8.2,12.7,11.5c10.6,6.5,23.8,11.3,38.1,15.8c7.2,2.2,14.6,4.3,22.4,6.4
					c7.8,2.1,15.7,4.3,23.9,6.5c16.4,4.3,33.7,8.6,51.7,12.1c9,1.8,18.2,3.3,27.6,4.6c9.5,1.3,19,2,28.5,2.2c2.4,0,4.8,0,7.2-0.1
					l3.6-0.1l3.5-0.3c2.4-0.1,4.6-0.6,6.9-0.9c1.1-0.2,2.3-0.4,3.4-0.7c1.1-0.2,2.2-0.5,3.3-0.8c8.7-2.3,16.8-6.4,21.4-13.2
					c2.4-3.4,4-7.2,4.8-11.2c0.8-4,1-8.2,0.5-12.3c-0.9-8.1-4.5-15.7-10.6-20.1c-6-4.5-14-6.1-21.8-7.1c-7.8-0.9-15.6-1.2-23.1-1.5
					c-15.1-0.5-29.3-1.2-42.1-2.7c-20.3-2.1-40.4-6.4-59.8-12.8c-6.9-2.3-12.1-4.3-15.6-5.9s-5.3-2.5-5.2-2.7
					c0.2-0.5,7.7,2.1,21.5,5.9c19.5,5.3,39.4,8.8,59.5,10.4c12.7,1.1,26.7,1.5,41.8,1.8c7.6,0.2,15.4,0.3,23.7,1.2
					c4.2,0.4,8.4,1.2,12.6,2.3c4.4,1.2,8.6,3.1,12.4,5.8c3.9,2.8,7.1,6.6,9.3,10.9c2.2,4.3,3.6,8.9,4.2,13.7
					c0.6,4.8,0.5,9.7-0.5,14.5c-1.9,10.2-8.2,19.1-17.2,24.3c-4.4,2.5-9.1,4.5-14,5.7c-1.2,0.4-2.4,0.6-3.7,0.9s-2.5,0.5-3.7,0.7
					c-2.5,0.3-4.9,0.8-7.4,0.9l-3.7,0.3l-3.7,0.2c-2.5,0.2-5,0.1-7.5,0.1c-9.8-0.2-19.6-0.9-29.4-2.3c-9.6-1.3-18.9-2.9-28-4.7
					c-18.2-3.7-35.6-8.1-52-12.6c-8.2-2.3-16.2-4.5-23.9-6.8c-7.7-2.2-15.3-4.5-22.5-6.8C54.6,87,41.2,81.9,30,74.7
					c-5.5-3.7-10.6-7.9-13.8-13.4c-0.8-1.3-1.5-2.7-2-4.2c-0.3-0.7-0.6-1.4-0.8-2.1c-0.2-0.7-0.3-1.5-0.5-2.2
					c-0.6-2.8-0.7-5.6-0.4-8.5c0.5-5,1.9-9.8,4.2-14.2c1.9-3.7,4.4-7.1,7.4-10c4.1-4,9.1-6.9,14.6-8.6
					C42.4,10.5,44.4,10.5,44.4,10.7z"/>
				<path id="Path_6056" class="st15" d="M42.9,11c0,0.1-0.4,0.3-1.3,0.7c-0.5,0.2-1,0.4-1.7,0.6c-0.6,0.3-1.4,0.6-2.3,1
					c-4.9,2.2-9.3,5.5-12.8,9.5c-2.5,2.9-4.5,6.2-6,9.8c-1.8,4.2-2.8,8.6-2.9,13.2c-0.1,3.8,0.7,7.5,2.3,10.9c0.3,0.6,0.6,1.2,1,1.7
					c0.3,0.6,0.7,1.2,1.1,1.7c3.2,4.4,7.8,8.1,13.1,11.4C44.1,77.8,57.3,82.6,71.5,87c7.1,2.2,14.6,4.3,22.3,6.4
					c7.7,2.1,15.7,4.3,23.8,6.5c16.3,4.3,33.5,8.5,51.5,12.1c9,1.8,18.2,3.3,27.5,4.5c9.4,1.3,18.9,2,28.5,2.1
					c9.6,0,19.1-0.5,27.9-2.9c4.3-1.1,8.5-2.7,12.4-4.9c3.7-2.1,6.9-5,9.4-8.4c1.3-1.7,2.3-3.5,3.1-5.4c0.5-0.9,0.7-2,1.1-2.9
					c0.3-1,0.6-2,0.8-3c0.9-4.1,1.1-8.3,0.6-12.5c-0.9-8.2-4.4-16.1-10.5-20.7c-6.1-4.7-14.1-6.4-21.8-7.4c-7.8-1-15.5-1.3-23-1.6
					c-15-0.5-29.1-1.1-41.9-2.5c-20.2-2-40.2-6.1-59.5-12.3c-6.8-2.2-12-4.2-15.5-5.6s-5.3-2.3-5.2-2.5c0.2-0.4,7.6,2.3,21.4,6
					c19.4,5.3,39.2,8.8,59.3,10.4c12.7,1.1,26.6,1.5,41.7,1.8c7.5,0.2,15.3,0.4,23.5,1.3c4.2,0.4,8.3,1.2,12.4,2.4
					c4.3,1.2,8.4,3.2,12,5.9c3.7,2.8,6.7,6.5,8.8,10.8c2.1,4.2,3.4,8.8,3.9,13.4c0.6,4.7,0.4,9.5-0.6,14.2c-0.2,1.2-0.6,2.3-0.9,3.5
					c-0.4,1.1-0.7,2.3-1.3,3.5c-0.9,2.3-2.2,4.5-3.7,6.5c-2.9,4.1-6.7,7.5-11.1,10c-4.3,2.5-9,4.3-13.8,5.5
					c-1.2,0.4-2.4,0.6-3.6,0.8c-1.2,0.2-2.4,0.5-3.6,0.7c-2.4,0.3-4.9,0.8-7.3,0.9l-3.7,0.3l-3.7,0.2c-2.5,0.2-4.9,0.1-7.4,0.1
					c-9.7-0.1-19.5-0.9-29.1-2.2c-9.5-1.3-18.8-2.9-27.9-4.7c-18.1-3.7-35.4-8-51.7-12.5c-8.2-2.2-16.1-4.5-23.8-6.7
					s-15.2-4.4-22.4-6.7c-14.3-4.7-27.7-9.7-38.8-16.7c-5.5-3.5-10.5-7.6-14-12.7c-0.4-0.6-0.8-1.3-1.2-2c-0.4-0.6-0.7-1.3-1-2
					c-0.6-1.3-1.1-2.7-1.4-4.2c-0.7-2.7-1-5.5-0.9-8.3c0.3-4.9,1.5-9.7,3.6-14.2c1.8-3.7,4.1-7.1,6.9-10.1c3.8-4.1,8.6-7.3,14-9.1
					c0.9-0.3,1.7-0.5,2.4-0.7l1.8-0.4C42.4,10.9,42.9,10.9,42.9,11z"/>
				<path id="Path_6057" class="st16" d="M41.4,11.4c0,0.1-1.9,0.7-5.2,2.3c-4.8,2.4-9.1,5.8-12.5,10c-2.4,3-4.4,6.4-5.8,10
					c-0.8,2-1.4,4.2-1.9,6.3c-0.5,2.3-0.7,4.7-0.6,7c0,1.2,0.1,2.5,0.3,3.7c0.2,1.2,0.6,2.4,0.9,3.7c0.9,2.5,2.2,4.8,3.8,6.9
					c3.3,4.4,8.1,8,13.4,11.2c10.8,6.3,23.9,11,38.1,15.5c7.1,2.2,14.5,4.3,22.2,6.4c7.7,2.1,15.6,4.3,23.7,6.4
					c16.2,4.3,33.3,8.5,51.2,12.1c8.9,1.8,18.1,3.3,27.4,4.5c9.4,1.3,18.9,2,28.4,2.1c9.6,0,19.1-0.5,28-2.8
					c4.4-1.1,8.6-2.7,12.5-4.9c3.8-2.1,7.1-5,9.7-8.5c5.1-6.9,6.7-15.9,5.9-24.2c-0.8-8.3-4.3-16.3-10.4-21.3
					c-6.2-4.9-14.2-6.7-21.9-7.8c-7.8-1-15.5-1.3-22.9-1.6c-14.9-0.5-28.9-1-41.6-2.3c-20.1-1.9-39.9-5.8-59.2-11.7
					c-6.8-2.1-12-4-15.5-5.4c-3.5-1.4-5.3-2.2-5.2-2.3s1.9,0.4,5.5,1.6c3.6,1.1,8.8,2.7,15.7,4.6c19.3,5.3,39.1,8.7,59,10.4
					c12.6,1.1,26.5,1.5,41.5,1.8c7.5,0.2,15.3,0.4,23.3,1.4c4.1,0.5,8.2,1.3,12.2,2.5c4.2,1.2,8.2,3.3,11.6,5.9
					c3.5,2.9,6.4,6.5,8.3,10.6c1.9,4.1,3.2,8.6,3.6,13.2c0.5,4.6,0.2,9.3-0.8,13.9c-0.5,2.3-1.2,4.6-2.2,6.8
					c-0.9,2.2-2.2,4.3-3.6,6.3c-2.9,3.9-6.6,7.2-10.9,9.6c-4.3,2.4-8.8,4.2-13.5,5.4c-9.4,2.4-19.2,3-29,3
					c-9.7-0.1-19.3-0.9-28.9-2.2c-9.4-1.2-18.7-2.8-27.7-4.6c-18-3.6-35.2-7.9-51.4-12.3c-8.1-2.2-16-4.4-23.7-6.6
					s-15.1-4.3-22.3-6.6c-14.3-4.6-27.5-9.6-38.6-16.2c-5.5-3.4-10.5-7.3-14-12.1c-1.7-2.3-3.1-4.9-4-7.7c-0.3-1.4-0.7-2.7-0.9-4.1
					c-0.2-1.3-0.3-2.7-0.3-4c0-2.5,0.3-5,0.9-7.5c0.5-2.3,1.2-4.5,2.1-6.6c1.6-3.7,3.7-7.2,6.3-10.3c3.6-4.3,8.2-7.6,13.3-9.7
					C39.4,11.6,41.4,11.3,41.4,11.4z"/>
				<path id="Path_6058" class="st17" d="M39.9,11.8c-0.4,0.2-0.9,0.4-1.3,0.6L37,13.1c-0.6,0.3-1.4,0.7-2.2,1.1
					c-4.8,2.5-8.9,6.1-12.2,10.4c-2.3,3.1-4.2,6.5-5.5,10.2c-1.6,4.3-2.3,8.9-2.1,13.5c0.4,5.2,2.4,10.2,5.7,14.2
					c3.5,4.3,8.4,7.9,13.8,11c5.7,3.2,11.7,6,17.9,8.3c6.4,2.5,13.2,4.8,20.3,7c7.1,2.2,14.5,4.2,22.1,6.4
					c7.6,2.1,15.5,4.3,23.6,6.4c16.1,4.3,33.2,8.5,51,12c8.9,1.8,18,3.3,27.3,4.5c9.4,1.3,18.9,2,28.3,2.1c9.6,0,19.1-0.6,28-2.8
					c4.4-1.1,8.7-2.8,12.7-4.9c3.9-2.2,7.2-5.1,9.9-8.6c2.6-3.5,4.5-7.5,5.4-11.7c0.9-4.2,1.2-8.5,0.9-12.8
					c-0.4-4.2-1.4-8.3-3.1-12.1c-1.7-3.7-4.1-7-7.2-9.7c-3.1-2.5-6.6-4.4-10.4-5.6c-3.8-1.2-7.6-2.1-11.5-2.6
					c-7.8-1.1-15.5-1.3-22.9-1.6c-14.8-0.5-28.7-0.9-41.4-2.2c-20-1.8-39.7-5.5-58.9-11.2c-6.8-2-12-3.8-15.5-5.1
					c-1.8-0.6-3.1-1.2-4-1.5c-0.5-0.2-0.9-0.4-1.3-0.6c0.5,0.1,0.9,0.2,1.4,0.4l4,1.3c3.5,1.1,8.8,2.8,15.6,4.7
					c19.2,5.3,38.9,8.7,58.8,10.3c12.6,1.1,26.4,1.5,41.3,1.9c7.4,0.2,15.2,0.5,23.1,1.5c4.1,0.5,8.1,1.4,12,2.6
					c4.1,1.3,7.9,3.3,11.2,6c3.4,2.9,6,6.5,7.9,10.5c1.8,4.1,2.9,8.4,3.4,12.9c0.4,4.5,0.1,9.1-0.9,13.6c-1,4.6-3,8.9-5.8,12.7
					c-2.9,3.8-6.5,6.9-10.7,9.3c-4.2,2.3-8.7,4-13.3,5.2c-9.3,2.4-19,3-28.7,2.9c-9.6-0.1-19.1-0.9-28.6-2.2
					c-9.4-1.2-18.5-2.8-27.5-4.6c-17.9-3.6-34.9-7.8-51.1-12.2c-8.1-2.2-15.9-4.4-23.6-6.5c-7.6-2.2-15-4.2-22.1-6.5
					c-7.1-2.2-13.9-4.6-20.4-7.2c-6.2-2.4-12.2-5.3-18-8.6c-5.5-3.3-10.5-6.9-14.1-11.5c-3.5-4.3-5.6-9.6-5.9-15.2
					c-0.2-4.8,0.6-9.5,2.3-14c1.4-3.7,3.4-7.2,5.8-10.4c1.9-2.5,4.2-4.7,6.8-6.6c1-0.8,2.1-1.5,3.2-2.1c0.9-0.6,1.8-1.1,2.8-1.5
					c0.9-0.4,1.6-0.8,2.3-1c0.7-0.2,1.2-0.4,1.7-0.6C39,12,39.5,11.9,39.9,11.8z"/>
			</g>
		</g>
	</g>
	<g id="Ñëîé_3" transform="translate(770.083 45.055)">
		<g id="Group_4192">
			<g id="Group_4081" transform="translate(245.506 40.747)">
				<path id="Path_6059" class="st18" d="M5.6,6.1c0-0.1,0.1-0.3,0.2-0.3c0.1,0,0.1,0,0.2,0l9.5,6.2c0.1,0,0.1,0.1,0.1,0.2
					c0,0.1,0,0.2-0.1,0.2l-4.6,3.7c-0.1,0.1-0.1,0.1-0.2,0.1c-0.1,0-0.1-0.1-0.2-0.1L5.6,6.1C5.6,6.1,5.6,6.1,5.6,6.1z M14.9,12.3
					L6.5,6.8l4.4,8.7L14.9,12.3z"/>
			</g>
			<g id="Group_4082" transform="translate(250.456 46.937)">
				<path id="Path_6060" class="st18" d="M5.6,9.8L5.6,9.8c0-0.1,0-0.2,0.1-0.2l4.6-3.7c0.1,0,0.1-0.1,0.2-0.1c0.1,0,0.1,0,0.2,0.1
					L19,17.3c0.1,0.1,0.1,0.3-0.1,0.4c-0.1,0.1-0.2,0.1-0.3,0L5.7,10C5.6,9.9,5.6,9.8,5.6,9.8z M10.3,6.4l-4,3.3l11.5,6.9L10.3,6.4z
					"/>
			</g>
			<g id="Group_4083" transform="translate(257.555 58.377)">
				<path id="Path_6061" class="st18" d="M5.6,16c0-0.1,0-0.1,0-0.2l5.8-10c0.1-0.1,0.2-0.2,0.4-0.1c0.1,0,0.1,0.1,0.1,0.2l3,15.6
					c0,0.1-0.1,0.3-0.2,0.3c-0.1,0-0.1,0-0.2,0l-8.8-5.6C5.6,16.2,5.6,16.1,5.6,16z M11.5,6.8l-5.4,9.1l8.1,5.2L11.5,6.8z"/>
			</g>
			<g id="Group_4084" transform="translate(256.348 73.961)">
				<path id="Path_6062" class="st18" d="M5.6,19.5c0-0.1,0-0.1,0.1-0.2l10-13.4c0.1-0.1,0.2-0.1,0.3-0.1c0.1,0.1,0.2,0.2,0.2,0.3
					l-2.6,12.8c0,0.1-0.1,0.2-0.2,0.2l-7.4,0.6C5.7,19.7,5.6,19.7,5.6,19.5C5.6,19.6,5.6,19.5,5.6,19.5z M15.3,7.2l-8.9,12l6.6-0.6
					L15.3,7.2z"/>
			</g>
			<g id="Group_4085" transform="translate(255.816 86.772)">
				<path id="Path_6063" class="st18" d="M5.6,18.2L5.6,18.2L6.1,6.6c0-0.1,0.1-0.2,0.2-0.3l7.4-0.6c0.1,0,0.2,0,0.2,0.1
					C14,6,14,6.1,14,6.2L6.1,18.3c-0.1,0.1-0.2,0.2-0.4,0.1C5.6,18.4,5.6,18.3,5.6,18.2L5.6,18.2z M6.6,6.9L6.1,17.2l7.1-10.9
					L6.6,6.9z"/>
			</g>
			<g id="Group_4086" transform="translate(232.099 38.611)">
				<path id="Path_6064" class="st18" d="M5.6,6.1c0-0.1,0-0.1,0-0.2c0.1-0.1,0.2-0.1,0.3-0.1l13.4,2.1c0.1,0,0.2,0.1,0.2,0.3
					c0,0.1-0.1,0.2-0.2,0.3l-9.7,2.4c-0.1,0-0.2,0-0.3-0.1L5.6,6.2C5.6,6.2,5.6,6.1,5.6,6.1z M17.9,8.2L6.5,6.4l3.1,3.9L17.9,8.2z"
					/>
			</g>
			<g id="Group_4087" transform="translate(208.858 37.822)">
				<path id="Path_6065" class="st18" d="M5.6,6.1c0-0.1,0-0.1,0-0.2c0-0.1,0.1-0.2,0.2-0.1l23.2,0.8c0.1,0,0.2,0.1,0.3,0.2l0,0
					c0,0.1-0.1,0.3-0.2,0.3l-18.5,5.1c-0.1,0-0.2,0-0.3-0.1L5.6,6.2C5.6,6.2,5.6,6.1,5.6,6.1z M27.3,7L6.4,6.3l4.3,5.3L27.3,7z"/>
			</g>
			<g id="Group_4088" transform="translate(226.448 102.485)">
				<path id="Path_6066" class="st18" d="M5.6,13.2c0-0.1,0-0.2,0.1-0.3l11.2-7.1c0.1-0.1,0.2-0.1,0.3,0l6.1,5.1
					c0.1,0.1,0.1,0.3,0,0.4c0,0.1-0.1,0.1-0.2,0.1L5.9,13.4C5.7,13.5,5.6,13.4,5.6,13.2C5.6,13.2,5.6,13.2,5.6,13.2z M17,6.4L7,12.8
					l15.5-1.9L17,6.4z"/>
			</g>
			<g id="Group_4089" transform="translate(204.859 103.687)">
				<path id="Path_6067" class="st18" d="M5.6,11.5c0-0.1,0-0.2,0.1-0.3l10.3-5.4c0.1,0,0.2,0,0.2,0l11.2,5.9
					c0.1,0.1,0.2,0.2,0.1,0.4c0,0.1-0.1,0.1-0.2,0.1L5.8,11.7C5.7,11.7,5.6,11.6,5.6,11.5L5.6,11.5z M16.2,6.3l-9.3,4.9l19.4,0.5
					L16.2,6.3z"/>
			</g>
			<g id="Group_4090" transform="translate(183.787 99.622)">
				<path id="Path_6068" class="st18" d="M5.6,13.7C5.6,13.6,5.6,13.6,5.6,13.7L7.4,6c0-0.1,0.1-0.1,0.1-0.2c0.1,0,0.2,0,0.2,0
					L27,15.3c0.1,0.1,0.2,0.2,0.1,0.4c0,0.1-0.1,0.2-0.3,0.1L5.8,13.9c-0.1,0-0.1,0-0.2-0.1C5.6,13.8,5.6,13.7,5.6,13.7z M7.8,6.4
					l-1.7,7l19.3,1.7L7.8,6.4z"/>
			</g>
			<g id="Group_4091" transform="translate(161.439 99.623)">
				<path id="Path_6069" class="st18" d="M5.6,10.8C5.6,10.8,5.6,10.8,5.6,10.8c0-0.2,0.1-0.3,0.2-0.3l24.2-4.7
					c0.1,0,0.3,0.1,0.3,0.2c0,0,0,0.1,0,0.1l-1.8,7.6c0,0.1-0.2,0.2-0.3,0.2L5.8,11C5.7,11,5.6,10.9,5.6,10.8z M29.6,6.4L7.5,10.7
					L28,13.4L29.6,6.4z"/>
			</g>
			<g id="Group_4092" transform="translate(190.222 36.726)">
				<path id="Path_6070" class="st18" d="M5.6,6.1C5.6,6,5.6,6,5.6,6.1c0-0.2,0.2-0.3,0.3-0.3l18.6,1.1c0.1,0,0.2,0.1,0.2,0.2
					c0,0.1,0,0.2-0.1,0.3l-6.1,4.9c-0.1,0.1-0.2,0.1-0.3,0l-12.6-6C5.6,6.2,5.6,6.2,5.6,6.1z M23.8,7.4l-16.6-1l11.2,5.3L23.8,7.4z"
					/>
			</g>
			<g id="Group_4093" transform="translate(168.994 34.765)">
				<path id="Path_6071" class="st18" d="M5.6,6.1C5.6,6,5.6,6,5.6,6.1c0-0.2,0.2-0.3,0.3-0.3l21.2,2c0.1,0,0.2,0.1,0.2,0.2
					c0,0.1-0.1,0.2-0.2,0.3l-10.4,3.4c-0.1,0-0.1,0-0.2,0L5.7,6.3C5.6,6.2,5.6,6.2,5.6,6.1z M25.8,8.1L7.2,6.4l9.4,4.7L25.8,8.1z"/>
			</g>
			<g id="Group_4094" transform="translate(140.638 97.655)">
				<path id="Path_6072" class="st18" d="M5.6,9.6L5.6,9.6c0-0.1,0.1-0.3,0.2-0.3L18,5.8c0.1,0,0.2,0,0.2,0l8.6,6.7
					c0.1,0.1,0.1,0.3,0,0.4C26.8,13,26.7,13,26.6,13L5.8,9.8C5.7,9.8,5.6,9.7,5.6,9.6z M18,6.3L7.1,9.4l18.6,2.9L18,6.3z"/>
			</g>
			<g id="Group_4095" transform="translate(116.62 94.556)">
				<path id="Path_6073" class="st18" d="M5.6,7.7L5.6,7.7c0-0.2,0.1-0.3,0.2-0.3l17.1-1.6c0.1,0,0.2,0,0.2,0.1l6.9,6.6
					c0.1,0.1,0.1,0.3,0,0.4c-0.1,0.1-0.2,0.1-0.2,0.1l-24-4.9C5.7,7.9,5.6,7.8,5.6,7.7z M22.8,6.3L7.6,7.8L29,12.2L22.8,6.3z"/>
			</g>
			<g id="Group_4096" transform="translate(147.95 31.281)">
				<path id="Path_6074" class="st18" d="M5.6,11.8C5.6,11.7,5.6,11.7,5.6,11.8L6.4,6c0-0.1,0.2-0.2,0.3-0.2c0,0,0,0,0,0l20.2,3.5
					c0.1,0,0.2,0.1,0.2,0.3c0,0.1-0.1,0.2-0.2,0.3L5.9,12C5.7,12,5.6,11.9,5.6,11.8L5.6,11.8z M6.9,6.3l-0.8,5.1l18.8-2L6.9,6.3z"/>
			</g>
			<g id="Group_4097" transform="translate(128.412 26.599)">
				<path id="Path_6075" class="st18" d="M5.6,6.1c0-0.1,0.1-0.3,0.2-0.3c0,0,0.1,0,0.1,0l20.4,4.7c0.1,0,0.2,0.2,0.2,0.3l-0.9,5.7
					c0,0.1-0.2,0.2-0.3,0.2c0,0-0.1,0-0.1,0L5.7,6.3C5.6,6.2,5.6,6.2,5.6,6.1z M25.9,10.9L7.7,6.7L25.2,16L25.9,10.9z"/>
			</g>
			<g id="Group_4098" transform="translate(102.288 20.176)">
				<path id="Path_6076" class="st18" d="M5.6,6.1c0,0,0-0.1,0-0.1c0-0.1,0.2-0.2,0.3-0.2L32,12.2c0.1,0,0.2,0.1,0.2,0.3
					c0,0.1-0.1,0.2-0.2,0.2l-9.6,1.1c0,0-0.1,0-0.1,0L5.7,6.3C5.6,6.2,5.6,6.2,5.6,6.1z M30.5,12.4L8.5,7l13.9,6.3L30.5,12.4z"/>
			</g>
			<g id="Group_4099" transform="translate(237.673 102.367)">
				<path id="Path_6077" class="st18" d="M5.6,6.2c0,0,0-0.1,0-0.1c0-0.1,0.1-0.2,0.2-0.2L14,5.8c0.1,0,0.2,0,0.2,0.1
					c0,0.1,0.1,0.2,0,0.2l-2.1,5.2c0,0.1-0.1,0.1-0.2,0.2c-0.1,0-0.2,0-0.2-0.1L5.7,6.4C5.6,6.3,5.6,6.3,5.6,6.2z M13.6,6.3L6.5,6.4
					l5.2,4.4L13.6,6.3z"/>
			</g>
			<g id="Group_4100" transform="translate(245.584 94.158)">
				<path id="Path_6078" class="st18" d="M5.8,14.3C5.8,14.3,5.8,14.3,5.8,14.3L5.6,6c0-0.1,0.1-0.3,0.3-0.3c0,0,0.1,0,0.1,0
					l10.2,4.8c0.1,0.1,0.2,0.2,0.1,0.4c0,0.1-0.1,0.1-0.2,0.1l-10,3.4C6,14.5,5.9,14.5,5.8,14.3C5.8,14.3,5.8,14.3,5.8,14.3
					L5.8,14.3z M6.1,6.5l0.2,7.4l9-3.1L6.1,6.5z"/>
			</g>
			<g id="Group_4101" transform="translate(245.584 87.394)">
				<path id="Path_6079" class="st18" d="M5.6,12.8L5.6,12.8c0-0.1,0-0.2,0.1-0.3l10.8-6.8c0.1-0.1,0.2-0.1,0.3,0
					c0.1,0.1,0.1,0.1,0.1,0.2l-0.5,11.5c0,0.1-0.1,0.3-0.3,0.3c0,0-0.1,0-0.1,0L5.7,13C5.6,13,5.6,12.9,5.6,12.8z M16.3,6.5
					l-9.9,6.2l9.4,4.4L16.3,6.5z"/>
			</g>
			<g id="Group_4102" transform="translate(249.842 73.962)">
				<path id="Path_6080" class="st18" d="M5.6,11.4c0,0,0-0.1,0-0.1c0-0.1,0.1-0.2,0.2-0.2l16.5-5.4c0.1,0,0.3,0,0.3,0.2
					c0,0.1,0,0.2,0,0.2l-10,13.4c-0.1,0.1-0.3,0.1-0.4,0.1c0,0,0,0,0,0l-6.5-8.1C5.6,11.5,5.6,11.5,5.6,11.4z M21.6,6.5l-15.4,5
					l6,7.5L21.6,6.5z"/>
			</g>
			<g id="Group_4103" transform="translate(249.841 68.329)">
				<path id="Path_6081" class="st18" d="M5.6,17.1c0-0.1,0-0.1,0-0.2l7.7-11c0.1-0.1,0.2-0.1,0.4-0.1l8.8,5.6
					c0.1,0.1,0.2,0.2,0.1,0.4c0,0.1-0.1,0.1-0.1,0.1L5.9,17.3c-0.1,0-0.2,0-0.3-0.1C5.6,17.2,5.6,17.1,5.6,17.1z M13.6,6.4L6.5,16.6
					l15.2-5L13.6,6.4z"/>
			</g>
			<g id="Group_4104" transform="translate(250.456 50.628)">
				<path id="Path_6082" class="st18" d="M5.6,6.1c0-0.1,0-0.2,0.1-0.2c0.1-0.1,0.2-0.1,0.3,0l12.9,7.7c0.1,0.1,0.2,0.2,0.1,0.4
					l-5.8,10C13.1,24,13,24,12.9,24c-0.1,0-0.2-0.1-0.2-0.2L5.6,6.1C5.6,6.1,5.6,6.1,5.6,6.1z M18.4,13.9l-12-7.2L13,23.1L18.4,13.9
					z"/>
			</g>
			<g id="Group_4105" transform="translate(235.769 40.747)">
				<path id="Path_6083" class="st18" d="M5.6,8.5C5.6,8.5,5.6,8.4,5.6,8.5c0-0.2,0.1-0.3,0.2-0.3l9.7-2.4c0.1,0,0.2,0,0.3,0.1
					l5,9.9c0,0.1,0,0.2-0.1,0.3c-0.1,0.1-0.2,0.1-0.3,0L5.7,8.7C5.6,8.6,5.6,8.6,5.6,8.5z M15.4,6.3L6.6,8.5l13.3,6.8L15.4,6.3z"/>
			</g>
			<g id="Group_4106" transform="translate(226.449 99.473)">
				<path id="Path_6084" class="st18" d="M5.6,16.2C5.6,16.2,5.6,16.2,5.6,16.2L7,6c0-0.1,0.1-0.1,0.1-0.2c0.1,0,0.1-0.1,0.2,0
					l9.8,3c0.1,0,0.2,0.1,0.2,0.2c0,0.1,0,0.2-0.1,0.3L6,16.4c-0.1,0.1-0.2,0.1-0.3,0C5.6,16.4,5.6,16.3,5.6,16.2z M7.5,6.4
					l-1.3,9.3l10.3-6.5L7.5,6.4z"/>
			</g>
			<g id="Group_4107" transform="translate(215.207 99.474)">
				<path id="Path_6085" class="st18" d="M5.6,10.3C5.6,10.3,5.6,10.2,5.6,10.3c0-0.2,0.1-0.3,0.2-0.3l12.7-4.2c0.1,0,0.2,0,0.3,0
					c0.1,0.1,0.1,0.1,0.1,0.2l-1.4,10.1c0,0.1-0.1,0.2-0.1,0.2c-0.1,0-0.2,0-0.2,0L5.7,10.5C5.6,10.4,5.6,10.4,5.6,10.3z M18.2,6.4
					L6.5,10.3l10.4,5.5L18.2,6.4z"/>
			</g>
			<g id="Group_4108" transform="translate(204.859 97.557)">
				<path id="Path_6086" class="st18" d="M5.6,17.6c0-0.1,0-0.1,0-0.2l7.5-11.5c0.1-0.1,0.1-0.1,0.2-0.1c0.1,0,0.2,0.1,0.2,0.2
					l2.8,6.1c0.1,0.1,0,0.3-0.1,0.3L6,17.8c-0.1,0.1-0.2,0-0.3-0.1C5.6,17.7,5.6,17.7,5.6,17.6z M13.3,6.6L6.6,16.9l9.2-4.8
					L13.3,6.6z"/>
			</g>
			<g id="Group_4109" transform="translate(185.601 99.622)">
				<path id="Path_6087" class="st18" d="M5.6,6.1C5.6,6,5.6,6,5.6,6.1c0-0.2,0.1-0.3,0.3-0.3L21,6c0.1,0,0.2,0.1,0.2,0.2l4.1,9.2
					c0,0.1,0,0.2-0.1,0.3c-0.1,0.1-0.2,0.1-0.3,0L5.7,6.3C5.6,6.2,5.6,6.2,5.6,6.1z M20.9,6.5L7,6.3L24.6,15L20.9,6.5z"/>
			</g>
			<g id="Group_4110" transform="translate(213.64 38.611)">
				<path id="Path_6088" class="st18" d="M5.6,11.2C5.6,11.2,5.6,11.2,5.6,11.2c0-0.1,0.1-0.3,0.2-0.3l18.5-5.1c0.1,0,0.2,0,0.3,0.1
					c0.1,0.1,0.1,0.2,0,0.3L20,14.6c-0.1,0.1-0.2,0.2-0.3,0.1l-14-3.3C5.7,11.4,5.6,11.3,5.6,11.2z M23.8,6.5L6.9,11.1l12.8,3
					L23.8,6.5z"/>
			</g>
			<g id="Group_4111" transform="translate(227.598 38.611)">
				<path id="Path_6089" class="st18" d="M5.6,14.5c0-0.1,0-0.1,0-0.2l4.5-8.4c0-0.1,0.1-0.1,0.2-0.1c0.1,0,0.2,0,0.2,0.1l3.7,4.5
					c0.1,0.1,0.1,0.3,0,0.4c0,0,0,0-0.1,0l-8.2,3.9C5.8,14.8,5.7,14.7,5.6,14.5C5.6,14.5,5.6,14.5,5.6,14.5L5.6,14.5z M10.4,6.5
					l-3.9,7.4l7.1-3.4L10.4,6.5z"/>
			</g>
			<g id="Group_4112" transform="translate(235.477 43.154)">
				<path id="Path_6090" class="st18" d="M5.6,17.9C5.6,17.9,5.6,17.9,5.6,17.9L5.9,6c0-0.1,0.1-0.2,0.1-0.2c0.1,0,0.2-0.1,0.3,0
					l14.7,7.5c0.1,0.1,0.2,0.2,0.1,0.3c0,0.1-0.1,0.2-0.2,0.2l-15,4.4C5.8,18.2,5.6,18.1,5.6,17.9C5.6,17.9,5.6,17.9,5.6,17.9
					L5.6,17.9z M6.4,6.5L6.1,17.5l14-4.1L6.4,6.5z"/>
			</g>
			<g id="Group_4113" transform="translate(161.439 94.568)">
				<path id="Path_6091" class="st18" d="M5.6,15.9c0-0.1,0-0.2,0.1-0.2l12.1-9.8c0.1-0.1,0.2-0.1,0.3,0l12,5.1
					c0.1,0,0.2,0.2,0.2,0.3c0,0.1-0.1,0.2-0.2,0.2L5.9,16.1C5.7,16.1,5.6,16,5.6,15.9C5.6,15.9,5.6,15.9,5.6,15.9L5.6,15.9z M18,6.3
					l-11.2,9L29.1,11L18,6.3z"/>
			</g>
			<g id="Group_4114" transform="translate(200.806 97.556)">
				<path id="Path_6092" class="st18" d="M5.6,8.4c0-0.1,0-0.1,0-0.2c0-0.1,0.1-0.1,0.2-0.1l11.6-2.3c0.1,0,0.3,0.1,0.3,0.2
					c0,0.1,0,0.1,0,0.2l-7.5,11.5c-0.1,0.1-0.2,0.2-0.4,0.1c0,0-0.1-0.1-0.1-0.1L5.6,8.4C5.6,8.4,5.6,8.4,5.6,8.4z M16.8,6.4
					L6.2,8.5L9.9,17L16.8,6.4z"/>
			</g>
			<g id="Group_4115" transform="translate(231.331 89.52)">
				<path id="Path_6093" class="st18" d="M5.6,6.1c0-0.1,0-0.1,0.1-0.2c0.1-0.1,0.2-0.1,0.3-0.1l14.3,4.6c0.1,0,0.2,0.1,0.2,0.2
					c0,0.1,0,0.2-0.1,0.2l-7.9,8.3c-0.1,0.1-0.1,0.1-0.2,0.1c-0.1,0-0.2-0.1-0.2-0.1L5.6,6.1C5.6,6.1,5.6,6.1,5.6,6.1z M19.6,10.8
					L6.3,6.5l5.9,12.1L19.6,10.8z"/>
			</g>
			<g id="Group_4116" transform="translate(202.801 37.822)">
				<path id="Path_6094" class="st18" d="M5.6,11c0-0.1,0-0.2,0.1-0.2l6.1-4.9c0.1-0.1,0.3-0.1,0.4,0l4.8,5.9c0.1,0.1,0.1,0.2,0,0.3
					c-0.1,0.1-0.2,0.1-0.3,0.1l-10.8-1C5.7,11.2,5.6,11.1,5.6,11L5.6,11z M11.8,6.4l-5.3,4.3l9.6,0.9L11.8,6.4z"/>
			</g>
			<g id="Group_4117" transform="translate(190.222 36.725)">
				<path id="Path_6095" class="st18" d="M6.4,15.2L6.4,15.2L5.6,6.1c0-0.1,0-0.2,0.1-0.2c0.1-0.1,0.2-0.1,0.3,0l12.6,6
					c0.1,0,0.2,0.2,0.2,0.3c0,0.1-0.1,0.2-0.2,0.2L6.7,15.4C6.6,15.4,6.4,15.4,6.4,15.2C6.4,15.2,6.4,15.2,6.4,15.2L6.4,15.2z
					 M6.1,6.5l0.8,8.3L17.6,12L6.1,6.5z"/>
			</g>
			<g id="Group_4118" transform="translate(179.79 36.725)">
				<path id="Path_6096" class="st18" d="M5.6,9.5C5.6,9.5,5.6,9.5,5.6,9.5c0-0.2,0.1-0.3,0.2-0.3l10.4-3.4c0.1,0,0.3,0,0.3,0.2
					c0,0,0,0,0,0.1l0.8,9.1c0,0.1,0,0.2-0.1,0.2c-0.1,0.1-0.2,0.1-0.3,0L5.7,9.7C5.6,9.7,5.6,9.6,5.6,9.5z M16,6.4L6.5,9.5l10.3,5.2
					L16,6.4z"/>
			</g>
			<g id="Group_4119" transform="translate(167.427 34.765)">
				<path id="Path_6097" class="st18" d="M5.6,18.3C5.6,18.2,5.6,18.2,5.6,18.3L7.1,6c0-0.1,0.2-0.2,0.3-0.2c0,0,0.1,0,0.1,0
					l10.8,5.4c0.1,0,0.1,0.1,0.1,0.2c0,0.1-0.1,0.2-0.1,0.2L6,18.5C5.8,18.5,5.7,18.5,5.6,18.3C5.6,18.3,5.6,18.3,5.6,18.3L5.6,18.3
					z M7.6,6.4L6.2,17.7l11.5-6.3L7.6,6.4z"/>
			</g>
			<g id="Group_4120" transform="translate(147.95 34.765)">
				<path id="Path_6098" class="st18" d="M5.6,8.3c0,0,0-0.1,0-0.1C5.6,8.1,5.7,8,5.8,8l21-2.2c0.1,0,0.2,0.1,0.3,0.2
					c0,0.1,0,0.2-0.1,0.3l-13.6,8.9c-0.1,0.1-0.2,0.1-0.3,0L5.7,8.5C5.6,8.4,5.6,8.4,5.6,8.3z M25.8,6.4l-19.4,2l6.9,6.2L25.8,6.4z"
					/>
			</g>
			<g id="Group_4121" transform="translate(155.418 43.687)">
				<path id="Path_6099" class="st18" d="M5.6,6.1c0-0.1,0.1-0.3,0.2-0.3c0,0,0.1,0,0.1,0l12,3.3c0.1,0,0.2,0.1,0.2,0.2
					c0,0.1,0,0.2-0.1,0.3L9.4,19.7c-0.1,0.1-0.3,0.1-0.4,0c0,0-0.1-0.1-0.1-0.1L5.6,6.1L5.6,6.1z M17.4,9.5l-11.2-3l3.1,12.5
					L17.4,9.5z"/>
			</g>
			<g id="Group_4122" transform="translate(213.282 43.742)">
				<path id="Path_6100" class="st18" d="M5.6,14.8L5.6,14.8L5.9,6c0-0.1,0.1-0.3,0.3-0.3c0,0,0,0,0.1,0l14,3.3
					c0.1,0,0.2,0.1,0.2,0.2c0,0.1-0.1,0.2-0.2,0.3L5.9,15c-0.1,0-0.2,0-0.2,0C5.6,14.9,5.6,14.9,5.6,14.8z M6.4,6.4l-0.3,8l13.1-5
					L6.4,6.4z"/>
			</g>
			<g id="Group_4123" transform="translate(173.554 87.616)">
				<path id="Path_6101" class="st18" d="M5.6,13C5.6,13,5.6,13,5.6,13c0-0.1,0.1-0.2,0.1-0.3l14-7c0.1,0,0.2,0,0.3,0
					C20,5.9,20.1,6,20,6.1l-1.9,12c0,0.1-0.1,0.2-0.1,0.2c-0.1,0-0.2,0-0.2,0l-12-5.1C5.6,13.2,5.6,13.1,5.6,13z M19.4,6.5L6.5,13
					l11.2,4.7L19.4,6.5z"/>
			</g>
			<g id="Group_4124" transform="translate(152.837 94.568)">
				<path id="Path_6102" class="st18" d="M5.6,9.2C5.6,9.1,5.6,9.1,5.6,9.2c0-0.2,0.1-0.3,0.2-0.3l20.7-3.1c0.1,0,0.2,0,0.3,0.2
					c0,0.1,0,0.2-0.1,0.3L14.6,16c-0.1,0.1-0.2,0.1-0.3,0L5.7,9.3C5.6,9.3,5.6,9.2,5.6,9.2z M25.6,6.4L6.5,9.3l7.9,6.2L25.6,6.4z"/>
			</g>
			<g id="Group_4125" transform="translate(140.638 89.691)">
				<path id="Path_6103" class="st18" d="M5.6,17.5c0-0.1,0-0.1,0.1-0.2L15.7,5.9c0.1-0.1,0.3-0.1,0.4,0c0,0,0.1,0.1,0.1,0.1l2.1,8
					c0,0.1,0,0.3-0.1,0.3c0,0,0,0,0,0L5.9,17.7c-0.1,0-0.2,0-0.3-0.1C5.6,17.6,5.6,17.6,5.6,17.5z M15.8,6.6L6.6,17l11.1-3.2
					L15.8,6.6z"/>
			</g>
			<g id="Group_4126" transform="translate(133.722 89.691)">
				<path id="Path_6104" class="st18" d="M5.6,10.9C5.6,10.9,5.6,10.9,5.6,10.9c0-0.2,0.1-0.3,0.2-0.3l17-4.9c0.1,0,0.2,0,0.3,0.1
					c0.1,0.1,0.1,0.2,0,0.3L12.9,17.7c0,0.1-0.1,0.1-0.2,0.1c-0.1,0-0.1,0-0.2-0.1l-6.9-6.6C5.6,11.1,5.6,11,5.6,10.9z M22,6.5
					L6.4,11l6.4,6.1L22,6.5z"/>
			</g>
			<g id="Group_4127" transform="translate(152.837 85.107)">
				<path id="Path_6105" class="st18" d="M5.6,18.6c0-0.1,0-0.2,0.1-0.2l11-12.5c0-0.1,0.1-0.1,0.2-0.1c0.1,0,0.1,0,0.2,0.1l9.7,9.5
					c0.1,0.1,0.1,0.3,0,0.4c0,0-0.1,0.1-0.2,0.1L5.9,18.9C5.8,18.9,5.7,18.8,5.6,18.6C5.6,18.7,5.6,18.7,5.6,18.6z M16.9,6.4
					L6.5,18.2L26,15.3L16.9,6.4z"/>
			</g>
			<g id="Group_4128" transform="translate(150.725 75.559)">
				<path id="Path_6106" class="st18" d="M5.6,20.2C5.6,20.2,5.6,20.2,5.6,20.2L7,6c0-0.1,0.1-0.2,0.2-0.2c0.1,0,0.2,0,0.3,0
					l11.7,9.5c0.1,0.1,0.1,0.2,0.1,0.3c0,0.1-0.1,0.2-0.2,0.2L5.9,20.4C5.8,20.5,5.6,20.4,5.6,20.2C5.6,20.2,5.6,20.2,5.6,20.2
					L5.6,20.2z M7.5,6.6L6.1,19.8l12.3-4.3L7.5,6.6z"/>
			</g>
			<g id="Group_4129" transform="translate(197.421 82.331)">
				<path id="Path_6107" class="st18" d="M5.6,15.2c0-0.1,0-0.2,0.1-0.3l13.8-9.1c0.1-0.1,0.2-0.1,0.3,0c0.1,0,0.1,0.1,0.1,0.2
					L21,21.2c0,0.1,0,0.2-0.1,0.2c-0.1,0.1-0.2,0.1-0.3,0l-15-6.1C5.6,15.4,5.6,15.3,5.6,15.2z M19.4,6.5l-13,8.6l14.1,5.8L19.4,6.5
					z"/>
			</g>
			<g id="Group_4130" transform="translate(191.059 42.716)">
				<path id="Path_6108" class="st18" d="M5.6,9.2c0,0,0-0.1,0-0.1c0-0.1,0.1-0.2,0.2-0.2l11.7-3.1c0.1,0,0.2,0,0.3,0.1
					c0.1,0.1,0.1,0.2,0.1,0.3L14,19c0,0.1-0.1,0.2-0.2,0.2c-0.1,0-0.2,0-0.3-0.1L5.6,9.3C5.6,9.3,5.6,9.2,5.6,9.2z M17.2,6.4
					L6.3,9.3l7.3,9L17.2,6.4z"/>
			</g>
			<g id="Group_4131" transform="translate(226.546 54.994)">
				<path id="Path_6109" class="st18" d="M5.6,16.7c0-0.1,0-0.1,0.1-0.2l8.9-10.6c0-0.1,0.1-0.1,0.2-0.1c0.1,0,0.2,0,0.2,0.1
					l7.7,9.5c0.1,0.1,0.1,0.2,0,0.3c0,0.1-0.1,0.2-0.2,0.2L5.8,16.9C5.7,16.9,5.6,16.9,5.6,16.7C5.6,16.8,5.6,16.7,5.6,16.7z
					 M14.8,6.5l-8.3,9.9l15.5-1.1L14.8,6.5z"/>
			</g>
			<g id="Group_4132" transform="translate(173.496 73.874)">
				<path id="Path_6110" class="st18" d="M5.6,9.5C5.6,9.5,5.6,9.5,5.6,9.5c0-0.2,0.1-0.3,0.2-0.3l15-3.4c0.1,0,0.2,0,0.2,0.1
					C21,5.9,21.1,6,21.1,6.1l-1,13.7c0,0.1-0.1,0.2-0.2,0.2c-0.1,0-0.2,0-0.3,0L5.7,9.7C5.6,9.7,5.6,9.6,5.6,9.5z M20.5,6.4L6.5,9.6
					l13.2,9.7L20.5,6.4z"/>
			</g>
			<g id="Group_4133" transform="translate(188.133 55.572)">
				<path id="Path_6111" class="st18" d="M5.6,16c0-0.1,0-0.2,0.1-0.2l10.8-9.9c0.1-0.1,0.3-0.1,0.4,0c0,0,0,0,0,0l8.3,11.7
					c0.1,0.1,0.1,0.3-0.1,0.4c-0.1,0-0.1,0.1-0.2,0L5.8,16.2C5.7,16.2,5.6,16.1,5.6,16C5.6,16,5.6,16,5.6,16z M16.6,6.4L6.4,15.8
					l18,1.7L16.6,6.4z"/>
			</g>
			<g id="Group_4134" transform="translate(225.273 75.528)">
				<path id="Path_6112" class="st18" d="M5.6,6.1c0-0.1,0.1-0.3,0.2-0.3c0,0,0.1,0,0.1,0l9.7,2.9c0.1,0,0.1,0.1,0.2,0.1
					c0,0.1,0,0.1,0,0.2l-3.7,11.1c0,0.1-0.2,0.2-0.3,0.2c-0.1,0-0.1-0.1-0.2-0.2L5.6,6.1C5.6,6.1,5.6,6.1,5.6,6.1z M15.2,9.1
					L6.3,6.5l5.6,12.8L15.2,9.1z"/>
			</g>
			<g id="Group_4135" transform="translate(99.958 88.287)">
				<path id="Path_6113" class="st18" d="M5.6,9.7L5.6,9.7c0-0.1,0.1-0.2,0.2-0.3L16,5.8c0.1,0,0.2,0,0.3,0.1l6.4,7.9
					c0.1,0.1,0.1,0.2,0,0.3c-0.1,0.1-0.2,0.1-0.3,0.1L5.8,9.9C5.7,9.9,5.6,9.8,5.6,9.7z M16,6.4L6.7,9.6l15,3.9L16,6.4z"/>
			</g>
			<g id="Group_4136" transform="translate(76.842 78.206)">
				<path id="Path_6114" class="st18" d="M5.6,12.3C5.6,12.3,5.6,12.3,5.6,12.3L6.2,6c0-0.1,0.1-0.2,0.1-0.2c0.1,0,0.2,0,0.3,0
					l22.5,13.7c0.1,0.1,0.2,0.2,0.1,0.4C29.1,20,29,20,28.9,20L5.7,12.5C5.7,12.5,5.6,12.4,5.6,12.3z M6.7,6.5l-0.6,5.6l20.8,6.7
					L6.7,6.5z"/>
			</g>
			<g id="Group_4137" transform="translate(53.614 76.804)">
				<path id="Path_6115" class="st18" d="M5.6,6.1C5.6,6,5.6,6,5.6,6.1c0-0.2,0.1-0.3,0.3-0.3l23.9,1.4c0.1,0,0.1,0,0.2,0.1
					C30,7.3,30,7.4,30,7.5l-0.7,6.2c0,0.1-0.1,0.3-0.3,0.2c0,0,0,0-0.1,0L5.7,6.3C5.6,6.3,5.6,6.2,5.6,6.1z M29.4,7.7L7.9,6.4
					l21,6.9L29.4,7.7z"/>
			</g>
			<g id="Group_4138" transform="translate(116.62 83.935)">
				<path id="Path_6116" class="st18" d="M5.6,18.3c0-0.1,0-0.1,0.1-0.2L15.7,5.9c0.1-0.1,0.1-0.1,0.2-0.1c0.1,0,0.2,0,0.2,0.1
					l7,10.6c0.1,0.1,0.1,0.2,0,0.3c0,0.1-0.1,0.1-0.2,0.2L5.9,18.6C5.8,18.6,5.7,18.5,5.6,18.3C5.6,18.4,5.6,18.4,5.6,18.3z
					 M15.9,6.5L6.4,18l16-1.5L15.9,6.5z"/>
			</g>
			<g id="Group_4139" transform="translate(77.502 74.64)">
				<path id="Path_6117" class="st18" d="M5.6,9.6C5.6,9.6,5.6,9.6,5.6,9.6c0-0.2,0.1-0.3,0.2-0.3l11.5-3.6c0.1,0,0.2,0,0.3,0.1
					l11,17.3c0.1,0.1,0,0.3-0.1,0.4c-0.1,0.1-0.2,0.1-0.3,0L5.7,9.8C5.6,9.8,5.6,9.7,5.6,9.6z M17.2,6.4L6.5,9.7l21,12.8L17.2,6.4z"
					/>
			</g>
			<g id="Group_4140" transform="translate(99.959 80.503)">
				<path id="Path_6118" class="st18" d="M5.6,17.5c0,0,0-0.1,0-0.1l5.1-11.4c0-0.1,0.1-0.1,0.2-0.2c0.1,0,0.2,0,0.2,0.1l5.2,7.8
					c0,0.1,0.1,0.2,0,0.2c0,0.1-0.1,0.1-0.2,0.2L5.9,17.7c-0.1,0-0.2,0-0.3-0.1C5.6,17.6,5.6,17.5,5.6,17.5z M11,6.6L6.3,17l9.4-3.3
					L11,6.6z"/>
			</g>
			<g id="Group_4141" transform="translate(105.071 80.503)">
				<path id="Path_6119" class="st18" d="M5.6,6.1c0-0.1,0-0.1,0-0.2c0.1-0.1,0.2-0.1,0.3-0.1l21.7,3.4c0.1,0,0.2,0.1,0.2,0.2
					c0,0.1-0.1,0.2-0.2,0.3L11,14.1c-0.1,0-0.2,0-0.3-0.1L5.6,6.2C5.6,6.2,5.6,6.1,5.6,6.1z M26.2,9.5L6.4,6.4l4.7,7.1L26.2,9.5z"/>
			</g>
			<g id="Group_4142" transform="translate(128.413 26.599)">
				<path id="Path_6120" class="st18" d="M5.6,6.1c0-0.1,0-0.2,0.1-0.2c0.1-0.1,0.2-0.1,0.3,0l19.5,10.4c0.1,0,0.2,0.2,0.1,0.3
					c0,0.1-0.1,0.2-0.2,0.2L13,19.9c-0.1,0-0.2,0-0.3-0.1L5.6,6.1C5.6,6.1,5.6,6.1,5.6,6.1z M24.6,16.3L6.5,6.7l6.6,12.6L24.6,16.3z
					"/>
			</g>
			<g id="Group_4143" transform="translate(118.854 26.599)">
				<path id="Path_6121" class="st18" d="M5.6,7.2C5.6,7.2,5.6,7.1,5.6,7.2c0-0.2,0.1-0.3,0.2-0.3l9.6-1.1c0.1,0,0.2,0,0.3,0.1
					l7.1,13.6c0.1,0.1,0,0.3-0.1,0.4c-0.1,0-0.2,0-0.3,0L5.7,7.4C5.6,7.3,5.6,7.3,5.6,7.2z M15.2,6.3l-8.7,1l15.2,11.4L15.2,6.3z"/>
			</g>
			<g id="Group_4144" transform="translate(133.723 80.316)">
				<path id="Path_6122" class="st18" d="M5.6,20.3C5.6,20.3,5.6,20.2,5.6,20.3L9.5,6c0-0.1,0.2-0.2,0.3-0.2c0,0,0.1,0,0.1,0l13,9.4
					c0.1,0.1,0.1,0.2,0.1,0.3c0,0.1-0.1,0.2-0.2,0.2l-17,4.9c-0.1,0-0.2,0-0.3-0.1C5.6,20.4,5.6,20.4,5.6,20.3z M9.9,6.5L6.2,19.9
					l16-4.6L9.9,6.5z"/>
			</g>
			<g id="Group_4145" transform="translate(38.276 63.98)">
				<path id="Path_6123" class="st18" d="M5.6,14c0,0,0-0.1,0-0.1l3.6-7.9c0.1-0.1,0.2-0.2,0.4-0.1c0,0,0.1,0,0.1,0.1l11.7,12.8
					c0.1,0.1,0.1,0.3,0,0.4c-0.1,0.1-0.2,0.1-0.3,0.1L5.7,14.2C5.7,14.2,5.6,14.1,5.6,14C5.6,14,5.6,14,5.6,14z M9.5,6.5l-3.3,7.3
					l14.1,4.5L9.5,6.5z"/>
			</g>
			<g id="Group_4146" transform="translate(23.378 63.98)">
				<path id="Path_6124" class="st18" d="M5.6,8.5C5.6,8.5,5.6,8.5,5.6,8.5c0-0.2,0.1-0.3,0.2-0.3l18.5-2.4c0.1,0,0.2,0,0.2,0.1
					c0.1,0.1,0.1,0.2,0,0.3L21,14.1c-0.1,0.1-0.2,0.2-0.3,0.1L5.7,8.7C5.6,8.7,5.6,8.6,5.6,8.5z M23.9,6.4l-17,2.2l13.7,5L23.9,6.4z
					"/>
			</g>
			<g id="Group_4147" transform="translate(13.38 60.13)">
				<path id="Path_6125" class="st18" d="M5.6,8.2C5.6,8.1,5.6,8.1,5.6,8.2c0-0.2,0.1-0.3,0.2-0.3l7.6-2.1c0.1,0,0.3,0,0.3,0.2
					l2.4,6.3c0.1,0.1,0,0.3-0.2,0.3c-0.1,0-0.1,0-0.2,0l-10-4.2C5.6,8.3,5.6,8.2,5.6,8.2z M13.3,6.4L6.6,8.2l8.7,3.7L13.3,6.4z"/>
			</g>
			<g id="Group_4148" transform="translate(3.822 52.641)">
				<path id="Path_6126" class="st18" d="M5.6,6.1c0-0.1,0.1-0.3,0.2-0.3c0,0,0,0,0,0l8.5,0.2c0.1,0,0.2,0.1,0.3,0.2l0,0l1,9.4
					c0,0.1-0.1,0.3-0.2,0.3c-0.1,0-0.2,0-0.2-0.1L5.6,6.2C5.6,6.2,5.6,6.1,5.6,6.1z M14.1,6.5L6.5,6.3l8.6,8.6L14.1,6.5z"/>
			</g>
			<g id="Group_4149" transform="translate(78.63 12.443)">
				<path id="Path_6127" class="st18" d="M5.6,6.1c0-0.1,0-0.1,0.1-0.2c0.1-0.1,0.2-0.1,0.3-0.1l23.7,7.7c0.1,0,0.2,0.2,0.2,0.3
					c0,0.1-0.1,0.2-0.2,0.2l-18.3,2.5c-0.1,0-0.2,0-0.3-0.1L5.6,6.1C5.6,6.1,5.6,6.1,5.6,6.1z M28.3,13.7L6.4,6.5l5,9.5L28.3,13.7z"
					/>
			</g>
			<g id="Group_4150" transform="translate(59.204 5.159)">
				<path id="Path_6128" class="st18" d="M5.6,6.1c0-0.1,0.1-0.3,0.2-0.3c0,0,0.1,0,0.1,0l19.4,7.3c0.1,0,0.2,0.2,0.2,0.3
					c0,0.1-0.1,0.2-0.2,0.2L9.5,14.7c-0.1,0-0.2-0.1-0.3-0.2L5.6,6.1C5.6,6.1,5.6,6.1,5.6,6.1z M24,13.1L6.3,6.5l3.3,7.7L24,13.1z"
					/>
			</g>
			<g id="Group_4151" transform="translate(46.302 1.02)">
				<path id="Path_6129" class="st18" d="M5.6,6.1c0-0.1,0.1-0.3,0.2-0.3c0,0,0.1,0,0.1,0l12.9,4.1c0.1,0,0.2,0.1,0.2,0.3
					c0,0.1-0.1,0.2-0.2,0.2L9,12.7c-0.1,0-0.2,0-0.3-0.1L5.6,6.1C5.6,6.1,5.6,6.1,5.6,6.1z M17.7,10.1L6.3,6.5l2.7,5.6L17.7,10.1z"
					/>
			</g>
			<g id="Group_4152" transform="translate(34.33 0.002)">
				<path id="Path_6130" class="st18" d="M5.6,6.1c0-0.1,0.1-0.3,0.2-0.3c0,0,0,0,0.1,0l12,1c0.1,0,0.3,0.1,0.2,0.3
					c0,0.1-0.1,0.2-0.1,0.2l-8,3.9c-0.1,0.1-0.2,0-0.3-0.1l-4-5C5.6,6.2,5.6,6.1,5.6,6.1z M16.8,7.2L6.4,6.4l3.5,4.3L16.8,7.2z"/>
			</g>
			<g id="Group_4153" transform="translate(20.71)">
				<path id="Path_6131" class="st18" d="M5.6,10.5c0-0.1,0.1-0.2,0.2-0.3l13.6-4.4c0.1,0,0.2,0,0.3,0.1l4,5c0.1,0.1,0.1,0.2,0,0.3
					c0,0.1-0.1,0.2-0.2,0.1L5.8,10.7C5.7,10.7,5.6,10.6,5.6,10.5L5.6,10.5z M19.4,6.4l-12,3.9l15.5,0.5L19.4,6.4z"/>
			</g>
			<g id="Group_4154" transform="translate(11.217 4.407)">
				<path id="Path_6132" class="st18" d="M5.6,11.9L5.6,11.9c0-0.1,0-0.2,0.1-0.3l9.5-5.9c0.1-0.1,0.2-0.1,0.3,0
					c0.1,0.1,0.1,0.2,0.1,0.3L12.3,14c-0.1,0.1-0.2,0.2-0.3,0.2l-6.2-2C5.7,12.1,5.6,12,5.6,11.9z M14.8,6.7l-8.3,5.1l5.4,1.8
					L14.8,6.7z"/>
			</g>
			<g id="Group_4155" transform="translate(3.005 10.259)">
				<path id="Path_6133" class="st18" d="M5.6,17c0-0.1,0-0.1,0.1-0.2l8.2-11c0.1-0.1,0.3-0.1,0.4-0.1c0.1,0,0.1,0.1,0.1,0.2l2,12.1
					c0,0.1,0,0.2-0.1,0.2c-0.1,0.1-0.1,0.1-0.2,0.1L5.8,17.3C5.7,17.2,5.6,17.2,5.6,17C5.6,17.1,5.6,17.1,5.6,17z M13.9,6.7
					L6.3,16.8l9.4,1.1L13.9,6.7z"/>
			</g>
			<g id="Group_4156" transform="translate(0.001 21.217)">
				<path id="Path_6134" class="st18" d="M5.6,19C5.6,18.9,5.6,18.9,5.6,19l3-13c0-0.1,0.2-0.2,0.3-0.2l10.3,1.2
					c0.1,0,0.2,0.1,0.2,0.2c0,0.1,0,0.2-0.1,0.3L6,19.1c-0.1,0.1-0.3,0.1-0.4,0C5.6,19.1,5.6,19,5.6,19L5.6,19z M9,6.3L6.3,18.2
					L18.5,7.4L9,6.3z"/>
			</g>
			<g id="Group_4157" transform="translate(0 34.113)">
				<path id="Path_6135" class="st18" d="M6.4,17L6.4,17L5.6,6.1c0-0.1,0.1-0.3,0.2-0.3c0.1,0,0.1,0,0.2,0l9.4,6.3
					c0.1,0.1,0.1,0.1,0.1,0.2c0,0.1-0.1,0.2-0.1,0.2l-8.5,4.6C6.7,17.3,6.5,17.2,6.4,17C6.4,17,6.4,17,6.4,17L6.4,17z M6.1,6.6
					l0.8,10l7.8-4.2L6.1,6.6z"/>
			</g>
			<g id="Group_4158" transform="translate(0.857 40.397)">
				<path id="Path_6136" class="st18" d="M5.6,10.7c0-0.1,0-0.2,0.1-0.3l8.5-4.6c0.1-0.1,0.3,0,0.4,0.1c0,0.1,0,0.2,0,0.2L9,18.4
					c-0.1,0.1-0.2,0.2-0.3,0.1c-0.1,0-0.1-0.1-0.1-0.1L5.6,10.7C5.6,10.7,5.6,10.7,5.6,10.7z M13.8,6.6l-7.6,4.1l2.7,6.8L13.8,6.6z"
					/>
			</g>
			<g id="Group_4159" transform="translate(20.709 4.407)">
				<path id="Path_6137" class="st18" d="M5.6,6.1c0-0.1,0-0.1,0-0.2c0-0.1,0.1-0.2,0.2-0.1l17.6,0.5c0.1,0,0.2,0.1,0.2,0.2
					c0,0.1,0,0.2-0.1,0.3L13.9,16c-0.1,0.1-0.1,0.1-0.2,0.1c-0.1,0-0.1,0-0.2-0.1L5.6,6.2C5.6,6.2,5.6,6.1,5.6,6.1z M22.8,6.8
					L6.4,6.3l7.4,9.1L22.8,6.8z"/>
			</g>
			<g id="Group_4160" transform="translate(38.334 1.019)">
				<path id="Path_6138" class="st18" d="M5.6,10c0-0.1,0-0.2,0.1-0.3l8-3.9c0.1,0,0.1,0,0.2,0c0.1,0,0.1,0.1,0.2,0.1l3.1,6.4
					c0.1,0.1,0,0.3-0.1,0.4c-0.1,0-0.1,0-0.2,0L5.8,10.2C5.7,10.2,5.6,10.1,5.6,10z M13.7,6.4L6.6,9.9l9.8,2.2L13.7,6.4z"/>
			</g>
			<g id="Group_4161" transform="translate(11.216 10.258)">
				<path id="Path_6139" class="st18" d="M5.6,6.1c0-0.1,0.1-0.3,0.2-0.3c0,0,0.1,0,0.1,0l6.2,2c0.1,0,0.1,0.1,0.2,0.1
					c0,0.1,0,0.1,0,0.2L8.1,18.3c-0.1,0.1-0.2,0.2-0.3,0.1c-0.1,0-0.1-0.1-0.2-0.2L5.6,6.1L5.6,6.1z M11.7,8.2L6.2,6.4L8,17.2
					L11.7,8.2z"/>
			</g>
			<g id="Group_4162" transform="translate(17.419 4.407)">
				<path id="Path_6140" class="st18" d="M5.6,14c0,0,0-0.1,0-0.1l3.3-7.9c0-0.1,0.1-0.1,0.2-0.2c0.1,0,0.2,0,0.2,0.1l7.9,9.8
					c0.1,0.1,0.1,0.2,0,0.3c-0.1,0.1-0.2,0.1-0.3,0.1L5.8,14.2C5.7,14.2,5.6,14.1,5.6,14C5.6,14,5.6,14,5.6,14z M9.2,6.6l-3,7.2
					l10.2,1.7L9.2,6.6z"/>
			</g>
			<g id="Group_4163" transform="translate(0 22.369)">
				<path id="Path_6141" class="st18" d="M5.6,17.8L5.6,17.8c0-0.1,0-0.2,0.1-0.2L18.9,5.8c0.1-0.1,0.3-0.1,0.4,0
					c0.1,0.1,0.1,0.1,0.1,0.2l-3.9,18c0,0.1-0.1,0.2-0.2,0.2c-0.1,0-0.2,0-0.2,0L5.7,18C5.6,18,5.6,17.9,5.6,17.8z M18.7,6.8
					l-12.4,11l8.8,5.9L18.7,6.8z"/>
			</g>
			<g id="Group_4164" transform="translate(3.823 40.395)">
				<path id="Path_6142" class="st18" d="M5.6,18.3c0,0,0-0.1,0-0.1l5.6-12.2c0-0.1,0.2-0.2,0.3-0.2c0.1,0,0.2,0.1,0.2,0.2l3,12.4
					c0,0.1,0,0.2-0.1,0.2c-0.1,0.1-0.1,0.1-0.2,0.1l-8.5-0.2c-0.1,0-0.2,0-0.2-0.1C5.6,18.4,5.6,18.4,5.6,18.3z M11.3,6.9L6.2,18
					l7.8,0.1L11.3,6.9z"/>
			</g>
			<g id="Group_4165" transform="translate(12.365 52.792)">
				<path id="Path_6143" class="st18" d="M6.6,15.5L6.6,15.5l-1-9.4c0-0.1,0.1-0.3,0.2-0.3c0.1,0,0.1,0,0.2,0.1l8.7,7.3
					c0.1,0.1,0.1,0.2,0.1,0.3c0,0.1-0.1,0.2-0.2,0.2l-7.6,2.1C6.8,15.8,6.6,15.7,6.6,15.5C6.6,15.5,6.6,15.5,6.6,15.5L6.6,15.5z
					 M6.2,6.7l0.9,8.5l6.9-1.9L6.2,6.7z"/>
			</g>
			<g id="Group_4166" transform="translate(23.378 56.41)">
				<path id="Path_6144" class="st18" d="M5.6,16.1c0-0.1,0-0.2,0.1-0.2l12.4-10c0.1,0,0.1-0.1,0.2-0.1c0.1,0,0.1,0,0.2,0.1l6.1,7.6
					c0.1,0.1,0.1,0.2,0,0.3c0,0.1-0.1,0.2-0.2,0.2L5.9,16.3C5.8,16.3,5.6,16.3,5.6,16.1C5.6,16.1,5.6,16.1,5.6,16.1z M18.2,6.4
					L6.7,15.7l17.1-2.3L18.2,6.4z"/>
			</g>
			<g id="Group_4167" transform="translate(41.885 63.717)">
				<path id="Path_6145" class="st18" d="M5.6,6.3c0,0,0-0.1,0-0.1C5.6,6.1,5.7,6,5.8,6l14.1-0.3c0.1,0,0.2,0,0.2,0.1
					c0.1,0.1,0.1,0.1,0.1,0.2l-2.4,13.1c0,0.1-0.1,0.2-0.2,0.2c-0.1,0-0.2,0-0.3-0.1L5.6,6.5C5.6,6.4,5.6,6.4,5.6,6.3z M19.6,6.3
					L6.4,6.6l11,12L19.6,6.3z"/>
			</g>
			<g id="Group_4168" transform="translate(53.615 69.259)">
				<path id="Path_6146" class="st18" d="M5.6,13.6c0-0.1,0-0.2,0.2-0.3l16.7-7.5c0.1,0,0.2,0,0.3,0.1l7.2,8.9
					c0.1,0.1,0.1,0.3,0,0.4c-0.1,0-0.1,0.1-0.2,0.1L5.8,13.9C5.7,13.8,5.6,13.8,5.6,13.6L5.6,13.6z M22.4,6.4l-15.5,7l22.2,1.3
					L22.4,6.4z"/>
			</g>
			<g id="Group_4169" transform="translate(62.839 12.442)">
				<path id="Path_6147" class="st18" d="M5.6,7.2c0,0,0-0.1,0-0.1c0-0.1,0.1-0.2,0.2-0.2l15.8-1.2c0.1,0,0.2,0,0.2,0.1
					c0.1,0.1,0.1,0.2,0,0.2l-4.1,11.7c0,0.1-0.2,0.2-0.3,0.2c0,0-0.1,0-0.1-0.1L5.7,7.4C5.6,7.3,5.6,7.3,5.6,7.2z M21.2,6.3L6.5,7.4
					l11,9.9L21.2,6.3z"/>
			</g>
			<g id="Group_4170" transform="translate(84.029 20.177)">
				<path id="Path_6148" class="st18" d="M5.6,8.5C5.6,8.5,5.6,8.5,5.6,8.5c0-0.2,0.1-0.3,0.2-0.3l18.3-2.5c0.1,0,0.2,0,0.2,0.1
					c0.1,0.1,0.1,0.1,0.1,0.2l-1,5.6c0,0.1-0.1,0.1-0.1,0.2c-0.1,0-0.1,0.1-0.2,0L5.8,8.8C5.7,8.7,5.6,8.7,5.6,8.5z M23.8,6.4
					L7.5,8.5l15.4,2.7L23.8,6.4z"/>
			</g>
			<g id="Group_4171" transform="translate(102.288 20.177)">
				<path id="Path_6149" class="st18" d="M5.6,6.1c0-0.1,0-0.1,0.1-0.2c0.1-0.1,0.2-0.1,0.3-0.1l16.6,7.5c0.1,0,0.1,0.1,0.1,0.2
					c0,0.1,0,0.2-0.1,0.2L17.2,20c-0.1,0.1-0.3,0.1-0.4,0c0,0,0,0,0,0L5.6,6.2C5.6,6.2,5.6,6.1,5.6,6.1z M22,13.7L6.7,6.7L17,19.4
					L22,13.7z"/>
			</g>
			<g id="Group_4172" transform="translate(49.402 5.159)">
				<path id="Path_6150" class="st18" d="M5.6,8.3C5.6,8.3,5.6,8.3,5.6,8.3C5.6,8.1,5.7,8,5.8,8l9.8-2.2c0.1,0,0.3,0,0.3,0.2
					l3.6,8.4c0.1,0.1,0,0.3-0.1,0.3c-0.1,0-0.1,0-0.2,0L5.7,8.5C5.6,8.5,5.6,8.4,5.6,8.3z M15.5,6.3l-8.8,2l12.1,5.6L15.5,6.3z"/>
			</g>
			<g id="Group_4173" transform="translate(38.334 4.956)">
				<path id="Path_6151" class="st18" d="M5.6,6.1c0-0.1,0-0.2,0.1-0.2c0.1-0.1,0.2-0.1,0.2-0.1L17,8.2c0.1,0,0.2,0.1,0.2,0.2
					c0,0.1,0,0.2-0.1,0.3l-8.9,7.2C8,16,7.8,16,7.7,15.9c0,0,0-0.1-0.1-0.1L5.6,6.1L5.6,6.1z M16.3,8.6L6.2,6.4l1.9,8.8L16.3,8.6z"
					/>
			</g>
			<g id="Group_4174" transform="translate(9.402 22.369)">
				<path id="Path_6152" class="st18" d="M5.6,24.1C5.6,24.1,5.6,24,5.6,24.1L9.4,6c0-0.1,0.1-0.2,0.2-0.2c0.1,0,0.2,0,0.2,0
					l9.7,6.4c0.1,0,0.1,0.1,0.1,0.2c0,0.1,0,0.2-0.1,0.2L6,24.3c-0.1,0.1-0.2,0.1-0.3,0C5.6,24.2,5.6,24.2,5.6,24.1z M9.9,6.5
					L6.3,23.4L19,12.4L9.9,6.5z"/>
			</g>
			<g id="Group_4175" transform="translate(12.365 48.75)">
				<path id="Path_6153" class="st18" d="M5.6,10.1C5.6,10.1,5.6,10.1,5.6,10.1c0-0.1,0.1-0.2,0.1-0.3l7-4c0.1-0.1,0.3,0,0.4,0.1
					c0,0,0,0.1,0,0.1l1.7,11.4c0,0.1-0.1,0.3-0.2,0.3c-0.1,0-0.2,0-0.2-0.1l-8.7-7.3C5.6,10.2,5.6,10.2,5.6,10.1z M12.6,6.5
					l-6.3,3.7l7.8,6.6L12.6,6.5z"/>
			</g>
			<g id="Group_4176" transform="translate(56.008 53.779)">
				<path id="Path_6154" class="st18" d="M5.6,16L5.6,16c0-0.1,0-0.2,0.1-0.2l14.3-9.9c0.1-0.1,0.2-0.1,0.3,0c0.1,0,0.1,0.1,0.1,0.2
					l0,15.5c0,0.1,0,0.2-0.1,0.2c-0.1,0.1-0.2,0.1-0.2,0L5.7,16.2C5.6,16.2,5.6,16.1,5.6,16z M19.8,6.5L6.4,15.9l13.4,5.2L19.8,6.5z
					"/>
			</g>
			<g id="Group_4177" transform="translate(88.955 74.639)">
				<path id="Path_6155" class="st18" d="M5.6,6.1c0-0.1,0-0.1,0.1-0.2c0.1-0.1,0.2-0.1,0.3-0.1L22,11.6c0.1,0,0.1,0.1,0.2,0.1
					c0,0.1,0,0.1,0,0.2l-5.1,11.4c0,0.1-0.1,0.1-0.2,0.2c-0.1,0-0.2,0-0.2-0.1L5.6,6.2C5.6,6.1,5.6,6.1,5.6,6.1z M21.6,12.1L6.5,6.6
					l10.3,16.2L21.6,12.1z"/>
			</g>
			<g id="Group_4178" transform="translate(101.321 20.176)">
				<path id="Path_6156" class="st18" d="M5.6,11.6C5.6,11.6,5.6,11.6,5.6,11.6l1-5.6c0-0.1,0.2-0.2,0.3-0.2c0.1,0,0.1,0,0.2,0.1
					l11.1,13.8c0.1,0.1,0.1,0.3,0,0.4c-0.1,0.1-0.2,0.1-0.3,0L5.7,11.8C5.6,11.8,5.6,11.7,5.6,11.6z M7,6.7l-0.8,4.8l10.5,7.1L7,6.7
					z"/>
			</g>
			<g id="Group_4179" transform="translate(74.555 12.443)">
				<path id="Path_6157" class="st18" d="M5.6,17.8c0,0,0-0.1,0-0.1L9.7,6c0-0.1,0.2-0.2,0.3-0.2c0.1,0,0.1,0.1,0.1,0.1l5.4,10.2
					c0,0.1,0,0.2,0,0.2c0,0.1-0.1,0.1-0.2,0.1L5.9,18C5.7,18,5.6,17.9,5.6,17.8C5.6,17.8,5.6,17.8,5.6,17.8L5.6,17.8z M10,6.7
					L6.2,17.4l8.7-1.4L10,6.7z"/>
			</g>
			<g id="Group_4180" transform="translate(41.885 51.323)">
				<path id="Path_6158" class="st18" d="M5.6,18.7c0,0,0-0.1,0-0.1l5.2-12.7c0-0.1,0.1-0.2,0.2-0.2c0.1,0,0.2,0,0.2,0.1l8.9,12.4
					c0.1,0.1,0.1,0.2,0,0.3c0,0.1-0.1,0.1-0.2,0.1L5.8,19c-0.1,0-0.2,0-0.2-0.1C5.6,18.8,5.6,18.8,5.6,18.7z M11.1,6.6L6.2,18.4
					l13.2-0.2L11.1,6.6z"/>
			</g>
			<g id="Group_4181" transform="translate(19.338 40.174)">
				<path id="Path_6159" class="st18" d="M5.6,14.6L5.6,14.6c0-0.1,0-0.2,0.1-0.3l12.9-8.6c0.1,0,0.2-0.1,0.2,0
					c0.1,0,0.1,0.1,0.2,0.2l3.6,16.2c0,0.1,0,0.2-0.1,0.3c-0.1,0.1-0.2,0.1-0.3,0L5.7,14.9C5.6,14.8,5.6,14.7,5.6,14.6z M18.5,6.5
					L6.4,14.6l15.5,7.2L18.5,6.5z"/>
			</g>
			<g id="Group_4182" transform="translate(49.403 7.39)">
				<path id="Path_6160" class="st18" d="M5.8,21.3C5.8,21.3,5.8,21.3,5.8,21.3L5.6,6c0-0.1,0-0.2,0.1-0.2c0.1,0,0.2-0.1,0.3,0
					L19.4,12c0.1,0,0.1,0.1,0.2,0.2c0,0.1,0,0.2-0.1,0.2l-13.2,9c-0.1,0.1-0.3,0.1-0.4-0.1C5.9,21.4,5.8,21.4,5.8,21.3L5.8,21.3z
					 M6.1,6.5l0.3,14.3l12.4-8.5L6.1,6.5z"/>
			</g>
			<g id="Group_4183" transform="translate(88.956 62.849)">
				<path id="Path_6161" class="st18" d="M5.6,17.9c0-0.1,0-0.2,0.1-0.2L20.3,5.8c0.1-0.1,0.2-0.1,0.3,0c0.1,0,0.1,0.1,0.2,0.2
					l1.5,17.7c0,0.1,0,0.2-0.1,0.2c-0.1,0.1-0.2,0.1-0.3,0L5.7,18.1C5.7,18,5.6,18,5.6,17.9L5.6,17.9z M20.2,6.6L6.4,17.7l15.3,5.6
					L20.2,6.6z"/>
			</g>
			<g id="Group_4184" transform="translate(94.707 33.943)">
				<path id="Path_6162" class="st18" d="M5.6,8c0,0,0-0.1,0-0.1c0-0.1,0.1-0.2,0.2-0.2l18.7-1.9c0.1,0,0.3,0.1,0.3,0.2
					c0,0.1,0,0.1,0,0.1l-7.2,13.6c0,0.1-0.1,0.1-0.2,0.1c-0.1,0-0.2,0-0.2-0.1L5.6,8.1C5.6,8.1,5.6,8,5.6,8z M24.1,6.4L6.4,8.2
					l10.8,11L24.1,6.4z"/>
			</g>
			<g id="Group_4185" transform="translate(47.131 38.16)">
				<path id="Path_6163" class="st18" d="M5.6,19.2c0-0.1,0-0.2,0.1-0.2L18,5.9c0.1-0.1,0.1-0.1,0.2-0.1c0.1,0,0.2,0,0.2,0.1
					l10.8,15.6c0.1,0.1,0.1,0.2,0,0.3c-0.1,0.1-0.2,0.1-0.3,0.1L5.8,19.5C5.7,19.5,5.6,19.4,5.6,19.2z M18.1,6.5L6.4,19l22,2.3
					L18.1,6.5z"/>
			</g>
			<g id="Group_4186" transform="translate(137.688 62.473)">
				<path id="Path_6164" class="st18" d="M5.6,23.9C5.6,23.9,5.6,23.9,5.6,23.9L8.2,6c0-0.1,0.2-0.2,0.3-0.2c0.1,0,0.1,0,0.2,0.1
					l11.8,13.1c0.1,0.1,0.1,0.2,0.1,0.2c0,0.1-0.1,0.2-0.2,0.2L5.9,24.1c-0.1,0-0.2,0-0.3-0.1C5.6,24,5.6,24,5.6,23.9z M8.7,6.6
					L6.2,23.5L19.8,19L8.7,6.6z"/>
			</g>
			<g id="Group_4187" transform="translate(103.548 47.522)">
				<path id="Path_6165" class="st18" d="M5.6,21.4C5.6,21.4,5.6,21.3,5.6,21.4L8.2,6c0-0.1,0.1-0.2,0.2-0.2c0.1,0,0.2,0,0.2,0
					L24.9,16c0.1,0.1,0.1,0.2,0.1,0.3c0,0.1-0.1,0.2-0.2,0.2l-19,5.1c-0.1,0-0.2,0-0.2-0.1C5.6,21.5,5.6,21.5,5.6,21.4z M8.7,6.5
					L6.2,21l18-4.8L8.7,6.5z"/>
			</g>
			<g id="Group_4188" transform="translate(70.279 40.58)">
				<path id="Path_6166" class="st18" d="M5.6,19.3c0-0.1,0-0.2,0.1-0.2L20,5.8c0.1-0.1,0.3-0.1,0.4,0c0,0,0.1,0.1,0.1,0.1l2.7,16
					c0,0.1,0,0.2-0.1,0.2c-0.1,0.1-0.1,0.1-0.2,0.1L5.8,19.5C5.7,19.5,5.6,19.4,5.6,19.3L5.6,19.3z M20,6.6L6.4,19.1l16.2,2.7
					L20,6.6z"/>
			</g>
			<g id="Group_4189" transform="translate(32.206 27.432)">
				<path id="Path_6167" class="st18" d="M5.6,18.8c0,0,0-0.1,0-0.1l5.6-12.7c0-0.1,0.1-0.1,0.2-0.2c0.1,0,0.2,0,0.2,0.1L21,17.4
					c0.1,0.1,0.1,0.3,0,0.4c0,0-0.1,0.1-0.1,0.1L5.8,19c-0.1,0-0.2,0-0.2-0.1C5.6,18.9,5.6,18.9,5.6,18.8z M11.5,6.5L6.3,18.5
					l14-1.1L11.5,6.5z"/>
			</g>
			<g id="Group_4190" transform="translate(130.656 48.9)">
				<path id="Path_6168" class="st18" d="M5.6,13C5.6,13,5.6,13,5.6,13c0-0.2,0.1-0.2,0.2-0.3l15.8-6.9c0.1,0,0.2,0,0.3,0.1
					c0.1,0.1,0.1,0.2,0.1,0.3l-6.1,13.6c-0.1,0.1-0.2,0.2-0.3,0.1c0,0,0,0,0,0l-9.7-6.6C5.6,13.2,5.6,13.1,5.6,13z M21.1,6.6L6.4,13
					l9,6.2L21.1,6.6z"/>
			</g>
			<g id="Group_4191" transform="translate(159.905 62.851)">
				<path id="Path_6169" class="st18" d="M5.6,11C5.6,11,5.6,11,5.6,11c0-0.2,0.1-0.3,0.2-0.3l16-5c0.1,0,0.2,0,0.3,0.1
					c0.1,0.1,0.1,0.2,0.1,0.2l-2.4,14.5c0,0.1-0.1,0.2-0.2,0.2c-0.1,0-0.2,0-0.3,0L5.7,11.2C5.6,11.2,5.6,11.1,5.6,11z M21.5,6.4
					L6.4,11.1l12.8,8.9L21.5,6.4z"/>
			</g>
		</g>
	</g>
</g>
</svg>
