<?xml version="1.0" encoding="utf-8"?>
<!-- Generator: Adobe Illustrator 25.2.3, SVG Export Plug-In . SVG Version: 6.00 Build 0)  -->
<svg version="1.1" id="Layer_1" xmlns="http://www.w3.org/2000/svg" xmlns:xlink="http://www.w3.org/1999/xlink" x="0px" y="0px"
	 viewBox="0 0 126.3 146.6" style="enable-background:new 0 0 126.3 146.6;" xml:space="preserve">
<style type="text/css">
	.st0{fill:#FFFFFF;}
</style>
<g id="Group_4876" transform="translate(-46.987 -244.513)">
	<g id="Group_1101" transform="translate(84.219 383.042)">
		<path id="Path_2816" class="st0" d="M0.7,7.7c-0.1,0-0.1-0.1-0.1-0.2l-0.3-5c0-0.1,0-0.2,0.1-0.2c0.1-0.1,0.2-0.1,0.2,0l11.1,5.2
			c0.1,0.1,0.2,0.2,0.1,0.3c0,0.1-0.1,0.1-0.2,0.1L0.9,7.7C0.8,7.7,0.8,7.7,0.7,7.7z M0.8,2.9l0.3,4.4l9.4,0.1L0.8,2.9z"/>
	</g>
	<g id="Group_1102" transform="translate(71.478 383.042)">
		<path id="Path_2817" class="st0" d="M0.4,4.7C0.3,4.6,0.3,4.5,0.3,4.3c0-0.1,0.1-0.1,0.2-0.1l12.7-2c0.1,0,0.1,0,0.2,0.1
			c0.1,0,0.1,0.1,0.1,0.2l0.3,5c0,0.1,0,0.2-0.1,0.2c-0.1,0.1-0.1,0.1-0.2,0.1L0.4,4.7C0.5,4.7,0.4,4.7,0.4,4.7z M13,2.8L1.8,4.5
			l11.5,2.6L13,2.8z"/>
	</g>
	<g id="Group_1103" transform="translate(61.895 378.227)">
		<path id="Path_2818" class="st0" d="M0.4,3.2C0.3,3.1,0.3,3,0.3,2.8c0-0.1,0.1-0.1,0.2-0.1l4.1-0.5c0.1,0,0.2,0,0.2,0.1l5.5,6.8
			c0.1,0.1,0.1,0.3,0,0.3c-0.1,0.1-0.2,0.1-0.3,0L0.4,3.2L0.4,3.2z M4.6,2.7L1.2,3.2L9,8.2L4.6,2.7z"/>
	</g>
	<g id="Group_1104" transform="translate(52.493 367.226)">
		<path id="Path_2819" class="st0" d="M9.8,14.2C9.8,14.2,9.8,14.2,9.8,14.2L0.3,2.6c-0.1-0.1-0.1-0.3,0-0.3c0.1,0,0.1-0.1,0.2-0.1
			l9,1.3c0.1,0,0.2,0.1,0.2,0.2L10.2,14c0,0.1-0.1,0.3-0.2,0.3C9.9,14.2,9.8,14.2,9.8,14.2L9.8,14.2z M1.1,2.8l8.5,10.4L9.3,4
			L1.1,2.8z"/>
	</g>
	<g id="Group_1105" transform="translate(53.101 356.096)">
		<path id="Path_2820" class="st0" d="M0.4,11.7c-0.1-0.1-0.1-0.2-0.1-0.3l2-9c0-0.1,0.2-0.2,0.3-0.2c0.1,0,0.1,0.1,0.2,0.1
			l6.3,12.5c0.1,0.1,0,0.3-0.1,0.3c-0.1,0-0.1,0-0.2,0L0.4,11.7C0.4,11.7,0.4,11.7,0.4,11.7z M2.7,3.2l-1.8,8.1l7.6,3.1L2.7,3.2z"/>
	</g>
	<g id="Group_1106" transform="translate(46.991 335.472)">
		<path id="Path_2821" class="st0" d="M0.4,17.5c-0.1-0.1-0.1-0.1-0.1-0.2L2.9,2.4c0-0.1,0.1-0.2,0.3-0.2c0.1,0,0.1,0.1,0.2,0.1
			l4.1,9c0,0.1,0,0.2-0.1,0.3l-6.7,5.9C0.6,17.6,0.5,17.6,0.4,17.5C0.4,17.5,0.4,17.5,0.4,17.5z M3.2,3.3L0.9,16.7l6-5.3L3.2,3.3z"
			/>
	</g>
	<g id="Group_1107" transform="translate(49.626 322.992)">
		<path id="Path_2822" class="st0" d="M0.4,15.3c-0.1-0.1-0.1-0.2-0.1-0.3l7-12.6c0.1-0.1,0.2-0.2,0.3-0.1c0.1,0,0.1,0.1,0.1,0.2
			L6.3,13.9c0,0.1-0.1,0.2-0.2,0.2l-5.5,1.2C0.5,15.4,0.4,15.3,0.4,15.3z M7.1,3.7L1,14.7l4.8-1L7.1,3.7z"/>
	</g>
	<g id="Group_1108" transform="translate(61.088 309.222)">
		<path id="Path_2823" class="st0" d="M0.4,10.5C0.4,10.5,0.4,10.5,0.4,10.5c-0.1-0.1-0.1-0.3,0-0.4l6.7-7.9c0.1-0.1,0.2-0.1,0.3,0
			l3,2.4c0.1,0.1,0.1,0.2,0,0.3c0,0,0,0-0.1,0.1l-9.7,5.5C0.6,10.6,0.5,10.6,0.4,10.5z M7.3,2.8L1.6,9.4l8.2-4.6L7.3,2.8z"/>
	</g>
	<g id="Group_1109" transform="translate(67.833 303.621)">
		<path id="Path_2824" class="st0" d="M3.4,10.6L3.4,10.6l-3-2.4C0.3,8.2,0.3,8,0.3,7.9c0,0,0-0.1,0.1-0.1l11-5.6
			c0.1-0.1,0.3,0,0.3,0.1c0,0.1,0,0.2,0,0.3l-8.1,8C3.6,10.7,3.5,10.7,3.4,10.6z M1,8.1l2.5,2l6.8-6.7L1,8.1z"/>
	</g>
	<g id="Group_1110" transform="translate(78.872 302.235)">
		<path id="Path_2825" class="st0" d="M3.1,6.2L3.1,6.2L0.4,4.1C0.3,4,0.3,3.8,0.3,3.7c0-0.1,0.1-0.1,0.2-0.1l11.9-1.4
			c0.1,0,0.3,0.1,0.3,0.2c0,0.1-0.1,0.2-0.2,0.3L3.3,6.2C3.2,6.2,3.1,6.2,3.1,6.2z M1.1,4l2.1,1.7l7.3-2.7L1.1,4z"/>
	</g>
	<g id="Group_1111" transform="translate(90.776 302.236)">
		<path id="Path_2826" class="st0" d="M2.3,6.6C2.3,6.6,2.3,6.6,2.3,6.6l-2-4.1c0-0.1,0-0.2,0-0.3c0.1-0.1,0.1-0.1,0.2-0.1l12.3,2
			c0.1,0,0.2,0.1,0.2,0.3c0,0.1-0.1,0.2-0.2,0.2l-10.3,2C2.5,6.7,2.4,6.7,2.3,6.6z M1,2.8l1.7,3.4l8.8-1.7L1,2.8z"/>
	</g>
	<g id="Group_1112" transform="translate(95.327 380.022)">
		<path id="Path_2827" class="st0" d="M0.4,10.8C0.4,10.8,0.4,10.8,0.4,10.8c-0.1-0.1-0.1-0.3,0-0.4l7.8-8.1
			c0.1-0.1,0.2-0.1,0.2-0.1l4.7,1.5c0.1,0,0.2,0.1,0.2,0.2c0,0.1,0,0.2-0.1,0.2L0.6,10.8C0.6,10.8,0.5,10.8,0.4,10.8z M8.4,2.8
			L1.8,9.7L12.4,4L8.4,2.8z"/>
	</g>
	<g id="Group_1113" transform="translate(107.866 369.006)">
		<path id="Path_2828" class="st0" d="M0.4,15.1c-0.1-0.1-0.1-0.2-0.1-0.3L3.7,4.8c0-0.1,0.1-0.1,0.2-0.2l8-2.4c0.1,0,0.3,0,0.3,0.2
			c0,0.1,0,0.2-0.1,0.2L0.7,15.1C0.6,15.2,0.5,15.2,0.4,15.1L0.4,15.1z M4.1,5.1l-3,8.9l10-11L4.1,5.1z"/>
	</g>
	<g id="Group_1114" transform="translate(111.282 355.547)">
		<path id="Path_2829" class="st0" d="M0.4,18.5C0.4,18.5,0.3,18.5,0.4,18.5c-0.1-0.2-0.1-0.3,0-0.4L14.9,2.3c0.1-0.1,0.2-0.1,0.3,0
			h0c0.1,0.1,0.1,0.2,0.1,0.3L8.7,16c0,0.1-0.1,0.1-0.1,0.1l-8,2.4C0.5,18.6,0.5,18.6,0.4,18.5z M14.1,3.9l-12.8,14l7-2.1L14.1,3.9z
			"/>
	</g>
	<g id="Group_1115" transform="translate(124.229 340.811)">
		<path id="Path_2830" class="st0" d="M2,17.4c-0.1,0-0.1-0.1-0.1-0.2l-1.6-12c0-0.1,0-0.2,0.1-0.2l5.4-2.7c0.1,0,0.2,0,0.3,0
			c0.1,0.1,0.1,0.2,0.1,0.3L2.3,17.3C2.3,17.4,2.2,17.5,2,17.4C2,17.4,2,17.4,2,17.4L2,17.4z M0.8,5.4l1.4,10.6l3.4-13L0.8,5.4z"/>
	</g>
	<g id="Group_1116" transform="translate(103.043 304.201)">
		<path id="Path_2831" class="st0" d="M2.1,9C2.1,9,2,8.9,2,8.9L0.3,2.5c0-0.1,0-0.3,0.2-0.3c0.1,0,0.1,0,0.2,0l10,7.2l0,0
			c0.1,0.1,0.1,0.2,0.1,0.3c0,0.1-0.1,0.2-0.3,0.2L2.2,9.1C2.2,9.1,2.1,9,2.1,9z M0.9,3.1l1.5,5.5l7.2,0.7L0.9,3.1z"/>
	</g>
	<g id="Group_1117" transform="translate(78.872 297.431)">
		<path id="Path_2832" class="st0" d="M0.4,8.9c0,0-0.1-0.1-0.1-0.1c0-0.1,0-0.2,0.1-0.3l10.4-6.2c0,0,0.1,0,0.2,0l8.5,1.2
			c0.1,0,0.2,0.1,0.2,0.3c0,0.1-0.1,0.2-0.2,0.2l-18.9,5C0.5,8.9,0.4,8.9,0.4,8.9z M11,2.7L2.2,8l16-4.3L11,2.7z"/>
	</g>
	<g id="Group_1118" transform="translate(89.278 292.981)">
		<path id="Path_2833" class="st0" d="M0.4,7.1c0,0-0.1-0.1-0.1-0.1c0-0.1,0-0.2,0.1-0.3l8.9-4.5c0.1,0,0.1,0,0.2,0l7.3,2.4
			c0.1,0,0.2,0.2,0.2,0.3c0,0.1-0.1,0.2-0.2,0.2L0.6,7.2C0.5,7.2,0.4,7.2,0.4,7.1z M9.5,2.7L1.9,6.5l13.8-1.7L9.5,2.7z"/>
	</g>
	<g id="Group_1119" transform="translate(96.161 284.396)">
		<path id="Path_2834" class="st0" d="M0.4,11.9C0.4,11.9,0.4,11.9,0.4,11.9c-0.1-0.1-0.1-0.3,0-0.4l9.6-9.2c0.1-0.1,0.3-0.1,0.3,0
			c0,0,0,0.1,0.1,0.1l1,3c0,0.1,0,0.2-0.1,0.3L0.7,11.9C0.6,12,0.5,12,0.4,11.9z M10,2.9l-7.8,7.5l8.6-5L10,2.9z"/>
	</g>
	<g id="Group_1120" transform="translate(105.723 276.032)">
		<path id="Path_2835" class="st0" d="M0.4,11C0.4,11,0.4,11,0.4,11c-0.1-0.1-0.1-0.2-0.1-0.3l4.6-6.5c0,0,0.1-0.1,0.1-0.1l5.4-1.8
			c0.1,0,0.3,0,0.3,0.2c0,0.1,0,0.2-0.1,0.3L0.7,11C0.6,11.1,0.5,11.1,0.4,11z M5.3,4.5l-3.5,5l7.6-6.3L5.3,4.5z"/>
	</g>
	<g id="Group_1121" transform="translate(110.335 267.05)">
		<path id="Path_2836" class="st0" d="M0.4,13.5c-0.1-0.1-0.1-0.2-0.1-0.3L4,4.9c0-0.1,0.1-0.1,0.1-0.1l5-2.5c0.1-0.1,0.2,0,0.3,0.1
			c0.1,0.1,0.1,0.2,0,0.3L0.7,13.4C0.6,13.5,0.5,13.6,0.4,13.5L0.4,13.5z M4.4,5.2l-2.9,6.5l6.8-8.5L4.4,5.2z"/>
	</g>
	<g id="Group_1122" transform="translate(114.041 262.091)">
		<path id="Path_2837" class="st0" d="M0.4,10.1C0.3,10.1,0.3,10,0.3,9.9L2.8,4c0-0.1,0.1-0.1,0.1-0.1l3.5-1.6
			c0.1-0.1,0.3,0,0.3,0.1c0,0.1,0,0.2,0,0.3l-6,7.5C0.6,10.2,0.5,10.2,0.4,10.1L0.4,10.1z M3.2,4.3L1.5,8.4l4.3-5.3L3.2,4.3z"/>
	</g>
	<g id="Group_1123" transform="translate(116.55 256.938)">
		<path id="Path_2838" class="st0" d="M0.4,9.4C0.4,9.4,0.4,9.4,0.4,9.4C0.3,9.4,0.3,9.2,0.3,9.1l3.3-6.8c0.1-0.1,0.2-0.2,0.3-0.1
			c0.1,0,0.1,0.1,0.1,0.2l0.2,5.2c0,0.1-0.1,0.2-0.1,0.2L0.6,9.5C0.6,9.5,0.5,9.5,0.4,9.4z M3.6,3.4L1.1,8.7l2.7-1.3L3.6,3.4z"/>
	</g>
	<g id="Group_1124" transform="translate(119.846 251.091)">
		<path id="Path_2839" class="st0" d="M0.4,8.5C0.4,8.5,0.4,8.5,0.4,8.5c-0.1-0.1-0.1-0.3,0-0.4l4.7-5.8c0.1-0.1,0.2-0.1,0.3-0.1
			c0.1,0,0.2,0.2,0.1,0.3l-1,3.9c0,0.1-0.1,0.1-0.1,0.2L0.6,8.5C0.6,8.6,0.5,8.6,0.4,8.5z M4.8,3.5L1.5,7.6l2.6-1.4L4.8,3.5z"/>
	</g>
	<g id="Group_1125" transform="translate(124.59 246.118)">
		<path id="Path_2840" class="st0" d="M0.4,7.6C0.3,7.6,0.3,7.4,0.3,7.3c0,0,0-0.1,0.1-0.1l9.2-5c0.1-0.1,0.3,0,0.3,0.1
			c0.1,0.1,0,0.2,0,0.3L4.5,8.3C4.5,8.3,4.4,8.4,4.3,8.3L0.5,7.7C0.5,7.7,0.4,7.7,0.4,7.6z M8.5,3.4L1.3,7.3l3,0.5L8.5,3.4z"/>
	</g>
	<g id="Group_1126" transform="translate(133.784 244.513)">
		<path id="Path_2841" class="st0" d="M0.4,4.3C0.3,4.2,0.3,4,0.3,3.9c0-0.1,0.1-0.1,0.2-0.1l9.1-1.6c0.1,0,0.2,0,0.3,0.2
			c0,0.1,0,0.2-0.1,0.3L3.2,6.1c-0.1,0-0.2,0-0.3,0L0.4,4.3L0.4,4.3z M8.1,3L1.1,4.2l1.9,1.4L8.1,3z"/>
	</g>
	<g id="Group_1127" transform="translate(142.846 244.513)">
		<path id="Path_2842" class="st0" d="M0.9,5.8c-0.1,0-0.1-0.1-0.1-0.2L0.3,2.5c0-0.1,0.1-0.3,0.2-0.3c0,0,0,0,0.1,0l9.7,1.3
			c0.1,0,0.2,0.1,0.2,0.3c0,0.1-0.1,0.2-0.2,0.2L1.1,5.9C1,5.9,0.9,5.9,0.9,5.8L0.9,5.8z M0.8,2.8l0.4,2.6l7.6-1.5L0.8,2.8z"/>
	</g>
	<g id="Group_1128" transform="translate(107.866 361.551)">
		<path id="Path_2843" class="st0" d="M0.4,22.6C0.4,22.6,0.4,22.6,0.4,22.6c-0.1-0.1-0.1-0.3,0-0.4L18.6,2.3c0.1-0.1,0.2-0.1,0.3,0
			l0,0C19,2.4,19,2.5,18.9,2.6l-5.1,8.9c0,0,0,0-0.1,0.1L0.7,22.6C0.6,22.7,0.5,22.7,0.4,22.6z M17.4,4.3L3.3,19.8l10.2-8.6
			L17.4,4.3z"/>
	</g>
	<g id="Group_1129" transform="translate(120.971 354.966)">
		<path id="Path_2844" class="st0" d="M0.4,18.1L0.4,18.1c-0.1-0.1-0.1-0.2,0-0.4L12.7,2.3c0.1-0.1,0.2-0.1,0.3,0
			c0.1,0.1,0.1,0.2,0.1,0.3L11,7.4c0,0,0,0,0,0c-0.1,0.1-6.4,6.7-10.2,10.6C0.6,18.2,0.5,18.2,0.4,18.1z M11.9,4.1l-8,10
			c3.1-3.2,6.3-6.5,6.6-6.9L11.9,4.1z"/>
	</g>
	<g id="Group_1130" transform="translate(131.173 344.652)">
		<path id="Path_2845" class="st0" d="M0.4,17.9c-0.1-0.1-0.1-0.2-0.1-0.3L9.8,2.3c0.1-0.1,0.2-0.1,0.3-0.1c0.1,0.1,0.1,0.1,0.1,0.2
			L9.7,6.8c0,0,0,0.1-0.1,0.1L0.7,17.8C0.6,17.9,0.5,17.9,0.4,17.9L0.4,17.9z M9.6,3.6l-6.9,11l6.5-7.9L9.6,3.6z"/>
	</g>
	<g id="Group_1131" transform="translate(140.059 334.451)">
		<path id="Path_2846" class="st0" d="M0.4,17.2c-0.1-0.1-0.1-0.2-0.1-0.3l6-14.5c0.1-0.1,0.2-0.2,0.3-0.1c0.1,0,0.1,0.1,0.1,0.2
			l0.9,4.8c0,0.1,0,0.1,0,0.2l-6.9,9.7C0.7,17.3,0.5,17.3,0.4,17.2C0.4,17.2,0.4,17.2,0.4,17.2z M6.4,3.3L1.6,15.1l5.6-7.9L6.4,3.3z
			"/>
	</g>
	<g id="Group_1132" transform="translate(146.943 324.887)">
		<path id="Path_2847" class="st0" d="M0.4,17.1c-0.1-0.1-0.1-0.2-0.1-0.3L5.4,2.4c0-0.1,0.2-0.2,0.3-0.1c0.1,0,0.2,0.1,0.2,0.2
			l0.4,4.8c0,0,0,0.1,0,0.1L0.7,17C0.7,17.1,0.5,17.1,0.4,17.1C0.4,17.1,0.4,17.1,0.4,17.1z M5.5,3.6L1.7,14.4l4.1-7.2L5.5,3.6z"/>
	</g>
	<g id="Group_1133" transform="translate(152.086 318.253)">
		<path id="Path_2848" class="st0" d="M0.8,14.1c-0.1,0-0.1-0.1-0.1-0.2L0.3,9.1c0-0.1,0-0.1,0.1-0.2l6-6.6c0.1-0.1,0.2-0.1,0.3,0h0
			c0.1,0.1,0.1,0.2,0.1,0.3L1.1,14C1.1,14.2,0.9,14.2,0.8,14.1C0.8,14.1,0.8,14.1,0.8,14.1L0.8,14.1z M0.8,9.2L1.1,13l4.5-9.1
			L0.8,9.2z"/>
	</g>
	<g id="Group_1134" transform="translate(158.101 305.417)">
		<path id="Path_2849" class="st0" d="M0.4,15.5c-0.1,0-0.1-0.1-0.1-0.2c0,0,0.2-3.2,0.4-6.4C0.9,4.7,1,3.2,1.1,2.6c0,0,0-0.1,0-0.1
			h0c0.1-0.3,0.1-0.3,0.2-0.3c0.1,0,0.2,0.1,0.2,0.2C1.7,2.7,3,4.8,4.3,6.6c0,0.1,0.1,0.2,0,0.2l-3.6,8.6
			C0.7,15.5,0.6,15.6,0.4,15.5C0.5,15.5,0.4,15.5,0.4,15.5z M1.5,3.3c-0.1,2-0.4,7.3-0.6,10.6l3-7.1C3,5.5,2,4.2,1.5,3.3L1.5,3.3z"
			/>
	</g>
	<g id="Group_1135" transform="translate(161.673 297.713)">
		<path id="Path_2850" class="st0" d="M0.4,14.6c-0.1,0-0.1-0.1-0.1-0.2l0.8-12c0-0.1,0.1-0.2,0.3-0.2c0,0,0.1,0,0.1,0l0,0l2.6,1.9
			c0.1,0.1,0.1,0.2,0.1,0.3l-3.4,10C0.7,14.6,0.6,14.7,0.4,14.6C0.5,14.7,0.4,14.6,0.4,14.6z M1.6,2.9l-0.7,9.6l2.8-8.1L1.6,2.9z"/>
	</g>
	<g id="Group_1136" transform="translate(105.552 295.374)">
		<path id="Path_2851" class="st0" d="M2.9,5.2C2.9,5.2,2.8,5.1,2.9,5.2L0.4,2.6c-0.1-0.1-0.1-0.3,0-0.3c0.1-0.1,0.2-0.1,0.2-0.1
			L9.5,5c0.1,0,0.2,0.2,0.2,0.3c0,0.1-0.1,0.2-0.3,0.2L3,5.2C3,5.2,2.9,5.2,2.9,5.2z M1.4,3l1.7,1.7l4.4,0.2L1.4,3z"/>
	</g>
	<g id="Group_1137" transform="translate(114.398 298.166)">
		<path id="Path_2852" class="st0" d="M9.8,12.3L9.8,12.3L1.2,5.7c0,0-0.1-0.1-0.1-0.1l-0.8-3c0-0.1,0-0.2,0.1-0.3
			c0.1-0.1,0.2,0,0.3,0l9.4,9.6c0.1,0.1,0.1,0.3,0,0.3C10.1,12.3,9.9,12.3,9.8,12.3L9.8,12.3z M1.6,5.3l5.8,4.4L1,3.3L1.6,5.3z"/>
	</g>
	<g id="Group_1138" transform="translate(98.205 290.711)">
		<path id="Path_2853" class="st0" d="M0.4,4.9C0.3,4.9,0.3,4.7,0.3,4.6c0-0.1,0.1-0.1,0.2-0.1l13.4-2.3c0.1,0,0.3,0.1,0.3,0.2
			c0,0.1,0,0.2-0.1,0.2L8,7.3c-0.1,0-0.1,0.1-0.2,0L0.4,4.9C0.4,5,0.4,5,0.4,4.9z M13,2.9L1.6,4.8l6.3,2L13,2.9z"/>
	</g>
	<g id="Group_1139" transform="translate(89.278 295.375)">
		<path id="Path_2854" class="st0" d="M0.4,4.7C0.3,4.6,0.3,4.5,0.3,4.4c0-0.1,0.1-0.1,0.2-0.1l16.3-2.1c0.1,0,0.3,0.1,0.3,0.2
			c0,0.1,0,0.2-0.1,0.3L9.1,5.9c0,0-0.1,0-0.1,0L0.5,4.8C0.5,4.8,0.4,4.8,0.4,4.7z M15,2.9L2.4,4.5L9,5.5L15,2.9z M9,5.7L9,5.7z"/>
	</g>
	<g id="Group_1140" transform="translate(97.769 298.607)">
		<path id="Path_2855" class="st0" d="M1.8,5.3C1.7,5.2,1.7,5.2,1.8,5.3L0.3,2.6c-0.1-0.1,0-0.3,0.1-0.3c0,0,0.1,0,0.2,0L11.2,4
			c0.1,0,0.2,0.1,0.2,0.3c0,0.1-0.1,0.2-0.2,0.2L1.9,5.3C1.9,5.3,1.8,5.3,1.8,5.3z M1,2.8l1.1,2l7.2-0.7L1,2.8z"/>
	</g>
	<g id="Group_1141" transform="translate(108.379 300.333)">
		<path id="Path_2856" class="st0" d="M0.5,5.5c-0.1,0-0.1-0.1-0.1-0.2L0.3,2.5c0-0.1,0.1-0.2,0.2-0.3c0.1,0,0.1,0,0.1,0l6.9,4.6
			c0.1,0.1,0.1,0.2,0.1,0.3c0,0.1-0.2,0.2-0.3,0.1L0.5,5.5C0.5,5.5,0.5,5.5,0.5,5.5z M0.8,2.9l0.1,2.1l5.2,1.4L0.8,2.9z"/>
	</g>
	<g id="Group_1142" transform="translate(105.723 283.22)">
		<path id="Path_2857" class="st0" d="M1.3,6.9c0,0-0.1-0.1-0.1-0.1l-1-3c0-0.1,0-0.3,0.2-0.3c0,0,0,0,0,0l10.2-1.2
			c0.1,0,0.3,0.1,0.3,0.2c0,0.1,0,0.2-0.1,0.2L1.6,6.9C1.5,6.9,1.5,6.9,1.3,6.9C1.4,6.9,1.4,6.9,1.3,6.9z M0.9,3.9l0.8,2.5l7.6-3.5
			L0.9,3.9z"/>
	</g>
	<g id="Group_1143" transform="translate(115.928 283.219)">
		<path id="Path_2858" class="st0" d="M2.4,6.1C2.4,6,2.4,6,2.4,6.1L0.3,2.6c-0.1-0.1,0-0.3,0.1-0.3c0.1,0,0.1,0,0.2,0l8.1,2.6
			c0.1,0,0.2,0.2,0.2,0.3c0,0.1-0.1,0.2-0.2,0.2l-6,0.7C2.5,6.1,2.5,6.1,2.4,6.1z M1.1,2.9l1.6,2.7L7.5,5L1.1,2.9z"/>
	</g>
	<g id="Group_1144" transform="translate(123.986 285.86)">
		<path id="Path_2859" class="st0" d="M2.5,5.6C2.5,5.5,2.5,5.5,2.5,5.6L0.3,2.6C0.3,2.5,0.3,2.4,0.4,2.3c0.1-0.1,0.2-0.1,0.3,0
			l10.5,6.3c0.1,0.1,0.2,0.2,0.1,0.3C11.1,9,11,9,10.9,9L2.5,5.6C2.6,5.6,2.5,5.6,2.5,5.6z M1.5,3.3l1.4,1.9l5.3,2.2L1.5,3.3z"/>
	</g>
	<g id="Group_1145" transform="translate(134.437 292.143)">
		<path id="Path_2860" class="st0" d="M7.7,9.6L7.7,9.6C5,7,1.1,3.3,0.5,2.7c0,0-0.1-0.1-0.1-0.1c-0.1-0.1-0.1-0.3,0-0.4
			c0.1-0.1,0.1-0.1,0.3,0.1l0,0C2.3,3,3.9,3.5,5.6,3.8c0.1,0,0.1,0.1,0.2,0.1L8,9.3c0.1,0.1,0,0.3-0.1,0.3C7.8,9.6,7.7,9.6,7.7,9.6
			L7.7,9.6z M1.7,3.2c0.9,0.9,2.5,2.4,5.4,5.1L5.4,4.3C4.4,4,2.9,3.6,1.7,3.2L1.7,3.2z"/>
	</g>
	<g id="Group_1146" transform="translate(115.784 273.988)">
		<path id="Path_2861" class="st0" d="M0.4,4.7C0.3,4.6,0.3,4.5,0.3,4.4c0,0,0.1-0.1,0.1-0.1l9.1-2c0.1,0,0.3,0.1,0.3,0.2
			c0,0.1,0,0.2-0.1,0.3L4.9,5.8c-0.1,0-0.1,0-0.2,0L0.4,4.7C0.4,4.7,0.4,4.7,0.4,4.7z M8.3,3L1.6,4.5l3.1,0.8L8.3,3z"/>
	</g>
	<g id="Group_1147" transform="translate(124.837 273.988)">
		<path id="Path_2862" class="st0" d="M1.7,4.9C1.7,4.9,1.6,4.8,1.7,4.9L0.3,2.6c-0.1-0.1,0-0.3,0.1-0.3c0.1,0,0.1,0,0.2,0L7.9,5
			C8,5,8.1,5.2,8,5.3c0,0.1-0.1,0.2-0.3,0.2l-6-0.5C1.8,4.9,1.7,4.9,1.7,4.9z M1.1,2.9L2,4.5L6,4.8L1.1,2.9z"/>
	</g>
	<g id="Group_1148" transform="translate(96.161 287.441)">
		<path id="Path_2863" class="st0" d="M0.4,8.9C0.3,8.8,0.3,8.6,0.3,8.5c0,0,0,0,0.1-0.1l10.5-6.2c0.1-0.1,0.3,0,0.3,0.1
			c0.1,0.1,0,0.2,0,0.3L7.9,6.1c0,0-0.1,0-0.1,0.1L0.6,8.9C0.5,8.9,0.5,8.9,0.4,8.9z M9.6,3.6L3.2,7.4l4.3-1.7L9.6,3.6z"/>
	</g>
	<g id="Group_1149" transform="translate(106.679 283.22)">
		<path id="Path_2864" class="st0" d="M0.4,6.9C0.3,6.8,0.3,6.7,0.3,6.6c0,0,0.1-0.1,0.1-0.1l9.2-4.2c0.1-0.1,0.3,0,0.3,0.1
			c0,0.1,0,0.2,0,0.2l-4.3,7.5c0,0.1-0.1,0.1-0.2,0.1c-0.1,0-0.1,0-0.2,0L0.4,6.9L0.4,6.9z M9.2,3L1,6.7l4.4,2.9L9.2,3z"/>
	</g>
	<g id="Group_1150" transform="translate(111.641 289.885)">
		<path id="Path_2865" class="st0" d="M0.4,3.5C0.3,3.4,0.3,3.4,0.3,3.3c0-0.1,0.1-0.2,0.2-0.2l4.9-0.8c0.1,0,0.2,0,0.2,0.1l4.2,4.9
			c0.1,0.1,0.1,0.3,0,0.3c-0.1,0.1-0.2,0.1-0.3,0L0.4,3.5C0.4,3.5,0.4,3.5,0.4,3.5z M5.4,2.7l-4,0.7l7.4,3.3L5.4,2.7z"/>
	</g>
	<g id="Group_1151" transform="translate(119.019 261.68)">
		<path id="Path_2866" class="st0" d="M0.4,8c0,0-0.1-0.1-0.1-0.1c0-0.1,0-0.2,0.1-0.3l8.2-5.4c0.1-0.1,0.2,0,0.3,0
			C9,2.4,9,2.6,8.9,2.6L4.4,7.3c0,0-0.1,0.1-0.1,0.1L0.6,8.1C0.5,8.1,0.4,8.1,0.4,8z M7.1,3.8L1.7,7.4L4.1,7L7.1,3.8z"/>
	</g>
	<g id="Group_1152" transform="translate(127.235 259.836)">
		<path id="Path_2867" class="st0" d="M1.6,5.4L1.6,5.4L0.4,4.5C0.3,4.4,0.3,4.3,0.3,4.2c0,0,0.1-0.1,0.1-0.1l6.5-1.8
			c0.1,0,0.3,0,0.3,0.2c0,0.1,0,0.2-0.1,0.3L1.9,5.4C1.8,5.5,1.7,5.5,1.6,5.4z M1.1,4.4l0.7,0.5l3-1.6L1.1,4.4z"/>
	</g>
	<g id="Group_1153" transform="translate(120.066 258.371)">
		<path id="Path_2868" class="st0" d="M0.4,6.4C0.4,6.4,0.4,6.4,0.4,6.4C0.3,6.3,0.3,6.1,0.3,6.1l2.7-3.7c0-0.1,0.1-0.1,0.2-0.1
			l4.4,0c0.1,0,0.2,0.1,0.2,0.2c0,0.1-0.1,0.2-0.1,0.2L0.6,6.4C0.6,6.5,0.5,6.4,0.4,6.4z M3.4,2.8l-2,2.7l5.3-2.8L3.4,2.8z"/>
	</g>
	<g id="Group_1154" transform="translate(152.559 245.819)">
		<path id="Path_2869" class="st0" d="M6.3,8.6C6.3,8.6,6.3,8.6,6.3,8.6l-5.9-6c-0.1-0.1-0.1-0.3,0-0.3c0.1-0.1,0.2-0.1,0.3,0
			l7.7,3.6c0.1,0,0.1,0.1,0.1,0.2c0,0.1,0,0.1,0,0.2L6.6,8.6C6.5,8.7,6.4,8.7,6.3,8.6L6.3,8.6z M1.7,3.3l4.8,4.8l1.5-1.9L1.7,3.3z"
			/>
	</g>
	<g id="Group_1155" transform="translate(158.454 249.394)">
		<path id="Path_2870" class="st0" d="M0.4,5.1c0,0-0.1-0.1-0.1-0.1c0-0.1,0-0.2,0-0.2l1.8-2.4c0-0.1,0.1-0.1,0.2-0.1
			c0.1,0,0.1,0,0.2,0.1l4.8,5.2c0.1,0.1,0.1,0.3,0,0.3C7.2,7.9,7.1,8,7,7.9L0.4,5.1C0.4,5.1,0.4,5.1,0.4,5.1z M2.4,2.9L0.9,4.8
			L6.2,7L2.4,2.9z"/>
	</g>
	<g id="Group_1156" transform="translate(165.051 254.613)">
		<path id="Path_2871" class="st0" d="M2.2,9.7c0,0-0.1-0.1-0.1-0.1l-1.8-7c0-0.1,0-0.3,0.2-0.3c0.1,0,0.2,0,0.3,0.1l4.6,9
			c0.1,0.1,0,0.3-0.1,0.3c-0.1,0-0.2,0-0.3,0L2.2,9.7L2.2,9.7z M1.3,4.6l1.2,4.8l1.9,1.3L1.3,4.6z"/>
	</g>
	<g id="Group_1157" transform="translate(165.088 286.922)">
		<path id="Path_2872" class="st0" d="M0.4,15.4c-0.1-0.1-0.1-0.3,0.2-1.5c0.3-2.3,0.7-7.8,1-11.5c0-0.1,0.1-0.2,0.3-0.2
			c0.1,0,0.2,0.1,0.2,0.2l1,4.1c0,0,0,0.1,0,0.1C2.3,9,1.4,12.4,1,14.1c0,0.4-0.1,0.8-0.2,1.2C0.7,15.4,0.5,15.5,0.4,15.4
			C0.4,15.4,0.4,15.4,0.4,15.4z M1.9,4c-0.1,2-0.4,4.7-0.6,6.9C1.6,9.8,2,8.4,2.5,6.6L1.9,4z"/>
	</g>
	<g id="Group_1158" transform="translate(166.289 280.745)">
		<path id="Path_2873" class="st0" d="M1.4,13c0,0-0.1-0.1-0.1-0.1l-1-4.1c0-0.1,0-0.1,0-0.2l3-6.2c0.1-0.1,0.2-0.2,0.3-0.1
			c0.1,0,0.2,0.2,0.1,0.3l-2,10.3C1.8,13,1.7,13.1,1.4,13C1.5,13,1.5,13,1.4,13L1.4,13z M0.8,8.7l0.7,3L3,4.2L0.8,8.7z"/>
	</g>
	<g id="Group_1159" transform="translate(167.871 268.897)">
		<path id="Path_2874" class="st0" d="M1.8,14.5c-0.1,0-0.1-0.1-0.1-0.2L0.3,2.5c0-0.1,0.1-0.3,0.2-0.3c0.1,0,0.1,0,0.2,0L3,3.9l0,0
			C3.1,4,3.1,4.1,3.1,4.1L2.2,14.3c0,0.1-0.1,0.2-0.2,0.2C1.9,14.6,1.9,14.6,1.8,14.5z M0.8,3l1.1,9l0.7-7.7L0.8,3z"/>
	</g>
	<g id="Group_1160" transform="translate(166.861 261.635)">
		<path id="Path_2875" class="st0" d="M3.7,11.6c0,0-0.1-0.1-0.1-0.1L0.3,2.6c0-0.1,0-0.3,0.1-0.3c0.1,0,0.2,0,0.2,0l2.8,2
			c0.1,0,0.1,0.1,0.1,0.2l0.6,6.9c0,0.1-0.1,0.3-0.2,0.3C3.8,11.6,3.8,11.6,3.7,11.6L3.7,11.6z M1,3.1l2.4,6.5L3.1,4.6L1,3.1z"/>
	</g>
	<g id="Group_1161" transform="translate(124.229 329.751)">
		<path id="Path_2876" class="st0" d="M0.4,16.5c-0.1,0-0.1-0.1-0.1-0.2L1,2.5c0-0.1,0.1-0.2,0.2-0.2c0.1,0,0.2,0,0.3,0.1l4.7,11.1
			c0.1,0.1,0,0.3-0.1,0.3l-5.4,2.7C0.6,16.5,0.5,16.5,0.4,16.5L0.4,16.5z M1.4,3.5L0.8,15.9l4.9-2.5L1.4,3.5z"/>
	</g>
	<g id="Group_1162" transform="translate(128.402 246.119)">
		<path id="Path_2877" class="st0" d="M0.4,8.3C0.4,8.3,0.4,8.3,0.4,8.3C0.3,8.2,0.3,8,0.4,7.9l5.4-5.6c0.1-0.1,0.2-0.1,0.3,0
			l2.5,1.8c0.1,0.1,0.1,0.2,0.1,0.3c0,0-0.1,0.1-0.1,0.1L0.6,8.3C0.6,8.4,0.5,8.4,0.4,8.3z M5.9,2.8L1.6,7.3L8,4.2L5.9,2.8z"/>
	</g>
	<g id="Group_1163" transform="translate(123.597 251.091)">
		<path id="Path_2878" class="st0" d="M0.4,6.6C0.4,6.6,0.4,6.6,0.4,6.6C0.3,6.5,0.3,6.4,0.3,6.3l1-3.9c0-0.1,0.1-0.1,0.1-0.2
			c0.1,0,0.1,0,0.2,0l4.7,2.6c0.1,0.1,0.2,0.2,0.1,0.3c0,0.1-0.1,0.1-0.2,0.1L0.6,6.6C0.5,6.6,0.4,6.6,0.4,6.6z M1.7,2.8L0.9,6.1
			L5.5,5L1.7,2.8z"/>
	</g>
	<g id="Group_1164" transform="translate(128.402 247.923)">
		<path id="Path_2879" class="st0" d="M0.4,6.5C0.3,6.4,0.3,6.3,0.3,6.2c0,0,0.1-0.1,0.1-0.1l7.9-3.8c0.1,0,0.1,0,0.2,0l4,1.9
			c0.1,0,0.2,0.1,0.1,0.3c0,0.1-0.1,0.2-0.2,0.2L0.6,6.5C0.5,6.6,0.4,6.5,0.4,6.5z M8.4,2.7L2.1,5.8l9.5-1.5L8.4,2.7z"/>
	</g>
	<g id="Group_1165" transform="translate(143.327 245.819)">
		<path id="Path_2880" class="st0" d="M0.4,4.5C0.3,4.4,0.3,4.3,0.3,4.2c0,0,0.1-0.1,0.1-0.1l9.2-1.9c0.1,0,0.1,0,0.2,0
			c0,0,0.1,0.1,0.1,0.2l0.7,4.7c0,0.1-0.1,0.3-0.2,0.3c0,0-0.1,0-0.1,0L0.4,4.5C0.4,4.6,0.4,4.5,0.4,4.5z M9.6,2.8l-8,1.6l8.6,2.5
			L9.6,2.8z"/>
	</g>
	<g id="Group_1166" transform="translate(158.453 251.786)">
		<path id="Path_2881" class="st0" d="M3.8,7C3.8,7,3.8,7,3.8,7L0.3,2.6c-0.1-0.1-0.1-0.3,0-0.3c0.1-0.1,0.2-0.1,0.2,0l6.6,2.8
			c0.1,0,0.1,0.1,0.1,0.2c0,0.1-0.1,0.2-0.1,0.2L4,7C4,7.1,3.9,7.1,3.8,7z M1.3,3.1L4,6.5l2.5-1.2L1.3,3.1z"/>
	</g>
	<g id="Group_1167" transform="translate(161.855 254.613)">
		<path id="Path_2882" class="st0" d="M5.4,9.7C5.4,9.7,5.4,9.7,5.4,9.7l-5-5.5c-0.1-0.1-0.1-0.3,0-0.3c0,0,0,0,0.1,0l3.2-1.5
			c0.1-0.1,0.3,0,0.3,0.1c0,0,0,0,0,0l1.8,7c0,0.1,0,0.3-0.2,0.3C5.5,9.7,5.5,9.7,5.4,9.7L5.4,9.7z M0.9,4.1l4.1,4.5L3.6,2.8
			L0.9,4.1z"/>
	</g>
	<g id="Group_1168" transform="translate(140.267 249.87)">
		<path id="Path_2883" class="st0" d="M0.4,2.7C0.3,2.6,0.3,2.4,0.3,2.3c0.1-0.1,0.2-0.1,0.3-0.1l10.9,3.4c0.1,0,0.2,0.2,0.2,0.3
			c0,0.1-0.1,0.2-0.2,0.2L4.7,5.7c0,0-0.1,0-0.1,0L0.4,2.7L0.4,2.7z M9.5,5.5L1.9,3.2l2.9,2.1L9.5,5.5z"/>
	</g>
	<g id="Group_1169" transform="translate(151.172 253.283)">
		<path id="Path_2884" class="st0" d="M2.3,5.3C2.3,5.3,2.3,5.3,2.3,5.3l-2-2.7C0.3,2.5,0.3,2.4,0.4,2.3c0.1-0.1,0.2-0.1,0.3,0
			l6.6,3.9c0.1,0.1,0.2,0.2,0.1,0.3c0,0.1-0.2,0.2-0.3,0.1L2.3,5.3C2.4,5.3,2.4,5.3,2.3,5.3z M1.5,3.3l1.2,1.6l2.8,0.8L1.5,3.3z"/>
	</g>
	<g id="Group_1170" transform="translate(163.058 284.562)">
		<path id="Path_2885" class="st0" d="M2.4,17.7c-0.1,0-0.1-0.1-0.1-0.2l-2-15.1c0-0.1,0-0.2,0.1-0.2c0.1-0.1,0.2,0,0.3,0l0,0
			l3.2,2.4C4,4.7,4,4.8,4,4.9L2.8,17.6c0,0.1-0.1,0.2-0.3,0.2C2.5,17.8,2.5,17.8,2.4,17.7L2.4,17.7z M0.9,3l1.7,12.4l1-10.4L0.9,3z"
			/>
	</g>
	<g id="Group_1171" transform="translate(158.534 296.534)">
		<path id="Path_2886" class="st0" d="M3.5,15.8c0,0-0.1-0.1-0.1-0.1L0.3,2.5c0-0.1,0-0.3,0.2-0.3c0,0,0.1,0,0.1,0l4,1.2
			c0.1,0,0.2,0.1,0.2,0.3l-0.8,12c0,0.1-0.1,0.2-0.3,0.2C3.6,15.9,3.6,15.8,3.5,15.8L3.5,15.8z M0.9,2.8L3.5,14L4.3,3.8L0.9,2.8z"/>
	</g>
	<g id="Group_1172" transform="translate(156.024 305.398)">
		<path id="Path_2887" class="st0" d="M0.4,14.8c-0.1-0.1-0.1-0.2-0.1-0.3C1.1,11.4,3.1,3,3.2,2.5c0-0.1,0.1-0.2,0.3-0.2
			c0.1,0,0.2,0,0.2,0.3h0c0,0,0,0.1,0,0.2c0,0.3,0,0.9-0.1,1.8L2.9,15.3c0,0.1-0.1,0.2-0.3,0.2c0,0,0,0-0.1,0L0.4,14.8
			C0.4,14.9,0.4,14.9,0.4,14.8z M3,5.6c-0.7,3.2-1.9,7.8-2.1,8.9L2.4,15C2.6,12.3,2.8,8.3,3,5.6L3,5.6z"/>
	</g>
	<g id="Group_1173" transform="translate(152.086 317.57)">
		<path id="Path_2888" class="st0" d="M0.4,10C0.3,9.9,0.3,9.8,0.3,9.7l3.9-7.3c0.1-0.1,0.2-0.2,0.3-0.1l2.1,0.7
			c0.1,0,0.2,0.2,0.2,0.3c0,0,0,0.1-0.1,0.1l-6,6.6C0.6,10.1,0.5,10.1,0.4,10L0.4,10z M4.6,2.8L1.7,8.1l4.4-4.9L4.6,2.8z"/>
	</g>
	<g id="Group_1174" transform="translate(155.935 303.212)">
		<path id="Path_2889" class="st0" d="M0.5,17c-0.1,0-0.1-0.1-0.1-0.2L0.3,2.5c0-0.1,0.1-0.2,0.1-0.2c0.1,0,0.2,0,0.3,0l3,2.2
			c0.1,0.1,0.1,0.1,0.1,0.2C3.6,5.4,1,16.4,0.9,16.9c0,0.1-0.1,0.2-0.3,0.2C0.6,17.1,0.5,17,0.5,17z M0.8,3l0.1,11.8
			c0.7-3.1,2.1-8.9,2.4-10L0.8,3z"/>
	</g>
	<g id="Group_1175" transform="translate(146.045 324.887)">
		<path id="Path_2890" class="st0" d="M1.3,17.1c-0.1,0-0.1-0.1-0.1-0.2l-0.9-4.8c0-0.1,0-0.1,0-0.2l6-9.6c0.1-0.1,0.2-0.1,0.3-0.1
			c0.1,0.1,0.1,0.2,0.1,0.3L1.7,16.9C1.6,17.1,1.5,17.1,1.3,17.1C1.3,17.1,1.3,17.1,1.3,17.1L1.3,17.1z M0.8,12.1l0.7,3.8L5.6,4.5
			L0.8,12.1z"/>
	</g>
	<g id="Group_1176" transform="translate(146.045 316.049)">
		<path id="Path_2891" class="st0" d="M0.4,21.1c-0.1-0.1-0.1-0.2-0.1-0.3L6.1,2.4c0-0.1,0.2-0.2,0.3-0.2c0.1,0,0.2,0.1,0.2,0.2
			l0.2,8.8c0,0,0,0.1,0,0.1l-6,9.6C0.7,21.1,0.5,21.1,0.4,21.1C0.4,21.1,0.4,21.1,0.4,21.1z M6.1,3.9L1.3,19.2l5-7.9L6.1,3.9z"/>
	</g>
	<g id="Group_1177" transform="translate(131.173 342.119)">
		<path id="Path_2892" class="st0" d="M0.4,20.4c-0.1-0.1-0.1-0.2-0.1-0.3L7.7,2.4c0.1-0.1,0.2-0.2,0.3-0.1c0,0,0.1,0,0.1,0.1l2,2.5
			c0.1,0.1,0.1,0.2,0,0.3L0.7,20.3C0.7,20.4,0.5,20.5,0.4,20.4C0.4,20.4,0.4,20.4,0.4,20.4z M8,2.9L1.9,17.5L9.7,5L8,2.9z"/>
	</g>
	<g id="Group_1178" transform="translate(120.972 348.799)">
		<path id="Path_2893" class="st0" d="M0.4,24.3c-0.1-0.1-0.1-0.2-0.1-0.3L13.1,2.4c0.1-0.1,0.2-0.2,0.3-0.1c0.1,0,0.1,0.1,0.1,0.2
			l-0.4,6.2c0,0,0,0.1-0.1,0.1L0.7,24.2C0.6,24.3,0.5,24.4,0.4,24.3L0.4,24.3z M13,3.5L2.5,21.2L12.6,8.5L13,3.5z"/>
	</g>
	<g id="Group_1179" transform="translate(166.289 275.238)">
		<path id="Path_2894" class="st0" d="M0.4,14.4c-0.1,0-0.1-0.1-0.1-0.2L0.7,2.5c0-0.1,0.1-0.2,0.2-0.2c0.1,0,0.2,0.1,0.2,0.1
			l2.6,5.5c0,0.1,0,0.1,0,0.2l-3,6.2C0.7,14.4,0.5,14.4,0.4,14.4C0.4,14.4,0.4,14.4,0.4,14.4L0.4,14.4z M1.2,3.5L0.8,13l2.5-5
			L1.2,3.5z"/>
	</g>
	<g id="Group_1180" transform="translate(166.861 261.634)">
		<path id="Path_2895" class="st0" d="M1.4,9.9c-0.1,0-0.1-0.1-0.1-0.2l-1-7.3c0-0.1,0.1-0.3,0.2-0.3c0.1,0,0.2,0,0.3,0.2l3.3,8.9
			c0,0.1,0,0.3-0.1,0.3c-0.1,0-0.2,0-0.2,0L1.4,9.9L1.4,9.9z M1.1,4.6l0.7,5l1.6,1.1L1.1,4.6z"/>
	</g>
	<g id="Group_1181" transform="translate(158.905 277.99)">
		<path id="Path_2896" class="st0" d="M4.5,9.2L4.5,9.2L0.8,6.5c-0.1,0-0.1-0.1-0.1-0.2L0.3,2.5c0-0.1,0.1-0.3,0.2-0.3
			c0.1,0,0.2,0,0.2,0.1l4.2,6.6c0.1,0.1,0,0.2,0,0.3C4.8,9.3,4.6,9.3,4.5,9.2z M1.2,6.2l2.6,1.9L0.9,3.5L1.2,6.2z"/>
	</g>
	<g id="Group_1182" transform="translate(151.292 274.204)">
		<path id="Path_2897" class="st0" d="M3.3,5.8C3.3,5.8,3.2,5.8,3.3,5.8L0.4,2.6c-0.1-0.1-0.1-0.3,0-0.3c0.1-0.1,0.2-0.1,0.3,0
			L8.3,6c0.1,0.1,0.2,0.2,0.1,0.3c0,0.1-0.1,0.2-0.3,0.2L3.4,5.8C3.3,5.8,3.3,5.8,3.3,5.8z M1.6,3.3l1.9,2.1l3.2,0.4L1.6,3.3z"/>
	</g>
	<g id="Group_1183" transform="translate(155.972 289.798)">
		<path id="Path_2898" class="st0" d="M3,9.4c0,0-0.1-0.1-0.1-0.1L0.3,2.6c0-0.1,0-0.3,0.1-0.3c0.1,0,0.2,0,0.3,0.1l6.5,7.9
			c0.1,0.1,0.1,0.3,0,0.3c-0.1,0.1-0.1,0.1-0.2,0L3,9.4C3,9.4,3,9.4,3,9.4z M1.3,3.8l2,5.2l3.1,0.9L1.3,3.8z"/>
	</g>
	<g id="Group_1184" transform="translate(162.508 284.562)">
		<path id="Path_2899" class="st0" d="M3,17.7L3,17.7l-2.6-1.9c-0.1,0-0.1-0.1-0.1-0.2L0.8,2.5c0-0.1,0.1-0.2,0.3-0.2
			c0.1,0,0.2,0.1,0.2,0.2l2,15.1c0,0.1-0.1,0.3-0.2,0.3C3.1,17.8,3,17.8,3,17.7L3,17.7z M0.8,15.5l2,1.5L1.2,5.2L0.8,15.5z"/>
	</g>
	<g id="Group_1185" transform="translate(138.606 331.413)">
		<path id="Path_2900" class="st0" d="M0.4,13.4c-0.1-0.1-0.1-0.1-0.1-0.2L1.8,2.4c0-0.1,0.1-0.2,0.3-0.2c0.1,0,0.2,0.1,0.2,0.2
			l1.6,4.7c0,0.1,0,0.1,0,0.2l-3.1,6C0.7,13.4,0.6,13.4,0.4,13.4C0.4,13.4,0.4,13.4,0.4,13.4z M2.2,3.5L1,11.8l2.4-4.7L2.2,3.5z"/>
	</g>
	<g id="Group_1186" transform="translate(163.18 270.286)">
		<path id="Path_2901" class="st0" d="M1,6c-0.1,0-0.1-0.1-0.1-0.2L0.3,2.5c0-0.1,0.1-0.3,0.2-0.3c0.1,0,0.2,0,0.2,0.1l3.5,5
			c0.1,0.1,0.1,0.3-0.1,0.3C4.1,7.7,4,7.7,4,7.6L1,6L1,6z M1,3.5l0.4,2.1l1.9,1.1L1,3.5z"/>
	</g>
	<g id="Group_1187" transform="translate(156.761 266.857)">
		<path id="Path_2902" class="st0" d="M0.4,2.8C0.3,2.7,0.3,2.6,0.3,2.5c0-0.1,0.1-0.1,0.2-0.1l2.9-0.1c0.1,0,0.1,0,0.2,0.1l3.5,3.4
			c0.1,0.1,0.1,0.2,0,0.3c-0.1,0.1-0.2,0.1-0.3,0L0.4,2.8C0.4,2.8,0.4,2.8,0.4,2.8z M3.4,2.7L1.5,2.8L5.7,5L3.4,2.7z"/>
	</g>
	<g id="Group_1188" transform="translate(162.233 259.76)">
		<path id="Path_2903" class="st0" d="M6,11.8C6,11.8,6,11.8,6,11.8L0.3,2.6c-0.1-0.1,0-0.3,0.1-0.3c0.1,0,0.1,0,0.2,0l4.6,1.9
			c0.1,0,0.1,0.1,0.1,0.2l1,7.3c0,0.1-0.1,0.3-0.2,0.3C6.1,11.9,6.1,11.8,6,11.8L6,11.8z M1.1,3l4.6,7.5l-0.8-6L1.1,3z"/>
	</g>
	<g id="Group_1189" transform="translate(128.402 249.87)">
		<path id="Path_2904" class="st0" d="M0.4,4.6C0.3,4.5,0.3,4.3,0.3,4.2c0-0.1,0.1-0.1,0.2-0.1l11.9-1.9c0.1,0,0.2,0.1,0.3,0.2
			L13.4,6c0,0.1-0.1,0.3-0.2,0.3c0,0-0.1,0-0.1,0L0.5,4.6C0.5,4.6,0.4,4.6,0.4,4.6z M12.2,2.8l-10,1.6l10.6,1.4L12.2,2.8z"/>
	</g>
	<g id="Group_1190" transform="translate(114.041 262.092)">
		<path id="Path_2905" class="st0" d="M0.4,10.1C0.4,10.1,0.4,10.1,0.4,10.1c-0.1-0.1-0.1-0.3,0-0.4l6-7.5c0.1-0.1,0.2-0.1,0.3,0
			c0.1,0,0.1,0.1,0.1,0.2L7,5.2c0,0.1,0,0.2-0.1,0.2l-6.3,4.7C0.6,10.2,0.5,10.2,0.4,10.1z M6.4,3.1L2,8.6l4.6-3.4L6.4,3.1z"/>
	</g>
	<g id="Group_1191" transform="translate(110.336 267.051)">
		<path id="Path_2906" class="st0" d="M0.4,13.5C0.4,13.5,0.4,13.5,0.4,13.5c-0.1-0.1-0.1-0.3,0-0.4L9,2.3c0.1-0.1,0.2-0.1,0.3,0
			c0.1,0.1,0.1,0.2,0.1,0.3l-3.9,7.8c0,0-0.1,0.1-0.1,0.1l-4.8,3C0.6,13.6,0.5,13.5,0.4,13.5z M8,4.4l-6.3,7.9l3.5-2.2L8,4.4z"/>
	</g>
	<g id="Group_1192" transform="translate(115.125 266.383)">
		<path id="Path_2907" class="st0" d="M0.4,11.1c-0.1-0.1-0.1-0.2-0.1-0.3L4.2,3c0-0.1,0.1-0.1,0.2-0.1l3.7-0.7c0.1,0,0.2,0,0.3,0.1
			c0.1,0.1,0,0.2,0,0.3l-7.6,8.5C0.6,11.2,0.5,11.2,0.4,11.1L0.4,11.1z M4.6,3.4l-3,6.1l5.9-6.6L4.6,3.4z"/>
	</g>
	<g id="Group_1193" transform="translate(105.723 276.032)">
		<path id="Path_2908" class="st0" d="M0.4,11c-0.1-0.1-0.1-0.2-0.1-0.3c0,0,0,0,0,0l10.1-8.4c0.1-0.1,0.3-0.1,0.3,0
			c0,0,0.1,0.1,0.1,0.1L11,9.7c0,0.1-0.1,0.2-0.2,0.2L0.6,11.1C0.5,11.1,0.4,11.1,0.4,11z M10.4,3l-9,7.5l9.2-1.1L10.4,3z"/>
	</g>
	<g id="Group_1194" transform="translate(123.986 285.204)">
		<path id="Path_2909" class="st0" d="M0.4,3.3C0.3,3.2,0.3,3.1,0.3,3c0-0.1,0.1-0.1,0.2-0.1L7,2.2c0.1,0,0.2,0,0.2,0.1l3.9,6.9
			c0.1,0.1,0,0.3-0.1,0.3c-0.1,0-0.2,0-0.2,0L0.4,3.3L0.4,3.3z M6.9,2.7L1.3,3.3l9,5.4L6.9,2.7z"/>
	</g>
	<g id="Group_1195" transform="translate(148.248 306.59)">
		<path id="Path_2910" class="st0" d="M4,12.1C4,12.1,4,12.1,4,12.1L0.3,7.7c-0.1-0.1-0.1-0.1,0-0.2l1.6-5.1c0-0.1,0.2-0.2,0.3-0.2
			c0.1,0,0.1,0.1,0.2,0.2l2,9.5c0,0.1-0.1,0.3-0.2,0.3C4.1,12.2,4.1,12.2,4,12.1L4,12.1z M0.8,7.5L3.7,11L2.1,3.4L0.8,7.5z"/>
	</g>
	<g id="Group_1196" transform="translate(133.696 259.097)">
		<path id="Path_2911" class="st0" d="M0.4,3.4C0.3,3.3,0.3,3.2,0.3,3.1C0.4,3,0.4,3,0.5,3l4.8-0.7c0.1,0,0.2,0,0.2,0.1l2.9,2.8
			c0.1,0.1,0.1,0.2,0,0.3C8.5,5.5,8.3,5.5,8.2,5.5L0.4,3.4C0.4,3.4,0.4,3.4,0.4,3.4z M5.3,2.7L1.7,3.3l5.7,1.5L5.3,2.7z"/>
	</g>
	<g id="Group_1197" transform="translate(152.559 245.818)">
		<path id="Path_2912" class="st0" d="M1.1,7.4C1.1,7.4,1,7.3,1,7.2L0.3,2.5c0-0.1,0.1-0.3,0.2-0.3c0.1,0,0.2,0,0.2,0.1l5.9,6
			c0.1,0.1,0.1,0.2,0,0.3C6.5,8.7,6.5,8.7,6.4,8.7L1.1,7.4C1.2,7.4,1.2,7.4,1.1,7.4z M0.9,3.2L1.5,7l4.2,1L0.9,3.2z"/>
	</g>
	<g id="Group_1198" transform="translate(154.832 251.786)">
		<path id="Path_2913" class="st0" d="M0.4,3.9C0.3,3.9,0.3,3.7,0.3,3.6c0,0,0.1-0.1,0.1-0.1l3.6-1.3c0.1,0,0.2,0,0.3,0.1l3.4,4.3
			c0.1,0.1,0.1,0.3,0,0.3C7.6,7.1,7.5,7.1,7.5,7L0.4,3.9C0.4,4,0.4,4,0.4,3.9z M4.1,2.8l-2.9,1l5.6,2.4L4.1,2.8z"/>
	</g>
	<g id="Group_1199" transform="translate(142.642 256.927)">
		<path id="Path_2914" class="st0" d="M0.4,3C0.3,2.9,0.3,2.8,0.3,2.7c0-0.1,0.1-0.1,0.2-0.1l6.2-0.3c0.1,0,0.2,0,0.2,0.1l2.8,4.1
			c0.1,0.1,0.1,0.2,0,0.3C9.6,6.8,9.5,6.8,9.4,6.8L0.4,3C0.4,3,0.4,3,0.4,3z M6.6,2.7L1.6,3l7.2,3L6.6,2.7z"/>
	</g>
	<g id="Group_1200" transform="translate(145.949 282.405)">
		<path id="Path_2915" class="st0" d="M6.6,10.3C6.6,10.3,6.6,10.3,6.6,10.3L0.3,2.6c-0.1-0.1-0.1-0.3,0-0.3c0.1-0.1,0.2-0.1,0.2,0
			L5.3,4c0.1,0,0.1,0.1,0.1,0.2L7,10.1c0,0.1,0,0.3-0.2,0.3C6.7,10.4,6.7,10.4,6.6,10.3L6.6,10.3z M1.3,3l4.9,6.1L5,4.4L1.3,3z"/>
	</g>
	<g id="Group_1201" transform="translate(137.831 319.726)">
		<path id="Path_2916" class="st0" d="M3.7,11.3C3.7,11.3,3.7,11.3,3.7,11.3L0.3,5.9c0-0.1,0-0.2,0-0.2l1.6-3.3
			C2,2.2,2.1,2.2,2.2,2.3c0.1,0,0.1,0.1,0.1,0.2l1.7,8.6c0,0.1-0.1,0.3-0.2,0.3C3.9,11.4,3.8,11.4,3.7,11.3L3.7,11.3z M0.8,5.7
			l2.5,4.1L2,3.2L0.8,5.7z"/>
	</g>
	<g id="Group_1202" transform="translate(71.479 376.98)">
		<path id="Path_2917" class="st0" d="M0.4,10.8C0.4,10.7,0.4,10.7,0.4,10.8c-0.1-0.1-0.1-0.2-0.1-0.3l4.2-8.1
			c0.1-0.1,0.2-0.2,0.3-0.1c0,0,0,0,0,0l8.5,6.1l0,0c0.1,0.1,0.1,0.2,0.1,0.3c0,0.1-0.1,0.1-0.2,0.1l-12.7,2
			C0.5,10.8,0.4,10.8,0.4,10.8z M4.9,2.8L1,10.2l11.7-1.8L4.9,2.8z"/>
	</g>
	<g id="Group_1203" transform="translate(61.478 368.574)">
		<path id="Path_2918" class="st0" d="M0.8,12.8L0.8,12.8c-0.1-0.1-0.1-0.1-0.1-0.2L0.3,2.5c0-0.1,0.1-0.3,0.2-0.3
			c0.1,0,0.2,0.1,0.2,0.1L5.3,12c0.1,0.1,0,0.3-0.1,0.3c0,0,0,0-0.1,0L1,12.9C0.9,12.9,0.9,12.9,0.8,12.8z M0.8,3.7l0.4,8.7l3.5-0.4
			L0.8,3.7z"/>
	</g>
	<g id="Group_1204" transform="translate(58.585 354.835)">
		<path id="Path_2919" class="st0" d="M3.3,16.4c-0.1,0-0.1-0.1-0.1-0.1L0.3,2.5c0-0.1,0.1-0.3,0.2-0.3c0,0,0,0,0.1,0l9.9,0.5
			c0.1,0,0.2,0.1,0.2,0.1c0,0.1,0,0.2,0,0.2l-7,13.3C3.6,16.5,3.4,16.5,3.3,16.4C3.3,16.4,3.3,16.4,3.3,16.4L3.3,16.4z M0.8,2.7
			l2.7,12.7L10,3.2L0.8,2.7z"/>
	</g>
	<g id="Group_1205" transform="translate(49.71 334.287)">
		<path id="Path_2920" class="st0" d="M4.3,12.8c0,0-0.1-0.1-0.1-0.1L0.3,4c-0.1-0.1,0-0.3,0.1-0.3c0,0,0,0,0,0l5.1-1.4
			c0.1,0,0.2,0,0.2,0c0.1,0.1,0.1,0.1,0.1,0.2L4.7,12.7c0,0.1-0.1,0.2-0.3,0.2C4.4,12.9,4.4,12.9,4.3,12.8L4.3,12.8z M0.9,4l3.5,7.7
			l1-8.9L0.9,4z"/>
	</g>
	<g id="Group_1206" transform="translate(53.716 334.417)">
		<path id="Path_2921" class="st0" d="M0.4,12.5c-0.1-0.1-0.1-0.1-0.1-0.2l1.4-9.8c0-0.1,0.1-0.2,0.2-0.2c0.1,0,0.2,0,0.3,0.1
			l5.5,12.4c0.1,0.1,0,0.3-0.1,0.3c-0.1,0-0.1,0-0.2,0L0.4,12.5C0.4,12.5,0.4,12.5,0.4,12.5z M2,3.3l-1.2,8.8L7,14.4L2,3.3z"/>
	</g>
	<g id="Group_1207" transform="translate(55.102 323.077)">
		<path id="Path_2922" class="st0" d="M0.4,14L0.4,14c-0.1-0.1-0.1-0.1-0.1-0.2L1.8,2.4c0-0.1,0.1-0.2,0.3-0.2c0,0,0.1,0,0.1,0
			L12.9,10l0,0c0.1,0.1,0.1,0.2,0.1,0.3c0,0-0.1,0.1-0.1,0.1L0.6,14C0.5,14.1,0.5,14.1,0.4,14z M2.2,2.9L0.8,13.5l11.4-3.3L2.2,2.9z
			"/>
	</g>
	<g id="Group_1208" transform="translate(70.812 303.621)">
		<path id="Path_2923" class="st0" d="M7.3,16.2L7.3,16.2l-7-5.6c-0.1-0.1-0.1-0.2,0-0.3c0,0,0,0,0,0l8.1-8c0.1-0.1,0.2-0.1,0.3,0
			c0.1,0,0.1,0.1,0.1,0.2L7.7,16c0,0.1-0.1,0.2-0.1,0.2C7.5,16.3,7.4,16.2,7.3,16.2z M0.9,10.4l6.4,5.1l1-12.4L0.9,10.4z"/>
	</g>
	<g id="Group_1209" transform="translate(56.734 316.996)">
		<path id="Path_2924" class="st0" d="M11,16.5L11,16.5L0.4,8.7C0.3,8.6,0.3,8.5,0.3,8.4c0,0,0,0,0,0l4.4-6.1C4.8,2.2,5,2.2,5.1,2.3
			c0,0,0.1,0.1,0.1,0.1l6.1,13.8c0.1,0.1,0,0.3-0.1,0.3C11.1,16.6,11,16.6,11,16.5L11,16.5z M0.9,8.5l9.6,7.1L4.9,3L0.9,8.5z"/>
	</g>
	<g id="Group_1210" transform="translate(77.76 303.622)">
		<path id="Path_2925" class="st0" d="M0.4,16.2c-0.1,0-0.1-0.1-0.1-0.2L1.4,2.5c0-0.1,0.1-0.2,0.1-0.2c0.1,0,0.2,0,0.2,0l2.7,2.1
			c0.1,0.1,0.1,0.2,0.1,0.3L0.8,16.1C0.7,16.2,0.6,16.3,0.4,16.2C0.5,16.2,0.4,16.2,0.4,16.2z M1.9,2.9L0.9,14L4,4.7L1.9,2.9z"/>
	</g>
	<g id="Group_1211" transform="translate(77.76 302.236)">
		<path id="Path_2926" class="st0" d="M0.4,17.6c-0.1-0.1-0.1-0.2-0.1-0.3L4.1,5.9c0-0.1,0.1-0.1,0.1-0.2l9.2-3.5
			c0.1,0,0.3,0,0.3,0.1c0,0.1,0,0.2,0,0.2l-13,14.9C0.6,17.6,0.5,17.7,0.4,17.6L0.4,17.6z M4.5,6.2L1.1,16.3L12.7,3L4.5,6.2z"/>
	</g>
	<g id="Group_1212" transform="translate(92.732 304.202)">
		<path id="Path_2927" class="st0" d="M5.1,11.3C5,11.2,5,11.2,5.1,11.3L0.3,4.6c0-0.1-0.1-0.2,0-0.2c0-0.1,0.1-0.1,0.2-0.1l10.3-2
			c0.1,0,0.3,0.1,0.3,0.2c0,0.1,0,0.1,0,0.2l-5.7,8.6c0,0.1-0.1,0.1-0.2,0.1C5.1,11.3,5.1,11.3,5.1,11.3z M1,4.6l4.2,6l5.1-7.8
			L1,4.6z"/>
	</g>
	<g id="Group_1213" transform="translate(77.759 302.235)">
		<path id="Path_2928" class="st0" d="M0.4,17.6c0,0-0.1-0.1-0.1-0.1c0-0.1,0-0.2,0-0.3l13-14.9c0.1-0.1,0.2-0.1,0.3-0.1
			c0.1,0,0.2,0.2,0.1,0.3l-2.7,15.2c0,0.1-0.1,0.2-0.2,0.2L0.5,17.6C0.5,17.6,0.4,17.6,0.4,17.6z M13.2,3.3L1.1,17.2l9.6,0.3
			L13.2,3.3z"/>
	</g>
	<g id="Group_1214" transform="translate(113.05 311.4)">
		<path id="Path_2929" class="st0" d="M1.7,11.6c-0.1,0-0.1-0.1-0.1-0.2l-1.3-9c0-0.1,0.1-0.3,0.2-0.3c0.1,0,0.2,0,0.2,0.1l8.3,10.9
			c0.1,0.1,0.1,0.3,0,0.3c-0.1,0-0.1,0.1-0.2,0L1.7,11.6C1.7,11.7,1.7,11.7,1.7,11.6z M0.9,3.4L2,11.3L8.2,13L0.9,3.4z"/>
	</g>
	<g id="Group_1215" transform="translate(66.028 376.98)">
		<path id="Path_2930" class="st0" d="M5.8,10.8C5.8,10.7,5.8,10.7,5.8,10.8L0.3,3.9c-0.1-0.1-0.1-0.2,0-0.2c0-0.1,0.1-0.1,0.2-0.2
			l9.7-1.2c0.1,0,0.2,0,0.2,0.1c0.1,0.1,0.1,0.2,0,0.3l-4.2,8.1C6.2,10.8,6,10.8,5.8,10.8C5.9,10.8,5.9,10.8,5.8,10.8L5.8,10.8z
			 M1,3.9l4.9,6.2l3.8-7.3L1,3.9z"/>
	</g>
	<g id="Group_1216" transform="translate(84.219 371.383)">
		<path id="Path_2931" class="st0" d="M0.4,14.3c-0.1,0-0.1-0.1-0.1-0.2L0.6,2.5c0-0.1,0.1-0.2,0.3-0.2c0,0,0,0,0.1,0L6,3.7
			c0.1,0,0.2,0.2,0.2,0.3c0,0,0,0,0,0L0.8,14.3C0.7,14.4,0.6,14.4,0.4,14.3C0.4,14.4,0.4,14.4,0.4,14.3z M1,2.8L0.8,13.1l4.7-9
			L1,2.8z"/>
	</g>
	<g id="Group_1217" transform="translate(103.138 371.402)">
		<path id="Path_2932" class="st0" d="M0.4,11.3c0,0-0.1-0.1-0.1-0.1c0-0.1,0-0.2,0.1-0.2l8.1-8.6c0.1-0.1,0.2-0.1,0.3,0
			c0.1,0.1,0.1,0.2,0.1,0.3L5.5,12.6c0,0.1-0.2,0.2-0.3,0.2L0.4,11.3C0.4,11.3,0.4,11.3,0.4,11.3z M8.1,3.5L1,11l4.1,1.3L8.1,3.5z"
			/>
	</g>
	<g id="Group_1218" transform="translate(111.281 355.547)">
		<path id="Path_2933" class="st0" d="M0.4,18.5c-0.1-0.1-0.1-0.1-0.1-0.2L2.6,3.1c0-0.1,0.1-0.2,0.2-0.2L15,2.2
			c0.1,0,0.2,0.1,0.3,0.2c0,0.1,0,0.1-0.1,0.2L0.7,18.5C0.6,18.6,0.5,18.6,0.4,18.5C0.4,18.5,0.4,18.5,0.4,18.5z M3.1,3.3L0.9,17.6
			L14.5,2.7L3.1,3.3z"/>
	</g>
	<g id="Group_1219" transform="translate(103.138 367.628)">
		<path id="Path_2934" class="st0" d="M0.4,15.1c-0.1-0.1-0.1-0.1-0.1-0.2L1.5,2.4c0-0.1,0.1-0.2,0.3-0.2c0,0,0.1,0,0.1,0L8.8,6
			c0.1,0,0.1,0.1,0.1,0.2c0,0.1,0,0.2-0.1,0.2L0.7,15C0.6,15.1,0.5,15.1,0.4,15.1C0.4,15.1,0.4,15.1,0.4,15.1z M2,2.9L0.8,14.2
			l7.4-7.9L2,2.9z"/>
	</g>
	<g id="Group_1220" transform="translate(89.354 372.446)">
		<path id="Path_2935" class="st0" d="M6.4,18.4c0,0-0.1-0.1-0.1-0.1l-6-15.7c0-0.1,0-0.3,0.1-0.3c0.1,0,0.1,0,0.2,0l13.8,7.6
			c0.1,0,0.1,0.1,0.1,0.2c0,0.1,0,0.2-0.1,0.2l-7.8,8.1C6.6,18.4,6.5,18.4,6.4,18.4C6.4,18.4,6.4,18.4,6.4,18.4z M1,3l5.6,14.7
			l7.3-7.6L1,3z"/>
	</g>
	<g id="Group_1221" transform="translate(61.477 365.463)">
		<path id="Path_2936" class="st0" d="M4.9,15.4C4.9,15.4,4.9,15.4,4.9,15.4L0.3,5.7c0-0.1,0-0.1,0-0.2c0-0.1,0.1-0.1,0.2-0.1
			l14.4-3.1c0.1,0,0.2,0,0.3,0.1c0.1,0.1,0,0.2,0,0.3L5.3,15.4c-0.1,0.1-0.1,0.1-0.2,0.1C5,15.5,5,15.5,4.9,15.4z M0.9,5.8l4.2,9
			l9.1-11.9L0.9,5.8z"/>
	</g>
	<g id="Group_1222" transform="translate(75.724 358.003)">
		<path id="Path_2937" class="st0" d="M0.4,21.7c-0.1,0-0.1-0.1-0.1-0.2L0.4,9.9c0-0.1,0-0.2,0.1-0.2l11.4-7.5
			c0.1-0.1,0.3,0,0.3,0.1c0.1,0.1,0.1,0.2,0,0.3l-11.5,19C0.7,21.7,0.6,21.7,0.4,21.7C0.4,21.7,0.4,21.7,0.4,21.7z M0.9,10.1
			L0.8,20.6L11.2,3.3L0.9,10.1z"/>
	</g>
	<g id="Group_1223" transform="translate(67.296 317.152)">
		<path id="Path_2938" class="st0" d="M0.4,16.3c0,0-0.1-0.1-0.1-0.1c0-0.1,0-0.2,0-0.2L10.8,2.3c0.1-0.1,0.2-0.1,0.3,0
			c0,0,0.1,0.1,0.1,0.2l2.7,16.4c0,0.1-0.1,0.3-0.2,0.3c0,0-0.1,0-0.1,0L0.4,16.3C0.5,16.4,0.4,16.4,0.4,16.3z M10.8,3.1L1,16
			l12.4,2.5L10.8,3.1z"/>
	</g>
	<g id="Group_1224" transform="translate(55.102 330.827)">
		<path id="Path_2939" class="st0" d="M5.9,18.7c0,0-0.1-0.1-0.1-0.1L0.3,6.2C0.3,6,0.3,5.9,0.4,5.8c0,0,0,0,0,0l12.2-3.6
			c0.1,0,0.2,0,0.3,0.1C13,2.4,13,2.5,13,2.6l-6.7,16c0,0.1-0.1,0.1-0.2,0.1C6,18.7,6,18.7,5.9,18.7z M0.9,6.2l5.2,11.6l6.2-15
			L0.9,6.2z"/>
	</g>
	<g id="Group_1225" transform="translate(60.638 341.639)">
		<path id="Path_2940" class="st0" d="M8,16.6C8,16.6,8,16.6,8,16.6L0.4,7.8c-0.1-0.1-0.1-0.3,0-0.3c0,0,0,0,0.1,0l14.1-5.2
			c0.1,0,0.3,0,0.3,0.1c0,0.1,0,0.1,0,0.2l-6.4,14C8.4,16.7,8.2,16.7,8,16.6C8.1,16.7,8.1,16.6,8,16.6z M1,7.8L8.1,16l6-13.1L1,7.8z
			"/>
	</g>
	<g id="Group_1226" transform="translate(113.589 343.563)">
		<path id="Path_2941" class="st0" d="M0.4,15.3c-0.1-0.1-0.1-0.2-0.1-0.3c0,0,0,0,0,0L11,2.3c0.1-0.1,0.2-0.1,0.3-0.1
			c0.1,0,0.2,0.1,0.2,0.2l1.6,12c0,0.1,0,0.1-0.1,0.2c0,0.1-0.1,0.1-0.2,0.1L0.5,15.3C0.5,15.3,0.4,15.3,0.4,15.3z M11,3.1L1.1,14.8
			l11.4-0.6L11,3.1z"/>
	</g>
	<g id="Group_1227" transform="translate(114.324 320.377)">
		<path id="Path_2942" class="st0" d="M0.7,17.6c-0.1,0-0.1-0.1-0.1-0.2l-0.3-15c0-0.1,0-0.2,0.1-0.2c0.1,0,0.1-0.1,0.2,0l7.1,2
			c0.1,0,0.1,0.1,0.2,0.1c0,0.1,0,0.1,0,0.2l-6.7,13C1,17.6,0.9,17.7,0.7,17.6C0.8,17.7,0.8,17.7,0.7,17.6z M0.8,2.8l0.3,13.7
			L7.2,4.6L0.8,2.8z"/>
	</g>
	<g id="Group_1228" transform="translate(88.07 312.784)">
		<path id="Path_2943" class="st0" d="M8.6,13.8L8.6,13.8L0.4,7.3C0.3,7.3,0.3,7.2,0.3,7.1C0.3,7,0.3,7,0.4,6.9l9.3-4.7
			c0.1,0,0.2,0,0.2,0c0.1,0.1,0.1,0.1,0.1,0.2L9,13.7c0,0.1-0.1,0.2-0.3,0.2C8.7,13.9,8.6,13.9,8.6,13.8L8.6,13.8z M1,7.2l7.5,6
			l1-10.3L1,7.2z"/>
	</g>
	<g id="Group_1229" transform="translate(68.29 353.565)">
		<path id="Path_2944" class="st0" d="M8,14.4C8,14.4,8,14.4,8,14.4L0.3,4.7c-0.1-0.1-0.1-0.3,0-0.3c0,0,0.1,0,0.1,0l10.8-2
			c0.1,0,0.3,0.1,0.3,0.2c0,0,0,0.1,0,0.1L8.4,14.3C8.4,14.4,8.2,14.5,8,14.4C8.1,14.4,8,14.4,8,14.4L8,14.4z M1,4.7l7.1,9l3-10.9
			L1,4.7z"/>
	</g>
	<g id="Group_1230" transform="translate(102.215 355.165)">
		<path id="Path_2945" class="st0" d="M2.5,15.1c-0.1,0-0.1-0.1-0.1-0.2L0.3,2.5c0-0.1,0.1-0.3,0.2-0.3c0,0,0,0,0.1,0l11.4,1
			c0.1,0,0.2,0.1,0.2,0.3c0,0.1,0,0.1-0.1,0.1L2.9,15.1C2.8,15.2,2.7,15.2,2.5,15.1C2.6,15.2,2.6,15.2,2.5,15.1z M0.8,2.7l2,11.6
			l8.6-10.7L0.8,2.7z"/>
	</g>
	<g id="Group_1231" transform="translate(87.316 357.954)">
		<path id="Path_2946" class="st0" d="M2.4,17.2c-0.1,0-0.1-0.1-0.1-0.2l-2-14.5c0-0.1,0.1-0.3,0.2-0.3c0,0,0.1,0,0.1,0l11.9,2.5
			c0.1,0,0.2,0.1,0.2,0.2c0,0.1,0,0.2,0,0.2l-9.8,12C2.7,17.2,2.6,17.2,2.4,17.2C2.5,17.2,2.5,17.2,2.4,17.2z M0.8,2.8l1.9,13.6
			L12,5.2L0.8,2.8z"/>
	</g>
	<g id="Group_1232" transform="translate(103.067 310.649)">
		<path id="Path_2947" class="st0" d="M0.4,19.7c-0.1-0.1-0.1-0.1-0.1-0.2L2,2.4c0-0.1,0.1-0.2,0.3-0.2c0.1,0,0.1,0,0.2,0.1L12,12
			c0.1,0.1,0.1,0.1,0.1,0.2c0,0.1,0,0.1-0.1,0.2L0.7,19.7C0.6,19.7,0.5,19.7,0.4,19.7L0.4,19.7z M2.4,3L0.8,19l10.6-6.9L2.4,3z"/>
	</g>
	<g id="Group_1233" transform="translate(93.987 323.952)">
		<path id="Path_2948" class="st0" d="M0.4,16.1c-0.1-0.1-0.1-0.1-0.1-0.2L2.6,2.4c0-0.1,0.1-0.2,0.3-0.2c0,0,0.1,0,0.1,0L9.7,6
			c0.1,0,0.1,0.1,0.1,0.2c0,0.1,0,0.1-0.1,0.2l-9.1,9.8C0.6,16.2,0.5,16.2,0.4,16.1C0.4,16.2,0.4,16.2,0.4,16.1z M3,2.8L0.9,15.2
			l8.3-8.9L3,2.8z"/>
	</g>
	<g id="Group_1234" transform="translate(89.052 340.149)">
		<path id="Path_2949" class="st0" d="M0.4,14.3c0,0-0.1-0.1-0.1-0.1c0-0.1,0-0.2,0.1-0.2L12.6,2.3c0.1-0.1,0.2-0.1,0.3,0
			c0.1,0,0.2,0.1,0.2,0.2l1,15c0,0.1-0.1,0.3-0.2,0.3c0,0,0,0-0.1,0L0.4,14.3C0.4,14.3,0.4,14.3,0.4,14.3z M12.5,3L1,14l12.4,3.2
			L12.5,3z"/>
	</g>
	<g id="Group_1235" transform="translate(46.987 350.324)">
		<path id="Path_2950" class="st0" d="M1.4,12.9c-0.1,0-0.1-0.1-0.1-0.2L0.3,2.5c0-0.1,0-0.2,0.1-0.2c0.1,0,0.2,0,0.3,0L8.8,8
			c0.1,0.1,0.1,0.1,0.1,0.2c0,0.1,0,0.2-0.1,0.2l-7.1,4.4C1.6,12.9,1.6,12.9,1.4,12.9C1.5,12.9,1.5,12.9,1.4,12.9z M0.8,3l1,9.2
			l6.4-4L0.8,3z"/>
	</g>
	<g id="Group_1236" transform="translate(48.039 360.501)">
		<path id="Path_2951" class="st0" d="M4.8,9.4C4.8,9.4,4.8,9.4,4.8,9.4L0.3,2.6c-0.1-0.1,0-0.2,0-0.3c0.1-0.1,0.2-0.1,0.3,0
			l5.1,4.6C5.8,6.9,5.9,7,5.8,7.1L5.2,9.3C5.2,9.4,5.1,9.5,4.8,9.4C4.9,9.4,4.9,9.4,4.8,9.4L4.8,9.4z M1.8,4l3.1,4.6l0.4-1.5L1.8,4z
			"/>
	</g>
	<g id="Group_1237" transform="translate(105.587 335.342)">
		<path id="Path_2952" class="st0" d="M0.4,7.8C0.3,7.7,0.3,7.5,0.3,7.4c0,0,0-0.1,0.1-0.1l9.1-5.1c0.1,0,0.2,0,0.2,0
			c0.1,0,0.1,0.1,0.1,0.2l1.6,9.7c0,0.1-0.1,0.3-0.2,0.3c0,0-0.1,0-0.1,0L0.4,7.8C0.4,7.8,0.4,7.8,0.4,7.8z M9.4,2.9L1.1,7.5
			l9.8,4.3L9.4,2.9z"/>
	</g>
	<g id="Group_1238" transform="translate(133.159 311.445)">
		<path id="Path_2953" class="st0" d="M5.1,14.2c0,0-0.1-0.1-0.1-0.1L0.3,2.6c-0.1-0.1,0-0.3,0.1-0.3c0.1,0,0.2,0,0.3,0.1L7,10.6
			c0.1,0.1,0.1,0.2,0,0.3l-1.6,3.3c0,0.1-0.1,0.1-0.2,0.1C5.2,14.3,5.1,14.3,5.1,14.2z M1.5,4.1l3.8,9.4l1.3-2.7L1.5,4.1z"/>
	</g>
	<g id="Group_1239" transform="translate(124.373 297.565)">
		<path id="Path_2954" class="st0" d="M4.3,10C4.2,9.9,4.2,9.9,4.3,10l-4-7.4c-0.1-0.1,0-0.3,0.1-0.3c0.1,0,0.2,0,0.3,0L9,9.5
			c0.1,0.1,0.1,0.2,0,0.3c0,0.1-0.1,0.1-0.2,0.1L4.4,10C4.4,10,4.3,10,4.3,10z M1.4,3.5l3.2,6l3.6-0.1L1.4,3.5z"/>
	</g>
	<g id="Group_1240" transform="translate(133.699 336.62)">
		<path id="Path_2955" class="st0" d="M0.4,14.8c-0.1-0.1-0.1-0.1-0.1-0.2l2-12.2c0-0.1,0.1-0.2,0.3-0.2c0.1,0,0.2,0.1,0.2,0.2
			l1.3,5.5c0,0.1,0,0.1,0,0.2l-3.3,6.7C0.7,14.9,0.6,14.9,0.4,14.8C0.4,14.9,0.4,14.9,0.4,14.8z M2.6,3.7L1,13.1l2.6-5.2L2.6,3.7z"
			/>
	</g>
	<g id="Group_1241" transform="translate(149.676 296.648)">
		<path id="Path_2956" class="st0" d="M2.7,9.1c0,0-0.1-0.1-0.1-0.1L0.3,2.6c0-0.1,0-0.3,0.1-0.3c0.1,0,0.2,0,0.3,0.1L7,8.9
			C7.1,9,7.1,9.1,7,9.2c0,0-0.1,0.1-0.2,0.1l-4-0.2C2.8,9.1,2.7,9.1,2.7,9.1z M1.2,3.5L3,8.6l3.2,0.1L1.2,3.5z"/>
	</g>
	<g id="Group_1242" transform="translate(145.24 334.155)">
		<path id="Path_2957" class="st0" d="M3.1,2.6c0.8,0.6,1,1.7,0.4,2.5C3,5.9,1.9,6.1,1.1,5.5S0,3.8,0.6,3c0,0,0,0,0,0
			C1.2,2.2,2.3,2,3.1,2.6z"/>
	</g>
	<g id="Group_1243" transform="translate(72.188 340.29)">
		<path id="Path_2958" class="st0" d="M3.1,2.6c0.8,0.6,1,1.7,0.4,2.5C3,5.9,1.9,6.1,1.1,5.5C0.2,4.9,0,3.8,0.6,3c0,0,0,0,0,0
			C1.2,2.2,2.3,2,3.1,2.6C3.1,2.6,3.1,2.6,3.1,2.6z"/>
	</g>
	<g id="Group_1244" transform="translate(95.08 322.348)">
		<path id="Path_2959" class="st0" d="M3.1,2.6c0.8,0.6,1,1.7,0.4,2.5C3,5.9,1.9,6.1,1.1,5.5C0.2,4.9,0,3.8,0.6,3c0,0,0,0,0,0
			C1.2,2.2,2.3,2,3.1,2.6z"/>
	</g>
	<g id="Group_1245" transform="translate(66.999 375.748)">
		<path id="Path_2960" class="st0" d="M3.1,2.6c0.8,0.6,1,1.7,0.4,2.5C3,5.9,1.9,6.1,1.1,5.5C0.2,4.9,0,3.8,0.6,3c0,0,0,0,0,0
			C1.2,2.2,2.3,2,3.1,2.6C3.1,2.6,3.1,2.6,3.1,2.6z"/>
	</g>
	<g id="Group_1246" transform="translate(99.336 339.175)">
		<path id="Path_2961" class="st0" d="M3.1,2.6c0.8,0.6,1,1.7,0.4,2.5C3,5.9,1.9,6.1,1.1,5.5C0.2,4.9,0,3.8,0.6,3c0,0,0,0,0,0
			C1.2,2.2,2.3,2,3.1,2.6C3.1,2.6,3.1,2.6,3.1,2.6z"/>
	</g>
	<g id="Group_1247" transform="translate(122.58 342.121)">
		<path id="Path_2962" class="st0" d="M3.1,2.6c0.8,0.6,1,1.7,0.4,2.5C3,5.9,1.9,6.1,1.1,5.5C0.2,4.9,0,3.8,0.6,3
			C1.2,2.2,2.3,2,3.1,2.6z"/>
	</g>
	<g id="Group_1248" transform="translate(84.949 376.186)">
		<path id="Path_2963" class="st0" d="M3.1,2.6c0.8,0.6,1,1.7,0.4,2.5C3,5.9,1.9,6.1,1.1,5.5C0.2,4.9,0,3.8,0.6,3c0,0,0,0,0,0
			C1.2,2.2,2.3,2,3.1,2.6z"/>
	</g>
	<g id="Group_1249" transform="translate(62.2 319.664)">
		<path id="Path_2964" class="st0" d="M2.2,2.4c0.5,0.4,0.7,1.1,0.3,1.7S1.3,4.8,0.8,4.4C0.3,4,0.1,3.3,0.5,2.7c0,0,0,0,0,0
			C0.9,2.2,1.6,2.1,2.2,2.4z"/>
	</g>
	<g id="Group_1250" transform="translate(83.246 319.409)">
		<path id="Path_2965" class="st0" d="M1.6,2.4C2,2.6,2.1,3.2,1.8,3.5C1.5,3.9,1,4,0.6,3.7C0.3,3.5,0.2,3,0.4,2.6c0,0,0,0,0,0
			C0.7,2.2,1.2,2.1,1.6,2.4C1.6,2.4,1.6,2.4,1.6,2.4z"/>
	</g>
	<g id="Group_1251" transform="translate(145.238 323.292)">
		<path id="Path_2966" class="st0" d="M1.6,2.4C2,2.6,2.1,3.2,1.8,3.5C1.5,3.9,1,4,0.6,3.7C0.3,3.5,0.2,3,0.4,2.6c0,0,0,0,0,0
			C0.7,2.2,1.2,2.1,1.6,2.4z"/>
	</g>
	<g id="Group_1252" transform="translate(138.399 314.982)">
		<path id="Path_2967" class="st0" d="M1.6,2.4C2,2.6,2.1,3.2,1.8,3.5C1.5,3.9,1,4,0.6,3.7C0.3,3.5,0.2,3,0.4,2.6c0,0,0,0,0,0
			C0.7,2.2,1.2,2.1,1.6,2.4z"/>
	</g>
	<g id="Group_1253" transform="translate(68.858 319.477)">
		<path id="Path_2968" class="st0" d="M1.6,2.4C2,2.6,2.1,3.2,1.8,3.5C1.5,3.9,1,4,0.6,3.7C0.3,3.5,0.2,3,0.4,2.6c0,0,0,0,0,0
			C0.7,2.2,1.2,2.1,1.6,2.4z"/>
	</g>
	<g id="Group_1254" transform="translate(92.314 300.781)">
		<path id="Path_2969" class="st0" d="M1.6,2.4C2,2.6,2.1,3.2,1.8,3.5C1.5,3.9,1,4,0.6,3.7C0.3,3.5,0.2,3,0.4,2.6c0,0,0,0,0,0
			C0.7,2.2,1.2,2.1,1.6,2.4z"/>
	</g>
	<g id="Group_1255" transform="translate(132.571 327.902)">
		<path id="Path_2970" class="st0" d="M1.6,2.4C2,2.6,2.1,3.2,1.8,3.5C1.5,3.9,1,4,0.6,3.7C0.3,3.5,0.2,3,0.4,2.6c0,0,0,0,0,0
			C0.7,2.2,1.2,2.1,1.6,2.4z"/>
	</g>
	<g id="Group_1256" transform="translate(78.974 303.75)">
		<path id="Path_2971" class="st0" d="M1.6,2.4C2,2.6,2.1,3.2,1.8,3.5C1.5,3.9,1,4,0.6,3.7C0.3,3.5,0.2,3,0.4,2.6c0,0,0,0,0,0
			C0.7,2.2,1.2,2.1,1.6,2.4z"/>
	</g>
	<g id="Group_1257" transform="translate(68.147 328.865)">
		<path id="Path_2972" class="st0" d="M1.6,2.4C2,2.6,2.1,3.2,1.8,3.5C1.5,3.9,1,4,0.6,3.7C0.3,3.5,0.2,3,0.4,2.6c0,0,0,0,0,0
			C0.7,2.2,1.2,2.1,1.6,2.4z"/>
	</g>
	<g id="Group_1258" transform="translate(57.475 367.456)">
		<path id="Path_2973" class="st0" d="M1.6,2.4C2,2.6,2.1,3.2,1.8,3.5C1.5,3.9,1,4,0.6,3.7C0.3,3.5,0.2,3,0.4,2.6c0,0,0,0,0,0
			C0.7,2.2,1.2,2.1,1.6,2.4z"/>
	</g>
	<g id="Group_1259" transform="translate(51.845 355.256)">
		<path id="Path_2974" class="st0" d="M1.6,2.4C2,2.6,2.1,3.2,1.8,3.5C1.5,3.9,1,4,0.6,3.7C0.3,3.5,0.2,3,0.4,2.6c0,0,0,0,0,0
			C0.7,2.2,1.2,2.1,1.6,2.4z"/>
	</g>
	<g id="Group_1260" transform="translate(56.06 359.254)">
		<path id="Path_2975" class="st0" d="M1.6,2.4C2,2.6,2.1,3.2,1.8,3.5C1.5,3.9,1,4,0.6,3.7C0.3,3.5,0.2,3,0.4,2.6c0,0,0,0,0,0
			C0.7,2.2,1.2,2.1,1.6,2.4z"/>
	</g>
	<g id="Group_1261" transform="translate(52.036 349.25)">
		<path id="Path_2976" class="st0" d="M1.6,2.4C2,2.6,2.1,3.2,1.8,3.5C1.5,3.9,1,4,0.6,3.7C0.3,3.5,0.2,3,0.4,2.6c0,0,0,0,0,0
			C0.7,2.2,1.2,2.1,1.6,2.4z"/>
	</g>
	<g id="Group_1262" transform="translate(74.981 313.559)">
		<path id="Path_2977" class="st0" d="M1.6,2.4C2,2.6,2.1,3.2,1.8,3.5C1.5,3.9,1,4,0.6,3.7C0.3,3.5,0.2,3,0.4,2.6c0,0,0,0,0,0
			C0.7,2.2,1.2,2.1,1.6,2.4z"/>
	</g>
	<g id="Group_1263" transform="translate(71.146 336.159)">
		<path id="Path_2978" class="st0" d="M1.6,2.4C2,2.6,2.1,3.2,1.8,3.5C1.5,3.9,1,4,0.6,3.7C0.3,3.5,0.2,3,0.4,2.6c0,0,0,0,0,0
			C0.7,2.2,1.2,2.1,1.6,2.4z"/>
	</g>
	<g id="Group_1264" transform="translate(59.915 343.353)">
		<path id="Path_2979" class="st0" d="M1.6,2.4C2,2.6,2.1,3.2,1.8,3.5C1.5,3.9,1,4,0.6,3.7C0.3,3.5,0.2,3,0.4,2.6c0,0,0,0,0,0
			C0.7,2.2,1.2,2.1,1.6,2.4z"/>
	</g>
	<g id="Group_1265" transform="translate(74.516 369.456)">
		<path id="Path_2980" class="st0" d="M1.6,2.4C2,2.6,2.1,3.2,1.8,3.5C1.5,3.9,1,4,0.6,3.7C0.3,3.5,0.2,3,0.4,2.6c0,0,0,0,0,0
			C0.7,2.2,1.2,2.1,1.6,2.4z"/>
	</g>
	<g id="Group_1266" transform="translate(92.327 338.613)">
		<path id="Path_2981" class="st0" d="M1.6,2.4C2,2.6,2.1,3.2,1.8,3.5C1.5,3.9,1,4,0.6,3.7C0.3,3.5,0.2,3,0.4,2.6c0,0,0,0,0,0
			C0.7,2.2,1.2,2.1,1.6,2.4z"/>
	</g>
	<g id="Group_1267" transform="translate(106.875 358.085)">
		<path id="Path_2982" class="st0" d="M1.6,2.4C2,2.6,2.1,3.2,1.8,3.5C1.5,3.9,1,4,0.6,3.7C0.3,3.5,0.2,3,0.4,2.6c0,0,0,0,0,0
			C0.7,2.2,1.2,2.1,1.6,2.4z"/>
	</g>
	<g id="Group_1268" transform="translate(95.252 379.837)">
		<path id="Path_2983" class="st0" d="M1.6,2.4C2,2.6,2.1,3.2,1.8,3.5C1.5,3.9,1,4,0.6,3.7C0.3,3.5,0.2,3,0.4,2.6c0,0,0,0,0,0
			C0.7,2.2,1.2,2.1,1.6,2.4z"/>
	</g>
	<g id="Group_1269" transform="translate(99.517 329.909)">
		<path id="Path_2984" class="st0" d="M1.6,2.4C2,2.6,2.1,3.2,1.8,3.5C1.5,3.9,1,4,0.6,3.7C0.3,3.5,0.2,3,0.4,2.6c0,0,0,0,0,0
			C0.7,2.2,1.2,2.1,1.6,2.4C1.6,2.4,1.6,2.4,1.6,2.4z"/>
	</g>
	<g id="Group_1270" transform="translate(109.946 346.508)">
		<path id="Path_2985" class="st0" d="M1.6,2.4C2,2.6,2.1,3.2,1.8,3.5C1.5,3.9,1,4,0.6,3.7C0.3,3.5,0.2,3,0.4,2.6c0,0,0,0,0,0
			C0.7,2.2,1.2,2.1,1.6,2.4z"/>
	</g>
	<g id="Group_1271" transform="translate(76.47 349.473)">
		<path id="Path_2986" class="st0" d="M1.6,2.4C2,2.6,2.1,3.2,1.8,3.5C1.5,3.9,1,4,0.6,3.7C0.3,3.5,0.2,3,0.4,2.6c0,0,0,0,0,0
			C0.7,2.2,1.2,2.1,1.6,2.4z"/>
	</g>
	<g id="Group_1272" transform="translate(130.95 265.375)">
		<path id="Path_2987" class="st0" d="M1.6,2.4C2,2.6,2.1,3.2,1.8,3.5C1.5,3.9,1,4,0.6,3.7C0.3,3.5,0.2,3,0.4,2.6
			C0.7,2.2,1.2,2.1,1.6,2.4C1.6,2.4,1.6,2.4,1.6,2.4z"/>
	</g>
	<g id="Group_1273" transform="translate(132.872 255.004)">
		<path id="Path_2988" class="st0" d="M1.6,2.4C2,2.6,2.1,3.2,1.8,3.5C1.5,3.9,1,4,0.6,3.7C0.3,3.5,0.2,3,0.4,2.6c0,0,0,0,0,0
			C0.7,2.2,1.2,2.1,1.6,2.4z"/>
	</g>
	<g id="Group_1274" transform="translate(127.208 270.661)">
		<path id="Path_2989" class="st0" d="M1.6,2.4C2,2.6,2.1,3.2,1.8,3.5C1.5,3.9,1,4,0.6,3.7C0.3,3.5,0.2,3,0.4,2.6
			C0.7,2.2,1.2,2.1,1.6,2.4C1.6,2.4,1.6,2.4,1.6,2.4z"/>
	</g>
	<g id="Group_1275" transform="translate(139.56 261.769)">
		<path id="Path_2990" class="st0" d="M1.6,2.4C2,2.6,2.1,3.2,1.8,3.5C1.5,3.9,1,4,0.6,3.7C0.3,3.5,0.2,3,0.4,2.6c0,0,0,0,0,0
			C0.7,2.2,1.2,2.1,1.6,2.4z"/>
	</g>
</g>
</svg>
